<?xml version="1.0" encoding="UTF-8" standalone="no"?>
<!DOCTYPE svg PUBLIC "-//W3C//DTD SVG 1.1//EN" "http://www.w3.org/Graphics/SVG/1.1/DTD/svg11.dtd">
<svg xmlns="http://www.w3.org/2000/svg" xmlns:xlink="http://www.w3.org/1999/xlink" version="1.1">
<metadata>
Created by FontForge 20170731 at Sun Oct  4 18:34:51 2020
 By Aleksey,,,
Copyright (c) 2020, Eghtin Studio (Rikki Ahmad Ibrahim)
</metadata>
<defs>
<font id="LovelyMelody" horiz-adv-x="277">
  <font-face font-family="Lovely Melody" font-weight="400" font-stretch="normal" units-per-em="1000" panose-1="2 0 5 3 0 0 0 0 0 0" ascent="750" descent="-250" x-height="293" cap-height="653" bbox="-260 -328 1760 879" underline-thickness="50" underline-position="-150" unicode-range="U+0020-E054"/>
<missing-glyph horiz-adv-x="364" d="M33 0v666h265v-666h-265zM66 33h199v600h-199v-600z"/>
    <glyph glyph-name="a___" unicode="a___" horiz-adv-x="1569" d="M1161 717q75 0 115 -43t40 -116q0 -117 -75.5 -253t-181.5 -242.5t-215 -169.5q45 -44 101.5 -70.5t110.5 -26.5q79 0 156.5 35t133 83.5t104.5 109.5t75.5 104.5t41.5 76.5q3 8 13 8q6 0 10.5 -4.5t4.5 -10.5q0 -1 -2 -7q-27 -56 -61 -110t-85.5 -112.5t-108 -102 t-131 -71.5t-151.5 -28q-61 0 -125 30.5t-114 80.5q-54 -28 -120.5 -43.5t-106.5 -16.5l-40 -2q-155 0 -265 80t-115 228q-45 -121 -99 -121q-30 0 -57 28.5t-27 88.5q0 81 38.5 140t84.5 59q51 0 92 -59q16 -2 33 -12.5t17 -21.5q-18 -55 -18 -110q0 -89 46.5 -152t117 -91 t156.5 -28q131 0 241 56q-81 91 -137 217t-56 239q0 76 36.5 129t103.5 53q87 0 132 -144q13 42 27 78q97 244 260 244zM1161 687q-58 0 -105 -34.5t-75 -86t-46.5 -102t-30 -90.5t-15.5 -44q-2 -12 -15 -12t-15 13q-5 32 -19 70q-38 108 -98 108q-31 0 -55.5 -48.5 t-24.5 -107.5q0 -101 45.5 -231.5t114.5 -205.5q162 91 297.5 284.5t135.5 357.5q0 49 -23.5 89t-70.5 40zM180 248q-19 27 -34 27q-33 0 -59.5 -61.5t-26.5 -116.5q0 -50 24 -50q33 0 96 201z"/>
    <glyph glyph-name="b___" unicode="b___" horiz-adv-x="1610" d="M1203 687q-58 0 -105 -34.5t-75 -86t-46.5 -102t-30 -90.5t-15.5 -44q-2 -12 -15 -12t-15 13q-5 32 -19 70q-38 108 -98 108q-31 0 -55.5 -48.5t-24.5 -107.5q0 -101 45.5 -231.5t114.5 -205.5q162 91 297.5 284.5t135.5 357.5q0 49 -23.5 89t-70.5 40zM176 13 q-33 27 -60 27q-29 0 -29 -38q0 -37 30 -37q29 0 59 48zM182 652q47 0 67.5 -24.5t20.5 -61.5q0 -35 -21 -70t-51 -60.5t-60.5 -45.5t-51.5 -30l-21 -10q-8 -68 -8 -135q0 -43 3 -75q50 173 133 173q48 0 73 -39.5t25 -100.5q0 -91 -46 -166q40 -62 141.5 -110t209.5 -52 q131 0 241 56q-81 91 -137 217t-56 239q0 76 36.5 129t103.5 53q87 0 132 -144q13 42 27 78q97 244 260 244q75 0 115 -43t40 -116q0 -117 -75.5 -253t-181.5 -242.5t-215 -169.5q45 -44 101.5 -71t110.5 -27q79 0 156.5 35t133 84t104.5 110t75.5 104.5t41.5 76.5q3 8 13 8 q6 0 10.5 -4.5t4.5 -10.5q0 -1 -2 -7q-27 -56 -61 -110t-85.5 -112.5t-108 -102t-131 -71.5t-151.5 -28q-61 0 -125 30.5t-114 80.5q-119 -62 -267 -62q-122 1 -223 45.5t-156 105.5q-37 -35 -83 -35q-24 0 -40.5 7.5t-23 19.5t-8.5 20.5t-2 15.5q0 38 19.5 56.5t51.5 18.5 q36 0 69 -18q37 84 37 158q0 70 -39 70q-32 0 -62.5 -55t-45.5 -111l-14 -55q0 -12 -35 -14q-18 0 -23.5 1.5t-7.5 9.5q-20 54 -20 174q0 66 11 135.5t33 135.5t62 108.5t90 42.5zM211 620q-26 0 -50 -24.5t-40 -59.5t-28 -70t-17 -60l-6 -24q7 4 18.5 10.5t40.5 28.5 t51 44.5t40.5 56t18.5 65.5q0 33 -28 33z"/>
    <glyph glyph-name="c___" unicode="c___" horiz-adv-x="1401" d="M112 315q34 0 54.5 -24t20.5 -53q0 -39 -33 -39q-7 0 -11 2.5t-5 4.5l-1 3q12 27 12 46q0 20 -16 20h-1q-32 0 -51.5 -54.5t-19.5 -118.5q0 -26 5 -51v-1q24 -93 111 -146.5t198 -58.5h12q131 0 241 56q-81 91 -137 217t-56 239q0 76 36.5 129t103.5 53q87 0 132 -144 q13 42 27 78q97 244 260 244q75 0 115 -43t40 -116q0 -117 -75.5 -253t-181.5 -242.5t-215 -169.5q45 -44 101.5 -70.5t110.5 -26.5q79 0 156.5 35t133 83.5t104.5 109.5t75.5 104.5t41.5 76.5q3 8 13 8q6 0 10.5 -4.5t4.5 -10.5q0 -1 -2 -7q-27 -56 -61 -110t-85.5 -112.5 t-108 -102t-131 -71.5t-151.5 -28q-61 0 -125 30.5t-114 80.5q-119 -62 -267 -62q-160 0 -265.5 65t-127.5 187q-5 25 -5 48q0 74 37 136.5t90 62.5zM994 687q-58 0 -105 -34.5t-75 -86t-46.5 -102t-30 -90.5t-15.5 -44q-2 -12 -15 -12t-15 13q-5 32 -19 70q-38 108 -98 108 q-31 0 -55.5 -48.5t-24.5 -107.5q0 -101 45.5 -231.5t114.5 -205.5q162 91 297.5 284.5t135.5 357.5q0 49 -23.5 89t-70.5 40z"/>
    <glyph glyph-name="d___" unicode="d___" horiz-adv-x="1596" d="M377 652q47 0 67.5 -24.5t20.5 -61.5q0 -41 -28.5 -94.5t-71.5 -101.5t-68.5 -73.5t-41.5 -40.5v-41q0 -66 6 -121q37 -237 309 -249h12q131 0 241 56q-81 91 -137 217t-56 239q0 76 36.5 129t103.5 53q87 0 132 -144q13 42 27 78q97 244 260 244q75 0 115 -43t40 -116 q0 -117 -75.5 -253t-181.5 -242.5t-215 -169.5q45 -44 101.5 -70.5t110.5 -26.5q79 0 156.5 35t133 83.5t104.5 109.5t75.5 104.5t41.5 76.5q3 8 13 8q6 0 10.5 -4.5t4.5 -10.5q0 -1 -2 -7q-27 -56 -61 -110t-85.5 -112.5t-108 -102t-131 -71.5t-151.5 -28q-61 0 -125 30.5 t-114 80.5q-119 -62 -267 -62q-160 0 -263 69.5t-122 196.5q-7 34 -10 81q-48 -160 -112 -160q-30 0 -57 28.5t-27 88.5q0 81 38.5 140t84.5 59q40 0 73 -35q4 65 17.5 126.5t36 117.5t59 90t81.5 34zM406 620h-1q-31 0 -59 -37.5t-46 -91t-29.5 -106t-13.5 -89.5 q177 177 177 291q0 33 -28 33zM181 255q-13 20 -26 20q-34 0 -59.5 -66t-25.5 -123v-1q0 -38 14 -38q32 0 97 204v4zM1189 687q-58 0 -105 -34.5t-75 -86t-46.5 -102t-30 -90.5t-15.5 -44q-2 -12 -15 -12t-15 13q-5 32 -19 70q-38 108 -98 108q-31 0 -55.5 -48.5 t-24.5 -107.5q0 -101 45.5 -231.5t114.5 -205.5q162 91 297.5 284.5t135.5 357.5q0 49 -23.5 89t-70.5 40z"/>
    <glyph glyph-name="e___" unicode="e___" horiz-adv-x="1401" d="M112 315q38 0 57.5 -19t19.5 -47q0 -37 -27.5 -68t-67.5 -31q-17 0 -33 10q-3 -13 -3 -42q0 -126 93 -196.5t225 -76.5h11q131 0 241 56q-81 91 -137 217t-56 239q0 76 36.5 129t103.5 53q87 0 132 -144q13 42 27 78q97 244 260 244q75 0 115 -43t40 -116 q0 -117 -75.5 -253t-181.5 -242.5t-215 -169.5q45 -44 101.5 -70.5t110.5 -26.5q79 0 156.5 35t133 83.5t104.5 109.5t75.5 104.5t41.5 76.5q3 8 13 8q6 0 10.5 -4.5t4.5 -10.5q0 -1 -2 -7q-27 -56 -61 -110t-85.5 -112.5t-108 -102t-131 -71.5t-151.5 -28q-61 0 -125 30.5 t-114 80.5q-119 -62 -267 -62q-173 0 -285.5 77t-112.5 222q0 74 37 137t90 63zM66 180q3 -1 9 -1q29 0 52 26.5t23 50.5q0 19 -17 19q-21 0 -39 -27t-28 -68zM994 687q-58 0 -105 -34.5t-75 -86t-46.5 -102t-30 -90.5t-15.5 -44q-2 -12 -15 -12t-15 13q-5 32 -19 70 q-38 108 -98 108q-31 0 -55.5 -48.5t-24.5 -107.5q0 -101 45.5 -231.5t114.5 -205.5q162 91 297.5 284.5t135.5 357.5q0 49 -23.5 89t-70.5 40z"/>
    <glyph glyph-name="f___" unicode="f___" horiz-adv-x="1577" d="M189 508q-31 0 -58.5 -59.5t-38.5 -118.5l-12 -60q6 3 15 8t32.5 23.5t41.5 39.5t33 54t15 69q0 20 -8 32t-20 12zM177 539q31 0 49 -23t18 -62q0 -38 -17.5 -74.5t-42.5 -61t-49.5 -44t-42.5 -28.5l-17 -9q-2 -15 -4 -63q92 -53 108 -175q75 -66 169 -106.5t181 -46.5 q11 -1 34 -1q131 0 241 56q-81 91 -137 217t-56 239q0 76 36.5 129t103.5 53q87 0 132 -144q13 42 27 78q97 244 260 244q75 0 115 -43t40 -116q0 -117 -75.5 -253t-181.5 -242.5t-215 -169.5q45 -44 101.5 -70.5t110.5 -26.5q79 0 156.5 35t133 83.5t104.5 109.5 t75.5 104.5t41.5 76.5q3 8 13 8q6 0 10.5 -4.5t4.5 -10.5q0 -1 -2 -7q-27 -56 -61 -110t-85.5 -112.5t-108 -102t-131 -71.5t-151.5 -28q-61 0 -125 30.5t-114 80.5q-119 -62 -267 -62q-100 0 -198.5 35.5t-178.5 98.5q-1 -43 -21.5 -70.5t-53.5 -27.5q-40 1 -66 42.5 t-35.5 97.5t-9.5 125q0 67 9.5 136t29.5 135.5t57 108.5t85 42zM70 141v-10q28 -50 70 -95q-19 65 -70 105zM70 65q6 -169 45 -169h1q14 0 24 18t10 44v19q-47 43 -80 88zM1170 687q-58 0 -105 -34.5t-75 -86t-46.5 -102t-30 -90.5t-15.5 -44q-2 -12 -15 -12t-15 13 q-5 32 -19 70q-38 108 -98 108q-31 0 -55.5 -48.5t-24.5 -107.5q0 -101 45.5 -231.5t114.5 -205.5q162 91 297.5 284.5t135.5 357.5q0 49 -23.5 89t-70.5 40z"/>
    <glyph glyph-name="g___" unicode="g___" horiz-adv-x="1528" d="M76 -326q-51 0 -73 34t-22 75q0 50 13 85t34.5 52t43.5 24t48 7q16 0 33 -2.5t25 -4.5l9 -3q11 84 11 165q0 46 -4 98q-7 -30 -16.5 -58t-25 -63.5t-37 -57.5t-44.5 -22q-30 0 -57 28.5t-27 88.5q0 81 38.5 140t84.5 59q43 0 81 -44q6 4 30 6q17 0 23 -2t8 -10 q20 -54 20 -174q0 -88 -19 -179q162 -65 241 -70q4 0 10.5 -0.5t9.5 -0.5q131 0 241 56q-81 91 -137 217t-56 239q0 76 36.5 129t103.5 53q87 0 132 -144q13 42 27 78q97 244 260 244q75 0 115 -43t40 -116q0 -117 -75.5 -253t-181.5 -242.5t-215 -169.5q45 -44 101.5 -70.5 t110.5 -26.5q79 0 156.5 35t133 83.5t104.5 109.5t75.5 104.5t41.5 76.5q3 8 13 8q6 0 10.5 -4.5t4.5 -10.5q0 -1 -2 -7q-27 -56 -61 -110t-85.5 -112.5t-108 -102t-131 -71.5t-151.5 -28q-61 0 -125 30.5t-114 80.5q-119 -62 -267 -62q-102 0 -265 65q-24 -92 -66.5 -149.5 t-102.5 -57.5zM180 248q-19 27 -34 27q-34 0 -60 -61.5t-26 -117.5q0 -49 24 -49q32 0 96 201zM182 -95q-25 10 -55 10q-45 0 -77.5 -33.5t-32.5 -119.5q0 -17 8.5 -37t21.5 -20q26 0 49.5 20.5t38.5 50t26 59t16 49.5zM1121 687q-58 0 -105 -34.5t-75 -86t-46.5 -102 t-30 -90.5t-15.5 -44q-2 -12 -15 -12t-15 13q-5 32 -19 70q-38 108 -98 108q-31 0 -55.5 -48.5t-24.5 -107.5q0 -101 45.5 -231.5t114.5 -205.5q162 91 297.5 284.5t135.5 357.5q0 49 -23.5 89t-70.5 40z"/>
    <glyph glyph-name="h___" unicode="h___" horiz-adv-x="1580" d="M213 311q59 0 59 -74v-11q-16 -91 -16 -159q0 -50 19 -88.5t48 -62.5t70 -40t79.5 -22.5t81.5 -8.5h12q131 0 241 56q-81 91 -137 217t-56 239q0 76 36.5 129t103.5 53q87 0 132 -144q13 42 27 78q97 244 260 244q75 0 115 -43t40 -116q0 -117 -75.5 -253t-181.5 -242.5 t-215 -169.5q45 -44 101.5 -70.5t110.5 -26.5q79 0 156.5 35t133 83.5t104.5 109.5t75.5 104.5t41.5 76.5q3 8 13 8q6 0 10.5 -4.5t4.5 -10.5q0 -1 -2 -7q-27 -56 -61 -110t-85.5 -112.5t-108 -102t-131 -71.5t-151.5 -28q-61 0 -125 30.5t-114 80.5q-119 -62 -267 -62 q-377 0 -377 266q0 38 10 98t10 71q0 14 -6 14q-24 0 -53 -58.5t-46.5 -113t-17.5 -59.5q0 -12 -35 -14q-27 0 -31 12q-7 21 -14 60q-11 57 -11 138q0 66 11 135.5t33 135.5t62 108.5t90 42.5q47 0 67.5 -24.5t20.5 -61.5q0 -35 -21.5 -80t-52.5 -84t-62.5 -73.5 t-52.5 -54.5l-22 -20q-1 -12 -1 -37q0 -45 7 -113q62 207 143 207zM216 620q-32 0 -61.5 -42t-48 -98.5t-29.5 -107.5t-11 -76q7 7 19 18.5t43 46t54.5 68t42.5 78t19 80.5q0 33 -28 33zM1173 687q-58 0 -105 -34.5t-75 -86t-46.5 -102t-30 -90.5t-15.5 -44q-2 -12 -15 -12 t-15 13q-5 32 -19 70q-38 108 -98 108q-31 0 -55.5 -48.5t-24.5 -107.5q0 -101 45.5 -231.5t114.5 -205.5q162 91 297.5 284.5t135.5 357.5q0 49 -23.5 89t-70.5 40z"/>
    <glyph glyph-name="i___" unicode="i___" horiz-adv-x="1401" d="M8 321q0 17 12 29t29 12t29 -12t12 -29t-12 -29t-29 -12t-29 12t-12 29zM994 687q-58 0 -105 -34.5t-75 -86t-46.5 -102t-30 -90.5t-15.5 -44q-2 -12 -15 -12t-15 13q-5 32 -19 70q-38 108 -98 108q-31 0 -55.5 -48.5t-24.5 -107.5q0 -101 45.5 -231.5t114.5 -205.5 q162 91 297.5 284.5t135.5 357.5q0 49 -23.5 89t-70.5 40zM994 717q75 0 115 -43t40 -116q0 -117 -75.5 -253t-181.5 -242.5t-215 -169.5q45 -44 101.5 -70.5t110.5 -26.5q79 0 156.5 35t133 83.5t104.5 109.5t75.5 104.5t41.5 76.5q3 8 13 8q6 0 10.5 -4.5t4.5 -10.5 q0 -1 -2 -7q-27 -56 -61 -110t-85.5 -112.5t-108 -102t-131 -71.5t-151.5 -28q-61 0 -125 30.5t-114 80.5q-119 -62 -267 -62q-178 0 -284 84.5t-106 237.5q0 54 15 115q0 8 11 8q15 0 36 -12t21 -23q-18 -55 -18 -110q0 -83 46.5 -145t117 -92t154.5 -34h11q131 0 241 56 q-81 91 -137 217t-56 239q0 76 36.5 129t103.5 53q87 0 132 -144q13 42 27 78q97 244 260 244z"/>
    <glyph glyph-name="j___" unicode="j___" horiz-adv-x="1333" d="M-13 -95q-25 10 -55 10q-45 0 -77.5 -33.5t-32.5 -119.5q0 -17 8.5 -37t21.5 -20q26 0 49.5 20.5t38.5 50t26 59t16 49.5zM-119 -326q-51 0 -73 34t-22 75q0 50 13 85t35 52t44 24t47 7q17 0 33.5 -2.5t25.5 -4.5l8 -3q11 84 11 165q0 44 -3 84t-6 58l-3 19q0 12 35 14 q17 0 23 -2t8 -10q20 -54 20 -174q0 -88 -19 -179q162 -65 241 -70q3 0 10 -0.5t10 -0.5q131 0 241 56q-81 91 -137 217t-56 239q0 76 36.5 129t103.5 53q87 0 132 -144q13 42 27 78q97 244 260 244q75 0 115 -43t40 -116q0 -117 -75.5 -253t-181.5 -242.5t-215 -169.5 q45 -44 101.5 -70.5t110.5 -26.5q79 0 156.5 35t133 83.5t104.5 109.5t75.5 104.5t41.5 76.5q3 8 13 8q6 0 10.5 -4.5t4.5 -10.5q0 -1 -2 -7q-27 -56 -61 -110t-85.5 -112.5t-108 -102t-131 -71.5t-151.5 -28q-61 0 -125 30.5t-114 80.5q-119 -62 -267 -62q-103 0 -265 65 q-24 -92 -66.5 -149.5t-102.5 -57.5zM-29 342q0 17 12 29t29 12t29 -12t12 -29t-12 -29t-29 -12t-29 12t-12 29zM926 687q-58 0 -105 -34.5t-75 -86t-46.5 -102t-30 -90.5t-15.5 -44q-2 -12 -15 -12t-15 13q-5 32 -19 70q-38 108 -98 108q-31 0 -55.5 -48.5t-24.5 -107.5 q0 -101 45.5 -231.5t114.5 -205.5q162 91 297.5 284.5t135.5 357.5q0 49 -23.5 89t-70.5 40z"/>
    <glyph glyph-name="k___" unicode="k___" horiz-adv-x="1544" d="M110 179q89 43 89 97q0 20 -12 20q-39 0 -77 -117zM187 652q47 0 67.5 -24.5t20.5 -61.5q0 -35 -21.5 -80t-52.5 -84t-62.5 -73.5t-52.5 -54.5l-22 -20q-1 -12 -1 -36q0 -47 6 -101q14 80 43.5 140.5t73.5 60.5q19 0 35.5 -13t16.5 -43q0 -69 -90 -99q27 -4 40.5 -17.5 t13.5 -44.5q0 -56 7 -85q20 -71 113.5 -118.5t196.5 -52.5h11q131 0 241 56q-81 91 -137 217t-56 239q0 76 36.5 129t103.5 53q87 0 132 -144q13 42 27 78q97 244 260 244q75 0 115 -43t40 -116q0 -117 -75.5 -253t-181.5 -242.5t-215 -169.5q45 -44 101.5 -70.5 t110.5 -26.5q79 0 156.5 35t133 83.5t104.5 109.5t75.5 104.5t41.5 76.5q3 8 13 8q6 0 10.5 -4.5t4.5 -10.5q0 -1 -2 -7q-27 -56 -61 -110t-85.5 -112.5t-108 -102t-131 -71.5t-151.5 -28q-61 0 -125 30.5t-114 80.5q-119 -62 -267 -62q-134 0 -229.5 49.5t-134.5 141.5 q-17 38 -23 104l-2.5 10t-11 16.5t-24.5 10.5q-19 -68 -19 -114q0 -12 -35 -14q-27 0 -31 12q-7 21 -14 60q-11 53 -11 133v3q0 66 11 136t33 136.5t62 109t90 42.5zM216 620q-32 0 -62 -41.5t-48 -98t-29 -108t-11 -76.5q7 7 19 18.5t43 46t54.5 68t42.5 78t19 80.5 q0 33 -28 33zM1137 687q-58 0 -105 -34.5t-75 -86t-46.5 -102t-30 -90.5t-15.5 -44q-2 -12 -15 -12t-15 13q-5 32 -19 70q-38 108 -98 108q-31 0 -55.5 -48.5t-24.5 -107.5q0 -101 45.5 -231.5t114.5 -205.5q162 91 297.5 284.5t135.5 357.5q0 49 -23.5 89t-70.5 40z"/>
    <glyph glyph-name="l___" unicode="l___" horiz-adv-x="1410" d="M216 620q-40 0 -75.5 -63.5t-53 -136t-20.5 -124.5q177 177 177 291q0 33 -28 33zM1003 687q-58 0 -105 -34.5t-75 -86t-46.5 -102t-30 -90.5t-15.5 -44q-2 -12 -15 -12t-15 13q-5 32 -19 70q-38 108 -98 108q-31 0 -55.5 -48.5t-24.5 -107.5q0 -101 45.5 -231.5 t114.5 -205.5q162 91 297.5 284.5t135.5 357.5q0 49 -23.5 89t-70.5 40zM1003 717q75 0 115 -43t40 -116q0 -117 -75.5 -253t-181.5 -242.5t-215 -169.5q45 -44 101.5 -70.5t110.5 -26.5q79 0 156.5 35t133 83.5t104.5 109.5t75.5 104.5t41.5 76.5q3 8 13 8q6 0 10.5 -4.5 t4.5 -10.5q0 -1 -2 -7q-27 -56 -61 -110t-85.5 -112.5t-108 -102t-131 -71.5t-151.5 -28q-61 0 -125 30.5t-114 80.5q-119 -62 -267 -62q-209 0 -305 102t-96 329q0 65 12 133.5t34.5 130.5t61.5 101.5t88 39.5q47 0 67.5 -24.5t20.5 -61.5q0 -41 -28.5 -94.5t-71.5 -101.5 t-68.5 -73.5t-41.5 -40.5v-40q0 -183 79 -273.5t241 -97.5h11q131 0 241 56q-81 91 -137 217t-56 239q0 76 36.5 129t103.5 53q87 0 132 -144q13 42 27 78q97 244 260 244z"/>
    <glyph glyph-name="m___" unicode="m___" horiz-adv-x="1651" d="M276 229q40 0 53.5 -25t14.5 -74q0 -15 -6.5 -60t-6.5 -56q0 -51 56 -91t120.5 -57.5t119.5 -20.5h10q131 0 241 56q-81 91 -137 217t-56 239q0 76 36.5 129t103.5 53q87 0 132 -144q13 42 27 78q97 244 260 244q75 0 115 -43t40 -116q0 -117 -75.5 -253t-181.5 -242.5 t-215 -169.5q45 -44 101.5 -70.5t110.5 -26.5q79 0 156.5 35t133 83.5t104.5 109.5t75.5 104.5t41.5 76.5q3 8 13 8q6 0 10.5 -4.5t4.5 -10.5q0 -1 -2 -7q-27 -56 -61 -110t-85.5 -112.5t-108 -102t-131 -71.5t-151.5 -28q-61 0 -125 30.5t-114 80.5q-119 -62 -267 -62 q-65 0 -127 13t-116.5 39t-87.5 71t-33 103q0 29 7.5 80t7.5 61q0 13 -6 13q-5 0 -11.5 -7t-13.5 -18.5t-13.5 -25.5t-12.5 -28t-10.5 -25.5t-7.5 -19.5l-3 -8q0 -11 -29 -11q-32 0 -32 24q10 125 10 181q0 27 -3 27q-15 0 -37 -66.5t-37 -132.5l-14 -66q0 -11 -28 -11 q-8 0 -15 3t-9 6l-3 3q-15 24 -15 101q0 30 3 63.5t7 51.5l3 18q0 11 20 11q16 0 31 -6.5t15 -16.5q-8 -60 -12 -118q46 193 90 193q40 0 52.5 -25.5t12.5 -82.5l-4 -51q31 70 64 70zM1244 687q-58 0 -105 -34.5t-75 -86t-46.5 -102t-30 -90.5t-15.5 -44q-2 -12 -15 -12 t-15 13q-5 32 -19 70q-38 108 -98 108q-31 0 -55.5 -48.5t-24.5 -107.5q0 -101 45.5 -231.5t114.5 -205.5q162 91 297.5 284.5t135.5 357.5q0 49 -23.5 89t-70.5 40z"/>
    <glyph glyph-name="n___" unicode="n___" horiz-adv-x="1561" d="M193 311q34 0 46.5 -23.5t12.5 -49.5l-8 -56q-8 -56 -8 -105q0 -59 27 -104.5t72 -71.5t95 -40t105 -16h12q131 0 241 56q-81 91 -137 217t-56 239q0 76 36.5 129t103.5 53q87 0 132 -144q13 42 27 78q97 244 260 244q75 0 115 -43t40 -116q0 -117 -75.5 -253 t-181.5 -242.5t-215 -169.5q45 -44 101.5 -70.5t110.5 -26.5q79 0 156.5 35t133 83.5t104.5 109.5t75.5 104.5t41.5 76.5q3 8 13 8q6 0 10.5 -4.5t4.5 -10.5q0 -1 -2 -7q-27 -56 -61 -110t-85.5 -112.5t-108 -102t-131 -71.5t-151.5 -28q-61 0 -125 30.5t-114 80.5 q-119 -62 -267 -62q-99 0 -182 27t-139.5 88.5t-56.5 149.5q0 37 9.5 96t9.5 74q0 14 -6 14q-24 0 -52.5 -61.5t-45.5 -122.5l-16 -61q0 -11 -28 -11q-8 0 -15 3t-9 6l-3 3q-15 24 -15 101q0 30 3 63.5t7 51.5l3 18q0 11 21 11q16 0 30.5 -6.5t14.5 -16.5q-8 -57 -12 -113 q53 181 132 181zM1154 687q-58 0 -105 -34.5t-75 -86t-46.5 -102t-30 -90.5t-15.5 -44q-2 -12 -15 -12t-15 13q-5 32 -19 70q-38 108 -98 108q-31 0 -55.5 -48.5t-24.5 -107.5q0 -101 45.5 -231.5t114.5 -205.5q162 91 297.5 284.5t135.5 357.5q0 49 -23.5 89t-70.5 40z"/>
    <glyph glyph-name="o___" unicode="o___" horiz-adv-x="1477" d="M132 -5q64 -70 157.5 -110t173.5 -40q131 0 241 56q-81 91 -137 217t-56 239q0 76 36.5 129t103.5 53q87 0 132 -144q13 42 27 78q97 244 260 244q75 0 115 -43t40 -116q0 -117 -75.5 -253t-181.5 -242.5t-215 -169.5q45 -44 101.5 -70.5t110.5 -26.5q79 0 156.5 35 t133 83.5t104.5 109.5t75.5 104.5t41.5 76.5q3 8 13 8q6 0 10.5 -4.5t4.5 -10.5q0 -1 -2 -7q-27 -56 -61 -110t-85.5 -112.5t-108 -102t-131 -71.5t-151.5 -28q-61 0 -125 30.5t-114 80.5q-119 -62 -267 -62q-105 0 -203.5 42.5t-163.5 116.5q-2 -1 -6 -1t-6 -1h-7 q-34 0 -58.5 32t-29.5 70q-2 22 -2 32q0 38 12 74v8q0 39 31.5 71.5t76.5 32.5q51 0 76 -37t25 -96q0 -51 -19.5 -95.5t-52.5 -69.5zM1070 687q-58 0 -105 -34.5t-75 -86t-46.5 -102t-30 -90.5t-15.5 -44q-2 -12 -15 -12t-15 13q-5 32 -19 70q-38 108 -98 108 q-31 0 -55.5 -48.5t-24.5 -107.5q0 -101 45.5 -231.5t114.5 -205.5q162 91 297.5 284.5t135.5 357.5q0 49 -23.5 89t-70.5 40zM107 22q27 13 43.5 53t16.5 85q0 42 -13.5 72t-39.5 30h-5q-22 -3 -40 -18q26 -15 27 -28q-15 -30 -26 -70q-4 -13 -4 -28q0 -47 41 -96z"/>
    <glyph glyph-name="p___" unicode="p___" horiz-adv-x="1577" d="M191 94q-4 4 -11 4q-13 0 -26.5 -11.5t-13.5 -24.5q0 -11 8 -11q23 0 43 43zM14 279q2 9 19 9q20 0 31 -11.5t11 -20.5l-11 -205q2 11 6 29t17 64t28 81t38.5 64t47.5 29q40 0 61 -33.5t21 -83.5q0 -85 -44 -138q21 -99 109.5 -155.5t204.5 -62.5h10q131 0 241 56 q-81 91 -137 217t-56 239q0 76 36.5 129t103.5 53q87 0 132 -144q13 42 27 78q97 244 260 244q75 0 115 -43t40 -116q0 -117 -75.5 -253t-181.5 -242.5t-215 -169.5q45 -44 101.5 -70.5t110.5 -26.5q79 0 156.5 35t133 83.5t104.5 109.5t75.5 104.5t41.5 76.5q3 8 13 8 q6 0 10.5 -4.5t4.5 -10.5q0 -1 -2 -7q-27 -56 -61 -110t-85.5 -112.5t-108 -102t-131 -71.5t-151.5 -28q-61 0 -125 30.5t-114 80.5q-119 -62 -267 -62q-138 0 -227.5 58t-123.5 163q-18 -10 -36 -10q-21 0 -36.5 9.5t-15.5 28.5q0 31 20.5 50t46.5 19q9 0 17 -3 q16 56 16 106q0 48 -16 48q-30 0 -63.5 -88t-54.5 -198t-21 -181q0 -12 0.5 -28.5t0.5 -32t0.5 -29.5t1.5 -22v-9q0 -25 -29 -25q-38 0 -38 24v1q-11 173 -11 372q0 53 6 105.5t12 78.5zM1170 687q-58 0 -105 -34.5t-75 -86t-46.5 -102t-30 -90.5t-15.5 -44q-2 -12 -15 -12 t-15 13q-5 32 -19 70q-38 108 -98 108q-31 0 -55.5 -48.5t-24.5 -107.5q0 -101 45.5 -231.5t114.5 -205.5q162 91 297.5 284.5t135.5 357.5q0 49 -23.5 89t-70.5 40z"/>
    <glyph glyph-name="q___" unicode="q___" horiz-adv-x="1627" d="M195 289q3 6 32 6q14 0 22.5 -5.5t10 -10t1.5 -8.5v-1q-9 -28 -17 -60t-12 -50l-3 -18l-5 -33q-2 -15 -4 -63q63 -35 91 -108q131 -82 268 -92q11 -1 34 -1q131 0 241 56q-81 91 -137 217t-56 239q0 76 36.5 129t103.5 53q87 0 132 -144q13 42 27 78q97 244 260 244 q75 0 115 -43t40 -116q0 -117 -75.5 -253t-181.5 -242.5t-215 -169.5q45 -44 101.5 -70.5t110.5 -26.5q79 0 156.5 35t133 83.5t104.5 109.5t75.5 104.5t41.5 76.5q3 8 13 8q6 0 10.5 -4.5t4.5 -10.5q0 -1 -2 -7q-27 -56 -61 -110t-85.5 -112.5t-108 -102t-131 -71.5 t-151.5 -28q-61 0 -125 30.5t-114 80.5q-119 -62 -267 -62q-144 0 -284 74q6 -28 6 -64q0 -44 -20.5 -73.5t-54.5 -29.5q-40 1 -66 43t-35.5 98t-9.5 125q0 47 4 87q-37 -73 -78 -73q-30 0 -57 28.5t-27 88.5q0 81 38.5 140t84.5 59q45 0 80 -43q1 2 2.5 6.5t2.5 6.5z M180 248q-19 27 -34 27q-33 0 -59.5 -61.5t-26.5 -116.5q0 -50 24 -50q20 0 48 67t48 134zM219 8q24 -21 35 -30q-18 23 -35 35v-5zM219 -40q2 -192 45 -192h1q14 0 24 18t10 44q0 45 -11 81q-39 24 -69 49zM1220 687q-58 0 -105 -34.5t-75 -86t-46.5 -102t-30 -90.5 t-15.5 -44q-2 -12 -15 -12t-15 13q-5 32 -19 70q-38 108 -98 108q-31 0 -55.5 -48.5t-24.5 -107.5q0 -101 45.5 -231.5t114.5 -205.5q162 91 297.5 284.5t135.5 357.5q0 49 -23.5 89t-70.5 40z"/>
    <glyph glyph-name="r___" unicode="r___" horiz-adv-x="1415" d="M7 362q-4 0 -9 -5.5t-9.5 -18.5t-4.5 -29q0 -23 6 -39.5t12 -21.5l7 -5q12 51 12 86q0 33 -14 33zM-16 399q68 0 68 -82q0 -19 -3.5 -40t-6.5 -33l-4 -12q86 -30 86 -60v-3q-16 -110 -16 -163q0 -38 30.5 -70t77 -50t91.5 -28.5t84 -12.5h10q131 0 241 56 q-81 91 -137 217t-56 239q0 76 36.5 129t103.5 53q87 0 132 -144q13 42 27 78q97 244 260 244q75 0 115 -43t40 -116q0 -117 -75.5 -253t-181.5 -242.5t-215 -169.5q45 -44 101.5 -70.5t110.5 -26.5q79 0 156.5 35t133 83.5t104.5 109.5t75.5 104.5t41.5 76.5q3 8 13 8 q6 0 10.5 -4.5t4.5 -10.5q0 -1 -2 -7q-27 -56 -61 -110t-85.5 -112.5t-108 -102t-131 -71.5t-151.5 -28q-61 0 -125 30.5t-114 80.5q-119 -62 -267 -62q-199 0 -308 98q-46 33 -46 150q0 40 7 98v8q0 5 -1 7q-5 1 -13 3.5t-28.5 13.5t-36.5 25.5t-29 40.5t-13 58q0 39 19 60 t36 21zM1008 687q-58 0 -105 -34.5t-75 -86t-46.5 -102t-30 -90.5t-15.5 -44q-2 -12 -15 -12t-15 13q-5 32 -19 70q-38 108 -98 108q-31 0 -55.5 -48.5t-24.5 -107.5q0 -101 45.5 -231.5t114.5 -205.5q162 91 297.5 284.5t135.5 357.5q0 49 -23.5 89t-70.5 40z"/>
    <glyph glyph-name="s___" unicode="s___" horiz-adv-x="1457" d="M140 273q-8 -3 -20 -8t-31.5 -26.5t-19.5 -47.5q0 -19 40 -81t40 -104q0 -6 -2 -16q39 -66 116.5 -103.5t169.5 -41.5h10q131 0 241 56q-81 91 -137 217t-56 239q0 76 36.5 129t103.5 53q87 0 132 -144q13 42 27 78q97 244 260 244q75 0 115 -43t40 -116 q0 -117 -75.5 -253t-181.5 -242.5t-215 -169.5q45 -44 101.5 -70.5t110.5 -26.5q79 0 156.5 35t133 83.5t104.5 109.5t75.5 104.5t41.5 76.5q3 8 13 8q6 0 10.5 -4.5t4.5 -10.5q0 -1 -2 -7q-27 -56 -61 -110t-85.5 -112.5t-108 -102t-131 -71.5t-151.5 -28q-61 0 -125 30.5 t-114 80.5q-119 -62 -267 -62q-214 0 -310 137q-27 -32 -63 -32q-24 0 -39.5 16t-15.5 48q0 57 45 111q-1 1 -14.5 18.5t-16.5 22.5t-11.5 19.5t-11 26.5t-2.5 25q0 33 15 58t36.5 37t38 18t25.5 6q25 0 25 -51v-3zM73 71q-31 -42 -31 -91q0 -28 15 -28q11 0 21 18.5 t10 49.5q0 26 -15 51zM1050 687q-58 0 -105 -34.5t-75 -86t-46.5 -102t-30 -90.5t-15.5 -44q-2 -12 -15 -12t-15 13q-5 32 -19 70q-38 108 -98 108q-31 0 -55.5 -48.5t-24.5 -107.5q0 -101 45.5 -231.5t114.5 -205.5q162 91 297.5 284.5t135.5 357.5q0 49 -23.5 89t-70.5 40 z"/>
    <glyph glyph-name="t___" unicode="t___" horiz-adv-x="1422" d="M1015 687q-58 0 -105 -34.5t-75 -86t-46.5 -102t-30 -90.5t-15.5 -44q-2 -12 -15 -12t-15 13q-5 32 -19 70q-38 108 -98 108q-31 0 -55.5 -48.5t-24.5 -107.5q0 -101 45.5 -231.5t114.5 -205.5q162 91 297.5 284.5t135.5 357.5q0 49 -23.5 89t-70.5 40zM1015 717 q75 0 115 -43t40 -116q0 -117 -75.5 -253t-181.5 -242.5t-215 -169.5q45 -44 101.5 -70.5t110.5 -26.5q79 0 156.5 35t133 83.5t104.5 109.5t75.5 104.5t41.5 76.5q3 8 13 8q6 0 10.5 -4.5t4.5 -10.5q0 -1 -2 -7q-27 -56 -61 -110t-85.5 -112.5t-108 -102t-131 -71.5 t-151.5 -28q-61 0 -125 30.5t-114 80.5q-119 -62 -267 -62t-252 65.5t-133 178.5q-20 69 -20 165q0 79 7 163l2 27l1 9q-39 9 -76 9q-69 0 -88 -33q-2 -3 -3.5 -8t-3.5 -8t-6 -3q-9 0 -9 15q0 10 9 25q27 42 100 42q34 0 80 -10l14 96q1 11 35 11q15 0 24 -3.5t11.5 -6.5 t2.5 -6q-6 -43 -12 -105l-1 -5q44 -10 80 -10q74 0 97 38q4 7 4 9q0 3 3.5 6.5t5.5 3.5q9 0 9 -15q0 -12 -9 -25q-29 -47 -110 -47q-42 0 -82 10l-2 -16q-10 -116 -10 -182q0 -26 1 -38q5 -155 89 -236t234 -87h12q131 0 241 56q-81 91 -137 217t-56 239q0 76 36.5 129 t103.5 53q87 0 132 -144q13 42 27 78q97 244 260 244z"/>
    <glyph glyph-name="u___" unicode="u___" horiz-adv-x="1584" d="M84 4q-85 0 -85 160q0 31 3.5 64.5t6.5 51.5l3 18q0 11 21 11q17 0 33 -7t16 -17q-17 -100 -17 -173q0 -74 23 -74q27 0 53 61t38 115.5t12 61.5q0 10 12 10q15 0 36 -12t21 -23q-15 -94 -17 -169q0 -66 48 -120t119.5 -83.5t149.5 -33.5h10q131 0 241 56 q-81 91 -137 217t-56 239q0 76 36.5 129t103.5 53q87 0 132 -144q13 42 27 78q97 244 260 244q75 0 115 -43t40 -116q0 -117 -75.5 -253t-181.5 -242.5t-215 -169.5q45 -44 101.5 -70.5t110.5 -26.5q79 0 156.5 35t133 83.5t104.5 109.5t75.5 104.5t41.5 76.5q3 8 13 8 q6 0 10.5 -4.5t4.5 -10.5q0 -1 -2 -7q-27 -56 -61 -110t-85.5 -112.5t-108 -102t-131 -71.5t-151.5 -28q-61 0 -125 30.5t-114 80.5q-119 -62 -267 -62q-92 0 -173.5 28t-139.5 85.5t-71 135.5q-4 24 -4 35q-41 -96 -94 -96zM1177 687q-58 0 -105 -34.5t-75 -86t-46.5 -102 t-30 -90.5t-15.5 -44q-2 -12 -15 -12t-15 13q-5 32 -19 70q-38 108 -98 108q-31 0 -55.5 -48.5t-24.5 -107.5q0 -101 45.5 -231.5t114.5 -205.5q162 91 297.5 284.5t135.5 357.5q0 49 -23.5 89t-70.5 40z"/>
    <glyph glyph-name="v___" unicode="v___" horiz-adv-x="1608" d="M1201 687q-58 0 -105 -34.5t-75 -86t-46.5 -102t-30 -90.5t-15.5 -44q-2 -12 -15 -12t-15 13q-5 32 -19 70q-38 108 -98 108q-31 0 -55.5 -48.5t-24.5 -107.5q0 -101 45.5 -231.5t114.5 -205.5q162 91 297.5 284.5t135.5 357.5q0 49 -23.5 89t-70.5 40zM1201 717 q75 0 115 -43t40 -116q0 -117 -75.5 -253t-181.5 -242.5t-215 -169.5q45 -44 101.5 -70.5t110.5 -26.5q79 0 156.5 35t133 83.5t104.5 109.5t75.5 104.5t41.5 76.5q3 8 13 8q6 0 10.5 -4.5t4.5 -10.5q0 -1 -2 -7q-27 -56 -61 -110t-85.5 -112.5t-108 -102t-131 -71.5 t-151.5 -28q-61 0 -125 30.5t-114 80.5q-119 -62 -267 -62q-112 0 -212 61.5t-161 156.5q-36 -107 -83 -107q-40 0 -69 33t-42.5 74.5t-21.5 98.5t-9 85t-1 54q1 28 5.5 38t17.5 10h15q28 0 35.5 -10.5t7.5 -59.5q0 -109 19 -199.5t42 -90.5q16 0 31 27.5t22 55.5l8 28 q-43 65 -43 153q0 43 14.5 75.5t38.5 32.5q30 0 40.5 -19.5t10.5 -56.5q0 -71 -22 -163q-1 -6 -3 -15q47 -94 142.5 -159.5t196.5 -72.5q4 0 12.5 -0.5t12.5 -0.5q131 0 241 56q-81 91 -137 217t-56 239q0 76 36.5 129t103.5 53q87 0 132 -144q13 42 27 78q97 244 260 244z M213 302q-4 0 -10.5 -8t-12.5 -29.5t-6 -51.5q0 -23 6 -47.5t12 -37.5l5 -14q18 108 18 142q0 46 -9 46h-3z"/>
    <glyph glyph-name="w___" unicode="w___" horiz-adv-x="1733" d="M1326 687q-58 0 -105 -34.5t-75 -86t-46.5 -102t-30 -90.5t-15.5 -44q-2 -12 -15 -12t-15 13q-5 32 -19 70q-38 108 -98 108q-31 0 -55.5 -48.5t-24.5 -107.5q0 -101 45.5 -231.5t114.5 -205.5q162 91 297.5 284.5t135.5 357.5q0 49 -23.5 89t-70.5 40zM1326 717 q75 0 115 -43t40 -116q0 -117 -75.5 -253t-181.5 -242.5t-215 -169.5q45 -44 101.5 -70.5t110.5 -26.5q79 0 156.5 35t133 83.5t104.5 109.5t75.5 104.5t41.5 76.5q3 8 13 8q6 0 10.5 -4.5t4.5 -10.5q0 -1 -2 -7q-27 -56 -61 -110t-85.5 -112.5t-108 -102t-131 -71.5 t-151.5 -28q-61 0 -125 30.5t-114 80.5q-119 -62 -267 -62q-112 0 -212 61.5t-161 156.5q-36 -107 -83 -107q-101 0 -132 195q-4 -45 -18.5 -83.5t-42.5 -38.5h-1q-44 1 -59 65.5t-15 197.5q0 27 4.5 40t9.5 14.5t17 2.5q16 0 26 -5t12 -10l2 -5q-2 -47 -2 -96v-73 q0 -97 12 -97q16 0 27 55.5t14 111.5l3 56v3v12q1 28 5.5 38t17.5 10h15q28 0 35.5 -10.5t7.5 -59.5q0 -109 19 -199.5t42 -90.5q16 0 31 27.5t23 55.5l7 28q-43 65 -43 153q0 43 14.5 75.5t38.5 32.5q30 0 40.5 -19.5t10.5 -56.5q0 -71 -22 -163q-1 -6 -3 -15 q47 -94 142.5 -159.5t196.5 -72.5q4 0 12.5 -0.5t12.5 -0.5q131 0 241 56q-81 91 -137 217t-56 239q0 76 36.5 129t103.5 53q87 0 132 -144q13 42 27 78q97 244 260 244zM338 302q-4 0 -10.5 -8t-12.5 -29.5t-6 -51.5q0 -23 6 -47.5t11 -37.5l6 -14q18 108 18 142 q0 46 -9 46h-3z"/>
    <glyph glyph-name="x___" unicode="x___" horiz-adv-x="1458" d="M171 292q3 3 7 3q7 0 13.5 -6.5t6.5 -11.5q0 -1 -0.5 -1t-0.5 -1l-108 -156q1 -1 1 -4t1 -4q20 -73 58.5 -126t87 -81.5t96.5 -42.5t100 -16h11q131 0 241 56q-81 91 -137 217t-56 239q0 76 36.5 129t103.5 53q87 0 132 -144q13 42 27 78q97 244 260 244q75 0 115 -43 t40 -116q0 -117 -75.5 -253t-181.5 -242.5t-215 -169.5q45 -44 101.5 -70.5t110.5 -26.5q79 0 156.5 35t133 83.5t104.5 109.5t75.5 104.5t41.5 76.5q3 8 13 8q6 0 10.5 -4.5t4.5 -10.5q0 -1 -2 -7q-27 -56 -61 -110t-85.5 -112.5t-108 -102t-131 -71.5t-151.5 -28 q-61 0 -125 30.5t-114 80.5q-119 -62 -267 -62q-137 0 -239.5 58t-155.5 180l-39 -61q-3 -5 -9 -5t-12.5 5t-6.5 11q0 2 2 6l51 78q-14 38 -23.5 84t-12.5 72l-3 27q0 7 8 13t19 6q16 0 26.5 -11.5t12.5 -22.5l3 -12q7 -39 18 -86zM1051 687q-58 0 -105 -34.5t-75 -86 t-46.5 -102t-30 -90.5t-15.5 -44q-2 -12 -15 -12t-15 13q-5 32 -19 70q-38 108 -98 108q-31 0 -55.5 -48.5t-24.5 -107.5q0 -101 45.5 -231.5t114.5 -205.5q162 91 297.5 284.5t135.5 357.5q0 49 -23.5 89t-70.5 40z"/>
    <glyph glyph-name="y___" unicode="y___" horiz-adv-x="1528" d="M84 4q-85 0 -85 161q0 30 3 63.5t6 51.5l3 18q0 8 12 8q16 0 36.5 -12t20.5 -23q-16 -92 -16 -160q0 -73 24 -73q30 0 54.5 57t33.5 115l10 57q0 12 36 14q17 0 22.5 -2t7.5 -10q20 -54 20 -174q0 -88 -19 -179q162 -65 241 -70q4 0 10.5 -0.5t9.5 -0.5q131 0 241 56 q-81 91 -137 217t-56 239q0 76 36.5 129t103.5 53q87 0 132 -144q13 42 27 78q97 244 260 244q75 0 115 -43t40 -116q0 -117 -75.5 -253t-181.5 -242.5t-215 -169.5q45 -44 101.5 -70.5t110.5 -26.5q79 0 156.5 35t133 83.5t104.5 109.5t75.5 104.5t41.5 76.5q3 8 13 8 q6 0 10.5 -4.5t4.5 -10.5q0 -1 -2 -7q-27 -56 -61 -110t-85.5 -112.5t-108 -102t-131 -71.5t-151.5 -28q-61 0 -125 30.5t-114 80.5q-119 -62 -267 -62q-102 0 -265 65q-24 -92 -66.5 -149.5t-102.5 -57.5q-51 0 -72.5 33.5t-21.5 75.5q0 50 13 85t34.5 52t43.5 24t48 7 q16 0 33 -2.5t26 -4.5l8 -3q11 85 11 166q0 32 -1 46q-37 -149 -114 -149zM183 -95q-25 10 -55 10q-45 0 -77.5 -33.5t-32.5 -119.5q0 -18 8 -37.5t21 -19.5q41 0 75 50t48 100zM1121 687q-58 0 -105 -34.5t-75 -86t-46.5 -102t-30 -90.5t-15.5 -44q-2 -12 -15 -12t-15 13 q-5 32 -19 70q-38 108 -98 108q-31 0 -55.5 -48.5t-24.5 -107.5q0 -101 45.5 -231.5t114.5 -205.5q162 91 297.5 284.5t135.5 357.5q0 49 -23.5 89t-70.5 40z"/>
    <glyph glyph-name="z___" unicode="z___" horiz-adv-x="1485" d="M42 17q-13 0 -25.5 8t-12.5 18q18 14 44 37t69.5 75t43.5 83q0 17 -13 17q-7 0 -18.5 -4.5t-27.5 -13.5t-27.5 -16t-30 -19t-24.5 -16q-4 -2 -7 -2q-6 0 -10 4t-4 9q0 3 1 4q16 26 63 60t74 34q33 0 50 -25t17 -57q0 -19 -25 -55t-50 -62l-25 -27q49 -1 73.5 -45 t24.5 -105q167 -68 249 -73q4 0 10.5 -0.5t9.5 -0.5q131 0 241 56q-81 91 -137 217t-56 239q0 76 36.5 129t103.5 53q87 0 132 -144q13 42 27 78q97 244 260 244q75 0 115 -43t40 -116q0 -117 -75.5 -253t-181.5 -242.5t-215 -169.5q45 -44 101.5 -70.5t110.5 -26.5 q79 0 156.5 35t133 83.5t104.5 109.5t75.5 104.5t41.5 76.5q3 8 13 8q6 0 10.5 -4.5t4.5 -10.5q0 -1 -2 -7q-27 -56 -61 -110t-85.5 -112.5t-108 -102t-131 -71.5t-151.5 -28q-61 0 -125 30.5t-114 80.5q-119 -62 -267 -62q-103 0 -273 68q-20 -59 -65 -103.5t-105 -44.5 q-84 0 -84 64q0 55 49.5 103t107.5 48q26 0 47 -10q0 96 -54 96q-7 0 -23 -10t-25 -10zM139 -95q-23 10 -46 10q-48 0 -84.5 -37t-37.5 -73q0 -17 6 -30.5t16 -13.5q40 0 93 53t53 91zM1078 687q-58 0 -105 -34.5t-75 -86t-46.5 -102t-30 -90.5t-15.5 -44q-2 -12 -15 -12 t-15 13q-5 32 -19 70q-38 108 -98 108q-31 0 -55.5 -48.5t-24.5 -107.5q0 -101 45.5 -231.5t114.5 -205.5q162 91 297.5 284.5t135.5 357.5q0 49 -23.5 89t-70.5 40z"/>
    <glyph glyph-name="__a" unicode="__a" horiz-adv-x="1511" d="M1330 248q-19 27 -34 27q-33 0 -59.5 -61.5t-26.5 -116.5q0 -50 24 -50q32 0 96 201zM1260 319q51 0 91 -58q16 -2 34 -13t18 -22q-16 -92 -16 -160q0 -73 24 -73q27 0 52 52.5t37 105.5l11 53q0 8 13 8q17 0 17 -13q-1 -10 -3.5 -26t-13.5 -57.5t-24.5 -73t-37.5 -57.5 t-52 -26h-2q-86 0 -86 158v14q-46 -128 -101 -128q-30 0 -57 28.5t-27 88.5q0 45 18 96q-169 -82 -360 -82q-84 0 -281 57q-6 2 -31.5 9.5t-33 9.5t-31 8.5t-32.5 8.5t-30 7t-32.5 7t-30.5 5t-32.5 4.5t-30 2.5t-32.5 1q-104 0 -171 -49q-5 -3 -9 -3q-6 0 -10.5 4.5 t-4.5 10.5q0 7 6 12q76 55 189 55q18 0 36 -1t38.5 -4t34.5 -4.5t37.5 -7t34 -8t37 -9.5t34 -9t37.5 -10.5t35 -10.5q193 -56 273 -56q42 0 83.5 4t77 12.5t64 16t57 19.5t43.5 18t36 16l20 11q36 58 84 58z"/>
    <glyph glyph-name="__b" unicode="__b" horiz-adv-x="1539" d="M1386 87q-27 -6 -38 -9t-31 -10.5t-28.5 -15t-16 -20.5t-8.5 -30q0 -37 30 -37q25 0 49.5 35t42.5 87zM1359 652q47 0 67.5 -24.5t20.5 -61.5q0 -35 -21.5 -80t-52.5 -84.5t-62.5 -73.5t-52.5 -54l-22 -20q-1 -16 -1 -47q0 -27 2 -65q50 171 133 171q48 0 73 -39.5 t25 -100.5q0 -10 -2 -28q48 22 73 59q0 4 19 4t19 -4q-37 -65 -116 -95q-15 -73 -56 -125t-98 -52q-24 0 -40.5 7.5t-23 19.5t-8.5 20.5t-2 15.5q0 16 2.5 29t9.5 23.5t11.5 18.5t18 15t19.5 11t24.5 10t24 7.5t27.5 7t27 6.5q13 50 13 87q0 70 -39 70q-32 0 -62.5 -55 t-44.5 -111l-15 -55q0 -12 -35 -14q-18 0 -23.5 1.5t-7.5 9.5q-19 51 -20 163q-173 -85 -365 -85q-84 0 -281 57q-6 2 -31.5 9.5t-33 9.5t-31 8.5t-32.5 8.5t-30 7t-32.5 7t-30.5 5t-32.5 4.5t-30 2.5t-32.5 1q-104 0 -171 -49q-4 -3 -9 -3q-6 0 -10.5 4.5t-4.5 10.5 q0 7 6 12q76 55 189 55q18 0 36 -1t38.5 -4t34.5 -4.5t37.5 -7t34 -8t37 -9.5t34 -9t37.5 -10.5t35 -10.5q193 -56 273 -56q190 0 365 89q2 66 14 132t34.5 128t61 100.5t86.5 38.5zM1388 620h-1q-32 0 -61.5 -41.5t-48 -98.5t-29 -108t-10.5 -76q7 7 19 18.5t43 46t54.5 68 t42.5 78t19 80.5q0 33 -28 33z"/>
    <glyph glyph-name="__c" unicode="__c" horiz-adv-x="1420" d="M1240 315q34 0 54.5 -24t20.5 -53q0 -39 -33 -39q-7 0 -11 2.5t-5 4.5l-1 3q12 27 12 46q0 20 -16 20q-32 0 -51.5 -54t-19.5 -118q0 -43 10 -70.5t29 -27.5q29 0 60 20.5t53.5 49.5t41.5 58.5t28 50.5l10 20q0 8 11 8q7 0 13 -3.5t6 -9.5q-3 -9 -9.5 -24.5t-28.5 -54.5 t-45.5 -69t-61 -54.5t-75.5 -24.5q-60 0 -89.5 40.5t-29.5 102.5q0 54 20 103q-174 -84 -362 -84q-84 0 -281 57q-6 2 -31.5 9.5t-33 9.5t-31 8.5t-32.5 8.5t-30 7t-32.5 7t-30.5 5t-32.5 4.5t-30 2.5t-32.5 1q-104 0 -171 -49q-5 -3 -9 -3q-6 0 -10.5 4.5t-4.5 10.5 q0 7 6 12q76 55 189 55q18 0 36 -1t38.5 -4t34.5 -4.5t37.5 -7t34 -8t37 -9.5t34 -9t37.5 -10.5t35 -10.5q193 -56 273 -56q61 0 120.5 9t104 23.5t77 27.5t57.5 25.5l27 13.5q37 52 83 52z"/>
    <glyph glyph-name="__d" unicode="__d" horiz-adv-x="1561" d="M1333 255q-13 20 -26 20q-34 0 -59.5 -66.5t-25.5 -123.5q0 -38 14 -38q21 0 49 68.5t48 135.5v4zM1558 620h-1q-31 0 -59 -37.5t-46 -91t-29.5 -106t-13.5 -89.5q177 177 177 291q0 33 -28 33zM1529 652q47 0 67.5 -24.5t20.5 -61.5q0 -41 -28.5 -94.5t-71.5 -101.5 t-68.5 -73.5t-41.5 -40.5v-34q0 -82 6 -128q14 -91 39 -91q28 0 55 50t41 101l13 50q0 8 13 8q17 0 17 -13q-2 -10 -5.5 -26t-17 -57.5t-29 -73t-41.5 -57.5t-54 -26q-96 4 -109 205q-48 -161 -112 -161q-30 0 -57 28.5t-27 88.5q0 52 18 99q-173 -85 -365 -85 q-84 0 -281 57q-6 2 -31.5 9.5t-33 9.5t-31 8.5t-32.5 8.5t-30 7t-32.5 7t-30.5 5t-32.5 4.5t-30 2.5t-32.5 1q-104 0 -171 -49q-4 -3 -9 -3q-6 0 -10.5 4.5t-4.5 10.5q0 7 6 12q76 55 189 55q18 0 36 -1t38.5 -4t34.5 -4.5t37.5 -7t34 -8t37 -9.5t34 -9t37.5 -10.5 t35 -10.5q193 -56 273 -56q77 0 152.5 15t119 32.5t79.5 35t37 17.5q37 55 82 55q40 0 73 -35q4 65 17.5 126.5t36 117.5t59 90t81.5 34z"/>
    <glyph glyph-name="__e" unicode="__e" horiz-adv-x="1387" d="M1176 180q3 -1 9 -1q29 0 52 27t23 51q0 18 -16 18q-22 0 -40 -27t-28 -68zM1222 315q38 0 57 -18.5t19 -47.5q0 -37 -27 -68t-67 -31q-19 0 -33 9q-6 -32 -6 -63q0 -40 11.5 -65.5t34.5 -25.5q29 0 58 20.5t49.5 49.5t37 58.5t24.5 50.5l8 20q0 8 11 8q7 0 13 -3.5 t6 -9.5q-3 -9 -8 -24.5t-24 -54.5t-41 -69t-57.5 -54.5t-73.5 -24.5q-60 0 -89.5 40.5t-29.5 102.5q0 54 20 103q-174 -84 -363 -84q-84 0 -281 57q-6 2 -31.5 9.5t-33 9.5t-31 8.5t-32.5 8.5t-30 7t-32.5 7t-30.5 5t-32.5 4.5t-30 2.5t-32.5 1q-104 0 -171 -49q-4 -3 -9 -3 q-6 0 -10.5 4.5t-4.5 10.5q0 7 6 12q76 55 189 55q18 0 36 -1t38.5 -4t34.5 -4.5t37.5 -7t34 -8t37 -9.5t34 -9t37.5 -10.5t35 -10.5q193 -56 273 -56q77 0 152 15t118 32.5t79.5 35t37.5 17.5q36 51 83 51z"/>
    <glyph glyph-name="__f" unicode="__f" horiz-adv-x="1410" d="M1234 141v-30q0 -215 45 -215h1q14 0 24 18t10 44q0 120 -80 183zM1341 539q31 0 49 -23t18 -62q0 -38 -17.5 -74.5t-42 -61t-49.5 -44t-43 -28.5l-17 -9q-4 -45 -4 -50q45 -20 80 -20q29 0 53 9.5t34 18.5l9 9q4 6 12 6q10 0 14.5 -3t4.5 -5l-1 -3q-4 -6 -13 -15.5 t-41.5 -25.5t-70.5 -16q-26 0 -43 4q73 -69 73 -192q0 -44 -20.5 -73t-54.5 -29q-40 1 -66 42.5t-35.5 97.5t-9.5 125q0 40 5 95q-169 -78 -350 -78q-84 0 -281 57q-6 2 -31.5 9.5t-33 9.5t-31 8.5t-32.5 8.5t-30 7t-32.5 7t-30.5 5t-32.5 4.5t-30 2.5t-32.5 1 q-104 0 -171 -49q-5 -3 -9 -3q-6 0 -10.5 4.5t-4.5 10.5q0 7 6 12q76 55 189 55q18 0 36 -1t38.5 -4t34.5 -4.5t37.5 -7t34 -8t37 -9.5t34 -9t37.5 -10.5t35 -10.5q193 -56 273 -56q182 0 354 83q10 78 29.5 140t56.5 107t86 45zM1353 508q-31 0 -58.5 -59.5t-38.5 -118.5 l-12 -60q6 3 15 8t32.5 23.5t41.5 39.5t33 54t15 69q0 20 -8 32t-20 12z"/>
    <glyph glyph-name="__g" unicode="__g" horiz-adv-x="1506" d="M1327 -60q-7 -4 -18 -10t-40 -27.5t-51.5 -43.5t-40.5 -55t-18 -65q0 -34 28 -34q41 0 76 58.5t49 117.5zM1320 248q-19 27 -34 27q-33 0 -59.5 -61.5t-26.5 -116.5q0 -50 24 -50q33 0 96 201zM1216 -326q-47 0 -68 24t-21 61q0 35 21 70t51.5 60.5t60.5 46t51 30.5 l21 10q8 68 8 135q0 56 -5 98q-51 -206 -124 -206q-30 0 -57 28.5t-27 88.5q0 51 18 98q-174 -84 -364 -84q-84 0 -281 57q-6 2 -31.5 9.5t-33 9.5t-31 8.5t-32.5 8.5t-30 7t-32.5 7t-30.5 5t-32.5 4.5t-30 2.5t-32.5 1q-104 0 -171 -49q-5 -3 -9 -3q-6 0 -10.5 4.5 t-4.5 10.5q0 7 6 12q76 55 189 55q18 0 36 -1t38.5 -4t34.5 -4.5t37.5 -7t34 -8t37 -9.5t34 -9t37.5 -10.5t35 -10.5q193 -56 273 -56q62 0 121.5 9.5t104 23.5t77 27.5t56.5 25.5t27 13q37 56 83 56q43 0 81 -44q6 4 30 6q17 0 23 -2t8 -10q20 -54 20 -174q0 -22 -4 -76 q40 32 64.5 78.5t29.5 76.5l4 30q0 8 13 8q17 0 17 -13q0 -6 -1 -16t-9 -39.5t-20.5 -56t-39.5 -59t-63 -54.5q-11 -79 -32.5 -143.5t-62 -110.5t-92.5 -46z"/>
    <glyph glyph-name="__h" unicode="__h" horiz-adv-x="1519" d="M1356 620h-1q-32 0 -61.5 -41.5t-48 -98.5t-29 -108t-10.5 -76q7 7 19 18.5t43 46t54.5 68t42.5 78t19 80.5q0 33 -28 33zM1412 236q0 -4 -4 -30.5t-8 -65.5t-4 -74q0 -73 24 -73q27 0 52 52.5t36 105.5l12 53q0 8 13 8q17 0 17 -13q-1 -10 -3.5 -26t-13.5 -57.5 t-24.5 -73t-37.5 -57.5t-52 -26q-94 0 -94 122q0 37 10 98t10 72q0 14 -6 14q-24 0 -53 -57.5t-46 -115.5l-18 -58q0 -12 -35 -14q-27 0 -31 12q-9 26 -16 72q-7 42 -9 111q-170 -81 -356 -81q-84 0 -281 57q-6 2 -31.5 9.5t-33 9.5t-31 8.5t-32.5 8.5t-30 7t-32.5 7 t-30.5 5t-32.5 4.5t-30 2.5t-32.5 1q-104 0 -171 -49q-5 -3 -9 -3q-6 0 -10.5 4.5t-4.5 10.5q0 7 6 12q76 55 189 55q18 0 36 -1t38.5 -4t34.5 -4.5t37.5 -7t34 -8t37 -9.5t34 -9t37.5 -10.5t35 -10.5q193 -56 273 -56q183 0 356 85q2 66 13.5 132.5t34 129t61 102 t87.5 39.5q47 0 67.5 -24.5t20.5 -61.5q0 -35 -21.5 -80t-52.5 -84.5t-62.5 -73.5t-52.5 -54l-22 -20q0 -5 -0.5 -14.5t-0.5 -13.5v-3q0 -66 7 -120q62 208 143 208q59 0 59 -75z"/>
    <glyph glyph-name="__i" unicode="__i" horiz-adv-x="1348" d="M1247 -41h-3q-85 0 -85 160q0 53 8 103q-173 -88 -371 -88q-84 0 -281 57q-6 2 -31.5 9.5t-33 9.5t-31 8.5t-32.5 8.5t-30 7t-32.5 7t-30.5 5t-32.5 4.5t-30 2.5t-32.5 1q-104 0 -171 -49q-4 -3 -9 -3q-6 0 -10.5 4.5t-4.5 10.5q0 7 6 12q76 55 189 55q18 0 36 -1 t38.5 -4t34.5 -4.5t37.5 -7t34 -8t37 -9.5t34 -9t37.5 -10.5t35 -10.5q193 -56 273 -56q65 0 127.5 10.5t106.5 25t78.5 29t54.5 25t22 10.5q6 0 11 -5q16 -4 30 -14t14 -19q-16 -92 -16 -160q0 -73 24 -73q27 0 52 52.5t36 105.5l12 53q0 8 13 8q17 0 17 -13 q-1 -10 -3.5 -26t-13.5 -57.5t-24.5 -73t-37.5 -57.5t-52 -26zM1172 321q0 17 12 29t29 12t29 -12t12 -29t-12 -29t-29 -12t-29 12t-12 29z"/>
    <glyph glyph-name="__j" unicode="__j" horiz-adv-x="1359" d="M1180 -60q-7 -4 -18.5 -10t-40.5 -27.5t-51 -43.5t-40.5 -55t-18.5 -65q0 -34 28 -34q26 0 50 24t40 58.5t28 69.5t17 59zM1068 -326q-47 0 -67.5 24t-20.5 61q0 35 21 70t51 60.5t60.5 46t51.5 30.5l21 10q8 67 8 132q0 64 -9 125q-19 -11 -47 -23.5t-80.5 -31.5 t-122.5 -31.5t-141 -12.5q-84 0 -281 57q-6 2 -31.5 9.5t-33 9.5t-31 8.5t-32.5 8.5t-30 7t-32.5 7t-30.5 5t-32.5 4.5t-30 2.5t-32.5 1q-104 0 -171 -49q-5 -3 -9 -3q-6 0 -10.5 4.5t-4.5 10.5q0 7 6 12q76 55 189 55q18 0 36 -1t38.5 -4t34.5 -4.5t37.5 -7t34 -8t37 -9.5 t34 -9t37.5 -10.5t35 -10.5q193 -56 273 -56q62 0 121 9t104 23.5t76.5 27t57.5 25.5t27 14l-1 4q0 12 36 14q17 0 22.5 -2t7.5 -10q20 -54 20 -174q0 -23 -4 -77q40 32 65 78.5t29 77.5l5 30q0 8 13 8q17 0 17 -13q0 -6 -1 -16t-9 -39.5t-21 -56t-40 -59t-63 -54.5 q-11 -79 -32.5 -143t-62 -110.5t-92.5 -46.5zM1159 342q0 17 12 29t29 12t29 -12t12 -29t-12 -29t-29 -12t-29 12t-12 29z"/>
    <glyph glyph-name="__k" unicode="__k" horiz-adv-x="1487" d="M1273 179q90 43 90 97q0 20 -12 20q-40 0 -78 -117zM1380 620h-1q-32 0 -61.5 -41.5t-48 -98.5t-29 -108t-10.5 -76q7 7 19 18.5t43 46t54.5 68t42.5 78t19 80.5q0 33 -28 33zM1387 -41h-2q-68 0 -82 152l-2.5 10t-11 16.5t-24.5 10.5h-1q-18 -66 -18 -114q0 -12 -35 -14 q-27 0 -31 12q-9 26 -16 72q-9 56 -9 116q-172 -86 -366 -86q-84 0 -281 57q-6 2 -31.5 9.5t-33 9.5t-31 8.5t-32.5 8.5t-30 7t-32.5 7t-30.5 5t-32.5 4.5t-30 2.5t-32.5 1q-104 0 -171 -49q-5 -3 -9 -3q-6 0 -10.5 4.5t-4.5 10.5q0 7 6 12q76 55 189 55q18 0 36 -1t38.5 -4 t34.5 -4.5t37.5 -7t34 -8t37 -9.5t34 -9t37.5 -10.5t35 -10.5q193 -56 273 -56q189 0 366 90q2 65 14 131.5t34.5 128t61 100t86.5 38.5q47 0 67.5 -24.5t20.5 -61.5q0 -35 -21.5 -80t-52.5 -84.5t-62.5 -73.5t-52.5 -54l-22 -20q0 -5 -0.5 -14.5t-0.5 -13.5v-3 q0 -50 6 -108q9 50 22.5 92.5t38.5 76.5t56 34q19 0 35.5 -13t16.5 -43q0 -69 -90 -99q55 -8 55 -52v-12q0 -106 21 -106q27 0 52 52.5t36 105.5l12 53q0 8 13 8q17 0 17 -13q-1 -10 -3.5 -26t-13.5 -57.5t-24.5 -73t-37.5 -57.5t-52 -26z"/>
    <glyph glyph-name="__l" unicode="__l" horiz-adv-x="1413" d="M1410 620h-1q-31 0 -59 -37.5t-46 -91t-29.5 -106t-13.5 -89.5q177 177 177 291q0 33 -28 33zM1381 652q47 0 67.5 -24.5t20.5 -61.5q0 -41 -28.5 -94.5t-71.5 -101.5t-68.5 -73.5t-41.5 -40.5v-34q0 -82 6 -128q14 -91 39 -91q28 0 55 50t41 101l13 50q0 8 13 8 q17 0 17 -13q-2 -10 -5.5 -26t-17 -57.5t-29 -73t-41.5 -57.5t-54 -26q-109 4 -111 261q-172 -86 -366 -86q-84 0 -281 57q-6 2 -31.5 9.5t-33 9.5t-31 8.5t-32.5 8.5t-30 7t-32.5 7t-30.5 5t-32.5 4.5t-30 2.5t-32.5 1q-104 0 -171 -49q-5 -3 -9 -3q-6 0 -10.5 4.5 t-4.5 10.5q0 7 6 12q76 55 189 55q18 0 36 -1t38.5 -4t34.5 -4.5t37.5 -7t34 -8t37 -9.5t34 -9t37.5 -10.5t35 -10.5q193 -56 273 -56q189 0 366 90q2 66 14 132.5t34.5 127.5t61 99.5t86.5 38.5z"/>
    <glyph glyph-name="__m" unicode="__m" horiz-adv-x="1606" d="M1458 229q41 0 54.5 -25t13.5 -74q0 -25 -7 -66.5t-7 -50.5q0 -15 8 -15q16 0 38 51.5t36 102.5l13 52q0 8 13 8q17 0 17 -13q-1 -10 -3.5 -26t-13.5 -57.5t-24.5 -73t-37.5 -57.5t-52 -26q-55 0 -55 82q0 29 7.5 80t7.5 61q0 14 -6 14q-11 0 -29 -33t-31 -66l-12 -33 q0 -5 -9 -8.5t-20 -3.5q-32 0 -32 25q10 125 10 181q0 27 -3 27q-15 0 -37 -66.5t-37 -132.5l-14 -66q0 -11 -28 -11q-8 0 -15 3t-9 6l-3 3q-15 24 -15 101q0 50 8 100q-173 -88 -372 -88q-84 0 -281 57q-6 2 -31.5 9.5t-33 9.5t-31 8.5t-32.5 8.5t-30 7t-32.5 7t-30.5 5 t-32.5 4.5t-30 2.5t-32.5 1q-104 0 -171 -49q-4 -3 -9 -3q-6 0 -10.5 4.5t-4.5 10.5q0 7 6 12q76 55 189 55q18 0 36 -1t38.5 -4t34.5 -4.5t37.5 -7t34 -8t37 -9.5t34 -9t37.5 -10.5t35 -10.5q193 -56 273 -56q33 0 64.5 2.5t60.5 7.5t53.5 10.5t49.5 13.5t42 14t38 15 t29.5 13t24.5 12l16 8q4 6 20 6t30.5 -6.5t14.5 -16.5q-8 -62 -12 -121q47 196 90 196q40 0 52.5 -25.5t12.5 -82.5l-3 -49q31 68 63 68z"/>
    <glyph glyph-name="__n" unicode="__n" horiz-adv-x="1517" d="M1410 237q0 -5 -4 -31t-8 -64t-4 -74q0 -75 24 -75q27 0 51.5 52.5t36.5 105.5l11 53q0 8 13 8q17 0 17 -13q-1 -10 -3.5 -26t-13 -57.5t-24 -73t-37.5 -57.5t-52 -26q-94 0 -94 123q0 37 9.5 97.5t9.5 71.5q0 14 -6 14q-24 0 -52.5 -61.5t-45.5 -122.5l-16 -61 q0 -11 -28 -11q-8 0 -15 3t-9 6l-3 3q-15 24 -15 101q0 50 8 100q-176 -88 -371 -88q-84 0 -281 57q-6 2 -31.5 9.5t-33 9.5t-31 8.5t-32.5 8.5t-30 7t-32.5 7t-30.5 5t-32.5 4.5t-30 2.5t-32.5 1q-104 0 -171 -49q-5 -3 -9 -3q-6 0 -10.5 4.5t-4.5 10.5q0 7 6 12 q76 55 189 55q18 0 36 -1t38.5 -4t34.5 -4.5t37.5 -7t34 -8t37 -9.5t34 -9t37.5 -10.5t35 -10.5q193 -56 273 -56q29 0 58.5 2.5t53.5 5.5t50 9t45 10.5t41.5 12.5t35.5 12.5t31.5 13t25.5 11.5t22 11l14 7q4 7 20 7t30.5 -6.5t14.5 -16.5q-8 -58 -12 -115q53 183 132 183 q59 0 59 -74z"/>
    <glyph glyph-name="__o" unicode="__o" horiz-adv-x="1445" d="M1323 102q-8 -2 -22 -4q-6 -1 -18 -1q-30 0 -58 11q-1 -10 -1 -30q0 -14 1 -21q2 -18 10.5 -28.5t18.5 -10.5h2q47 6 67 84zM1233 244q26 -15 27 -28q-15 -30 -26 -70q22 -19 57 -19q11 0 16 1q4 0 22 5q2 18 2 27q0 12 -2 30q-9 72 -51 72h-5q-22 -3 -40 -18zM1159 181 v8q0 14 4 26q-170 -81 -356 -81q-84 0 -281 57q-6 2 -31.5 9.5t-33 9.5t-31 8.5t-32.5 8.5t-30 7t-32.5 7t-30.5 5t-32.5 4.5t-30 2.5t-32.5 1q-104 0 -171 -49q-5 -3 -9 -3q-6 0 -10.5 4.5t-4.5 10.5q0 7 6 12q76 55 189 55q18 0 36 -1t38.5 -4t34.5 -4.5t37.5 -7t34 -8 t37 -9.5t34 -9t37.5 -10.5t35 -10.5q193 -56 273 -56q51 0 101.5 6.5t88 16t74 22.5t57 22.5t41 20t23.5 11.5q25 25 58 29q6 1 17 1q43 0 68 -28.5t31 -74.5q2 -14 2 -22q0 -3 -0.5 -8.5t-0.5 -8.5q17 11 34.5 25t26.5 23l9 9q3 7 13 8t14.5 -1.5t3.5 -6.5v-3 q-4 -6 -12 -16.5t-35 -34.5t-57 -38q-11 -55 -43 -96t-77 -47h-7q-34 0 -58.5 32t-29.5 70q-2 22 -2 32q0 38 12 74z"/>
    <glyph glyph-name="__p" unicode="__p" horiz-adv-x="1521" d="M1178 279q2 9 19 9q20 0 31 -11.5t11 -20.5l-11 -205q2 11 6 29t17 64t28 81t38.5 64t47.5 29q40 0 61 -34t21 -84v-14l83 22h2q9 0 9 -10q0 -8 -7 -9q-42 -11 -90 -29q-9 -55 -38 -94t-70 -39q-21 0 -36.5 9.5t-15.5 28.5q0 51 91 94q9 40 9 78q0 48 -16 48 q-30 0 -63.5 -88t-54.5 -198t-21 -181l3 -120v-1q0 -25 -29 -25q-38 0 -38 24v1q-11 173 -11 372q0 75 12 151q-172 -86 -367 -86q-84 0 -281 57q-6 2 -31.5 9.5t-33 9.5t-31 8.5t-32.5 8.5t-30 7t-32.5 7t-30.5 5t-32.5 4.5t-30 2.5t-32.5 1q-104 0 -171 -49q-5 -3 -9 -3 q-6 0 -10.5 4.5t-4.5 10.5q0 7 6 12q76 55 189 55q18 0 36 -1t38.5 -4t34.5 -4.5t37.5 -7t34 -8t37 -9.5t34 -9t37.5 -10.5t35 -10.5q193 -56 273 -56q186 0 374 94zM1367 126q-63 -33 -63 -64q0 -11 8 -11q32 0 55 75z"/>
    <glyph glyph-name="__q" unicode="__q" horiz-adv-x="1552" d="M1434 -6q-5 6 -21 19v-12q5 -8 13 -8q5 0 8 1zM1374 248q-19 27 -34 27q-33 0 -59.5 -61.5t-26.5 -116.5q0 -50 24 -50q33 0 96 201zM1389 289q3 6 32 6q14 0 22.5 -5.5t10 -10t1.5 -8.5v-1q-9 -28 -17 -60t-12 -50l-3 -18l-5 -33q-2 -15 -4 -63q27 -16 45 -35 q22 23 45 71t36 85l12 37q0 8 13 8q17 0 17 -13q-4 -17 -11.5 -44t-34 -84.5t-55.5 -85.5q44 -64 44 -159q0 -44 -20.5 -73.5t-54.5 -29.5q-40 1 -66 43t-35.5 98t-9.5 125q0 46 4 86q-36 -72 -78 -72q-30 0 -57 28.5t-27 88.5q0 53 17 98q-174 -84 -362 -84q-84 0 -281 57 q-6 2 -31.5 9.5t-33 9.5t-31 8.5t-32.5 8.5t-30 7t-32.5 7t-30.5 5t-32.5 4.5t-30 2.5t-32.5 1q-104 0 -171 -49q-4 -3 -9 -3q-6 0 -10.5 4.5t-4.5 10.5q0 7 6 12q76 55 189 55q18 0 36 -1t38.5 -4t34.5 -4.5t37.5 -7t34 -8t37 -9.5t34 -9t37.5 -10.5t35 -10.5 q193 -56 273 -56q61 0 119.5 9t103.5 23.5t76 26.5t58 25.5t28 14.5q37 56 83 56q43 0 80 -43q1 2 2.5 6.5t2.5 6.5zM1425 -41h-2q-2 0 -5.5 0.5t-4.5 0.5q2 -192 45 -192h1q14 0 24 18t10 44q0 80 -37 137q-16 -8 -31 -8z"/>
    <glyph glyph-name="__r" unicode="__r" horiz-adv-x="1435" d="M1154 399q68 0 68 -82q0 -19 -3.5 -40t-6.5 -33l-4 -12q86 -30 86 -60q0 -28 -8 -82t-8 -84q0 -71 25 -71q27 0 60 67.5t53 134.5l19 67q0 8 13 8q17 0 17 -13q-3 -12 -7.5 -32t-21 -71.5t-34 -90.5t-45.5 -71t-56 -32h-3q-85 0 -85 160q0 56 7 100q0 14 -1 15 q-15 3 -35 13q-9 -18 -23.5 -34.5t-42.5 -36t-75 -31t-107 -11.5q-65 0 -141.5 21t-160 53t-110.5 40q-6 2 -31.5 9.5t-33 9.5t-31 8.5t-32.5 8.5t-30 7t-32.5 7t-30.5 5t-32.5 4.5t-30 2.5t-32.5 1q-104 0 -171 -49q-5 -3 -9 -3q-6 0 -10.5 4.5t-4.5 10.5q0 7 6 12 q76 55 189 55q18 0 36 -1t38.5 -4t34.5 -4.5t37.5 -7t34 -8t37 -9.5t34 -9t37.5 -10.5t35 -10.5q27 -8 113 -40t160 -52.5t131 -20.5q170 0 228 94q-65 43 -65 117q0 39 19 60t36 21zM1177 362q-4 0 -9 -5.5t-9.5 -18.5t-4.5 -29q0 -23 6 -39.5t12 -21.5l7 -5q12 51 12 86 q0 33 -14 33z"/>
    <glyph glyph-name="__s" unicode="__s" horiz-adv-x="1383" d="M1225 72q-31 -42 -31 -92q0 -28 15 -28q11 0 21 18.5t10 49.5q0 27 -15 52zM1292 273q-8 -3 -20 -8t-31.5 -26.5t-19.5 -47.5q0 -19 25 -58q28 23 63.5 43t56.5 28l22 8q14 0 14 -21q-80 -27 -141 -81q40 -62 40 -104q-1 -38 -26.5 -61.5t-56.5 -23.5q-24 0 -39.5 16 t-15.5 48q0 60 45 112q-4 5 -13 16.5t-13 17t-11 16.5t-10.5 19t-6 19.5t-2.5 22.5v11q-173 -85 -365 -85q-84 0 -281 57q-6 2 -31.5 9.5t-33 9.5t-31 8.5t-32.5 8.5t-30 7t-32.5 7t-30.5 5t-32.5 4.5t-30 2.5t-32.5 1q-104 0 -171 -49q-5 -3 -9 -3q-6 0 -10.5 4.5 t-4.5 10.5q0 7 6 12q76 55 189 55q18 0 36 -1t38.5 -4t34.5 -4.5t37.5 -7t34 -8t37 -9.5t34 -9t37.5 -10.5t35 -10.5q193 -56 273 -56q191 0 376 95q17 34 51.5 51t52.5 17q25 0 25 -51v-3z"/>
    <glyph glyph-name="__t" unicode="__t" horiz-adv-x="1361" d="M1401 471q0 3 3.5 6.5t5.5 3.5q9 0 9 -15q0 -12 -9 -25q-29 -47 -110 -47q-42 0 -83 10q-11 -112 -11 -196q0 -79 11 -142t35 -63q28 0 55 50t41 101l13 50q0 8 13 8q17 0 17 -13q-2 -10 -5.5 -26t-17 -57.5t-29 -73t-41.5 -57.5t-54 -26q-57 2 -83.5 77.5t-27.5 182.5 q-173 -85 -364 -85q-84 0 -281 57q-6 2 -31.5 9.5t-33 9.5t-31 8.5t-32.5 8.5t-30 7t-32.5 7t-30.5 5t-32.5 4.5t-30 2.5t-32.5 1q-104 0 -171 -49q-5 -3 -9 -3q-6 0 -10.5 4.5t-4.5 10.5q0 7 6 12q76 55 189 55q18 0 36 -1t38.5 -4t34.5 -4.5t37.5 -7t34 -8t37 -9.5t34 -9 t37.5 -10.5t35 -10.5q193 -56 273 -56q186 0 364 89q1 55 10 162l1 9q-40 9 -77 9q-69 0 -88 -33q-2 -3 -3.5 -8t-3.5 -8t-6 -3q-9 0 -9 15q0 10 9 25q27 42 100 42q35 0 81 -10l13 96q1 11 35 11h4q34 -1 34 -16q-7 -43 -13 -105v-5q46 -10 80 -10q74 0 97 38q4 7 4 9z"/>
    <glyph glyph-name="__u" unicode="__u" horiz-adv-x="1523" d="M1337 101q-38 -97 -95 -97q-85 0 -85 160q0 32 3 61q-178 -91 -377 -91q-84 0 -281 57q-6 2 -31.5 9.5t-33 9.5t-31 8.5t-32.5 8.5t-30 7t-32.5 7t-30.5 5t-32.5 4.5t-30 2.5t-32.5 1q-104 0 -171 -49q-5 -3 -9 -3q-6 0 -10.5 4.5t-4.5 10.5q0 7 6 12q76 55 189 55 q18 0 36 -1t38.5 -4t34.5 -4.5t37.5 -7t34 -8t37 -9.5t34 -9t37.5 -10.5t35 -10.5q193 -56 273 -56q37 0 74.5 3.5t67 9t61 14t52 15.5t45.5 17t35.5 15t27.5 14l18 9l6 37q0 11 21 11q17 0 33 -7t16 -17q-17 -100 -17 -173q0 -74 23 -74q27 0 52.5 59t37.5 118l13 59l1 4 q0 8 11 8q15 0 36 -12t21 -23q-17 -105 -17 -181q0 -77 23 -77q27 0 52 52.5t36 105.5l12 53q0 8 13 8q17 0 17 -13q-1 -10 -3.5 -26t-13.5 -57.5t-24.5 -73t-38 -57.5t-53.5 -26q-76 0 -84 142z"/>
    <glyph glyph-name="__v" unicode="__v" horiz-adv-x="1536" d="M1196 320h15q28 0 35.5 -10.5t7.5 -59.5q0 -109 19 -199.5t42 -90.5q16 0 33.5 36.5t27.5 73.5l9 36q-2 1 -5.5 3.5t-12.5 12.5t-16 22.5t-12.5 33.5t-5.5 46q0 43 14.5 75.5t38.5 32.5q30 0 40.5 -19.5t10.5 -56.5q0 -20 -4 -54t-8 -58l-4 -25q9 -4 21 -4q49 0 97 82 q5 8 14 8q11 0 11 -10q0 -4 -2 -7q-18 -31 -29 -47t-36.5 -34t-55.5 -18l-26 4q-1 -7 -4 -18t-12 -39.5t-20 -50.5t-28 -40t-35 -18q-41 0 -70 31.5t-43.5 84t-20.5 95.5t-8 89q-175 -93 -381 -93q-84 0 -281 57q-6 2 -31.5 9.5t-33 9.5t-31 8.5t-32.5 8.5t-30 7t-32.5 7 t-30.5 5t-32.5 4.5t-30 2.5t-32.5 1q-104 0 -171 -49q-5 -3 -9 -3q-6 0 -10.5 4.5t-4.5 10.5q0 7 6 12q76 55 189 55q18 0 36 -1t38.5 -4t34.5 -4.5t37.5 -7t34 -8t37 -9.5t34 -9t37.5 -10.5t35 -10.5q193 -56 273 -56q37 0 74 3.5t66.5 8.5t61 14t51.5 15.5t45 17 t35.5 15.5t28.5 14l18 9v11q1 28 5.5 38t17.5 10zM1395 302q-4 0 -10.5 -8t-12.5 -29.5t-6 -51.5q0 -23 6.5 -42t13.5 -27l6 -7q15 87 15 121q0 44 -9 44h-3z"/>
    <glyph glyph-name="__w" unicode="__w" horiz-adv-x="1653" d="M1512 302q-4 0 -10.5 -8t-12.5 -29.5t-6 -51.5q0 -23 6.5 -42t12.5 -27l7 -7q15 87 15 121q0 44 -9 44h-3zM1301 122q-4 -45 -18.5 -83.5t-42.5 -38.5h-1q-41 1 -56.5 57.5t-17.5 169.5q-179 -93 -380 -93q-84 0 -281 57q-6 2 -31.5 9.5t-33 9.5t-31 8.5t-32.5 8.5t-30 7 t-32.5 7t-30.5 5t-32.5 4.5t-30 2.5t-32.5 1q-104 0 -171 -49q-5 -3 -9 -3q-6 0 -10.5 4.5t-4.5 10.5q0 7 6 12q76 55 189 55q18 0 36 -1t38.5 -4t34.5 -4.5t37.5 -7t34 -8t37 -9.5t34 -9t37.5 -10.5t35 -10.5q193 -56 273 -56q33 0 65.5 2.5t61.5 7.5t54.5 11t49.5 14 l42 14t37.5 15t29.5 13.5t24 11.5l16 8v2q0 27 4.5 40t9.5 14.5t17 2.5q16 0 26 -5t12 -10l2 -5q-2 -47 -2 -96v-74q0 -96 12 -96q16 0 27 55.5t14 111.5l3 56v3v12q1 28 5.5 38t17.5 10h15q28 0 35.5 -10.5t7.5 -59.5q0 -109 19 -199.5t42 -90.5q16 0 33.5 36.5t26.5 73.5 l10 36q-2 1 -5.5 3.5t-12.5 12.5t-16 22.5t-12.5 33.5t-5.5 46q0 43 14.5 75.5t38.5 32.5q30 0 40.5 -19.5t10.5 -56.5q0 -20 -4 -54t-8 -58l-4 -25q9 -4 21 -4q49 0 97 82q5 8 14 8q11 0 11 -10q0 -4 -2 -7q-18 -31 -29 -47t-36.5 -34t-55.5 -18l-26 4q-1 -7 -4 -18 t-12 -39.5t-20 -50.5t-28 -40t-35 -18q-101 0 -132 195z"/>
    <glyph glyph-name="__x" unicode="__x" horiz-adv-x="1450" d="M1478 202q-2 -10 -7 -26t-21 -57.5t-33.5 -73.5t-45 -58t-56.5 -26q-63 0 -106 93l-39 -61q-3 -5 -9 -5t-12.5 5t-6.5 11q0 2 2 6l51 78q-22 61 -34 145q-19 -11 -47 -23.5t-80.5 -31.5t-123 -31.5t-141.5 -12.5q-84 0 -281 57q-6 2 -31.5 9.5t-33 9.5t-31 8.5t-32.5 8.5 t-30 7t-32.5 7t-30.5 5t-32.5 4.5t-30 2.5t-32.5 1q-104 0 -171 -49q-5 -3 -9 -3q-6 0 -10.5 4.5t-4.5 10.5q0 7 6 12q76 55 189 55q18 0 36 -1t38.5 -4t34.5 -4.5t37.5 -7t34 -8t37 -9.5t34 -9t37.5 -10.5t35 -10.5q193 -56 273 -56q77 0 152.5 15t119 32.5t79.5 35 t37 17.5l-1 7q0 7 8 13t19 6q16 0 26.5 -11.5t12.5 -22.5l3 -12q7 -39 18 -86l92 134q2 2 6 2q7 0 14 -5t7 -11v-1q-1 -1 -1 -2l-108 -156q34 -125 66 -125q27 0 59 53t51 107l19 53q0 8 13 8q17 0 17 -13z"/>
    <glyph glyph-name="__y" unicode="__y" horiz-adv-x="1525" d="M1346 -60q-7 -4 -18.5 -10t-40.5 -27.5t-51 -43.5t-40.5 -55t-18.5 -65q0 -34 28 -34q26 0 50 24t40 58.5t28 69.5t17 59zM1245 4h-3q-85 0 -85 161q0 31 3 60q-178 -91 -377 -91q-84 0 -281 57q-6 2 -31.5 9.5t-33 9.5t-31 8.5t-32.5 8.5t-30 7t-32.5 7t-30.5 5 t-32.5 4.5t-30 2.5t-32.5 1q-104 0 -171 -49q-5 -3 -9 -3q-6 0 -10.5 4.5t-4.5 10.5q0 7 6 12q76 55 189 55q18 0 36 -1t38.5 -4t34.5 -4.5t37.5 -7t34 -8t37 -9.5t34 -9t37.5 -10.5t35 -10.5q193 -56 273 -56q42 0 83 4t76.5 12.5t64 16t57 19.5t43.5 18t35 16.5t21 10.5 l6 37q0 8 12 8q16 0 36.5 -12t20.5 -23q-16 -92 -16 -160q0 -73 24 -73q30 0 54.5 57t33.5 115l10 57q0 12 36 14q17 0 22.5 -2t7.5 -10q20 -54 20 -174q0 -23 -4 -77q40 32 65 78.5t29 77.5l5 30q0 8 13 8q17 0 17 -13q0 -6 -1 -16t-9 -39.5t-21 -56t-40 -59t-63 -54.5 q-11 -79 -32.5 -143t-62 -110.5t-92.5 -46.5q-47 0 -67.5 24t-20.5 61q0 35 21 70t51 60.5t60.5 46t51.5 30.5l21 10q8 67 8 132q0 35 -1 51q-39 -155 -113 -155z"/>
    <glyph glyph-name="__z" unicode="__z" horiz-adv-x="1361" d="M1236 -38q-179 -98 -179 -157q0 -17 6 -30.5t16 -13.5q40 0 92.5 69.5t64.5 131.5zM1136 19q-2 -2 -8 -2q-13 0 -25.5 8t-12.5 18q18 14 44 37t69.5 75t43.5 83q0 17 -13 17q-17 0 -65 -19t-102.5 -41.5t-136 -41.5t-157.5 -19q-84 0 -281 57q-6 2 -31.5 9.5t-33 9.5 t-31 8.5t-32.5 8.5t-30 7t-32.5 7t-30.5 5t-32.5 4.5t-30 2.5t-32.5 1q-104 0 -171 -49q-5 -3 -9 -3q-6 0 -10.5 4.5t-4.5 10.5q0 7 6 12q76 55 189 55q18 0 36 -1t38.5 -4t34.5 -4.5t37.5 -7t34 -8t37 -9.5t34 -9t37.5 -10.5t35 -10.5q193 -56 273 -56q88 0 167.5 20.5 t125 45t89 45t68.5 20.5q33 0 50 -25t17 -57q0 -19 -25 -55t-50 -62l-25 -27q48 -1 76 -49q40 33 64 79t28 75l4 30q0 8 13 8q17 0 17 -13q0 -5 -1 -14.5t-7.5 -36t-17 -51t-33.5 -55.5t-53 -54q9 -27 9 -58q0 -60 -52 -127t-124 -67h-3q-84 0 -84 70q2 29 27 60.5 t63.5 58.5t65.5 43t54 29q-9 40 -60 40q-7 0 -20.5 -8.5t-18.5 -10.5z"/>
    <glyph glyph-name="a__" unicode="a__" horiz-adv-x="1442" d="M180 248q-19 27 -34 27q-33 0 -59.5 -61.5t-26.5 -116.5q0 -50 24 -50q33 0 96 201zM650 164q80 0 273 56q5 2 35 10.5t37.5 10.5t34 9t37 9.5t34 8t37.5 7t34.5 4.5t38.5 4t36 1q113 0 189 -55q6 -5 6 -12q0 -6 -4.5 -10.5t-10.5 -4.5q-5 0 -9 3q-67 49 -171 49 q-16 0 -32.5 -1t-30 -2.5t-32.5 -4.5t-30.5 -5t-32.5 -7t-30 -7t-32.5 -8.5t-31 -8.5t-33 -9.5t-31.5 -9.5q-197 -57 -281 -57q-135 0 -262 43q-5 -30 -13 -60.5t-23 -69.5t-39 -63.5t-53 -24.5h-3q-85 0 -85 160v12q-46 -128 -101 -128q-30 0 -57 28.5t-27 88.5 q0 81 38.5 140t84.5 59q51 0 92 -59q17 -2 34 -12.5t17 -21.5q-16 -92 -16 -160q0 -73 24 -73q27 0 52 52.5t37 105.5l11 53q0 13 16 9q137 -49 273 -49z"/>
    <glyph glyph-name="b__" unicode="b__" horiz-adv-x="1448" d="M223 87q-27 -6 -38 -9t-31 -10.5t-28.5 -15t-16 -20.5t-8.5 -30q0 -37 30 -37q25 0 49.5 35t42.5 87zM196 652q47 0 67.5 -24.5t20.5 -61.5q0 -35 -21.5 -80t-52.5 -84t-62.5 -73.5t-53.5 -54.5l-21 -20q-1 -16 -1 -47q0 -27 2 -65q50 171 133 171q48 0 73 -39.5 t25 -100.5q0 -10 -2 -28q42 20 63 46q13 16 25 16q9 0 22 -5q120 -38 243 -38q80 0 273 56q5 2 35 10.5t37.5 10.5t34 9t37 9.5t34 8t37.5 7t34.5 4.5t38.5 4t36 1q113 0 189 -55q6 -5 6 -12q0 -6 -4.5 -10.5t-10.5 -4.5q-5 0 -9 3q-67 49 -171 49q-16 0 -32.5 -1t-30 -2.5 t-32.5 -4.5t-30.5 -5t-32.5 -7t-30 -7t-32.5 -8.5t-31 -8.5t-33 -9.5t-31.5 -9.5q-197 -57 -281 -57q-128 0 -261 43q-37 -45 -97 -68q-15 -73 -56 -125t-98 -52q-24 0 -40.5 7.5t-23 19.5t-8.5 20.5t-2 15.5q0 16 2.5 29t9.5 23.5t11.5 18.5t18 15t19.5 11t24.5 10t24 7.5 t27.5 7t27 6.5q13 50 13 87q0 70 -39 70q-32 0 -62.5 -55t-45.5 -111l-14 -55q0 -12 -35 -14q-18 0 -23.5 1.5t-7.5 9.5q-20 54 -20 174q0 66 11 135.5t33 135.5t62 108.5t90 42.5zM225 620h-1q-32 0 -61.5 -41.5t-48 -98.5t-29 -108t-10.5 -76q7 7 19 18.5t43 46t54.5 68 t42.5 78t19 80.5q0 33 -28 33z"/>
    <glyph glyph-name="c__" unicode="c__" horiz-adv-x="1371" d="M306 213q132 -49 273 -49q80 0 273 56q5 2 35 10.5t37.5 10.5t34 9t37 9.5t34 8t37.5 7t34.5 4.5t38.5 4t36 1q113 0 189 -55q6 -5 6 -12q0 -6 -4.5 -10.5t-10.5 -4.5q-4 0 -9 3q-67 49 -171 49q-16 0 -32.5 -1t-30 -2.5t-32.5 -4.5t-30.5 -5t-32.5 -7t-30 -7t-32.5 -8.5 t-31 -8.5t-33 -9.5t-31.5 -9.5q-197 -57 -281 -57q-132 0 -264 44q-13 -29 -29 -57t-43 -65.5t-63.5 -60.5t-75.5 -23q-60 0 -89.5 40.5t-29.5 102.5q0 74 37 137t90 63q34 0 54.5 -24t20.5 -53q0 -39 -33 -39q-7 0 -11 2.5t-5 4.5l-1 3q12 27 12 46q0 20 -16 20 q-32 0 -51.5 -54t-19.5 -118q0 -43 10 -70.5t29 -27.5q29 0 60 20.5t53.5 49.5t41.5 58.5t28 50.5l10 20q3 9 12 9z"/>
    <glyph glyph-name="d__" unicode="d__" horiz-adv-x="1489" d="M377 652q47 0 67.5 -24.5t20.5 -61.5q0 -41 -28.5 -94.5t-71.5 -101.5t-68.5 -73.5t-41.5 -40.5v-34q0 -82 6 -128q14 -91 39 -91q28 0 55 50t41 101l13 50q0 7 9.5 8t14.5 -3q129 -45 264 -45q80 0 273 56q5 2 35 10.5t37.5 10.5t34 9t37 9.5t34 8t37.5 7t34.5 4.5 t38.5 4t36 1q113 0 189 -55q6 -5 6 -12q0 -6 -4.5 -10.5t-10.5 -4.5q-4 0 -9 3q-67 49 -171 49q-16 0 -32.5 -1t-30 -2.5t-32.5 -4.5t-30.5 -5t-32.5 -7t-30 -7t-32.5 -8.5t-31 -8.5t-33 -9.5t-31.5 -9.5q-197 -57 -281 -57q-136 0 -263 43q-7 -30 -17 -60.5t-27.5 -69.5 t-43 -63.5t-54.5 -24.5q-96 4 -109 205q-48 -161 -112 -161q-30 0 -57 28.5t-27 88.5q0 81 38.5 140t84.5 59q40 0 73 -35q4 65 17.5 126.5t36 117.5t59 90t81.5 34zM406 620h-1q-31 0 -59 -37.5t-46 -91t-29.5 -106t-13.5 -89.5q177 177 177 291q0 33 -28 33zM181 255 q-13 20 -26 20q-34 0 -59.5 -66.5t-25.5 -123.5q0 -38 14 -38q21 0 49 68.5t48 135.5v4z"/>
    <glyph glyph-name="e__" unicode="e__" horiz-adv-x="1358" d="M112 315q38 0 57 -18.5t19 -47.5q0 -37 -27 -68t-67 -31q-19 0 -33 9q-6 -31 -6 -63q0 -40 11.5 -65.5t34.5 -25.5q29 0 58 20.5t49.5 49.5t37 58.5t24.5 50.5l8 20q0 13 15 9q137 -49 273 -49q80 0 273 56q5 2 35 10.5t37.5 10.5t34 9t37 9.5t34 8t37.5 7t34.5 4.5 t38.5 4t36 1q113 0 189 -55q6 -5 6 -12q0 -6 -4.5 -10.5t-10.5 -4.5q-5 0 -9 3q-67 49 -171 49q-16 0 -32.5 -1t-30 -2.5t-32.5 -4.5t-30.5 -5t-32.5 -7t-30 -7t-32.5 -8.5t-31 -8.5t-33 -9.5t-31.5 -9.5q-197 -57 -281 -57q-133 0 -265 44q-10 -28 -24.5 -57t-39 -66 t-59.5 -60t-74 -23q-60 0 -89.5 40.5t-29.5 102.5q0 74 37 137t90 63zM66 180q3 -1 9 -1q29 0 52 27t23 51q0 18 -16 18q-22 0 -40 -27t-28 -68z"/>
    <glyph glyph-name="f__" unicode="f__" horiz-adv-x="1323" d="M189 508q-31 0 -58.5 -59.5t-38.5 -118.5l-12 -60q6 3 15 8t32.5 23.5t41.5 39.5t33 54t15 69q0 20 -8 32t-20 12zM258 213q134 -49 273 -49q80 0 273 56q5 2 35 10.5t37.5 10.5t34 9t37 9.5t34 8t37.5 7t34.5 4.5t38.5 4t36 1q113 0 189 -55q6 -5 6 -12q0 -6 -4.5 -10.5 t-10.5 -4.5q-4 0 -9 3q-67 49 -171 49q-16 0 -32.5 -1t-30 -2.5t-32.5 -4.5t-30.5 -5t-32.5 -7t-30 -7t-32.5 -8.5t-31 -8.5t-33 -9.5t-31.5 -9.5q-197 -57 -281 -57q-140 0 -272 46q-42 -38 -107 -38q-26 0 -43 4q73 -69 73 -192q0 -44 -20.5 -73t-54.5 -29q-40 1 -66 42.5 t-35.5 97.5t-9.5 125q0 67 9.5 136t29.5 135.5t57 108.5t85 42q31 0 49 -23t18 -62q0 -38 -17.5 -74.5t-42.5 -61t-49.5 -44t-42.5 -28.5l-17 -9q-4 -45 -4 -50q45 -20 80 -20q29 0 53 9.5t34 18.5l9 9q9 9 11 9zM70 141v-30q0 -215 45 -215h1q14 0 24 18t10 44 q0 120 -80 183z"/>
    <glyph glyph-name="g__" unicode="g__" horiz-adv-x="1448" d="M76 -326q-47 0 -68 24t-21 61q0 35 21 70t51 60.5t60.5 46t51.5 30.5l21 10q8 68 8 135q0 56 -5 98q-51 -206 -124 -206q-30 0 -57 28.5t-27 88.5q0 81 38.5 140t84.5 59q43 0 81 -44q6 4 30 6q17 0 23 -2t8 -10q20 -54 20 -174q0 -22 -4 -76q40 32 64.5 78.5t29.5 76.5 l4 30q0 13 17 9q137 -49 273 -49q80 0 273 56q5 2 35 10.5t37.5 10.5t34 9t37 9.5t34 8t37.5 7t34.5 4.5t38.5 4t36 1q113 0 189 -55q6 -5 6 -12q0 -6 -4.5 -10.5t-10.5 -4.5q-5 0 -9 3q-67 49 -171 49q-16 0 -32.5 -1t-30 -2.5t-32.5 -4.5t-30.5 -5t-32.5 -7t-30 -7 t-32.5 -8.5t-31 -8.5t-33 -9.5t-31.5 -9.5q-197 -57 -281 -57q-135 0 -262 43q-22 -135 -131 -203q-11 -79 -32.5 -143.5t-62 -110.5t-92.5 -46zM180 248q-19 27 -34 27q-33 0 -59.5 -61.5t-26.5 -116.5q0 -50 24 -50q33 0 96 201zM187 -60q-7 -4 -18 -10t-40 -27.5 t-51.5 -43.5t-40.5 -55t-18 -65q0 -34 28 -34q41 0 76 58.5t49 117.5z"/>
    <glyph glyph-name="h__" unicode="h__" horiz-adv-x="1461" d="M272 236q0 -4 -4 -30.5t-8 -65.5t-4 -74q0 -73 24 -73q27 0 52 52.5t36 105.5l12 53q0 13 16 9q137 -49 273 -49q80 0 273 56q5 2 35 10.5t37.5 10.5t34 9t37 9.5t34 8t37.5 7t34.5 4.5t38.5 4t36 1q113 0 189 -55q6 -5 6 -12q0 -6 -4.5 -10.5t-10.5 -4.5q-4 0 -9 3 q-67 49 -171 49q-16 0 -32.5 -1t-30 -2.5t-32.5 -4.5t-30.5 -5t-32.5 -7t-30 -7t-32.5 -8.5t-31 -8.5t-33 -9.5t-31.5 -9.5q-197 -57 -281 -57q-135 0 -262 43q-5 -30 -13 -60.5t-23 -69.5t-39 -63.5t-53 -24.5q-94 0 -94 122q0 37 10 98t10 72q0 14 -6 14q-24 0 -53 -57.5 t-46 -115.5l-18 -58q0 -12 -35 -14q-27 0 -31 12q-9 26 -16 72q-9 58 -9 121v5q0 66 11 135.5t33 135.5t62 108.5t90 42.5q47 0 67.5 -24.5t20.5 -61.5q0 -35 -21.5 -80t-52.5 -84t-62.5 -73.5t-52.5 -54.5l-22 -20q0 -5 -0.5 -14.5t-0.5 -13.5v-3q0 -66 7 -120 q62 208 143 208q59 0 59 -75zM216 620h-1q-32 0 -61.5 -41.5t-48 -98.5t-29 -108t-10.5 -76q7 7 19 18.5t43 46t54.5 68t42.5 78t19 80.5q0 33 -28 33z"/>
    <glyph glyph-name="i__" unicode="i__" horiz-adv-x="1264" d="M6 321q0 17 12 29t29 12t29 -12t12 -29t-12 -29t-29 -12t-29 12t-12 29zM81 -41h-3q-85 0 -85 160q0 31 3.5 64.5t6.5 51.5l3 18q0 8 11 8q15 0 36 -12t21 -23q-16 -92 -16 -160q0 -73 24 -73q27 0 52 52.5t36 105.5l12 53q0 12 17 9q137 -49 273 -49q80 0 273 56 q5 2 35 10.5t37.5 10.5t34 9t37 9.5t34 8t37.5 7t34.5 4.5t38.5 4t36 1q113 0 189 -55q6 -5 6 -12q0 -6 -4.5 -10.5t-10.5 -4.5q-5 0 -9 3q-67 49 -171 49q-16 0 -32.5 -1t-30 -2.5t-32.5 -4.5t-30.5 -5t-32.5 -7t-30 -7t-32.5 -8.5t-31 -8.5t-33 -9.5t-31.5 -9.5 q-197 -57 -281 -57q-133 0 -263 44q-5 -30 -13 -60.5t-23 -70t-39 -64t-53 -24.5z"/>
    <glyph glyph-name="j__" unicode="j__" horiz-adv-x="1255" d="M-29 342q0 17 12 29t29 12t29 -12t12 -29t-12 -29t-29 -12t-29 12t-12 29zM-120 -326q-47 0 -67.5 24t-20.5 61q0 35 21 70t51 60.5t60.5 46t51.5 30.5l21 10q8 67 8 132q0 45 -3.5 84.5t-7.5 57.5l-4 17q0 12 36 14q17 0 22.5 -2t7.5 -10q20 -54 20 -174q0 -23 -4 -77 q40 32 65 78.5t29 77.5l5 30q0 13 19 9q137 -49 273 -49q80 0 273 56q5 2 35 10.5t37.5 10.5t34 9t37 9.5t34 8t37.5 7t34.5 4.5t38.5 4t36 1q113 0 189 -55q6 -5 6 -12q0 -6 -4.5 -10.5t-10.5 -4.5q-4 0 -9 3q-67 49 -171 49q-16 0 -32.5 -1t-30 -2.5t-32.5 -4.5t-30.5 -5 t-32.5 -7t-30 -7t-32.5 -8.5t-31 -8.5t-33 -9.5t-31.5 -9.5q-197 -57 -281 -57q-132 0 -264 44q-22 -136 -132 -204q-11 -79 -32.5 -143t-62 -110.5t-92.5 -46.5zM-8 -60q-7 -4 -18.5 -10t-40.5 -27.5t-51 -43.5t-40.5 -55t-18.5 -65q0 -34 28 -34q26 0 50 24t40 58.5 t28 69.5t17 59z"/>
    <glyph glyph-name="k__" unicode="k__" horiz-adv-x="1406" d="M223 -41h-2q-68 0 -82 152l-2.5 10t-11 16.5t-24.5 10.5h-1q-18 -66 -18 -114q0 -12 -35 -14q-27 0 -31 12q-9 26 -16 72q-9 58 -9 121v5q0 66 11 135.5t33 135.5t62 108.5t90 42.5q47 0 67.5 -24.5t20.5 -61.5q0 -35 -21.5 -80t-52.5 -84t-62.5 -73.5t-52.5 -54.5 l-22 -20q0 -5 -0.5 -14.5t-0.5 -13.5v-3q0 -50 6 -108q9 50 22.5 92.5t38.5 76.5t56 34q19 0 35.5 -13t16.5 -43q0 -69 -90 -99q55 -8 55 -52v-12q0 -106 21 -106q27 0 52 52.5t36 105.5l12 53q0 9 17 9q137 -49 273 -49q80 0 273 56q5 2 35 10.5t37.5 10.5t34 9t37 9.5 t34 8t37.5 7t34.5 4.5t38.5 4t36 1q113 0 189 -55q6 -5 6 -12q0 -6 -4.5 -10.5t-10.5 -4.5q-5 0 -9 3q-67 49 -171 49q-16 0 -32.5 -1t-30 -2.5t-32.5 -4.5t-30.5 -5t-32.5 -7t-30 -7t-32.5 -8.5t-31 -8.5t-33 -9.5t-31.5 -9.5q-197 -57 -281 -57q-133 0 -263 44 q-5 -30 -13 -60.5t-23 -70t-39 -64t-53 -24.5zM216 620h-1q-32 0 -61.5 -41.5t-48 -98.5t-29 -108t-10.5 -76q7 7 19 18.5t43 46t54.5 68t42.5 78t19 80.5q0 33 -28 33zM109 179q90 43 90 97q0 20 -12 20q-40 0 -78 -117z"/>
    <glyph glyph-name="l__" unicode="l__" horiz-adv-x="1299" d="M187 652q47 0 67.5 -24.5t20.5 -61.5q0 -41 -28.5 -94.5t-71.5 -101.5t-68.5 -73.5t-41.5 -40.5v-34q0 -82 6 -128q14 -91 39 -91q28 0 55 50t41 101l13 50q0 7 9.5 8t14.5 -3q129 -45 264 -45q80 0 273 56q5 2 35 10.5t37.5 10.5t34 9t37 9.5t34 8t37.5 7t34.5 4.5 t38.5 4t36 1q113 0 189 -55q6 -5 6 -12q0 -6 -4.5 -10.5t-10.5 -4.5q-4 0 -9 3q-67 49 -171 49q-16 0 -32.5 -1t-30 -2.5t-32.5 -4.5t-30.5 -5t-32.5 -7t-30 -7t-32.5 -8.5t-31 -8.5t-33 -9.5t-31.5 -9.5q-197 -57 -281 -57q-136 0 -263 43q-7 -30 -17 -60.5t-27.5 -69.5 t-43 -63.5t-54.5 -24.5q-111 4 -111 271q0 66 11 136t33 136t62 108t90 42zM216 620h-1q-31 0 -59 -37.5t-46 -91t-29.5 -106t-13.5 -89.5q177 177 177 291q0 33 -28 33z"/>
    <glyph glyph-name="m__" unicode="m__" horiz-adv-x="1506" d="M276 229q41 0 54.5 -25t13.5 -74q0 -25 -7 -66.5t-7 -50.5q0 -15 8 -15q16 0 38 51.5t36 102.5l13 52q0 7 9.5 8t14.5 -3q132 -46 265 -46q76 0 273 57q5 2 35 10.5t37.5 10.5t34 9t37 9.5t34 8t37.5 7t34.5 4.5t38.5 4t36 1q113 0 189 -55q6 -5 6 -12q0 -6 -4.5 -10.5 t-10.5 -4.5t-9 2q-68 50 -171 50q-16 0 -32.5 -1t-30 -2.5t-32.5 -4.5t-30.5 -5t-32.5 -7t-30 -7t-32.5 -8.5t-31 -8.5t-33 -9.5t-31.5 -9.5q-70 -20 -103 -29t-86 -19t-92 -10q-132 0 -262 44q-5 -30 -13 -60.5t-23 -69.5t-39 -63.5t-53 -24.5q-55 0 -55 82q0 29 7.5 80 t7.5 61q0 14 -6 14q-11 0 -29 -33t-31 -66l-12 -33q0 -5 -9 -8.5t-20 -3.5q-32 0 -32 25q10 125 10 181q0 27 -3 27q-15 0 -37 -66.5t-37 -132.5l-14 -66q0 -11 -28 -11q-8 0 -15 3t-9 6l-3 3q-15 24 -15 101q0 30 3 63.5t7 51.5l3 18q0 11 21 11q16 0 30.5 -6.5t14.5 -16.5 q-8 -62 -12 -121q47 196 90 196q40 0 52.5 -25.5t12.5 -82.5l-3 -49q31 68 63 68z"/>
    <glyph glyph-name="n__" unicode="n__" horiz-adv-x="1440" d="M252 237q0 -5 -4 -31t-8 -64t-4 -74q0 -75 24 -75q27 0 51.5 52.5t36.5 105.5l11 53q0 13 16 9q137 -49 273 -49q80 0 273 56q5 2 35 10.5t37.5 10.5t34 9t37 9.5t34 8t37.5 7t34.5 4.5t38.5 4t36 1q113 0 189 -55q6 -5 6 -12q0 -6 -4.5 -10.5t-10.5 -4.5q-5 0 -9 3 q-67 49 -171 49q-16 0 -32.5 -1t-30 -2.5t-32.5 -4.5t-30.5 -5t-32.5 -7t-30 -7t-32.5 -8.5t-31 -8.5t-33 -9.5t-31.5 -9.5q-197 -57 -281 -57q-135 0 -262 43q-5 -30 -13 -60.5t-23 -69.5t-38.5 -63.5t-52.5 -24.5q-94 0 -94 123q0 37 9.5 97.5t9.5 71.5q0 14 -6 14 q-24 0 -52.5 -61.5t-45.5 -122.5l-16 -61q0 -11 -28 -11q-8 0 -15 3t-9 6l-3 3q-15 24 -15 101q0 30 3 63.5t7 51.5l3 18q0 11 21 11q16 0 30.5 -6.5t14.5 -16.5q-8 -58 -12 -115q53 183 132 183q59 0 59 -74z"/>
    <glyph glyph-name="o__" unicode="o__" horiz-adv-x="1341" d="M-5 181v8q0 35 26.5 66.5t64.5 36.5q6 1 17 1q50 0 75 -37t25 -97v-8q33 20 67 54q5 7 23 1q124 -42 256 -42q80 0 273 56q5 2 35 10.5t37.5 10.5t34 9t37 9.5t34 8t37.5 7t34.5 4.5t38.5 4t36 1q113 0 189 -55q6 -5 6 -12q0 -6 -4.5 -10.5t-10.5 -4.5q-4 0 -9 3 q-67 49 -171 49q-17 0 -34 -1t-36.5 -3.5t-33.5 -4.5t-36.5 -7t-33 -7.5t-36 -9.5t-33.5 -9t-37 -10.5t-35 -10.5q-197 -57 -282 -57q-131 0 -266 45q-33 -40 -83 -63q-11 -55 -43 -96t-77 -47h-7q-34 0 -58.5 32t-29.5 70q-2 22 -2 32q0 38 12 74zM69 244q26 -15 27 -28 q-15 -30 -26 -70q21 -18 56 -18q17 0 39 5q2 20 2 29q0 41 -14 70.5t-39 29.5h-5q-22 -3 -40 -18zM159 102q-20 -5 -39 -5q-31 0 -59 11q-1 -10 -1 -30q0 -14 1 -21q2 -18 10.5 -28.5t18.5 -10.5h2q47 6 67 84z"/>
    <glyph glyph-name="p__" unicode="p__" horiz-adv-x="1435" d="M203 126q-63 -33 -63 -64q0 -11 8 -11q32 0 55 75zM14 279q2 9 19 9q20 0 31 -11.5t11 -20.5l-11 -205q2 11 6 29t17 64t28 81t38.5 64t47.5 29q40 0 61 -34t21 -84v-14q77 24 88 24q6 0 9 -1q129 -45 263 -45q80 0 273 56q5 2 35 10.5t37.5 10.5t34 9t37 9.5t34 8 t37.5 7t34.5 4.5t38.5 4t36 1q113 0 189 -55q6 -5 6 -12q0 -6 -4.5 -10.5t-10.5 -4.5q-4 0 -9 3q-67 49 -171 49q-16 0 -32.5 -1t-30 -2.5t-32.5 -4.5t-30.5 -5t-32.5 -7t-30 -7t-32.5 -8.5t-31 -8.5t-33 -9.5t-31.5 -9.5q-197 -57 -281 -57q-149 0 -286 51q-62 -19 -77 -25 q-9 -55 -38 -94t-70 -39q-21 0 -36.5 9.5t-15.5 28.5q0 51 91 94q9 40 9 78q0 48 -16 48q-30 0 -63.5 -88t-54.5 -198t-21 -181l3 -120v-1q0 -25 -29 -25q-38 0 -38 24v1q-11 173 -11 372q0 53 6 105.5t12 78.5z"/>
    <glyph glyph-name="q__" unicode="q__" horiz-adv-x="1438" d="M240 -6q-5 6 -21 19v-12q5 -8 13 -8q5 0 8 1zM180 248q-19 27 -34 27q-33 0 -59.5 -61.5t-26.5 -116.5q0 -50 24 -50q33 0 96 201zM373 213q135 -49 273 -49q80 0 273 56q5 2 35 10.5t37.5 10.5t34 9t37 9.5t34 8t37.5 7t34.5 4.5t38.5 4t36 1q113 0 189 -55q6 -5 6 -12 q0 -6 -4.5 -10.5t-10.5 -4.5q-5 0 -9 3q-67 49 -171 49q-16 0 -32.5 -1t-30 -2.5t-32.5 -4.5t-30.5 -5t-32.5 -7t-30 -7t-32.5 -8.5t-31 -8.5t-33 -9.5t-31.5 -9.5q-197 -57 -281 -57q-132 0 -264 44q-38 -139 -95 -193q44 -64 44 -159q0 -44 -20.5 -73.5t-54.5 -29.5 q-40 1 -66 43t-35.5 98t-9.5 125q0 46 4 86q-36 -72 -78 -72q-30 0 -57 28.5t-27 88.5q0 81 38.5 140t84.5 59q43 0 80 -43q1 2 2.5 6.5t2.5 6.5q3 6 32 6q14 0 22.5 -5.5t10 -10t1.5 -8.5v-1q-9 -28 -17 -60t-12 -50l-3 -18l-5 -33q-2 -15 -4 -63q27 -16 45 -35 q22 23 45 71t36 85l12 37q0 13 15 9zM231 -41h-2q-2 0 -5.5 0.5t-4.5 0.5q2 -192 45 -192h1q14 0 24 18t10 44q0 80 -37 137q-16 -8 -31 -8z"/>
    <glyph glyph-name="r__" unicode="r__" horiz-adv-x="1345" d="M7 362q-4 0 -9 -5.5t-9.5 -18.5t-4.5 -29q0 -23 6 -39.5t12 -21.5l7 -5q12 51 12 86q0 33 -14 33zM280 213q135 -49 273 -49q80 0 273 56q5 2 35 10.5t37.5 10.5t34 9t37 9.5t34 8t37.5 7t34.5 4.5t38.5 4t36 1q113 0 189 -55q6 -5 6 -12q0 -6 -4.5 -10.5t-10.5 -4.5 q-4 0 -9 3q-67 49 -171 49q-16 0 -32.5 -1t-30 -2.5t-32.5 -4.5t-30.5 -5t-32.5 -7t-30 -7t-32.5 -8.5t-31 -8.5t-33 -9.5t-31.5 -9.5q-197 -57 -281 -57q-136 0 -263 43q-9 -37 -21 -73.5t-32.5 -87.5t-48.5 -82.5t-57 -31.5h-3q-85 0 -85 160q0 56 7 100q0 14 -1 15 q-5 1 -13 3.5t-28.5 13.5t-36.5 25.5t-29 40.5t-13 58q0 39 19 60t36 21q68 0 68 -82q0 -19 -3.5 -40t-6.5 -33l-4 -12q86 -30 86 -60q0 -28 -8 -82t-8 -84q0 -71 25 -71q27 0 60 67.5t53 134.5l19 67q0 13 15 9z"/>
    <glyph glyph-name="s__" unicode="s__" horiz-adv-x="1302" d="M248 209q126 -45 262 -45q80 0 273 56q5 2 35 10.5t37.5 10.5t34 9t37 9.5t34 8t37.5 7t34.5 4.5t38.5 4t36 1q113 0 189 -55q6 -5 6 -12q0 -6 -4.5 -10.5t-10.5 -4.5q-5 0 -9 3q-67 49 -171 49q-16 0 -32.5 -1t-30 -2.5t-32.5 -4.5t-30.5 -5t-32.5 -7t-30 -7t-32.5 -8.5 t-31 -8.5t-33 -9.5t-31.5 -9.5q-197 -57 -281 -57q-143 0 -280 49q-74 -32 -121 -73q40 -62 40 -104q-1 -38 -26.5 -61.5t-56.5 -23.5q-24 0 -39.5 16t-15.5 48q0 60 45 112q-4 5 -13 16.5t-13 17t-11 16.5t-10.5 19t-6 19.5t-2.5 22.5q0 33 15 58t36.5 37t38 18t25.5 6 q25 0 25 -51v-3q-8 -3 -20 -8t-31.5 -26.5t-19.5 -47.5q0 -19 25 -58q50 40 125 72q4 2 9 4t5.5 2.5t4 0.5t4 -0.5t6.5 -2.5zM73 72q-31 -42 -31 -92q0 -28 15 -28q11 0 21 18.5t10 49.5q0 27 -15 52z"/>
    <glyph glyph-name="t__" unicode="t__" horiz-adv-x="1307" d="M242 213q135 -49 273 -49q80 0 273 56q5 2 35 10.5t37.5 10.5t34 9t37 9.5t34 8t37.5 7t34.5 4.5t38.5 4t36 1q113 0 189 -55q6 -5 6 -12q0 -6 -4.5 -10.5t-10.5 -4.5q-4 0 -9 3q-67 49 -171 49q-16 0 -32.5 -1t-30 -2.5t-32.5 -4.5t-30.5 -5t-32.5 -7t-30 -7t-32.5 -8.5 t-31 -8.5t-33 -9.5t-31.5 -9.5q-197 -57 -281 -57q-136 0 -263 43q-7 -30 -17 -60.5t-27.5 -69.5t-43 -63.5t-54.5 -24.5q-40 1 -66 43t-35.5 98t-9.5 125q0 82 10 190l1 9q-40 9 -77 9q-69 0 -88 -33q-2 -3 -3.5 -8t-3.5 -8t-6 -3q-9 0 -9 15q0 10 9 25q27 42 100 42 q35 0 81 -10l13 96q1 11 35 11h4q34 -1 34 -16q-7 -43 -13 -105v-5q46 -10 80 -10q74 0 97 38q4 7 4 9q0 3 3.5 6.5t5.5 3.5q9 0 9 -15q0 -12 -9 -25q-29 -47 -110 -47q-42 0 -83 10q-11 -112 -11 -196q0 -79 11 -142t35 -63q28 0 55 50t41 101l13 50q0 13 15 9z"/>
    <glyph glyph-name="u__" unicode="u__" horiz-adv-x="1448" d="M179 101q-38 -97 -95 -97q-85 0 -85 160q0 31 3.5 64.5t6.5 51.5l3 18q0 11 21 11q17 0 33 -7t16 -17q-17 -100 -17 -173q0 -74 23 -74q27 0 52.5 59t37.5 118l13 59l1 4q0 8 11 8q15 0 36 -12t21 -23q-17 -105 -17 -181q0 -77 23 -77q27 0 52 52.5t36 105.5l12 53 q0 9 17 9q137 -49 273 -49q80 0 273 56q5 2 35 10.5t37.5 10.5t34 9t37 9.5t34 8t37.5 7t34.5 4.5t38.5 4t36 1q113 0 189 -55q6 -5 6 -12q0 -6 -4.5 -10.5t-10.5 -4.5q-5 0 -9 3q-67 49 -171 49q-16 0 -32.5 -1t-30 -2.5t-32.5 -4.5t-30.5 -5t-32.5 -7t-30 -7t-32.5 -8.5 t-31 -8.5t-33 -9.5t-31.5 -9.5q-197 -57 -281 -57q-133 0 -263 44q-5 -30 -13.5 -60.5t-23.5 -70t-39.5 -64t-53.5 -24.5q-76 0 -84 142z"/>
    <glyph glyph-name="v__" unicode="v__" horiz-adv-x="1435" d="M643 134q-141 0 -268 45q-15 -26 -27.5 -42.5t-36.5 -32t-52 -15.5l-26 4q-1 -7 -4 -18t-12 -39.5t-20 -50.5t-28 -40t-35 -18q-40 0 -69 33t-42.5 74.5t-21.5 98.5t-9 85t-1 54q1 28 5.5 38t17.5 10h15q28 0 35.5 -10.5t7.5 -59.5q0 -109 19 -199.5t42 -90.5 q16 0 33.5 36.5t27.5 73.5l9 36q-2 1 -5.5 3.5t-12.5 12.5t-16 22.5t-12.5 33.5t-5.5 46q0 43 14.5 75.5t38.5 32.5q30 0 40.5 -19.5t10.5 -56.5q0 -20 -4 -54t-8 -58l-4 -25q9 -4 21 -4q46 0 91 73l16 27q142 -51 276 -51q80 0 273 56q5 2 35 10.5t37.5 10.5t34 9t37 9.5 t34 8t37.5 7t34.5 4.5t38.5 4t36 1q113 0 189 -55q6 -5 6 -12q0 -6 -4.5 -10.5t-10.5 -4.5q-4 0 -9 3q-67 49 -171 49q-16 0 -32.5 -1t-30 -2.5t-32.5 -4.5t-30.5 -5t-32.5 -7t-30 -7t-32.5 -8.5t-31 -8.5t-33 -9.5t-31.5 -9.5q-197 -57 -281 -57zM213 302q-4 0 -10.5 -8 t-12.5 -29.5t-6 -51.5q0 -23 6.5 -42t13.5 -27l6 -7q15 87 15 121q0 44 -9 44h-3z"/>
    <glyph glyph-name="w__" unicode="w__" horiz-adv-x="1565" d="M342 302q-4 0 -10.5 -8t-12.5 -29.5t-6 -51.5q0 -23 6.5 -42t12.5 -27l7 -7q15 87 15 121q0 44 -9 44h-3zM76 34q16 0 27 56.5t14 113.5l3 56v12q1 28 5.5 38t17.5 10h15q28 0 35.5 -10.5t7.5 -59.5q0 -109 19 -199.5t42 -90.5q16 0 33.5 36.5t26.5 73.5l10 36 q-2 1 -5.5 3.5t-12.5 12.5t-16 22.5t-12.5 33.5t-5.5 46q0 43 14.5 75.5t38.5 32.5q30 0 40.5 -19.5t10.5 -56.5q0 -20 -4 -54t-8 -58l-4 -25q9 -4 21 -4q49 0 97 82q5 8 14 8q5 0 8 -3q132 -46 265 -46q76 0 273 57q5 2 35 10.5t37.5 10.5t34 9t37 9.5t34 8t37.5 7 t34.5 4.5t38.5 4t36 1q113 0 189 -55q6 -4 6 -12q0 -6 -4.5 -10.5t-10.5 -4.5t-9 2q-68 50 -171 50q-16 0 -32.5 -1t-30 -2.5t-32.5 -4.5t-30.5 -5t-32.5 -7t-30 -7t-32.5 -8.5t-31 -8.5t-33 -9.5t-31.5 -9.5q-70 -20 -103 -29t-86 -19t-92 -10q-138 0 -273 47 q-23 -39 -48.5 -61.5t-63.5 -22.5l-26 4q-1 -7 -4 -18t-12 -39.5t-20 -50.5t-28 -40t-35 -18q-101 0 -132 195q-4 -45 -18.5 -83.5t-42.5 -38.5h-1q-44 1 -59 65.5t-15 197.5q0 27 4.5 40t9.5 14.5t17 2.5q16 0 26 -5t12 -10l2 -5q-2 -47 -2 -96v-74q0 -96 12 -96z"/>
    <glyph glyph-name="x__" unicode="x__" horiz-adv-x="1372" d="M580 164q80 0 273 56q5 2 35 10.5t37.5 10.5t34 9t37 9.5t34 8t37.5 7t34.5 4.5t38.5 4t36 1q113 0 189 -55q6 -5 6 -12q0 -6 -4.5 -10.5t-10.5 -4.5q-5 0 -9 3q-67 49 -171 49q-16 0 -32.5 -1t-30 -2.5t-32.5 -4.5t-30.5 -5t-32.5 -7t-30 -7t-32.5 -8.5t-31 -8.5 t-33 -9.5t-31.5 -9.5q-197 -57 -281 -57q-137 0 -272 47q-10 -31 -21.5 -60.5t-31.5 -70t-47.5 -65t-56.5 -24.5q-63 0 -106 93l-39 -61q-3 -5 -9 -5t-12.5 5t-6.5 11q0 2 2 6l51 78q-14 38 -23.5 84t-12.5 72l-3 27q0 7 8 13t19 6q16 0 26.5 -11.5t12.5 -22.5l3 -12 q7 -39 18 -86l92 134q2 2 6 2q7 0 14 -5t7 -11v-1q-1 -1 -1 -2l-108 -156q34 -125 66 -125q27 0 59 53t51 107l19 53q0 8 13 8q7 0 11 -3q132 -48 272 -48z"/>
    <glyph glyph-name="y__" unicode="y__" horiz-adv-x="1449" d="M87 4h-3q-85 0 -85 161q0 30 3 63.5t6 51.5l3 18q0 8 12 8q16 0 36.5 -12t20.5 -23q-16 -92 -16 -160q0 -73 24 -73q30 0 54.5 57t33.5 115l10 57q0 12 36 14q17 0 22.5 -2t7.5 -10q20 -54 20 -174q0 -23 -4 -77q40 32 65 78.5t29 77.5l5 30q0 12 17 9q137 -49 273 -49 q80 0 273 56q5 2 35 10.5t37.5 10.5t34 9t37 9.5t34 8t37.5 7t34.5 4.5t38.5 4t36 1q113 0 189 -55q6 -5 6 -12q0 -6 -4.5 -10.5t-10.5 -4.5q-4 0 -9 3q-67 49 -171 49q-16 0 -32.5 -1t-30 -2.5t-32.5 -4.5t-30.5 -5t-32.5 -7t-30 -7t-32.5 -8.5t-31 -8.5t-33 -9.5 t-31.5 -9.5q-197 -57 -281 -57q-135 0 -262 43q-22 -134 -132 -203q-11 -79 -32.5 -143t-62 -110.5t-92.5 -46.5q-47 0 -67.5 24t-20.5 61q0 35 21 70t51 60.5t60.5 46t51.5 30.5l21 10q8 67 8 132q0 35 -1 51q-39 -155 -113 -155zM188 -60q-7 -4 -18.5 -10t-40.5 -27.5 t-51 -43.5t-40.5 -55t-18.5 -65q0 -34 28 -34q26 0 50 24t40 58.5t28 69.5t17 59z"/>
    <glyph glyph-name="z__" unicode="z__" horiz-adv-x="1358" d="M150 -38q-179 -98 -179 -157q0 -17 6 -30.5t16 -13.5q40 0 92.5 69.5t64.5 131.5zM50 19q-2 -2 -8 -2q-13 0 -25.5 8t-12.5 18q18 14 44 37t69.5 75t43.5 83q0 17 -13 17q-7 0 -18.5 -4.5t-27.5 -13.5t-27.5 -16t-30 -19t-24.5 -16q-4 -2 -7 -2q-6 0 -10 4t-4 9q0 3 1 4 q16 26 63 60t74 34q33 0 50 -25t17 -57q0 -19 -25 -55t-50 -62l-25 -27q48 -1 76 -49q40 33 64 79t28 75l4 30q0 12 17 9q137 -49 273 -49q80 0 273 56q5 2 35 10.5t37.5 10.5t34 9t37 9.5t34 8t37.5 7t34.5 4.5t38.5 4t36 1q113 0 189 -55q6 -5 6 -12q0 -6 -4.5 -10.5 t-10.5 -4.5q-5 0 -9 3q-67 49 -171 49q-16 0 -32.5 -1t-30 -2.5t-32.5 -4.5t-30.5 -5t-32.5 -7t-30 -7t-32.5 -8.5t-31 -8.5t-33 -9.5t-31.5 -9.5q-197 -57 -281 -57q-135 0 -262 43q-18 -120 -110 -189q9 -27 9 -58q0 -60 -52 -127t-124 -67h-3q-84 0 -84 70q2 29 27 60.5 t63.5 58.5t65.5 43t54 29q-9 40 -60 40q-7 0 -20.5 -8.5t-18.5 -10.5z"/>
    <glyph glyph-name="tt" unicode="tt" horiz-adv-x="451" d="M85 424l-1 -7q-12 -128 -12 -210q0 -7 0.5 -20t0.5 -19q6 -165 45 -165q56 0 106 188q0 5 -0.5 17t-0.5 17q0 93 8 175q-43 5 -82 13q-59 10 -64 11zM250 549q1 11 35 11h4q34 -1 34 -16q-7 -46 -13 -111l-1 -9h25q116 0 154 38q7 7 7 9q0 4 5 7t9 3q6 0 10.5 -4.5 t4.5 -10.5q0 -10 -15 -25q-47 -47 -174 -47h-29q-10 -98 -10 -185q0 -28 1 -41q6 -165 45 -165q28 0 55 50t41 101l13 50q0 8 13 8q17 0 17 -13q-2 -10 -5.5 -26t-17 -57.5t-29 -73t-41.5 -57.5t-54 -26q-77 3 -102 148q-50 -148 -122 -148q-40 1 -66 43t-35.5 98t-9.5 125 q0 84 10 194l1 13q-16 1 -45 1q-106 0 -139 -33q-3 -3 -6 -8t-6 -8t-9 -3t-10.5 4.5t-4.5 10.5q0 11 14 25q42 42 160 42q31 0 49 -1l13 87q1 11 35 11h4q34 -1 34 -16q-5 -37 -11 -90q7 -1 67 -11q66 -11 79 -13l1 7z"/>
    <glyph glyph-name=".notdef" horiz-adv-x="364" d="M33 0v666h265v-666h-265zM66 33h199v600h-199v-600z"/>
    <glyph glyph-name=".null" horiz-adv-x="0"/>
    <glyph glyph-name="nonmarkingreturn" horiz-adv-x="333"/>
    <glyph glyph-name="space" unicode=" " horiz-adv-x="250"/>
    <glyph glyph-name="exclam" unicode="!" horiz-adv-x="170" d="M71 667q4 20 37 20q26 0 37 -11q5 -5 5 -31q0 -29 -4 -70q-19 -189 -26 -298q-11 -161 -19 -199q-5 -25 -18 -33q-9 -6 -17 -6q-7 0 -12 7q-3 6 -3 87q0 127 6.5 310.5t13.5 223.5zM73 -96q-20 0 -36.5 13.5t-16.5 29.5q0 12 13 25q13 14 27 14q20 0 38 -13.5t18 -29.5 q0 -17 -12.5 -28t-30.5 -11z"/>
    <glyph glyph-name="quotedbl" unicode="&quot;" horiz-adv-x="188" d="M82 535q-9 4 -10 8q0 6 11 1q8 -3 15 6q17 23 17 61q0 18 1.5 23.5t8.5 5.5q19 0 31 -12.5t12 -29.5q0 -27 -20.5 -47t-45.5 -20q-12 0 -20 4zM10 535q-9 4 -10 8q0 6 11 1q8 -3 15 6q17 23 17 61q0 18 1.5 23.5t8.5 5.5q19 0 31 -12.5t12 -29.5q0 -27 -20.5 -47 t-45.5 -20q-12 0 -20 4z"/>
    <glyph glyph-name="numbersign" unicode="#" horiz-adv-x="468" d="M430 512q0 -9 -22.5 -57t-22.5 -53q0 -3 3 -3q2 0 28 -8q24 -7 28 -17q4 -8 4 -20q0 -8 -2 -9h-1q-5 0 -16 3q-26 7 -52 7q-9 0 -14 -12q-13 -35 -13 -45q0 -3 17.5 -5t38.5 -7t27 -15q7 -9 7 -20q0 -9 -4 -9q-3 0 -6 1q-48 8 -80 8q-11 0 -14.5 -7.5t-12.5 -49.5 q-10 -47 -10 -80q0 -16 2 -20q2 -6 2 -7q0 -7 -19 -7q-25 0 -31 28q-2 12 -2 29q0 36 5 74q4 32 4 34t-1 2h-2q-15 0 -59 -4t-46 -6q-4 -3 -8.5 -35.5t-4.5 -51.5v-15q0 -7 -2 -8.5t-10 -2.5h-3h-8q-11 0 -17 6q-6 5 -7 12t-1 42q0 31 -2 38.5t-12 7.5q-4 0 -14 -1t-13 -1 q-15 0 -29.5 10.5t-14.5 19.5q0 17 81 29q10 2 12 4.5t5 20.5q4 20 4 26q0 3 -2 3h-1l-19 -1q-19 -2 -24 -2q-13 0 -24.5 9.5t-11.5 20.5q0 23 64 33q33 5 33 8q0 1 1.5 6t4 15t4.5 19q18 76 42 98q8 8 14 8q1 0 3 -0.5t4 -0.5q17 -2 33.5 -14t16.5 -22q0 -4 -19 -46 q-23 -48 -23 -54q0 -8 17 -8q3 0 12 0.5t16 0.5q38 1 45.5 6t15.5 35q28 100 51 100q15 0 35 -13.5t20 -26.5zM285 298q1 1 6.5 27.5t5.5 30.5h-1h-4q-16 0 -55.5 -3t-41.5 -4q-2 -2 -8.5 -24t-6.5 -27v-1h22q82 0 83 1z"/>
    <glyph glyph-name="dollar" unicode="$" horiz-adv-x="350" d="M270 374q0 1 3.5 30t3.5 41q0 61 -23 89q-5 5 -7 5t-17 -9q-16 -11 -42.5 -36t-37.5 -40q-26 -36 -26 -61q0 -16 12.5 -34t56.5 -62q78 -80 89 -117q5 -18 5 -33q0 -40 -24.5 -71t-62.5 -36q-10 -2 -13.5 -8t-10.5 -31q-5 -19 -13 -22q-6 -3 -16 -3q-8 0 -14 3 q-5 4 -5 34q0 23 -2 27.5t-13 9.5q-33 14 -63 49t-30 57q0 14 14 14q10 0 13 -9q1 -4 24 -34q42 -56 68 -56q29 0 51 32.5t22 76.5q0 11 -9 32q-11 23 -63 74q-58 56 -70 71q-32 39 -32 73q0 42 45.5 94t85.5 69q8 3 8 21q0 28 6.5 39.5t27.5 11.5q13 0 25 -5q10 -4 11.5 -7 t1.5 -12q0 -5 -3.5 -21t-3.5 -23q0 -5 22 -21q57 -45 65 -98q1 -5 1 -14q0 -34 -17.5 -65.5t-34.5 -31.5h-3q-5 0 -5 7z"/>
    <glyph glyph-name="percent" unicode="%" horiz-adv-x="317" d="M96 471q27 18 27 54l-1 11q-1 0 -6 -6q-20 -26 -24 -51q-2 -10 0 -10q1 0 4 2zM257 74q0 51 -10 51q-4 0 -16 -34q-12 -35 -12 -62q0 -19 7 -19q2 0 12 10q19 21 19 54zM297 98q0 -39 -23.5 -73.5t-61.5 -34.5q-26 0 -39 24l-3 14q-2 13 -5 26t-4 13q-3 0 -11 -11 q-40 -51 -75 -51q-25 0 -40 21t-15 56q0 103 156 374q57 98 61 117q2 6 2 11q0 17 -18.5 27.5t-39.5 10.5q-34 0 -48 -27q-4 -9 3 -18q11 -14 4 -21q-3 -3 0 -14q4 -16 4 -26q0 -34 -13 -58t-39 -24q-27 0 -47 20t-20 51q0 35 18.5 65.5t41.5 30.5q2 0 5.5 -1t6.5 -2t6 -1.5 t4.5 1t1.5 4.5q0 19 22 32q11 7 45 7q51 0 91 -35q30 -26 30 -61q0 -15 -6 -35q-8 -31 -30.5 -73.5t-91.5 -155.5q-70 -116 -90 -170q-11 -31 -11 -60q0 -23 8 -23q5 0 22 11.5t29 23.5q33 33 56 79q13 28 19 32q5 4 15 4q15 0 34 -10.5t29 -20.5q17 -19 17 -49z"/>
    <glyph glyph-name="ampersand" unicode="&amp;" horiz-adv-x="483" d="M187 451q75 85 101 150q11 27 11 41q0 19 -17 19h-6q-33 -5 -65 -45t-46 -92q-9 -32 -9 -88q0 -17 2 -17q1 0 29 32zM186 9q57 19 95 93q5 10 5 13q0 5 -15 16q-25 19 -53 57t-41 68l-10 21q-2 0 -18 -29t-24 -48q-19 -45 -19 -91q0 -60 39 -95q11 -9 21 -9q9 0 20 4z M434 200q0 5 3.5 10.5t7.5 5.5q7 0 12.5 -13t5.5 -29q0 -44 -47 -67q-16 -8 -46 -9q-23 -1 -29 -4t-16 -21q-15 -26 -38.5 -49t-44.5 -33q-32 -15 -61 -15q-38 0 -62.5 10.5t-49.5 35.5q-49 49 -49 118v14q6 92 93 207q23 30 23 43q0 4 -0.5 14t-0.5 15q0 61 8 96 q8 36 28.5 75t43.5 62q28 30 56 30q25 0 58 -31q40 -40 40 -87q0 -22 -9 -44q-13 -32 -33 -59.5t-73 -87.5q-31 -35 -54 -64q-11 -14 -11 -20q0 -8 11 -27q30 -59 61 -90q28 -28 39 -28q12 0 17 91q2 39 4 46q3 5 12 5q20 0 28 -16q4 -7 4 -37q0 -39 -6 -69q-5 -28 -3 -30 q1 -1 5 -1q22 0 47.5 18t25.5 35z"/>
    <glyph glyph-name="quotesingle" unicode="'" horiz-adv-x="116" d="M10 535q-9 4 -10 8q0 6 11 1q8 -3 15 6q17 23 17 61q0 18 1.5 23.5t8.5 5.5q19 0 31 -12.5t12 -29.5q0 -27 -20.5 -47t-45.5 -20q-12 0 -20 4z"/>
    <glyph glyph-name="parenleft" unicode="(" horiz-adv-x="274" d="M124 -11q-24 4 -67 104q-37 86 -37 174q0 43 9 85q17 80 70 172t91 106q2 1 8 1q21 0 42 -19q15 -14 15 -21q0 -9 -26 -42q-70 -88 -101.5 -164.5t-31.5 -156.5q0 -89 40 -191q14 -36 14 -43q0 -4 -10.5 -5.5t-15.5 0.5z"/>
    <glyph glyph-name="parenright" unicode=")" horiz-adv-x="235" d="M77 -15q-14 0 -35.5 12t-21.5 24q0 9 21 43q94 156 94 285q0 25 -3 50q-11 88 -63 184q-19 36 -19 41q0 3 10 6t16 2q24 -1 78 -95q62 -107 62 -220q0 -88 -43 -198t-84 -131q-5 -3 -12 -3z"/>
    <glyph glyph-name="asterisk" unicode="*" horiz-adv-x="216" d="M128 493q-7 0 -7 -56q0 -16 -3 -20t-15 -4q-9 0 -13 7q-3 6 -6 23t-5 31t-3 14q-9 0 -49 -40q-6 -8 -14 -8q-5 0 -9 4.5t-4 10.5q0 15 35 47q28 26 28 27t-19 11q-27 12 -27 35q0 9 3 11.5t14 2.5t28 -9q10 -6 15 -6q6 0 7 24q2 35 6 43.5t18 8.5q18 0 29 -9q6 -5 6 -13 v-9q-1 -13 -4 -26q-1 -3 -1 -6q0 -1 1 -1t14 8q28 17 37 17q8 0 15.5 -10.5t7.5 -17.5q0 -6 -52 -37q-17 -11 -17 -13t7 -8q39 -30 57 -55q8 -11 8 -23t-5 -12t-17 12q-13 13 -37 29.5t-29 16.5z"/>
    <glyph glyph-name="plus" unicode="+" d="M196 447q0 -12 -9.5 -38t-9.5 -34q0 -5 16 -6t35 -4.5t25 -13.5q4 -7 4 -17q-1 -6 -6 -7t-38 -2q-44 0 -47 -3q-1 -1 -3 -53q-2 -50 -8 -55q-8 -4 -14 -4q-24 0 -29 13q0 1 -4.5 42.5t-5.5 43.5q0 1 -7 1q-8 0 -31.5 -1.5t-27.5 -1.5q-7 0 -11.5 6.5t-4.5 14.5 q0 11 20 22t42 14q15 3 17.5 5.5t3.5 15.5q8 79 30 86q8 2 14 2q17 0 33 -7t16 -19z"/>
    <glyph glyph-name="comma" unicode="," horiz-adv-x="136" d="M30 -25q-9 4 -10 8q0 6 11 1q8 -3 15 6q17 23 17 61q0 18 1.5 23.5t8.5 5.5q19 0 31 -12.5t12 -29.5q0 -27 -20.5 -47t-45.5 -20q-12 0 -20 4z"/>
    <glyph glyph-name="hyphen" unicode="-" d="M40 307q-20 0 -20 21q0 11 20 22t42 14q29 5 68 5q32 0 48 -1q46 -3 55 -17q4 -7 4 -17q-1 -6 -6 -7t-38 -2q-25 -1 -142 -16q-24 -2 -31 -2z"/>
    <glyph glyph-name="period" unicode="." horiz-adv-x="136" d="M73 0q-20 0 -36.5 13.5t-16.5 29.5q0 12 13 25q13 14 27 14q20 0 38 -13.5t18 -29.5q0 -17 -12.5 -28t-30.5 -11z"/>
    <glyph glyph-name="slash" unicode="/" horiz-adv-x="344" d="M304 628q11 0 25.5 -10t14.5 -22q0 -6 -12 -38q-28 -69 -139.5 -278t-135.5 -239q-6 -8 -9.5 -11.5t-6.5 -4t-9 -0.5q-10 0 -21 5t-11 13q0 28 139 303q134 266 155 280q3 2 10 2z"/>
    <glyph glyph-name="zero" unicode="0" horiz-adv-x="406" d="M187 55q29 14 60.5 54.5t53.5 90.5q47 108 47 224q0 107 -41 162q-5 6 -7.5 7t-11.5 -1q-32 -6 -66 -40q-82 -82 -117 -240q-12 -53 -12 -107q0 -101 36 -143q15 -17 28 -17q11 0 30 10zM198 31q-24 -8 -42 -8q-45 0 -80 37q-56 61 -56 195q0 135 57 251q28 57 67 96 q26 26 46 35.5t50 9.5q27 0 60 -19q25 -13 38.5 -27.5t24.5 -37.5q14 -29 18.5 -53.5t4.5 -76.5q0 -70 -18 -142q-25 -99 -72 -170.5t-98 -89.5z"/>
    <glyph glyph-name="one" unicode="1" horiz-adv-x="181" d="M86 -5q-46 0 -46 35q0 58 22 309l23 190q-1 0 -19 -16q-17 -16 -27 -16q-6 0 -12.5 4.5t-6.5 9.5q0 3 21 28q36 41 56 83q11 24 19 24q15 0 29 -12q17 -14 17 -44q0 -6 -4 -52q-6 -48 -18 -190q-29 -339 -36 -348q-4 -5 -18 -5z"/>
    <glyph glyph-name="two" unicode="2" horiz-adv-x="337" d="M67 339q-17 0 -24.5 9t-7.5 32q0 96 52 191q40 72 99 72q9 0 14 -1q51 -8 84.5 -50t33.5 -104q0 -74 -36 -181q-23 -68 -51 -115t-75 -95q-26 -26 -26 -32q0 -5 36 -8q17 -1 76 -5q47 -2 59 -12q9 -8 9 -18q0 -12 -7 -12q-6 0 -8 2q-1 1 -99 3q-111 2 -143.5 5.5 t-32.5 13.5q0 4 25 29q51 51 86 106q44 68 79.5 180t35.5 181q0 50 -22 72q-5 5 -12 5q-19 0 -49 -27q-56 -50 -78 -196q-1 -6 -1.5 -14.5t-1 -13t-2.5 -9t-5 -6.5t-8 -2z"/>
    <glyph glyph-name="three" unicode="3" horiz-adv-x="351" d="M20 166q0 44 11 44q10 0 18 -11.5t8 -22.5q0 -4 -0.5 -11t-0.5 -11q0 -24 8 -47.5t20 -33.5q14 -13 38 -13q47 0 88 44q38 41 38 98q0 38 -14 55q-15 19 -64 27q-32 6 -33 6q-2 1 -6 10.5t-4 13.5q0 2 19 11q38 17 67 56q14 18 30.5 51t20.5 52q4 16 4 42q0 36 -8 55 q-6 16 -35 16q-17 0 -35 -8q-41 -19 -72.5 -75t-42.5 -130q-4 -27 -6 -32t-10 -5q-22 0 -22 39q0 58 30 133q36 87 93 116q18 9 38 9q48 0 86 -42q47 -52 47 -126q0 -39 -6 -57q-8 -27 -30.5 -57t-47.5 -47q-10 -7 -11 -9.5t7 -8.5q11 -9 27 -31.5t24 -38.5q18 -40 18 -82 q0 -41 -18 -79q-10 -20 -29 -38.5t-36 -25.5q-22 -8 -51 -8q-16 0 -28 3q-55 16 -92.5 64.5t-37.5 104.5z"/>
    <glyph glyph-name="four" unicode="4" horiz-adv-x="321" d="M50 267q-30 0 -30 15q0 7 14 37q18 40 50 131.5t46 143.5q8 32 11 38.5t10 6.5q34 0 50 -29q6 -10 6 -35q-1 -86 -100 -235l-22 -34q60 11 104 13q27 1 32 7t7 40q7 78 14 85q3 3 12 3q12 0 26 -5.5t18 -12.5q3 -6 3 -46q0 -82 -11 -225q-3 -27 -5 -81q-2 -43 -4 -52 q-5 -12 -27 -12q-15 0 -22 10q-10 19 -10 162q0 72 -2 84t-12 12q-46 0 -111 -14q-31 -7 -47 -7z"/>
    <glyph glyph-name="five" unicode="5" horiz-adv-x="345" d="M123 577q0 -2 -4.5 -77t-4.5 -81q0 -15 4 -15t12 5q15 7 36 7q58 0 109 -51q50 -52 50 -127q0 -102 -64 -166q-59 -59 -128 -59q-79 0 -107 47q-6 10 -6 18t8 13t19 5q13 0 20 -16q6 -13 11 -17t16 -4q43 0 91 53q29 31 45 76t16 88q0 39 -13.5 66t-43.5 27 q-26 0 -77 -30q-32 -19 -37 -19q-6 0 -16 6.5t-14 13.5q-3 6 -3 35q0 5 0.5 23.5t0.5 31.5q4 186 9 192q10 10 151 10h21q66 -1 77 -7q24 -13 24 -28q0 -5 -5 -8q-16 -8 -141 -8q-56 0 -56 -4z"/>
    <glyph glyph-name="six" unicode="6" horiz-adv-x="327" d="M263 246q0 47 -11 70t-41 23q-47 0 -79 -32q-15 -15 -25.5 -54.5t-10.5 -82.5q0 -86 25 -111q7 -7 17 -7q8 0 26 8q36 15 67.5 72.5t31.5 113.5zM115 24q-51 17 -73 64t-22 132q0 56 16 123q25 96 79 187t100 113q16 8 26 5q11 -3 25 -17t14 -25q0 -8 -32 -50 q-50 -65 -85 -131q-33 -64 -33 -74q0 -1 1 -1t3.5 0.5t5 1.5t6.5 2.5t6 2.5q17 7 38 7q42 0 77 -32q40 -38 40 -117q0 -34 -11 -69q-27 -87 -91 -117q-19 -9 -59 -9q-19 0 -31 4z"/>
    <glyph glyph-name="seven" unicode="7" horiz-adv-x="297" d="M63 10q-9 0 -12.5 3t-3.5 13q0 37 18 120q29 126 80 244.5t107 185.5q11 13 11 14t-96 1q-82 0 -104 3.5t-34 17.5q-9 11 -9 14q0 8 20 9.5t134 1.5q146 0 148 -2q4 -3 17.5 -22.5t13.5 -21.5q0 -3 -15 -22q-30 -37 -67.5 -100t-59.5 -114q-59 -135 -109 -315 q-7 -30 -39 -30z"/>
    <glyph glyph-name="eight" unicode="8" horiz-adv-x="412" d="M159 430q-7 0 -12 -12.5t-5 -28.5q0 -30 31 -62q17 -18 23 -15q3 1 42 38q38 36 55 60q56 74 56 133q0 17 -6.5 23t-24.5 6q-27 0 -58 -11q-18 -7 -38 -18t-20 -14q0 -2 7 -9q18 -18 14 -26q-1 -3 -19 -15q-41 -28 -41 -42q-2 -7 -4 -7zM105 41q41 0 72.5 16t44.5 43 q7 13 7 32q0 45 -32 88q-15 19 -16 19q-4 0 -33.5 -25t-44.5 -41q-45 -48 -45 -84q0 -21 13 -34.5t34 -13.5zM316 117q0 -50 -53 -78t-131 -28q-5 0 -35 5q-37 7 -57 29t-20 53q0 32 23 69q1 1 27.5 25t52.5 49.5t26 31.5q0 3 -23 26q-74 74 -74 125q0 22 12 45 q7 15 25 32.5t32 25.5q16 8 34 28q38 41 90 62q23 9 43 9q46 0 80 -46q25 -34 25 -68q0 -39 -23 -81q-34 -63 -122 -136q-4 -4 -9.5 -8.5t-8.5 -6.5l-3 -3q0 -2 22.5 -28t44.5 -64t22 -68z"/>
    <glyph glyph-name="nine" unicode="9" horiz-adv-x="327" d="M117 318q21 0 43 9.5t34 21.5q16 15 26.5 56t10.5 87q0 77 -19 102q-6 9 -13 9q-6 0 -12 -1q-46 -6 -78.5 -56t-43.5 -106q-2 -10 -2 -36q0 -36 6 -54q13 -32 48 -32zM20 434q0 82 44.5 143.5t107.5 61.5q45 0 78 -25t45 -67q13 -44 13 -94q0 -79 -24 -155 q-32 -106 -95.5 -197t-105.5 -91q-15 0 -29.5 15t-14.5 28q0 11 31 49q46 56 78 111q13 22 28.5 55.5t15.5 37.5l-1 1q-1 0 -3 -1l-5 -2.5l-5 -2.5q-18 -8 -47 -8q-18 0 -27 4q-84 31 -84 137z"/>
    <glyph glyph-name="colon" unicode=":" horiz-adv-x="147" d="M84 163q-20 0 -36.5 13.5t-16.5 29.5q0 12 13 25q13 14 27 14q20 0 38 -13.5t18 -29.5q0 -17 -12.5 -28t-30.5 -11zM73 0q-20 0 -36.5 13.5t-16.5 29.5q0 12 13 25q13 14 27 14q20 0 38 -13.5t18 -29.5q0 -17 -12.5 -28t-30.5 -11z"/>
    <glyph glyph-name="semicolon" unicode=";" horiz-adv-x="146" d="M30 -25q-9 4 -10 8q0 6 11 1q8 -3 15 6q17 23 17 61q0 18 1.5 23.5t8.5 5.5q19 0 31 -12.5t12 -29.5q0 -27 -20.5 -47t-45.5 -20q-12 0 -20 4zM84 163q-20 0 -36.5 13.5t-16.5 29.5q0 12 13 25q13 14 27 14q20 0 38 -13.5t18 -29.5q0 -17 -12.5 -28t-30.5 -11z"/>
    <glyph glyph-name="less" unicode="&lt;" horiz-adv-x="288" d="M223 179q-78 64 -145 76q-42 8 -55 33q-3 6 -3 10q0 8 15 19q163 125 193 125q11 0 25.5 -20t14.5 -35q0 -16 -76.5 -54.5t-76.5 -40.5t16 -10q18 -8 48.5 -29t46.5 -36q25 -24 25 -38q0 -11 -7 -11q-9 0 -21 11z"/>
    <glyph glyph-name="equal" unicode="=" horiz-adv-x="290" d="M52 349q-19 0 -19 20q0 12 20 23t42 14q29 5 68 5q32 0 48 -1q45 -3 54 -17q5 -8 5 -17q-1 -6 -6.5 -7t-38.5 -2q-25 -1 -142 -16q-24 -2 -31 -2zM40 247q-20 0 -20 21q0 11 20 22t42 14q29 5 68 5q32 0 48 -1q46 -3 55 -17q4 -7 4 -17q-1 -6 -6 -7t-38 -2 q-25 -1 -142 -16q-24 -2 -31 -2z"/>
    <glyph glyph-name="greater" unicode="&gt;" horiz-adv-x="268" d="M41 158q-7 0 -14 10.5t-7 17.5q0 4 3 9q8 13 57.5 48.5t76.5 49.5q18 9 18 10q0 2 -31 20q-82 49 -102 73q-11 13 -11 30q0 16 10 16q20 0 79 -43q97 -72 114 -79q15 -7 15 -33q0 -10 -2 -14q-2 -7 -7 -11t-23 -12q-30 -14 -69 -36q-101 -56 -107 -56z"/>
    <glyph glyph-name="question" unicode="?" horiz-adv-x="391" d="M141 -103q-20 0 -36.5 13.5t-16.5 30.5q0 12 13 25q13 14 27 14q20 0 38 -13.5t18 -29.5q0 -17 -12.5 -28.5t-30.5 -11.5zM371 506q0 -58 -21 -110t-51.5 -90.5t-61 -75t-51.5 -78.5t-21 -85q0 -16 -9.5 -25t-22.5 -9q-12 0 -21 7t-9 20q3 59 25.5 113.5t52 96t59 81 t50 83t20.5 86.5q0 17 -2.5 34.5t-9.5 38.5t-23 34t-38 13q-42 0 -72 -18.5t-48.5 -54.5t-28.5 -73t-18 -89q-1 -6 -1.5 -14.5t-1 -13t-2.5 -9t-5 -6.5t-8 -2q-3 0 -13 2q-19 4 -19 39v14q3 51 16 96t37 82.5t63.5 59.5t89.5 22q75 0 110 -46.5t35 -122.5z"/>
    <glyph glyph-name="at" unicode="@" horiz-adv-x="538" d="M278 -1q-116 0 -197 85.5t-81 198.5q0 81 42 164q63 125 165 163q45 17 92 17q64 0 114 -35q27 -18 55.5 -53.5t41.5 -68.5q28 -68 28 -139q0 -56 -21.5 -102t-52.5 -60q-15 -7 -34 -7q-24 0 -46 11q-56 27 -71 86q-3 12 -6 12q-4 0 -29 -33q-26 -35 -38 -44.5t-30 -9.5 q-28 0 -45 19.5t-17 51.5q0 46 26 90q10 17 32.5 40.5t36.5 31.5q20 10 36 10q31 0 57 -26q14 -14 27 -15q19 -2 37.5 -15t19.5 -24q0 -5 -9 -27q-20 -48 -20 -84q0 -37 18 -37q23 0 47 26q42 45 42 127q0 83 -42 155q-14 25 -37 47.5t-39 27.5q-17 5 -34 5q-52 0 -110 -32 q-52 -30 -94 -93t-60 -140q-5 -18 -5 -54q0 -39 7 -71q19 -71 71 -122q26 -25 50.5 -34.5t63.5 -9.5q29 0 51 4q65 14 83 28q8 5 14 5t15 -3q21 -7 21 -18v-1q-3 -8 -59 -27q-62 -20 -116 -20zM233 225q19 15 61 67q16 21 25 45q7 19 7 27q0 3 -2 3q-7 0 -26.5 -18.5 t-37.5 -41.5q-35 -48 -42 -79q-1 -3 -1 -8q0 -4 2 -4q3 0 14 9z"/>
    <glyph glyph-name="A" unicode="A" horiz-adv-x="605" d="M190 300q-28 -10 -53 -22.5t-36 -19.5l-11 -8q40 -60 62 -143q15 105 38 193zM247 343q52 13 124 13q23 0 33 -1q4 32 12.5 89.5t12.5 90t4 51.5q0 24 -8 24q-102 0 -178 -267zM636 202q0 -2 -5.5 -25.5t-18.5 -60.5t-29.5 -72t-42 -60t-53.5 -25q-101 0 -101 204 q0 38 4 80t8 65l3 22q-18 3 -39 3q-57 0 -123 -18q-19 -72 -34.5 -154t-21.5 -129l-6 -46q1 -6 -5 -9.5t-13 -3.5q-14 0 -15 9v2q-8 69 -28.5 132t-37.5 92l-16 28q-17 -5 -33 -5q-25 0 -25 17q0 33 49 33h1q18 2 39 8.5t56 20t49 18.5q24 86 52 152.5t68 114.5t83 53h8 q38 0 74.5 -36.5t36.5 -102.5q0 -44 -29 -179q9 -5 16 -11t9 -9l3 -4q4 -5 1 -10.5t-8 -7t-8 0.5q-7 6 -19 13q-22 -126 -22 -217q0 -92 29 -92q27 0 55.5 53t43.5 106l15 53q0 9 14 9t16 -12z"/>
    <glyph glyph-name="B" unicode="B" horiz-adv-x="526" d="M333 312q52 -9 85.5 -45t33.5 -102q0 -21 -4 -37q28 15 48 34.5t26 31.5l6 12q-1 4 4.5 7t11.5 3q15 0 16 -11l-3 -9t-11.5 -21.5t-22 -30t-37 -31.5t-54.5 -28q-21 -39 -62.5 -69.5t-71 -41.5t-43.5 -13q-6 -1 -20 -1q-35 0 -60 13t-25 38q0 35 45.5 54t155.5 34 q5 0 11 2q18 35 18 71q0 48 -34.5 78.5t-106.5 30.5q-20 0 -44 -3q-4 -33 -4 -76q0 -46 7 -84q-14 -3 -30 -3q-49 0 -53 23q-6 30 -6 79v3q-12 5 -24.5 13.5t-31 26.5t-32.5 48.5t-19 69.5q-2 20 -2 29q0 95 72 160.5t157 77.5q20 2 29 2q71 0 121.5 -46t50.5 -133 q0 -98 -97 -156zM337 64q-30 -3 -47.5 -6t-40.5 -8.5t-34 -14t-11 -19.5t20 -11q63 0 113 59zM201 322q28 10 53.5 22.5t54.5 34t46 54t17 70.5q0 7 -2 23q-5 35 -36.5 54t-74.5 19q-8 0 -26 -2q-89 -12 -147.5 -72.5t-58.5 -130.5q0 -13 1 -19q4 -31 15 -55.5t25.5 -39 t23.5 -21.5t18 -11q3 103 21.5 202.5t37.5 103.5h4q17 0 42 -20.5t25 -28.5q0 -3 -6.5 -28t-16.5 -69.5t-16 -85.5z"/>
    <glyph glyph-name="C" unicode="C" horiz-adv-x="430" d="M84 540q-32 0 -51.5 -22t-19.5 -44q0 -23 10.5 -41t20.5 -24l10 -6q3 -1 3 -4q0 -5 -5 -5h-1q-1 1 -2 1q-2 1 -6 2.5t-14.5 8.5t-18 16t-14 24t-6.5 32q0 34 26.5 57t59.5 23q37 0 96 -26q82 113 184 122h10q26 0 43 -11t23.5 -29t8 -28t1.5 -20v-1q0 -31 -20.5 -64 t-70.5 -37q-3 0 -7 -0.5t-7 -0.5q-44 0 -104 23q-42 -71 -67.5 -161.5t-25.5 -167.5q0 -75 25.5 -120t77.5 -45q42 0 77 22t54.5 53t33 62t18.5 53l4 22q0 9 14 9q16 0 17 -16q-1 -5 -2.5 -13t-8.5 -31t-16 -44.5t-25 -48t-35.5 -46t-48 -34t-60.5 -17.5q-7 -1 -20 -1 q-91 0 -136 65.5t-45 168.5q0 81 26 166.5t71 154.5q-53 23 -77 23zM242 502q44 -16 75 -16h11q26 2 44.5 14t26 29t10.5 29.5t3 22.5q0 31 -24 31h-3q-76 -6 -143 -110z"/>
    <glyph glyph-name="D" unicode="D" horiz-adv-x="521" d="M311 82q-59 -8 -117 -26.5t-58 -39.5q0 -11 20 -11q8 0 13 1q31 5 77.5 29.5t64.5 46.5zM115 138q-6 30 -6 79v3q-12 5 -24.5 13.5t-31 26.5t-32.5 48.5t-19 69.5q-2 20 -2 29q0 95 72 160.5t157 77.5q7 1 23 1q40 0 82 -15.5t81 -45t63.5 -81t24.5 -116.5 q0 -121 -49 -220.5t-125.5 -153.5t-160.5 -55q-35 0 -60.5 14t-25.5 38q0 36 78 69.5t175 37.5l9 9t20 29.5t25 51.5t20 75.5t9 101.5q0 98 -45 156t-117 58q-7 0 -23 -2q-89 -12 -147.5 -72.5t-58.5 -130.5q0 -13 1 -19q4 -31 15 -55.5t25.5 -39t23.5 -21.5t18 -11 q3 103 21.5 202.5t37.5 103.5h4q17 0 42 -20.5t25 -28.5q0 -1 -12 -48.5t-24.5 -120t-12.5 -134.5q0 -46 7 -84q-14 -3 -30 -3q-49 0 -53 23z"/>
    <glyph glyph-name="E" unicode="E" horiz-adv-x="445" d="M52 412q-6 2 -14.5 7.5t-23 26t-14.5 47.5q0 33 26.5 56.5t55.5 23.5q40 0 102 -33q32 45 87.5 75.5t106.5 30.5q27 0 45 -11.5t24.5 -29.5t8.5 -28.5t2 -20.5v-1q0 -11 -4.5 -25.5t-14.5 -32t-31 -29t-49 -11.5q-52 0 -118 32q-13 -24 -13 -43q0 -29 21 -50.5t71 -21.5 q11 0 21 -12t10 -22q0 -6 -6 -8q-116 -31 -170.5 -89.5t-54.5 -123.5q0 -52 30 -88.5t73 -36.5q41 0 78.5 21.5t63 52.5t44.5 62t28 52l9 22q0 8 13 8q18 0 18 -17q-3 -9 -10 -25t-30 -55.5t-49 -70t-67.5 -55.5t-86.5 -25q-84 0 -135.5 56.5t-51.5 135.5q0 67 40 122 t120 78q-51 29 -51 108q0 27 18 60q-55 30 -80 30q-32 0 -52 -20.5t-20 -42.5q0 -23 9 -40.5t18 -24.5l9 -6q2 -1 2 -4q0 -5 -5 -5q-1 0 -3 1zM251 504q50 -23 87 -23q28 0 48 11.5t28.5 28.5t12 29.5t3.5 20.5q0 31 -31 31q-32 0 -76.5 -30t-71.5 -68z"/>
    <glyph glyph-name="F" unicode="F" horiz-adv-x="466" d="M530 467q0 6 5.5 20.5t5.5 30.5q0 34 -30 54.5t-91 20.5q-75 0 -141 -18.5t-107.5 -45.5t-72 -57t-43.5 -53.5t-13 -35.5q0 -10 21.5 -16t47 -10.5t49.5 -22.5t29 -49q1 1 2.5 1t2.5 1q11 106 29.5 185t34.5 81h4q17 0 37.5 -18.5t20.5 -27.5q0 -2 -7 -28t-18.5 -75.5 t-20.5 -98.5q44 6 68 6q17 0 29.5 -4t18.5 -8.5t9.5 -10.5t4 -9t0.5 -5q-17 6 -44 6q-42 0 -92 -13q-16 -107 -16 -191q0 -65 8 -116q-6 -1 -18 -1q-43 0 -47 27q-9 61 -9 137q0 66 4 118q-28 -11 -54.5 -24t-39.5 -21l-13 -7q-15 0 -25.5 7.5t-13.5 14.5l-3 7q49 32 121 58 q-6 30 -32.5 44.5t-54 16.5t-51 14t-25.5 39q0 24 26 65t72 84.5t123.5 75t164.5 31.5q50 0 88.5 -13t59 -31.5t33.5 -42.5t16.5 -41t3.5 -32q0 -17 -7 -27t-14 -11l-7 -1h-2q-27 0 -27 20z"/>
    <glyph glyph-name="G" unicode="G" horiz-adv-x="539" d="M339 103q-7 -1 -19.5 -3t-45 -9.5t-58 -17.5t-48.5 -28t-27 -39v-7q0 -28 24 -31q4 -1 13 -1q25 0 50.5 14t44.5 34t34.5 40t23.5 34zM387 277q-61 -126 -159 -126q-70 0 -106 46.5t-36 119.5q0 98 57 187q-39 14 -59 14q-32 0 -51.5 -22.5t-19.5 -44.5q0 -23 11 -41 t22 -24l11 -6q3 -2 3 -4q0 -5 -5 -5h-2q-3 1 -7 2.5t-15 8.5t-19 15.5t-15 23.5t-7 33q0 35 26.5 58.5t61.5 23.5q31 0 75 -16q77 107 194 123q5 1 15 1q26 0 43 -11t23 -29t8 -28t2 -20q0 -32 -19.5 -64t-67.5 -38q-8 -1 -23 -1q-47 0 -111 23q-53 -94 -53 -189 q0 -48 17 -77.5t50 -29.5q44 0 82.5 44t55.5 88l17 45v1q0 10 23 10q4 0 10.5 -0.5t9.5 -0.5q20 -3 25 -7.5t5 -16.5v-17q0 -90 -28 -179q73 24 100 58q4 6 18 6q15 0 16 -11q-46 -57 -146 -84q-32 -78 -84 -128t-119 -50q-9 0 -27 2q-77 12 -77 62q0 22 13 40.5t34 31 t46.5 22.5t51 16t46.5 10t34 6l13 1q28 76 37 148zM407 569q0 34 -23 34h-5q-89 -11 -153 -111q49 -18 83 -18q12 0 18 1q32 4 51.5 24t24 37t4.5 33z"/>
    <glyph glyph-name="H" unicode="H" horiz-adv-x="597" d="M52 170q-6 2 -14.5 7.5t-23 26t-14.5 47.5q0 35 30 61.5t65 26.5q32 0 64 -8q11 94 28 159.5t31 67.5h4q17 0 37 -19t20 -28q0 -2 -7 -28.5t-18.5 -76t-20.5 -98.5q73 -25 123 -25q12 0 17 1q4 64 17.5 125t35.5 116t58.5 88.5t81.5 33.5q75 0 75 -86q0 -57 -19.5 -108 t-47.5 -82.5t-56.5 -54.5t-47.5 -33l-20 -10q-6 -50 -6 -110q0 -160 45 -160q28 0 55.5 50t41.5 101l13 50q0 8 13 8q17 0 17 -13q-2 -10 -5.5 -26t-17 -57.5t-29 -73t-41.5 -57.5t-54 -26q-40 1 -66 43t-35.5 98t-9.5 125q0 6 0.5 17t0.5 16q-2 0 -6.5 -0.5t-6.5 -0.5 q-52 0 -130 24q-17 -105 -17 -200q0 -66 8 -117q-6 -1 -18 -1q-43 0 -47 27q-9 61 -9 137q0 80 10 177q-32 9 -49 9q-36 0 -60.5 -21.5t-24.5 -42.5q0 -23 9 -40.5t18 -24.5l9 -6q6 -3 0 -8q-3 -2 -6 0zM595 615q-41 0 -76 -77t-49 -154l-15 -78q6 3 17 9t38.5 29t48.5 50.5 t38 75t17 101.5q0 44 -19 44z"/>
    <glyph glyph-name="I" unicode="I" horiz-adv-x="387" d="M108 320q0 -9 -32 -9q-40 0 -65 29q-19 22 -19 55q0 45 30 73q37 34 116 67.5t116 66.5q13 13 17 20q13 31 33 31q10 0 26.5 -8.5t16.5 -19.5q0 -3 -1 -5q-30 -76 -30 -257v-91q0 -57 -2 -95.5t-9 -83.5t-20.5 -73t-38.5 -49t-60 -27q-2 0 -4.5 -0.5t-3.5 -0.5 q-21 0 -21 10q0 7 19 10q28 5 43.5 51.5t19.5 119.5t4.5 149.5t3 159t10.5 129.5q-41 -32 -115.5 -65.5t-92.5 -49.5q-31 -30 -31 -68q0 -23 11 -36q27 -30 62 -30l11 1h2q4 0 4 -4z"/>
    <glyph glyph-name="J" unicode="J" horiz-adv-x="476" d="M118 255l-15 -21t-29.5 -57t-14.5 -72q0 -56 40 -99q27 -29 69 -29q44 0 82.5 31t52.5 74q17 69 23.5 248t19.5 241q-42 -31 -118 -62t-94 -47q-33 -29 -33 -69q0 -22 10 -34q26 -32 64 -32l9 1h1q4 0 4 -4t-4 -5q-11 -4 -26 -4q-40 0 -66 31q-18 21 -18 53q0 47 33 75 q38 33 117.5 64t117.5 63q10 9 17 19q14 32 34 32q10 0 26 -9t16 -20q0 -3 -1 -5q-21 -50 -28 -123t-6.5 -142t-2 -138t-21.5 -129.5t-58 -97.5q-60 -55 -125 -55q-67 0 -124 60q-44 47 -44 110q0 38 15.5 79t30.5 63l16 22q4 6 10 6q7 0 13.5 -6.5t6.5 -11.5z"/>
    <glyph glyph-name="K" unicode="K" horiz-adv-x="640" d="M641 204q0 8 11 8q7 0 13 -3.5t6 -9.5q-2 -10 -5.5 -26t-16 -57.5t-27.5 -73t-40.5 -57.5t-53.5 -26q-49 1 -78.5 48t-31.5 121q-1 44 -38 76.5t-78 43.5q-10 -82 -10 -154q0 -75 9 -130q-6 -1 -18 -1q-43 0 -47 27q-9 60 -9 136q0 96 12.5 198t29.5 168q9 45 20 82 q-45 -26 -124 -47.5t-99 -34.5q-41 -27 -41 -73q0 -15 7 -27q26 -39 66 -39h3h1q4 0 4 -5t-4 -5q-5 -1 -13 -1q-49 0 -76 40q-12 17 -12 44q0 53 41 81q41 27 123.5 47.5t123.5 48.5q13 10 20 18q15 26 36 26q8 0 24 -11t16 -22q0 -2 -6 -21.5t-13.5 -43.5t-9.5 -36 q-1 -6 -8.5 -34.5t-17.5 -71t-17 -84.5h8q53 2 101 38.5t77.5 85t46.5 94.5t17 74v1q9 3 21 3q41 0 41 -43q0 -90 -77 -184t-194 -111q58 -17 95.5 -56.5t38.5 -98.5q2 -123 47 -123q28 0 54.5 50t38.5 101z"/>
    <glyph glyph-name="L" unicode="L" horiz-adv-x="470" d="M68 -36q-31 0 -46 17.5t-15 36.5q0 17 14.5 31t47.5 18q6 1 18 1q13 0 19 -1q7 36 25 253q-42 9 -73 37t-42.5 52.5t-13.5 42.5q-2 16 -2 23q0 51 29 54q4 0 7 -1t4 -2v-2q-5 -12 -5 -31q0 -8 1 -13q15 -107 97 -130q6 67 14.5 114t23.5 93.5t40 70.5t59 24 q33 0 55.5 -25.5t22.5 -82.5q0 -42 -12.5 -86t-46 -85t-82.5 -52q-2 -22 -7 -73t-8 -78t-10 -63t-16 -60q19 -10 50 -31.5t55.5 -34t47.5 -12.5q25 0 47.5 15t36.5 37t25 43.5t16 36.5l5 15q1 7 11 6.5t11 -7.5q-1 -6 -3.5 -16.5t-13.5 -38.5t-26.5 -50t-45.5 -42t-68 -25 q-18 -2 -25 -2q-64 0 -153 54q-28 -31 -68 -31zM57 31q-24 0 -24 -19q0 -10 7.5 -18t18.5 -8q21 0 34 34q-20 11 -36 11zM211 350q38 11 62.5 47t32 72t7.5 73q0 50 -9 50l-1 -1q-70 -59 -92 -241z"/>
    <glyph glyph-name="M" unicode="M" horiz-adv-x="871" d="M292 431q0 1 6.5 22t19.5 53t29 62.5t37.5 52.5t41.5 22q91 0 91 -249q0 -44 -2.5 -90.5t-5.5 -71.5l-3 -25q0 2 8 32t23.5 76t35.5 90t47.5 75.5t55.5 31.5q80 0 80 -151q0 -52 -11 -153.5t-11 -133.5q0 -58 22 -58h2q22 2 42 22t32 47.5t21 54.5t13 46l4 19q0 8 11 8 q17 0 19 -12q-3 -36 -13.5 -71t-29 -71t-51 -58.5t-74.5 -22.5q-79 0 -79 150q0 55 12 158t12 130q0 40 -14 40q-30 0 -68 -99t-61 -199l-22 -99q0 -18 -32 -18q-21 0 -38.5 10t-18.5 28v11q0 24 8 167.5t8 216.5q0 127 -22 127t-49.5 -64.5t-42.5 -124.5q-24 -116 -66 -435 q0 -25 -30 -25q-16 0 -29 9t-13 23q0 6 3 13q4 70 16.5 193.5t12.5 166.5v20q-3 56 -22.5 83t-48.5 27q-45 0 -87 -48.5t-42 -104.5q0 -40 26 -65.5t50 -25.5h1q4 1 5 -5q2 -7 -4 -8q-1 0 -4 -0.5t-5 -0.5q-38 0 -66.5 31t-28.5 79q0 86 70 148t136 62q32 0 54.5 -24t30 -48 t8.5 -46z"/>
    <glyph glyph-name="N" unicode="N" horiz-adv-x="672" d="M295 405q0 3 5.5 26.5t19 62t32.5 73.5t49.5 61t65.5 26q105 0 105 -181q0 -70 -18.5 -209.5t-18.5 -180.5q0 -67 29 -67q14 0 30.5 19.5t30 47t25 55t18.5 46.5l6 20q0 9 12 9q16 0 18 -12q-2 -9 -6 -24t-18 -53.5t-30.5 -67.5t-43.5 -53t-57 -24q-88 0 -88 177 q0 66 14.5 200t14.5 177q0 78 -30 78q-35 0 -67.5 -65t-54 -157t-38.5 -184.5t-24 -157.5l-8 -65q0 -26 -24 -26q-16 0 -30.5 13t-15.5 32q3 73 13.5 193t10.5 161q0 19 -1 27q-7 109 -72 109q-44 0 -85.5 -48.5t-41.5 -104.5q0 -40 26.5 -66.5t50.5 -26.5h2q5 1 5.5 -5 t-4.5 -7q-4 -1 -11 -1q-38 0 -66.5 31t-28.5 80q0 85 68.5 147.5t132.5 62.5q32 0 56 -31.5t32.5 -62.5t9.5 -54z"/>
    <glyph glyph-name="O" unicode="O" horiz-adv-x="508" d="M84 326q31 75 74 127t73 52q24 0 38.5 -20t16.5 -38q-72 -70 -119 -166q9 -1 21 -1h7q7 -24 7 -46q0 -40 -29 -40q-17 0 -36 6q-10 -40 -10 -75q0 -29 5 -57t19.5 -51.5t37.5 -23.5h5q73 8 128 75.5t80.5 155.5t25.5 175q0 16 -2 46q-7 66 -43.5 114.5t-102.5 48.5 q-11 0 -17 -1q-86 -9 -139.5 -74t-53.5 -146q0 -40 14 -61zM-2 410q0 102 76.5 173t189.5 71q94 0 146.5 -61.5t63.5 -171.5q2 -22 2 -37q0 -64 -18 -136.5t-50.5 -139.5t-86 -111t-116.5 -44q-58 0 -103 46t-52 120q-2 24 -2 36q0 45 11 92q-61 63 -61 163z"/>
    <glyph glyph-name="P" unicode="P" horiz-adv-x="408" d="M230 644q91 0 154 -52.5t63 -155.5q0 -49 -21.5 -91.5t-54 -71t-71.5 -49.5t-72.5 -30.5t-58.5 -9.5h-11q-5 -53 -5 -98q0 -69 10 -129q-14 -2 -21 -2q-40 0 -45 27q-11 71 -11 151q0 34 4 102q-20 10 -39.5 26t-41 57.5t-21.5 93.5q0 106 74 169t168 63zM361 447 q0 42 -14.5 73t-37.5 46.5t-45 22.5t-43 7h-5q-93 -4 -147.5 -62t-54.5 -133q0 -39 17 -71.5t31.5 -45.5t29.5 -22q9 114 27.5 200t34.5 89h4q17 0 37.5 -19t20.5 -27q0 -1 -10 -40.5t-24 -108.5t-21 -136q68 7 134 72.5t66 154.5z"/>
    <glyph glyph-name="Q" unicode="Q" horiz-adv-x="501" d="M127 125q0 -29 5 -57t19.5 -51.5t37.5 -23.5h5q58 6 105 50l-44 33q-3 3 -3 7q0 7 6.5 12.5t13.5 5.5q5 0 7 -2l43 -32q50 60 78 152t28 180q0 16 -2 46q-7 66 -43.5 114.5t-102.5 48.5q-11 0 -17 -1q-86 -9 -139.5 -74t-53.5 -146q0 -40 13 -64q31 77 74.5 129.5 t73.5 52.5q24 0 38.5 -20t16.5 -38q-74 -73 -121 -171q23 -42 23 -66q0 -16 -19 -16q-13 0 -33 5q-9 -36 -9 -74zM-2 410q0 102 76.5 173t189.5 71q94 0 146.5 -61.5t63.5 -171.5q2 -22 2 -37q0 -84 -30.5 -182t-83.5 -164l54 -40q5 -4 5 -10t-6 -11.5t-13 -5.5q-6 0 -13 5 l-50 37q-60 -60 -134 -60q-58 0 -103 46t-52 120q-2 24 -2 36q0 45 11 92q-61 65 -61 163z"/>
    <glyph glyph-name="R" unicode="R" horiz-adv-x="520" d="M90 -11q-5 36 -5 96q0 79 9 158q-13 7 -25.5 17.5t-30 30t-28 51.5t-10.5 70q0 107 74.5 171t164.5 64q93 0 157 -52.5t64 -155.5q0 -74 -42.5 -128.5t-106.5 -87.5q57 -28 58 -97q2 -123 47 -123q28 0 54.5 50t39.5 101l12 50q0 8 11 8q7 0 13 -3.5t6 -9.5 q-2 -10 -5.5 -26t-16 -57.5t-27.5 -73t-40.5 -57.5t-53.5 -26q-49 1 -78.5 48t-31.5 121q-1 51 -57 67q-36 -10 -65 -10q-13 0 -18 1q-10 -75 -10 -139q0 -39 5 -86q-6 -1 -16 -1q-44 0 -48 29zM97 270q14 116 36.5 200t41.5 84q17 0 37 -20t20 -29q0 -1 -10.5 -36 t-26.5 -98.5t-27 -125.5q35 0 68 -3q58 29 98.5 85t40.5 125q0 41 -15 71.5t-38 45.5t-44.5 22t-41.5 7q-95 0 -152.5 -57.5t-57.5 -134.5q0 -29 8 -54.5t21 -41.5t23 -25t19 -15z"/>
    <glyph glyph-name="S" unicode="S" horiz-adv-x="456" d="M321 603h-1q-41 0 -79 -36t-38 -79q0 -11 4.5 -21t9.5 -15l5 -4q4 2 11.5 5.5t25.5 16.5t32.5 28t26 39.5t12.5 50.5q0 15 -9 15zM52 122q0 -50 37 -90t87 -40q59 0 95.5 51.5t36.5 139.5q0 49 -31 107t-61 92l-31 33q-30 -8 -66 -8q-115 0 -115 103q0 28 8 51t20 35 t24 20.5t20 11.5l8 3q21 0 21 -9q0 -4 -8 -10q-3 -1 -7 -3t-15.5 -10t-20 -19t-15.5 -30.5t-8 -42.5q0 -81 92 -81l50 6q-47 46 -47 90q0 57 48 91t105 34h2q34 -1 55 -20.5t21 -56.5q0 -24 -12.5 -47t-30.5 -38.5t-36.5 -27.5t-31.5 -18l-12 -6q7 -6 18.5 -16.5t41 -42.5 t52.5 -63.5t41.5 -75.5t18.5 -82q-2 -86 -53 -139.5t-155 -53.5q-76 0 -130 42t-54 120q0 62 42.5 104.5t88.5 42.5q37 0 63 -11t37.5 -29t16 -33.5t4.5 -32.5l-2 -24q0 -22 -19 -22q-14 0 -27.5 9.5t-13.5 19.5q0 3 -0.5 8t-2.5 18t-6 23t-13 18.5t-21 8.5h-4 q-35 0 -69.5 -26t-35.5 -74z"/>
    <glyph glyph-name="T" unicode="T" horiz-adv-x="408" d="M530 467q0 6 5.5 20.5t5.5 30.5q0 34 -30 54.5t-91 20.5q-75 0 -141 -18.5t-107.5 -45.5t-72 -57t-43.5 -53.5t-13 -35.5q0 -10 29 -14t68.5 -12t59.5 -28q11 93 28 157.5t31 66.5h4q17 0 37.5 -18.5t20.5 -27.5q0 -2 -7 -28t-17 -69t-20 -94.5t-17 -116.5t-7 -123 q0 -65 8 -116q-6 -1 -18 -1q-43 0 -47 27q-9 61 -9 137q0 62 7 146q-2 30 -22 46t-47.5 20t-55 7t-47.5 14t-22 34q0 24 26 65t72 84.5t123.5 75t164.5 31.5q50 0 88.5 -13t59 -31.5t33.5 -42.5t16.5 -41t3.5 -32q0 -17 -7 -27t-14 -11l-7 -1h-2q-27 0 -27 20z"/>
    <glyph glyph-name="U" unicode="U" horiz-adv-x="588" d="M65 646q6 3 16 3q19 0 40.5 -10.5t22.5 -20.5q-6 -28 -15.5 -74.5t-25.5 -168.5t-16 -217q0 -57 12.5 -110t43.5 -53q45 0 88 64.5t73 156.5t54 183.5t36 156.5l11 64q-1 5 5 7.5t16 2.5q20 0 40 -8.5t21 -21.5q-62 -263 -62 -454q0 -52 17 -108.5t44 -56.5q32 0 58.5 55 t37.5 110l11 55q0 10 8 10l17 -7q-1 -10 -4 -27t-13.5 -60.5t-24.5 -76.5t-38.5 -60t-53.5 -27q-35 0 -63.5 24t-44.5 58t-27 68t-15 58l-3 24q-3 -9 -8 -25t-23.5 -56t-40 -70.5t-57 -55.5t-74.5 -25q-60 0 -94 74t-34 155q0 116 16 232t32 174z"/>
    <glyph glyph-name="V" unicode="V" horiz-adv-x="468" d="M47 596q99 -3 99 -27q-51 -222 -52 -324q0 -93 16 -168.5t51 -75.5q56 0 119.5 77t105.5 186t42 198q0 17 -2 38.5t-7.5 51.5t-19 50t-33.5 20q-9 0 -16 9t-7 19q0 20 23 20q49 0 75.5 -50t26.5 -142q0 -110 -44 -230t-119.5 -203.5t-155.5 -83.5h-1q-40 0 -70.5 33 t-46.5 83.5t-23.5 98.5t-7.5 90q0 91 12 173.5t24 119.5z"/>
    <glyph glyph-name="W" unicode="W" horiz-adv-x="697" d="M412 -36q-35 0 -64.5 11.5t-48.5 30t-33.5 40.5t-22.5 44t-12.5 40.5t-6.5 29.5l-1 12q-2 -7 -6.5 -18t-19.5 -39t-30 -49.5t-38 -39t-45 -17.5q-84 0 -84 165q0 63 12 144t24 130l12 49q4 0 10 -1t22 -3.5t28 -6.5t22 -11t10 -15q-58 -215 -58 -335q0 -70 26 -77 q20 0 56.5 65.5t47.5 116.5l18 161q12 19 41 19q17 0 27.5 -5.5t13.5 -10.5l2 -6q-11 -66 -11 -145q0 -225 108 -254q51 0 93 41t67 106t38 138t13 143q0 81 -17 132.5t-47 51.5q-12 0 -20 -4.5t-10 -8.5l-2 -5q0 -3 -4 -3q-9 0 -24.5 12.5t-15.5 22.5q0 3 1 4q9 17 56 17 q59 0 90.5 -68t31.5 -172q0 -101 -27 -197.5t-86 -165.5t-136 -69z"/>
    <glyph glyph-name="X" unicode="X" horiz-adv-x="624" d="M228 328q-7 -7 -18 -19t-40 -48t-51 -71.5t-40 -84t-18 -89.5v-13h-2q-16 0 -32.5 10t-17.5 32q-1 6 -1 18q0 44 20.5 96t49.5 94.5t58 78.5t50 56l20 21q-4 53 -31.5 131t-57.5 78h-1q-36 -2 -62.5 -33.5t-26.5 -71.5q0 -1 0.5 -4t0.5 -5q-6 -2 -10 -2q-21 0 -23 31v4 q0 37 31 74.5t72 41.5h8q33 0 62 -18.5t47 -45.5t31.5 -54t19.5 -45l5 -19q18 14 47.5 35.5t90 58.5t86.5 39h2q25 0 25 -33q0 -15 -6 -26.5t-16 -12.5q-24 -2 -76 -34.5t-92 -64.5l-40 -32l5.5 -22t15 -54t23 -76.5t29.5 -81.5t35 -77t38 -54t41 -22h1q31 1 57 20.5 t41.5 47.5t26 56t14.5 48l4 19v1q0 9 12 9q20 0 20 -18q-1 -9 -4 -23t-15.5 -51t-30 -65.5t-50.5 -52t-74 -24.5h-4q-43 0 -79.5 19t-61.5 49.5t-45 68t-31 74.5t-19 67.5t-11 49.5z"/>
    <glyph glyph-name="Y" unicode="Y" horiz-adv-x="447" d="M304 171q-7 -5 -17.5 -13.5t-38.5 -32.5t-49 -46.5t-38.5 -49.5t-17.5 -47q0 -33 33 -33q32 0 64 55.5t48 111.5zM174 -71q-27 0 -44.5 15t-17.5 39q0 27 20.5 60t50 61t58.5 52t49 38l21 14q16 81 16 259v30q-2 -6 -5 -16.5t-14.5 -41.5t-23.5 -59t-30.5 -62.5t-37 -60 t-42.5 -43.5t-47 -20q-3 0 -8 -0.5t-7 -0.5q-103 0 -115 139q-1 9 -1 29q0 52 12.5 114.5t25.5 99.5l13 37q7 19 24 20q19 -1 44.5 -17.5t26.5 -32.5q-59 -175 -59 -281q0 -78 42 -78h4q27 6 57 48t53 98t42 111.5t29 93.5l11 38v1q0 1 1 2.5t2.5 3.5t4.5 4t7.5 4t11 3.5 t15.5 2.5h3q11 0 23.5 -6.5t18.5 -12.5l7 -7q3 -34 3 -84q0 -70 -5.5 -141.5t-22 -153t-42 -144.5t-69 -106.5t-98.5 -48.5h-7z"/>
    <glyph glyph-name="Z" unicode="Z" horiz-adv-x="567" d="M110 32q-16 0 -43 -16.5t-43 -16.5q-24 0 -24 27q0 11 4.5 20t11.5 9q40 17 72 44q73 58 121.5 135.5t92.5 168t86 145.5q-37 -5 -87 -5q-13 0 -40.5 3.5t-39.5 3.5q-41 0 -41 -33q0 -9 5 -19t9 -16l5 -5q-4 -15 -31 -16q-20 0 -41.5 14t-21.5 41q0 37 30 60t67 24 q20 0 60 -5.5t64 -5.5q115 1 205 59h4q15 0 23.5 -14t8.5 -31q0 -11 -5 -21q-3 -3 -17 -14t-30 -27t-31 -36q-36 -53 -79 -127.5t-70.5 -122t-71.5 -100t-96 -87.5q21 -6 84 -37t100 -32q50 1 94.5 15t63.5 28l19 13q4 2 6 2q7 0 14 -5.5t7 -12.5q0 -5 -4 -8q-10 -8 -29 -19 t-75 -30t-110 -19q-55 0 -128.5 33.5t-98.5 35.5z"/>
    <glyph glyph-name="bracketleft" unicode="[" horiz-adv-x="280" d="M186 -8q0 -18 -49 -18q-6 0 -20.5 0.5t-22.5 0.5q-55 2 -65 8q-9 6 -9 16q0 7 8 76q7 58 16 163t16 163q11 93 16 171q4 46 5 51q6 18 63 18q33 0 75 -7t42 -17q0 -4 -8 -9q-9 -5 -46 -5q-29 0 -33.5 -8.5t-6.5 -59.5q-5 -169 -51 -391q-8 -38 -25 -125v-3q0 -5 36 -6 q59 -3 59 -18z"/>
    <glyph glyph-name="backslash" unicode="\" horiz-adv-x="355" d="M336 54q0 -9 -11 -18.5t-21 -9.5q-3 0 -5 1q-20 8 -156 298q-123 262 -123 294q0 11 13 18.5t31 7.5q8 0 13.5 -6.5t18.5 -30.5q36 -64 131.5 -281t104.5 -255q1 -3 1.5 -6t1 -5l1 -4t0.5 -3z"/>
    <glyph glyph-name="bracketright" unicode="]" horiz-adv-x="287" d="M103 625q0 17 36 17q34 0 55 -1q53 -2 65 -9q9 -6 9 -16t-9 -76q-8 -61 -18 -166t-17 -160q-14 -102 -19 -170q-3 -40 -6 -51q-8 -17 -58 -17q-32 0 -76.5 7.5t-44.5 17.5q0 4 8 9q10 5 31 5h26q20 0 23.5 10t5.5 57q6 167 56 391q6 26 14.5 68.5t11.5 56.5v4q0 3 -35 5 q-58 3 -58 18z"/>
    <glyph glyph-name="asciicircum" unicode="^" horiz-adv-x="267" d="M41 480q-7 0 -7 6q0 5 7 13q46 53 55 93q5 28 23 35l6 2q5 0 13 -11q76 -108 76 -129q0 -8 -13 -17t-23 -9q-11 0 -34.5 52t-24.5 52l-7 -11q-16 -30 -46 -60q-17 -16 -25 -16z"/>
    <glyph glyph-name="underscore" unicode="_" d="M45 -6q-25 0 -25 22q0 11 20 21.5t42 13.5q30 6 76 6q26 0 40 -1q46 -3 55 -17q4 -7 4 -17q-1 -6 -6 -7t-38 -2q-26 -1 -46 -3t-47.5 -6.5t-48.5 -7.5q-18 -2 -26 -2z"/>
    <glyph glyph-name="grave" unicode="`" horiz-adv-x="167" d="M0 621q0 7 10 18t20 11q7 0 17 -11q18 -19 34 -35.5t25.5 -25.5t18 -17.5t12 -12.5t6.5 -8.5t3.5 -7t0.5 -7.5q0 -10 -11.5 -19.5t-22.5 -9.5q-10 0 -28 17t-33.5 36.5t-31.5 41t-18 23.5q-2 4 -2 7z"/>
    <glyph glyph-name="a" unicode="a" horiz-adv-x="361" d="M260 -41h-3q-85 0 -85 160v12q-46 -128 -101 -128q-30 0 -57 28.5t-27 88.5q0 81 38.5 140t84.5 59q51 0 92 -59q17 -2 34 -12.5t17 -21.5q-16 -92 -16 -160q0 -73 24 -73q27 0 52 52.5t37 105.5l11 53q0 8 13 8q17 0 17 -13q-1 -10 -3.5 -26t-13.5 -57.5t-24.5 -73 t-37.5 -57.5t-52 -26zM180 248q-19 27 -34 27q-33 0 -59.5 -61.5t-26.5 -116.5q0 -50 24 -50q33 0 96 201z"/>
    <glyph glyph-name="b" unicode="b" horiz-adv-x="376" d="M225 620h-1q-32 0 -61.5 -41.5t-48 -98.5t-29 -108t-10.5 -76q7 7 19 18.5t43 46t54.5 68t42.5 78t19 80.5q0 33 -28 33zM196 652q47 0 67.5 -24.5t20.5 -61.5q0 -35 -21.5 -80t-52.5 -84t-62.5 -73.5t-53.5 -54.5l-21 -20q-1 -16 -1 -47q0 -27 2 -65q50 171 133 171 q48 0 73 -39.5t25 -100.5q0 -10 -2 -28q48 22 73 59q0 4 19 4t19 -4q-37 -65 -116 -95q-15 -73 -56 -125t-98 -52q-24 0 -40.5 7.5t-23 19.5t-8.5 20.5t-2 15.5q0 16 2.5 29t9.5 23.5t11.5 18.5t18 15t19.5 11t24.5 10t24 7.5t27.5 7t27 6.5q13 50 13 87q0 70 -39 70 q-32 0 -62.5 -55t-45.5 -111l-14 -55q0 -12 -35 -14q-18 0 -23.5 1.5t-7.5 9.5q-20 54 -20 174q0 66 11 135.5t33 135.5t62 108.5t90 42.5zM223 87q-27 -6 -38 -9t-31 -10.5t-28.5 -15t-16 -20.5t-8.5 -30q0 -37 30 -37q25 0 49.5 35t42.5 87z"/>
    <glyph glyph-name="c" unicode="c" horiz-adv-x="293" d="M112 315q34 0 54.5 -24t20.5 -53q0 -39 -33 -39q-7 0 -11 2.5t-5 4.5l-1 3q12 27 12 46q0 20 -16 20q-32 0 -51.5 -54t-19.5 -118q0 -43 10 -70.5t29 -27.5q29 0 60 20.5t53.5 49.5t41.5 58.5t28 50.5l10 20q0 8 11 8q7 0 13 -3.5t6 -9.5q-3 -9 -9.5 -24.5t-28.5 -54.5 t-45.5 -69t-61 -54.5t-75.5 -24.5q-60 0 -89.5 40.5t-29.5 102.5q0 74 37 137t90 63z"/>
    <glyph glyph-name="d" unicode="d" horiz-adv-x="409" d="M377 652q47 0 67.5 -24.5t20.5 -61.5q0 -41 -28.5 -94.5t-71.5 -101.5t-68.5 -73.5t-41.5 -40.5v-34q0 -82 6 -128q14 -91 39 -91q28 0 55 50t41 101l13 50q0 8 13 8q17 0 17 -13q-2 -10 -5.5 -26t-17 -57.5t-29 -73t-41.5 -57.5t-54 -26q-96 4 -109 205 q-48 -161 -112 -161q-30 0 -57 28.5t-27 88.5q0 81 38.5 140t84.5 59q40 0 73 -35q4 65 17.5 126.5t36 117.5t59 90t81.5 34zM406 620h-1q-31 0 -59 -37.5t-46 -91t-29.5 -106t-13.5 -89.5q177 177 177 291q0 33 -28 33zM181 255q-13 20 -26 20q-34 0 -59.5 -66.5 t-25.5 -123.5q0 -38 14 -38q21 0 49 68.5t48 135.5v4z"/>
    <glyph glyph-name="e" unicode="e" d="M112 315q38 0 57 -18.5t19 -47.5q0 -37 -27 -68t-67 -31q-19 0 -33 9q-6 -31 -6 -63q0 -40 11.5 -65.5t34.5 -25.5q29 0 58 20.5t49.5 49.5t37 58.5t24.5 50.5l8 20q0 8 11 8q7 0 13 -3.5t6 -9.5q-3 -9 -8 -24.5t-24 -54.5t-41 -69t-57.5 -54.5t-73.5 -24.5 q-60 0 -89.5 40.5t-29.5 102.5q0 74 37 137t90 63zM66 180q3 -1 9 -1q29 0 52 27t23 51q0 18 -16 18q-22 0 -40 -27t-28 -68z"/>
    <glyph glyph-name="f" unicode="f" horiz-adv-x="246" d="M189 508q-31 0 -58.5 -59.5t-38.5 -118.5l-12 -60q6 3 15 8t32.5 23.5t41.5 39.5t33 54t15 69q0 20 -8 32t-20 12zM177 539q31 0 49 -23t18 -62q0 -38 -17.5 -74.5t-42.5 -61t-49.5 -44t-42.5 -28.5l-17 -9q-4 -45 -4 -50q45 -20 80 -20q29 0 53 9.5t34 18.5l9 9 q4 6 12 6q10 0 14.5 -3t4.5 -5l-1 -3q-4 -6 -13 -15.5t-41.5 -25.5t-70.5 -16q-26 0 -43 4q73 -69 73 -192q0 -44 -20.5 -73t-54.5 -29q-40 1 -66 42.5t-35.5 97.5t-9.5 125q0 67 9.5 136t29.5 135.5t57 108.5t85 42zM70 141v-30q0 -215 45 -215h1q14 0 24 18t10 44 q0 120 -80 183z"/>
    <glyph glyph-name="g" unicode="g" horiz-adv-x="366" d="M76 -326q-47 0 -68 24t-21 61q0 35 21 70t51 60.5t60.5 46t51.5 30.5l21 10q8 68 8 135q0 56 -5 98q-51 -206 -124 -206q-30 0 -57 28.5t-27 88.5q0 81 38.5 140t84.5 59q43 0 81 -44q6 4 30 6q17 0 23 -2t8 -10q20 -54 20 -174q0 -22 -4 -76q40 32 64.5 78.5t29.5 76.5 l4 30q0 8 13 8q17 0 17 -13q0 -6 -1 -16t-9 -39.5t-20.5 -56t-39.5 -59t-63 -54.5q-11 -79 -32.5 -143.5t-62 -110.5t-92.5 -46zM180 248q-19 27 -34 27q-33 0 -59.5 -61.5t-26.5 -116.5q0 -50 24 -50q33 0 96 201zM187 -60q-7 -4 -18 -10t-40 -27.5t-51.5 -43.5t-40.5 -55 t-18 -65q0 -34 28 -34q41 0 76 58.5t49 117.5z"/>
    <glyph glyph-name="h" unicode="h" horiz-adv-x="379" d="M272 236q0 -4 -4 -30.5t-8 -65.5t-4 -74q0 -73 24 -73q27 0 52 52.5t36 105.5l12 53q0 8 13 8q17 0 17 -13q-1 -10 -3.5 -26t-13.5 -57.5t-24.5 -73t-37.5 -57.5t-52 -26q-94 0 -94 122q0 37 10 98t10 72q0 14 -6 14q-24 0 -53 -57.5t-46 -115.5l-18 -58q0 -12 -35 -14 q-27 0 -31 12q-9 26 -16 72q-9 58 -9 121v5q0 66 11 135.5t33 135.5t62 108.5t90 42.5q47 0 67.5 -24.5t20.5 -61.5q0 -35 -21.5 -80t-52.5 -84t-62.5 -73.5t-52.5 -54.5l-22 -20q0 -5 -0.5 -14.5t-0.5 -13.5v-3q0 -66 7 -120q62 208 143 208q59 0 59 -75zM216 620h-1 q-32 0 -61.5 -41.5t-48 -98.5t-29 -108t-10.5 -76q7 7 19 18.5t43 46t54.5 68t42.5 78t19 80.5q0 33 -28 33z"/>
    <glyph glyph-name="i" unicode="i" horiz-adv-x="182" d="M6 321q0 17 12 29t29 12t29 -12t12 -29t-12 -29t-29 -12t-29 12t-12 29zM81 -41h-3q-85 0 -85 160q0 31 3.5 64.5t6.5 51.5l3 18q0 8 11 8q15 0 36 -12t21 -23q-16 -92 -16 -160q0 -73 24 -73q27 0 52 52.5t36 105.5l12 53q0 8 13 8q17 0 17 -13q-1 -10 -3.5 -26 t-13.5 -57.5t-24.5 -73t-37.5 -57.5t-52 -26z"/>
    <glyph glyph-name="j" unicode="j" horiz-adv-x="171" d="M-29 342q0 17 12 29t29 12t29 -12t12 -29t-12 -29t-29 -12t-29 12t-12 29zM-120 -326q-47 0 -67.5 24t-20.5 61q0 35 21 70t51 60.5t60.5 46t51.5 30.5l21 10q8 67 8 132q0 45 -3.5 84.5t-7.5 57.5l-4 17q0 12 36 14q17 0 22.5 -2t7.5 -10q20 -54 20 -174q0 -23 -4 -77 q40 32 65 78.5t29 77.5l5 30q0 8 13 8q17 0 17 -13q0 -6 -1 -16t-9 -39.5t-21 -56t-40 -59t-63 -54.5q-11 -79 -32.5 -143t-62 -110.5t-92.5 -46.5zM-8 -60q-7 -4 -18.5 -10t-40.5 -27.5t-51 -43.5t-40.5 -55t-18.5 -65q0 -34 28 -34q26 0 50 24t40 58.5t28 69.5t17 59z"/>
    <glyph glyph-name="k" unicode="k" horiz-adv-x="323" d="M223 -41h-2q-68 0 -82 152l-2.5 10t-11 16.5t-24.5 10.5h-1q-18 -66 -18 -114q0 -12 -35 -14q-27 0 -31 12q-9 26 -16 72q-9 58 -9 121v5q0 66 11 135.5t33 135.5t62 108.5t90 42.5q47 0 67.5 -24.5t20.5 -61.5q0 -35 -21.5 -80t-52.5 -84t-62.5 -73.5t-52.5 -54.5 l-22 -20q0 -5 -0.5 -14.5t-0.5 -13.5v-3q0 -50 6 -108q9 50 22.5 92.5t38.5 76.5t56 34q19 0 35.5 -13t16.5 -43q0 -69 -90 -99q55 -8 55 -52v-12q0 -106 21 -106q27 0 52 52.5t36 105.5l12 53q0 8 13 8q17 0 17 -13q-1 -10 -3.5 -26t-13.5 -57.5t-24.5 -73t-37.5 -57.5 t-52 -26zM216 620h-1q-32 0 -61.5 -41.5t-48 -98.5t-29 -108t-10.5 -76q7 7 19 18.5t43 46t54.5 68t42.5 78t19 80.5q0 33 -28 33zM109 179q90 43 90 97q0 20 -12 20q-40 0 -78 -117z"/>
    <glyph glyph-name="l" unicode="l" horiz-adv-x="219" d="M187 652q47 0 67.5 -24.5t20.5 -61.5q0 -41 -28.5 -94.5t-71.5 -101.5t-68.5 -73.5t-41.5 -40.5v-34q0 -82 6 -128q14 -91 39 -91q28 0 55 50t41 101l13 50q0 8 13 8q17 0 17 -13q-2 -10 -5.5 -26t-17 -57.5t-29 -73t-41.5 -57.5t-54 -26q-111 4 -111 271q0 66 11 136 t33 136t62 108t90 42zM216 620h-1q-31 0 -59 -37.5t-46 -91t-29.5 -106t-13.5 -89.5q177 177 177 291q0 33 -28 33z"/>
    <glyph glyph-name="m" unicode="m" horiz-adv-x="424" d="M276 229q41 0 54.5 -25t13.5 -74q0 -25 -7 -66.5t-7 -50.5q0 -15 8 -15q16 0 38 51.5t36 102.5l13 52q0 8 13 8q17 0 17 -13q-1 -10 -3.5 -26t-13.5 -57.5t-24.5 -73t-37.5 -57.5t-52 -26q-55 0 -55 82q0 29 7.5 80t7.5 61q0 14 -6 14q-11 0 -29 -33t-31 -66l-12 -33 q0 -5 -9 -8.5t-20 -3.5q-32 0 -32 25q10 125 10 181q0 27 -3 27q-15 0 -37 -66.5t-37 -132.5l-14 -66q0 -11 -28 -11q-8 0 -15 3t-9 6l-3 3q-15 24 -15 101q0 30 3 63.5t7 51.5l3 18q0 11 21 11q16 0 30.5 -6.5t14.5 -16.5q-8 -62 -12 -121q47 196 90 196q40 0 52.5 -25.5 t12.5 -82.5l-3 -49q31 68 63 68z"/>
    <glyph glyph-name="n" unicode="n" horiz-adv-x="359" d="M252 237q0 -5 -4 -31t-8 -64t-4 -74q0 -75 24 -75q27 0 51.5 52.5t36.5 105.5l11 53q0 8 13 8q17 0 17 -13q-1 -10 -3.5 -26t-13 -57.5t-24 -73t-37.5 -57.5t-52 -26q-94 0 -94 123q0 37 9.5 97.5t9.5 71.5q0 14 -6 14q-24 0 -52.5 -61.5t-45.5 -122.5l-16 -61 q0 -11 -28 -11q-8 0 -15 3t-9 6l-3 3q-15 24 -15 101q0 30 3 63.5t7 51.5l3 18q0 11 21 11q16 0 30.5 -6.5t14.5 -16.5q-8 -58 -12 -115q53 183 132 183q59 0 59 -74z"/>
    <glyph glyph-name="o" unicode="o" horiz-adv-x="281" d="M-5 181v8q0 35 26.5 66.5t64.5 36.5q6 1 17 1q50 0 75 -37t25 -97v-8q17 11 34.5 25t26.5 23l9 9q3 7 13 8h5q14 0 14 -9l-1 -2q-4 -6 -12 -16.5t-35 -34.5t-57 -38q-11 -55 -43 -96t-77 -47h-7q-34 0 -58.5 32t-29.5 70q-2 22 -2 32q0 38 12 74zM69 244q26 -15 27 -28 q-15 -30 -26 -70q21 -18 56 -18q17 0 39 5q2 20 2 29q0 41 -14 70.5t-39 29.5h-5q-22 -3 -40 -18zM159 102q-20 -5 -39 -5q-31 0 -59 11q-1 -10 -1 -30q0 -14 1 -21q2 -18 10.5 -28.5t18.5 -10.5h2q47 6 67 84z"/>
    <glyph glyph-name="p" unicode="p" horiz-adv-x="357" d="M203 126q-63 -33 -63 -64q0 -11 8 -11q32 0 55 75zM14 279q2 9 19 9q20 0 31 -11.5t11 -20.5l-11 -205q2 11 6 29t17 64t28 81t38.5 64t47.5 29q40 0 61 -34t21 -84v-14l83 22h2q9 0 9 -10q0 -8 -7 -9q-42 -11 -90 -29q-9 -55 -38 -94t-70 -39q-21 0 -36.5 9.5 t-15.5 28.5q0 51 91 94q9 40 9 78q0 48 -16 48q-30 0 -63.5 -88t-54.5 -198t-21 -181l3 -120v-1q0 -25 -29 -25q-38 0 -38 24v1q-11 173 -11 372q0 53 6 105.5t12 78.5z"/>
    <glyph glyph-name="q" unicode="q" horiz-adv-x="358" d="M231 -41h-2t-5.5 0.5t-4.5 0.5q2 -192 45 -192h1q14 0 24 18t10 44q0 80 -37 137q-16 -8 -31 -8zM195 289q3 6 32 6q14 0 22.5 -5.5t10 -10t1.5 -8.5v-1q-9 -28 -17 -60t-12 -50l-3 -18l-5 -33q-2 -15 -4 -63q27 -16 45 -35q22 23 45 71t36 85l12 37q0 8 13 8 q17 0 17 -13q-4 -17 -11.5 -44t-34 -84.5t-55.5 -85.5q44 -64 44 -159q0 -44 -20.5 -73.5t-54.5 -29.5q-40 1 -66 43t-35.5 98t-9.5 125q0 46 4 86q-36 -72 -78 -72q-30 0 -57 28.5t-27 88.5q0 81 38.5 140t84.5 59q43 0 80 -43q1 2 2.5 6.5t2.5 6.5zM180 248q-19 27 -34 27 q-33 0 -59.5 -61.5t-26.5 -116.5q0 -50 24 -50q33 0 96 201zM240 -6q-5 6 -21 19v-12q5 -8 13 -8q5 0 8 1z"/>
    <glyph glyph-name="r" unicode="r" horiz-adv-x="265" d="M7 362q-4 0 -9 -5.5t-9.5 -18.5t-4.5 -29q0 -23 6 -39.5t12 -21.5l7 -5q12 51 12 86q0 33 -14 33zM-16 399q68 0 68 -82q0 -19 -3.5 -40t-6.5 -33l-4 -12q86 -30 86 -60q0 -28 -8 -82t-8 -84q0 -71 25 -71q27 0 60 67.5t53 134.5l19 67q0 8 13 8q17 0 17 -13 q-3 -12 -7.5 -32t-21 -71.5t-34 -90.5t-45.5 -71t-56 -32h-3q-85 0 -85 160q0 56 7 100q0 14 -1 15q-5 1 -13 3.5t-28.5 13.5t-36.5 25.5t-29 40.5t-13 58q0 39 19 60t36 21z"/>
    <glyph glyph-name="s" unicode="s" horiz-adv-x="231" d="M140 273q-8 -3 -20 -8t-31.5 -26.5t-19.5 -47.5q0 -19 25 -58q28 23 63.5 43t56.5 28l22 8q14 0 14 -21q-80 -27 -141 -81q40 -62 40 -104q-1 -38 -26.5 -61.5t-56.5 -23.5q-24 0 -39.5 16t-15.5 48q0 60 45 112q-4 5 -13 16.5t-13 17t-11 16.5t-10.5 19t-6 19.5 t-2.5 22.5q0 33 15 58t36.5 37t38 18t25.5 6q25 0 25 -51v-3zM73 72q-31 -42 -31 -92q0 -28 15 -28q11 0 21 18.5t10 49.5q0 27 -15 52z"/>
    <glyph glyph-name="t" unicode="t" horiz-adv-x="227" d="M267 471q0 3 3.5 6.5t5.5 3.5q9 0 9 -15q0 -12 -9 -25q-29 -47 -110 -47q-42 0 -83 10q-11 -112 -11 -196q0 -79 11 -142t35 -63q28 0 55 50t41 101l13 50q0 8 13 8q17 0 17 -13q-2 -10 -5.5 -26t-17 -57.5t-29 -73t-41.5 -57.5t-54 -26q-40 1 -66 43t-35.5 98t-9.5 125 q0 82 10 190l1 9q-40 9 -77 9q-69 0 -88 -33q-2 -3 -3.5 -8t-3.5 -8t-6 -3q-9 0 -9 15q0 10 9 25q27 42 100 42q35 0 81 -10l13 96q1 11 35 11h4q34 -1 34 -16q-7 -43 -13 -105v-5q46 -10 80 -10q74 0 97 38q4 7 4 9z"/>
    <glyph glyph-name="u" unicode="u" horiz-adv-x="365" d="M179 101q-38 -97 -95 -97q-85 0 -85 160q0 31 3.5 64.5t6.5 51.5l3 18q0 11 21 11q17 0 33 -7t16 -17q-17 -100 -17 -173q0 -74 23 -74q27 0 52.5 59t37.5 118l13 59l1 4q0 8 11 8q15 0 36 -12t21 -23q-17 -105 -17 -181q0 -77 23 -77q27 0 52 52.5t36 105.5l12 53 q0 8 13 8q17 0 17 -13q-1 -10 -3.5 -26t-13.5 -57.5t-24.5 -73t-38 -57.5t-53.5 -26q-76 0 -84 142z"/>
    <glyph glyph-name="v" unicode="v" horiz-adv-x="356" d="M213 302q-4 0 -10.5 -8t-12.5 -29.5t-6 -51.5q0 -23 6.5 -42t13.5 -27l6 -7q15 85 15 119v2q0 17 -2 27t-4 12t-4 3t-2 2zM14 320h15q28 0 35.5 -10.5t7.5 -59.5q0 -109 19 -199.5t42 -90.5q16 0 33.5 36.5t27.5 73.5l9 36q-2 1 -5.5 3.5t-12.5 12.5t-16 22.5t-12.5 33.5 t-5.5 46q0 43 14.5 75.5t38.5 32.5q30 0 40.5 -19.5t10.5 -56.5q0 -20 -4 -54t-8 -58l-4 -25q9 -4 21 -4q49 0 97 82q5 8 14 8q11 0 11 -10q0 -4 -2 -7q-18 -31 -29 -47t-36.5 -34t-55.5 -18l-26 4q-1 -7 -4 -18t-12 -39.5t-20 -50.5t-28 -40t-35 -18q-40 0 -69 33 t-42.5 74.5t-21.5 98.5t-9 85t-1 54q1 28 5.5 38t17.5 10z"/>
    <glyph glyph-name="w" unicode="w" horiz-adv-x="445" d="M342 302q-4 0 -10.5 -8t-12.5 -29.5t-6 -51.5q0 -23 6.5 -42t12.5 -27l7 -7q15 85 15 119v2q0 17 -2 27t-4 12t-4 3t-2 2zM76 34q16 0 27 56.5t14 113.5l3 56v12q1 28 5.5 38t17.5 10h15q28 0 35.5 -10.5t7.5 -59.5q0 -109 19 -199.5t42 -90.5q16 0 33.5 36.5t26.5 73.5 l10 36q-2 1 -5.5 3.5t-12.5 12.5t-16 22.5t-12.5 33.5t-5.5 46q0 43 14.5 75.5t38.5 32.5q30 0 40.5 -19.5t10.5 -56.5q0 -20 -4 -54t-8 -58l-4 -25q9 -4 21 -4q49 0 97 82q5 8 14 8q11 0 11 -10q0 -4 -2 -7q-18 -31 -29 -47t-36.5 -34t-55.5 -18l-26 4q-1 -7 -4 -18 t-12 -39.5t-20 -50.5t-28 -40t-35 -18q-101 0 -132 195q-4 -45 -18.5 -83.5t-42.5 -38.5h-1q-44 1 -59 65.5t-15 197.5q0 27 4.5 40t9.5 14.5t17 2.5q16 0 26 -5t12 -10l2 -5q-2 -47 -2 -96v-74q0 -96 12 -96z"/>
    <glyph glyph-name="x" unicode="x" horiz-adv-x="286" d="M314 202q-2 -10 -7 -26t-21 -57.5t-33.5 -73.5t-45 -58t-56.5 -26q-63 0 -106 93l-39 -61q-3 -5 -9 -5t-12.5 5t-6.5 11q0 2 2 6l51 78q-14 38 -23.5 84t-12.5 72l-3 27q0 7 8 13t19 6q16 0 26.5 -11.5t12.5 -22.5l3 -12q7 -39 18 -86l92 134q2 2 6 2q7 0 14 -5t7 -11v-1 q-1 -1 -1 -2l-108 -156q34 -125 66 -125q27 0 59 53t51 107l19 53q0 8 13 8q17 0 17 -13z"/>
    <glyph glyph-name="y" unicode="y" horiz-adv-x="367" d="M87 4h-3q-85 0 -85 161q0 30 3 63.5t6 51.5l3 18q0 8 12 8q16 0 36.5 -12t20.5 -23q-16 -92 -16 -160q0 -73 24 -73q30 0 54.5 57t33.5 115l10 57q0 12 36 14q17 0 22.5 -2t7.5 -10q20 -54 20 -174q0 -23 -4 -77q40 32 65 78.5t29 77.5l5 30q0 8 13 8q17 0 17 -13 q0 -6 -1 -16t-9 -39.5t-21 -56t-40 -59t-63 -54.5q-11 -79 -32.5 -143t-62 -110.5t-92.5 -46.5q-47 0 -67.5 24t-20.5 61q0 35 21 70t51 60.5t60.5 46t51.5 30.5l21 10q8 67 8 132q0 35 -1 51q-39 -155 -113 -155zM188 -60q-7 -4 -18.5 -10t-40.5 -27.5t-51 -43.5t-40.5 -55 t-18.5 -65q0 -34 28 -34q26 0 50 24t40 58.5t28 69.5t17 59z"/>
    <glyph glyph-name="z" unicode="z" horiz-adv-x="275" d="M150 -38q-179 -98 -179 -157q0 -17 6 -30.5t16 -13.5q40 0 92.5 69.5t64.5 131.5zM50 19q-2 -2 -8 -2q-13 0 -25.5 8t-12.5 18q18 14 44 37t69.5 75t43.5 83q0 17 -13 17q-7 0 -18.5 -4.5t-27.5 -13.5t-27.5 -16t-30 -19t-24.5 -16q-4 -2 -7 -2q-6 0 -10 4t-4 9q0 3 1 4 q16 26 63 60t74 34q33 0 50 -25t17 -57q0 -19 -25 -55t-50 -62l-25 -27q48 -1 76 -49q40 33 64 79t28 75l4 30q0 8 13 8q17 0 17 -13q0 -5 -1 -14.5t-7.5 -36t-17 -51t-33.5 -55.5t-53 -54q9 -27 9 -58q0 -60 -52 -127t-124 -67h-3q-84 0 -84 70q2 29 27 60.5t63.5 58.5 t65.5 43t54 29q-9 40 -60 40q-7 0 -20.5 -8.5t-18.5 -10.5z"/>
    <glyph glyph-name="braceleft" unicode="{" horiz-adv-x="315" d="M230 -19q0 -14 -43 -14q-75 0 -112.5 43t-37.5 121q0 18 7 74t7 70q0 13 -3 13q-5 0 -16.5 7.5t-11.5 11.5q0 7 12 8q25 4 48 41.5t32 87.5q3 13 7 56q9 83 41 118q27 31 68 31q23 0 45.5 -14.5t22.5 -33.5q0 -11 -12 -11q-10 0 -16 11q-5 11 -10 9q-14 -3 -31.5 -18 t-25.5 -31q-14 -27 -22 -94q-7 -64 -23.5 -97.5t-50.5 -56.5q-12 -8 -12.5 -10.5t8.5 -10.5q23 -19 23 -51q0 -20 -8 -58q-8 -43 -8 -71q0 -62 31 -97q19 -21 57 -24q34 -3 34 -10z"/>
    <glyph glyph-name="bar" unicode="|" horiz-adv-x="138" d="M40 630q4 20 37 20q26 0 37 -11q5 -5 5 -31q0 -29 -4 -70q-19 -187 -26 -299q-12 -168 -18 -199q-5 -24 -19 -33q-9 -6 -17 -6q-6 0 -11 7q-4 8 -4 93q0 128 6.5 308.5t13.5 220.5z"/>
    <glyph glyph-name="braceright" unicode="}" horiz-adv-x="296" d="M46 630q0 17 58 17q59 0 91 -29q54 -48 54 -150q0 -16 -3 -56t-3 -52q0 -25 4 -25q7 0 18.5 -5.5t11.5 -10.5q0 -6 -12 -9q-25 -5 -45.5 -44t-25.5 -90q-2 -21 -4 -56q-4 -85 -33 -122q-28 -36 -71 -36q-27 0 -46 16q-20 17 -20 30q0 10 12 10h1q10 0 15 -10q6 -10 11 -8 q14 4 30.5 20t23.5 33q11 27 15 95q4 64 18 99t46 60q12 9 12 11t-9 10q-26 20 -26 60q0 13 4 50t4 52q0 74 -38 112q-20 20 -59 20q-34 0 -34 8z"/>
    <glyph glyph-name="asciitilde" unicode="~" horiz-adv-x="283" d="M243 387q8 0 14 -7.5t6 -17.5q0 -6 -1 -9q0 -1 -3 -8.5t-9.5 -20.5t-14.5 -23q-20 -26 -45 -26q-41 0 -67 42q-11 20 -23 20q-11 0 -22.5 -16.5t-15.5 -26.5q-3 -9 -22 -9q-8 0 -14 7.5t-6 17.5q0 4 2 12q0 1 3 7.5t9.5 18t14.5 20.5q24 30 51 30q12 0 22.5 -6t16 -12.5 t14.5 -19.5t13 -17q14 -18 24 -18q11 0 21.5 18t13.5 28q5 16 18 16z"/>
    <glyph glyph-name="exclamdown" unicode="" horiz-adv-x="189" d="M116 688q20 0 36.5 -14t16.5 -31q0 -11 -14 -25q-12 -13 -27 -13q-20 1 -37.5 14t-17.5 29q0 18 12.5 29t30.5 11zM119 552q10 0 12.5 -5.5t2.5 -19.5v-20q0 -99 -13 -318t-22 -265q-4 -19 -35 -19q-27 0 -39 12q-5 5 -5 28t6 73q29 245 34 298q14 151 24 198q5 24 19 33 q10 5 16 5z"/>
    <glyph glyph-name="cent" unicode="" horiz-adv-x="272" d="M148 546q44 0 44 -26q0 -13 -7 -40q-2 -6 -3.5 -12.5t-2.5 -9.5t-1 -5q0 -3 19 -14q48 -25 55 -78v-7q0 -15 -8 -15q-6 0 -10.5 4t-7 9t-7.5 16q-8 20 -19 34t-18 14q-22 0 -50 -30q-22 -23 -35.5 -59t-13.5 -71q0 -27 12 -56q5 -10 15.5 -19.5t18.5 -9.5q20 0 44 24 q10 10 20.5 28.5t10.5 25.5q0 11 24 11q19 0 19 -11q0 -5 -3 -11q-16 -32 -40.5 -55.5t-47.5 -28.5q-6 -2 -8.5 -7t-8.5 -30q-9 -35 -13 -39q-6 -4 -15 -4q-7 0 -12 3t-5 16q0 10 -2 38q-2 25 -6 27q-1 1 -3 1q-7 1 -21.5 15.5t-21.5 25.5q-20 35 -20 88q0 41 9 66 q28 75 77 93q11 5 13 10.5t2 37.5q0 42 6 47q5 4 21 4z"/>
    <glyph glyph-name="sterling" unicode="" horiz-adv-x="418" d="M246 297q-20 0 -20 -18q0 -31 -18 -98q-10 -38 -34 -79q-9 -14 -9 -17v-1h1q2 0 22 4q16 3 43 3q82 0 113 -23q29 -20 29 -53q0 -16 -7 -16q-3 0 -11 11q-6 10 -29 18q-22 7 -73 7q-77 0 -159 -26q-43 -13 -47 -13q-5 0 -16 9t-11 13t13 13q30 22 52 59q27 46 42 150 q1 9 2.5 19.5t2.5 16.5l1 5q0 1 -7 1h-11q-19 0 -27 16l-4 8q0 1 5 6q7 5 17 7q25 4 28 6.5t5 19.5q21 205 53 260q27 46 71 46q34 0 66 -22.5t51 -60.5q19 -41 19 -74q0 -23 -12 -23q-5 0 -12 6q-8 7 -12 30q-13 66 -38 94q-15 17 -31 17q-18 0 -33.5 -22t-22.5 -61 q-8 -40 -8 -181q0 -20 1.5 -23t11.5 -4q15 -1 35.5 -6t24.5 -11q3 -6 3 -10q0 -7 -7 -7h-1q-10 1 -22.5 2t-19 1.5t-10.5 0.5z"/>
    <glyph glyph-name="currency" unicode="" horiz-adv-x="534" d="M481 107q0 -9 -13 -22t-28 -13q-8 0 -36 28q-24 24 -41 43q-36 -15 -76 -15q-72 0 -131 38q-63 -60 -81 -73q-16 -10 -21 -10q-10 0 -22 8.5t-12 17.5q0 14 83 104q-48 60 -48 140q0 67 34 117q-51 64 -59 79q-8 13 -8 20q0 10 9.5 22t17.5 12h1q11 0 88 -84 q43 27 113 27q13 0 36 -5q46 -12 90 -44q81 80 97 84l2 1h2q18 0 31 -25q5 -10 5 -14q0 -10 -24 -38q-21 -25 -59 -64q40 -55 40 -130q0 -73 -45 -123q55 -69 55 -81zM286 159q46 10 80 45q55 57 55 132q0 42 -20 85q-35 73 -116 85q-16 2 -18 2q-7 0 -27 -6 q-54 -17 -90 -62t-36 -103q0 -62 40 -115.5t91 -63.5q12 -3 18 -3q7 0 23 4z"/>
    <glyph glyph-name="yen" unicode="" horiz-adv-x="490" d="M306 583q0 9 -1.5 27t-1.5 23q0 17 19 12q11 -3 24.5 -15t18.5 -23q35 -72 35 -226q0 -32 2 -37.5t15 -5.5q18 0 27 -3q9 -2 17.5 -11t8.5 -16q0 -5 -12 -5q-8 0 -34.5 -4t-27.5 -5q-2 -8 -3 -15q-1 -10 0.5 -11.5t14.5 -3.5q30 -3 30 -21q0 -7 -9 -7q-12 0 -27 -3 q-13 -2 -17 -7t-12 -33q-23 -75 -60 -123q-57 -74 -141 -74q-24 0 -45 7q-44 15 -79 40q-28 19 -28 29q0 7 9 7q10 0 41.5 -17.5t45.5 -17.5q20 0 50 16q14 8 35 29t32 38q11 16 24 40t13 28t-12 4q-13 0 -22 5.5t-9 13.5q0 10 16.5 18.5t31.5 10.5t19 15q1 5 -2 5.5 t-10.5 -1t-11.5 -1.5q-10 0 -22 7.5t-12 17.5q0 13 23.5 23t37.5 10q6 0 10 4t8.5 46.5t4.5 67.5q0 14 -2 14t-9 -17q-11 -31 -34.5 -69.5t-42.5 -55.5q-31 -28 -66 -28q-12 0 -24 3q-73 17 -91 101q-3 19 -3 54q0 33 3 57q6 35 29.5 94t34.5 68q3 3 11 3q13 0 31 -9t26 -21 q9 -11 9 -18q0 -5 -17 -48q-41 -103 -41 -174q0 -37 12 -63q6 -13 16 -13q22 1 59.5 41.5t57.5 85.5q27 62 27 137z"/>
    <glyph glyph-name="section" unicode="" horiz-adv-x="323" d="M126 416q-6 0 -12.5 -18.5t-6.5 -29.5q0 -53 34 -88q21 -21 30 -21q7 0 18 9q17 14 17 37q0 29 -13 48.5t-50 51.5q-14 11 -17 11zM304 508q0 -16 -11.5 -32t-20.5 -16q-2 0 -3.5 0.5t-3 2t-2.5 3t-2 4t-1.5 4.5t-1 6t-1 6.5t-1.5 7t-1 7.5q-10 57 -29 83q-5 8 -16 8 t-23 -8q-40 -26 -40 -87q0 -24 8 -37t42 -45q29 -28 44 -44t30 -45.5t15 -58.5q0 -24 -17.5 -39t-45.5 -15q-12 0 -12 -2l1 -2q2 -2 4.5 -5t4.5 -6q42 -53 42 -112q0 -49 -30 -69q-27 -18 -59 -18q-49 0 -92 29q-31 23 -51 60q-10 20 -11 56v17q0 27 4.5 35t18.5 8 q28 0 28 -38q0 -3 -0.5 -11t-0.5 -12q0 -39 12 -59q7 -11 23.5 -26.5t21.5 -15.5t20 12t20 21q13 22 13 48q0 18 -6 42q-7 23 -15.5 36.5t-32.5 36.5q-29 27 -41 44q-29 39 -29 93q0 20 9.5 43t19.5 33q5 5 4.5 7.5t-8.5 18.5q-11 22 -11 51q0 49 29 82.5t71 33.5q5 0 19 -2 q44 -10 79.5 -48.5t35.5 -85.5z"/>
    <glyph glyph-name="dieresis" unicode="" horiz-adv-x="222" d="M53 540q-20 0 -36.5 13.5t-16.5 29.5q0 12 13 25q13 14 27 14q20 0 38 -13.5t18 -29.5q0 -17 -12.5 -28t-30.5 -11zM159 540q-20 0 -36.5 13.5t-16.5 29.5q0 12 13 25q13 14 27 14q20 0 38 -13.5t18 -29.5q0 -17 -12.5 -28t-30.5 -11z"/>
    <glyph glyph-name="copyright" unicode="" horiz-adv-x="457" d="M227 224q-41 0 -67 32t-26 78q0 47 22.5 83t57.5 36q33 0 61 -25q28 -23 28 -63q0 -19 -12 -19q-16 0 -23 23q-4 15 -13 31t-12 16q-5 0 -15 -8.5t-16 -18.5q-16 -29 -16 -74q0 -46 16 -65q3 -3 6 -3q7 0 20 13q5 6 13.5 22.5t8.5 21.5q0 7 11 7t19.5 -4t8.5 -10 q0 -11 -12.5 -32.5t-25.5 -30.5q-15 -10 -34 -10zM252 159q46 10 80 45q55 57 55 132q0 42 -20 85q-35 73 -116 85q-16 2 -19 2q-6 0 -26 -6q-54 -17 -90 -62t-36 -103q0 -62 40 -115.5t91 -63.5q12 -3 18 -3q7 0 23 4zM253 128q-98 0 -165.5 65.5t-67.5 159.5 q0 59 26 103.5t69 68.5q38 21 102 21q13 0 36 -5q60 -15 108 -58.5t65 -99.5q11 -33 11 -72q0 -77 -52.5 -130t-131.5 -53z"/>
    <glyph glyph-name="ordfeminine" unicode="" horiz-adv-x="219" d="M76 500q10 14 24 47.5t14 43.5q0 5 -7 5q-11 0 -21 -10q-13 -13 -26 -44.5t-13 -51.5q0 -10 1.5 -12t9.5 2q6 4 18 20zM139 500q0 -31 10 -31q8 0 19 21t15 48q4 20 8 20q9 0 9 -10q0 -6 -3 -19q-8 -39 -19 -55t-28 -16q-14 0 -25 7q-5 3 -13 18t-8 22q0 15 -12 -7 q-8 -16 -17 -25q-11 -11 -27 -11q-22 0 -35 18t-13 44q0 29 15 54t35 35q12 6 27 6q27 0 47 -17q5 -4 10.5 -7.5t8 -5.5t4.5 -5.5t2 -9.5t-5 -35t-5 -39z"/>
    <glyph glyph-name="guillemotleft" unicode="" horiz-adv-x="245" d="M192 252q-9 7 -34 21q-31 18 -31 28q0 4 13 15q2 2 37 34q24 22 29 22q4 0 11.5 -6.5t7.5 -10.5q0 -14 -34 -41q-26 -20 -26 -25q0 -1 2 -1q3 0 28 -19t26 -23q2 -4 2 -5t-1.5 -1.5t-5.5 -0.5q-7 0 -24 13zM133 389q8 0 16.5 -10.5t8.5 -17.5q0 -4 -5 -11 q-16 -16 -67 -46q-22 -12 -22 -15q0 -2 4 -3q13 -6 41.5 -24t34.5 -24q9 -9 9 -13t-6 -4q-12 0 -38 18q-9 7 -44 24q-45 23 -45 34q0 8 21 21q20 13 51 42q30 29 41 29z"/>
    <glyph glyph-name="logicalnot" unicode="" horiz-adv-x="358" d="M323 188q-15 0 -37 20q-14 14 -14 26q0 8 1 20t2.5 25t1.5 18q1 14 0 16t-10 0q-51 -8 -160 -8q-47 0 -60 5q-10 4 -18.5 12.5t-8.5 13.5q0 8 29.5 11.5t155.5 10.5q56 4 79 4q17 0 26 -6q28 -18 28 -50q0 -26 -3 -62q-3 -52 -8 -55q-2 -1 -4 -1z"/>
    <glyph glyph-name="registered" unicode="" horiz-adv-x="457" d="M275 415q0 12 -3 12l-1 -1h-2q-21 -7 -40.5 -31.5t-29.5 -57.5l-2 -10q0 -3 1 -3q4 0 24 14q53 37 53 77zM349 317q6 0 13.5 -4.5t7.5 -10.5t-6.5 -27t-9.5 -24q-22 -36 -59 -36q-27 0 -53 19t-40 47q-8 16 -10 16l-2 -3q-2 -8 -2 -40q-1 -20 -1.5 -26t-3 -8t-10.5 -2h-2 q-12 0 -21 21q-23 53 -23 125q0 77 22 99q5 5 14 5q13 0 27 -8.5t16 -18.5q0 -3 3 -3q1 0 10 6q20 14 39 14q28 0 48.5 -21.5t20.5 -48.5q0 -65 -87 -83q-6 -1 -6 -4q0 -2 10 -19q24 -42 32 -42q22 0 40 19.5t23 40.5q3 17 10 17zM252 159q46 10 80 45q55 57 55 132 q0 42 -20 85q-35 73 -116 85q-16 2 -19 2q-6 0 -26 -6q-54 -17 -90 -62t-36 -103q0 -62 40 -115.5t91 -63.5q12 -3 18 -3q7 0 23 4zM253 128q-98 0 -165.5 65.5t-67.5 159.5q0 59 26 103.5t69 68.5q38 21 102 21q13 0 36 -5q60 -15 108 -58.5t65 -99.5q11 -33 11 -72 q0 -77 -52.5 -130t-131.5 -53z"/>
    <glyph glyph-name="degree" unicode="" horiz-adv-x="144" d="M41 515q0 -4 1.5 -16t1.5 -14q0 -3 7 -10t10 -7q7 0 18.5 13.5t16.5 23.5q10 19 10 51q0 44 -15 51q-5 3 -20 -13q-30 -33 -30 -79zM60 454q-60 0 -60 82q0 31 11 55t29 33q13 6 28 3q25 -5 41 -24.5t16 -50.5q0 -23 -10.5 -49t-21.5 -37q-14 -12 -33 -12z"/>
    <glyph glyph-name="uni00B2" unicode="" horiz-adv-x="132" d="M67 641q18 0 31.5 -16t13.5 -39q0 -46 -36 -90q-13 -17 -13 -18t7 -1q12 0 21.5 -6.5t9.5 -14.5q0 -5 -5 -4q-12 3 -25 3q-19 0 -50 -6q-9 -1 -15 6q-8 8 -6 11q3 6 17 17q23 19 44 52t25 58q2 14 2 16q0 10 -11 10q-15 0 -31.5 -17.5t-24.5 -42.5q-4 -12 -6 -14t-7 3 q-2 4 -2 10q0 27 19.5 55t41.5 28z"/>
    <glyph glyph-name="uni00B3" unicode="" horiz-adv-x="130" d="M53 443q-24 0 -38.5 15t-14.5 39q0 8 2 9t9 -1q9 -3 11 -17q0 -2 0.5 -6.5t1 -6.5t1.5 -5t2 -4t3.5 -2t5.5 -1q10 0 20.5 8.5t10.5 18.5q0 4 -10.5 18.5t-10.5 18.5q0 6 13 23q22 29 22 49q0 14 -11 14t-26.5 -14.5t-19.5 -26.5q-3 -9 -5 -12t-6 -2q-7 1 -7 11 q0 21 21 42.5t42 21.5q16 0 29 -16t13 -36q0 -26 -23 -50q-10 -10 -10.5 -11.5t2.5 -5.5q18 -14 18 -35q0 -36 -45 -36z"/>
    <glyph glyph-name="acute" unicode="" horiz-adv-x="171" d="M121 654q7 0 18.5 -9t11.5 -19q0 -5 -11 -18q-18 -18 -34 -35t-24.5 -27t-16.5 -18.5t-12 -12t-8 -6.5t-6.5 -4t-6.5 -2h-2q-10 0 -20 11.5t-10 22.5q0 10 16 28.5t34.5 34.5t39 33t23.5 19q2 2 8 2z"/>
    <glyph glyph-name="cedilla" unicode="" horiz-adv-x="132" d="M80 11q-5 0 -9 -2t-7 -2q-5 0 -9 4.5t-4 9.5q0 2 1 4l17 50q4 9 12 9q5 0 9.5 -4.5t4.5 -9.5q0 -2 -1 -4l-10 -28q13 -1 20.5 -11.5t7.5 -25.5q0 -26 -14 -45t-37 -19q-19 0 -30 14.5t-11 35.5q0 5 4.5 9t9.5 4q13 0 13 -13q0 -24 15 -24q8 0 15.5 13.5t7.5 25.5 q0 9 -5 9z"/>
    <glyph glyph-name="uni00B9" unicode="" horiz-adv-x="98" d="M36 455q-4 3 -4 17q0 21 1 40q2 49 4 72q1 5 1 12q0 3 -2 3t-10 -7q-15 -11 -23 -11q-3 0 -3 2l21 23q20 21 23 30t10 9q16 0 22 -10q2 -4 2 -16q0 -21 -3 -40l-6 -70q-3 -41 -6 -49.5t-14 -8.5q-7 0 -13 4z"/>
    <glyph glyph-name="ordmasculine" unicode="" horiz-adv-x="144" d="M33 471q-33 16 -33 72q0 37 16.5 62t40.5 25q1 0 3.5 -0.5t3.5 -0.5q25 -3 39 -18q21 -23 21 -54q0 -12 -3 -24q-16 -69 -61 -69q-14 0 -27 7zM69 482q22 13 32 44q4 9 4 30q0 25 -6 41q-6 12 -12 12q-5 0 -14 -9q-33 -33 -33 -79q0 -23 10 -36q6 -8 8 -8q3 0 11 5z"/>
    <glyph glyph-name="guillemotright" unicode="" horiz-adv-x="243" d="M51 358q4 -3 22.5 -13t31.5 -18.5t13 -14.5q0 -3 -13 -16q-1 -1 -15 -14t-21 -21q-22 -24 -27 -24t-13 6.5t-8 10.5q0 14 34 42q25 22 25 25q0 2 -3 2t-28.5 18t-26.5 22q-2 4 -2 5t1.5 1.5t5.5 0.5t24 -12zM115 224q-8 0 -17 10t-9 17q0 4 5 11q14 18 65 49q22 14 22 15 t-5 3q-13 5 -42 22t-36 23q-10 10 -10 13q0 4 6 4q12 0 39 -16q24 -13 45 -23q46 -20 46 -33q0 -7 -20 -20q-15 -11 -49 -45q-30 -30 -40 -30z"/>
    <glyph glyph-name="questiondown" unicode="" horiz-adv-x="388" d="M20 77q0 55 20 105t48 88t56 74t48 77t20 82v7q0 16 10 25t23 9q11 0 19.5 -6.5t9.5 -19.5q-1 -58 -21 -112.5t-48.5 -96.5t-56.5 -82t-47.5 -83.5t-19.5 -85.5q0 -17 3 -35.5t10.5 -39.5t23.5 -34.5t38 -13.5q42 0 72 19t47.5 55.5t26.5 74.5t15 90q4 34 5 37q2 12 25 7 q21 -6 21 -45q0 -73 -19.5 -132.5t-67.5 -100.5t-118 -41q-75 0 -109 49t-34 129zM232 680q20 0 36.5 -13.5t16.5 -29.5q0 -9 -13 -25q-7 -8 -9.5 -10t-6 -3.5t-10.5 -1.5h-2q-21 0 -38 13t-17 29q0 18 12.5 29.5t30.5 11.5z"/>
    <glyph glyph-name="Agrave" unicode="" horiz-adv-x="605" d="M308 839q0 7 10 18t20 11q7 0 17 -11q18 -19 34 -35.5t25.5 -25.5t18 -17.5t12 -12.5t6.5 -8.5t3.5 -7t0.5 -7.5q0 -10 -12 -19.5t-23 -9.5q-10 0 -28 17t-33 36.5t-31 41t-18 23.5q-2 4 -2 7zM190 300q-28 -10 -53 -22.5t-36 -19.5l-11 -8q40 -60 62 -143q15 105 38 193 zM247 343q52 13 124 13q23 0 33 -1q4 32 12.5 89.5t12.5 90t4 51.5q0 24 -8 24q-102 0 -178 -267zM636 202q0 -2 -5.5 -25.5t-18.5 -60.5t-29.5 -72t-42 -60t-53.5 -25q-101 0 -101 204q0 38 4 80t8 65l3 22q-18 3 -39 3q-57 0 -123 -18q-19 -72 -34.5 -154t-21.5 -129 l-6 -46q1 -6 -5 -9.5t-13 -3.5q-14 0 -15 9v2q-8 69 -28.5 132t-37.5 92l-16 28q-17 -5 -33 -5q-25 0 -25 17q0 33 49 33h1q18 2 39 8.5t56 20t49 18.5q24 86 52 152.5t68 114.5t83 53h8q38 0 74.5 -36.5t36.5 -102.5q0 -44 -29 -179q9 -5 16 -11t9 -9l3 -4q4 -5 1 -10.5 t-8 -7t-8 0.5q-7 6 -19 13q-22 -126 -22 -217q0 -92 29 -92q27 0 55.5 53t43.5 106l15 53q0 9 14 9t16 -12z"/>
    <glyph glyph-name="Aacute" unicode="" horiz-adv-x="605" d="M518 865q7 0 18.5 -9t11.5 -19q0 -5 -11 -18q-18 -18 -34 -35t-24.5 -27t-16.5 -18.5t-12 -12t-8 -6.5t-6.5 -4t-6.5 -2h-2q-10 0 -20 11t-10 22q0 10 16 28.5t34.5 34.5t39.5 33.5t23 19.5t8 2zM190 300q-28 -10 -53 -22.5t-36 -19.5l-11 -8q40 -60 62 -143 q15 105 38 193zM247 343q52 13 124 13q23 0 33 -1q4 32 12.5 89.5t12.5 90t4 51.5q0 24 -8 24q-102 0 -178 -267zM636 202q0 -2 -5.5 -25.5t-18.5 -60.5t-29.5 -72t-42 -60t-53.5 -25q-101 0 -101 204q0 38 4 80t8 65l3 22q-18 3 -39 3q-57 0 -123 -18q-19 -72 -34.5 -154 t-21.5 -129l-6 -46q1 -6 -5 -9.5t-13 -3.5q-14 0 -15 9v2q-8 69 -28.5 132t-37.5 92l-16 28q-17 -5 -33 -5q-25 0 -25 17q0 33 49 33h1q18 2 39 8.5t56 20t49 18.5q24 86 52 152.5t68 114.5t83 53h8q38 0 74.5 -36.5t36.5 -102.5q0 -44 -29 -179q9 -5 16 -11t9 -9l3 -4 q4 -5 1 -10.5t-8 -7t-8 0.5q-7 6 -19 13q-22 -126 -22 -217q0 -92 29 -92q27 0 55.5 53t43.5 106l15 53q0 9 14 9t16 -12z"/>
    <glyph glyph-name="Acircumflex" unicode="" horiz-adv-x="605" d="M334 731q-7 0 -7 5q0 6 7 14q47 54 55 92q5 28 23 35l6 2q4 0 12 -11q77 -110 77 -128q0 -8 -13 -17t-23 -9q-11 0 -34.5 51.5t-24.5 51.5l-7 -11q-15 -28 -46 -59q-17 -16 -25 -16zM190 300q-28 -10 -53 -22.5t-36 -19.5l-11 -8q40 -60 62 -143q15 105 38 193zM247 343 q52 13 124 13q23 0 33 -1q4 32 12.5 89.5t12.5 90t4 51.5q0 24 -8 24q-102 0 -178 -267zM636 202q0 -2 -5.5 -25.5t-18.5 -60.5t-29.5 -72t-42 -60t-53.5 -25q-101 0 -101 204q0 38 4 80t8 65l3 22q-18 3 -39 3q-57 0 -123 -18q-19 -72 -34.5 -154t-21.5 -129l-6 -46 q1 -6 -5 -9.5t-13 -3.5q-14 0 -15 9v2q-8 69 -28.5 132t-37.5 92l-16 28q-17 -5 -33 -5q-25 0 -25 17q0 33 49 33h1q18 2 39 8.5t56 20t49 18.5q24 86 52 152.5t68 114.5t83 53h8q38 0 74.5 -36.5t36.5 -102.5q0 -44 -29 -179q9 -5 16 -11t9 -9l3 -4q4 -5 1 -10.5t-8 -7 t-8 0.5q-7 6 -19 13q-22 -126 -22 -217q0 -92 29 -92q27 0 55.5 53t43.5 106l15 53q0 9 14 9t16 -12z"/>
    <glyph glyph-name="Atilde" unicode="" horiz-adv-x="605" d="M499 826q8 0 14 -7.5t6 -17.5q0 -6 -1 -9q0 -1 -3 -8.5t-9.5 -20.5t-14.5 -23q-20 -26 -45 -26q-41 0 -67 42q-11 20 -23 20q-11 0 -22.5 -16.5t-15.5 -26.5q-3 -9 -22 -9q-8 0 -14 7.5t-6 17.5q0 4 2 12q0 1 3 7.5t9.5 18t14.5 20.5q24 30 51 30q12 0 22.5 -6t16 -12.5 t14.5 -19.5t13 -17q14 -18 24 -18q11 0 21.5 18t13.5 28q5 16 18 16zM190 300q-28 -10 -53 -22.5t-36 -19.5l-11 -8q40 -60 62 -143q15 105 38 193zM247 343q52 13 124 13q23 0 33 -1q4 32 12.5 89.5t12.5 90t4 51.5q0 24 -8 24q-102 0 -178 -267zM636 202q0 -2 -5.5 -25.5 t-18.5 -60.5t-29.5 -72t-42 -60t-53.5 -25q-101 0 -101 204q0 38 4 80t8 65l3 22q-18 3 -39 3q-57 0 -123 -18q-19 -72 -34.5 -154t-21.5 -129l-6 -46q1 -6 -5 -9.5t-13 -3.5q-14 0 -15 9v2q-8 69 -28.5 132t-37.5 92l-16 28q-17 -5 -33 -5q-25 0 -25 17q0 33 49 33h1 q18 2 39 8.5t56 20t49 18.5q24 86 52 152.5t68 114.5t83 53h8q38 0 74.5 -36.5t36.5 -102.5q0 -44 -29 -179q9 -5 16 -11t9 -9l3 -4q4 -5 1 -10.5t-8 -7t-8 0.5q-7 6 -19 13q-22 -126 -22 -217q0 -92 29 -92q27 0 55.5 53t43.5 106l15 53q0 9 14 9t16 -12z"/>
    <glyph glyph-name="Adieresis" unicode="" horiz-adv-x="605" d="M351 714q-20 0 -36.5 13.5t-16.5 29.5q0 12 13 25q13 14 27 14q20 0 38 -13.5t18 -29.5q0 -17 -12.5 -28t-30.5 -11zM457 714q-20 0 -36.5 13.5t-16.5 29.5q0 12 13 25q13 14 27 14q20 0 38 -13.5t18 -29.5q0 -17 -12.5 -28t-30.5 -11zM190 300q-28 -10 -53 -22.5 t-36 -19.5l-11 -8q40 -60 62 -143q15 105 38 193zM247 343q52 13 124 13q23 0 33 -1q4 32 12.5 89.5t12.5 90t4 51.5q0 24 -8 24q-102 0 -178 -267zM636 202q0 -2 -5.5 -25.5t-18.5 -60.5t-29.5 -72t-42 -60t-53.5 -25q-101 0 -101 204q0 38 4 80t8 65l3 22q-18 3 -39 3 q-57 0 -123 -18q-19 -72 -34.5 -154t-21.5 -129l-6 -46q1 -6 -5 -9.5t-13 -3.5q-14 0 -15 9v2q-8 69 -28.5 132t-37.5 92l-16 28q-17 -5 -33 -5q-25 0 -25 17q0 33 49 33h1q18 2 39 8.5t56 20t49 18.5q24 86 52 152.5t68 114.5t83 53h8q38 0 74.5 -36.5t36.5 -102.5 q0 -44 -29 -179q9 -5 16 -11t9 -9l3 -4q4 -5 1 -10.5t-8 -7t-8 0.5q-7 6 -19 13q-22 -126 -22 -217q0 -92 29 -92q27 0 55.5 53t43.5 106l15 53q0 9 14 9t16 -12z"/>
    <glyph glyph-name="Aring" unicode="" horiz-adv-x="605" d="M247 343q52 13 124 13q23 0 33 -1q4 32 12.5 89.5t12.5 90t4 51.5q0 24 -8 24q-102 0 -178 -267zM190 300q-28 -10 -53 -22.5t-36 -19.5l-11 -8q40 -60 62 -143q15 105 38 193zM508 288q-3 0 -5 1.5t-7 5t-11 7.5q-22 -126 -22 -217q0 -92 29 -92q27 0 55.5 53t43.5 106 l15 53q0 9 14 9t16 -12q0 -2 -5.5 -25.5t-18.5 -60.5t-29.5 -72t-42 -60t-53.5 -25q-101 0 -101 204q0 38 4 80t8 65l3 22q-18 3 -39 3q-57 0 -123 -18q-19 -72 -34.5 -154t-21.5 -129l-6 -46v-1q0 -12 -18 -12q-14 0 -15 9v2q-8 69 -28.5 132t-37.5 92l-16 28 q-17 -5 -33 -5q-25 0 -25 17q0 33 49 33h1q18 2 39 8.5t56 20t49 18.5q24 86 52 152.5t68 114.5t83 53h8q-52 9 -52 82q0 31 11 55t29 33q12 5 16 5q31 0 50 -21.5t19 -55.5q0 -23 -10.5 -49t-21.5 -37q-15 -12 -30 -12q36 -5 68 -41.5t32 -97.5q0 -44 -29 -179q9 -5 16 -11 t9 -9l3 -4q2 -2 2 -6q0 -5 -4.5 -8.5t-8.5 -3.5zM463 750q0 52 -18 52q-4 0 -17 -14q-30 -33 -30 -79q0 -4 1.5 -16t1.5 -14q0 -3 7 -10t10 -7q7 0 18.5 13.5t16.5 23.5q10 19 10 51z"/>
    <glyph glyph-name="AE" unicode="" horiz-adv-x="788" d="M491 331q28 17 59 25q-31 18 -43 53q-12 -60 -16 -78zM594 504q50 -23 87 -23q28 0 48 11.5t28.5 28.5t12 29.5t3.5 20.5q0 31 -31 31q-32 0 -76.5 -30t-71.5 -68zM525 -29q-18 -12 -38 -12q-101 0 -101 204q0 38 4 80t8 65l3 22q-18 3 -39 3q-57 0 -123 -18 q-19 -72 -34.5 -154t-21.5 -129l-6 -46v-1q0 -12 -18 -12q-14 0 -15 9v2q-8 69 -28.5 132t-37.5 92l-16 28q-17 -5 -33 -5q-25 0 -25 17q0 33 49 33h1q18 2 39 8.5t56 20t49 18.5q24 86 52 152.5t68 114.5t83 53h8q32 0 63 -25.5t43 -76.5l12 -6q32 45 87.5 75.5t106.5 30.5 q27 0 45 -11.5t24.5 -29.5t8.5 -28.5t2 -20.5v-1q0 -11 -4.5 -25.5t-14.5 -32t-31 -29t-49 -11.5q-52 0 -118 32q-13 -24 -13 -43q0 -29 21 -50.5t71 -21.5q11 0 21 -12t10 -22q0 -6 -6 -8q-102 -27 -156 -76.5t-66 -106.5q-2 -30 -2 -43q4 -47 33 -79.5t69 -32.5 q41 0 78.5 21.5t63 52.5t44.5 62t28 52l9 22q0 8 13 8q18 0 18 -17q-3 -9 -10 -25t-30 -55.5t-49 -70t-67.5 -55.5t-86.5 -25q-24 0 -52 7zM190 300q-28 -10 -53 -22.5t-36 -19.5l-11 -8q40 -60 62 -143q15 105 38 193zM398 411q-4 0 -15.5 6.5t-25.5 27t-14 48.5 q0 33 26.5 56.5t55.5 23.5h7q0 3 0.5 7t0.5 6q0 24 -8 24q-102 0 -178 -267q52 13 124 13q23 0 33 -1q5 36 14.5 105t12.5 94q-29 -2 -47.5 -22.5t-18.5 -40.5q0 -25 9.5 -42t19 -24.5t9.5 -8.5q0 -5 -5 -5z"/>
    <glyph glyph-name="Ccedilla" unicode="" horiz-adv-x="430" d="M52 394q-4 0 -17 7t-29 27.5t-16 49.5q0 34 26.5 57t59.5 23q37 0 96 -26q82 113 184 122h10q26 0 43 -11t23.5 -29t8 -28t1.5 -20v-1q0 -31 -20.5 -64t-70.5 -37q-3 0 -7 -0.5t-7 -0.5q-44 0 -104 23q-42 -71 -67.5 -161.5t-25.5 -167.5q0 -75 25.5 -120t77.5 -45 q42 0 77 22t54.5 53t33 62t18.5 53l4 22q0 9 14 9q16 0 17 -16q-1 -5 -2.5 -13t-8.5 -31t-16 -44.5t-25 -48t-35.5 -46t-48 -34t-60.5 -17.5q-7 -1 -20 -1h-5q3 -3 3 -8q0 -3 -1 -5l-10 -28q13 -1 20.5 -11.5t7.5 -25.5q0 -26 -14 -45t-37 -19q-19 0 -30 14.5t-11 35.5 q0 5 4.5 9t9.5 4q13 0 13 -13q0 -24 15 -24q9 0 16 14t7 26q0 8 -4 8q-5 0 -9.5 -1.5t-7.5 -1.5q-13 0 -13 13q0 3 1 5l17 49q3 5 4 6q-79 9 -118 72.5t-39 159.5q0 81 26 166.5t71 154.5q-53 23 -77 23q-32 0 -51.5 -22t-19.5 -44q0 -26 11 -42.5t22 -23.5t11 -9 q0 -5 -5 -5zM242 502q44 -16 75 -16h11q26 2 44.5 14t26 29t10.5 29.5t3 22.5q0 31 -24 31h-3q-76 -6 -143 -110z"/>
    <glyph glyph-name="Egrave" unicode="" horiz-adv-x="445" d="M251 504q50 -23 87 -23q28 0 48 11.5t28.5 28.5t12 29.5t3.5 20.5q0 31 -31 31q-32 0 -76.5 -30t-71.5 -68zM52 412q-6 2 -14.5 7.5t-23 26t-14.5 47.5q0 33 26.5 56.5t55.5 23.5q40 0 102 -33q32 45 87.5 75.5t106.5 30.5q27 0 45 -11.5t24.5 -29.5t8.5 -28.5t2 -20.5 v-1q0 -11 -4.5 -25.5t-14.5 -32t-31 -29t-49 -11.5q-52 0 -118 32q-13 -24 -13 -43q0 -29 21 -50.5t71 -21.5q11 0 21 -12t10 -22q0 -6 -6 -8q-116 -31 -170.5 -89.5t-54.5 -123.5q0 -52 30 -88.5t73 -36.5q41 0 78.5 21.5t63 52.5t44.5 62t28 52l9 22q0 8 13 8q18 0 18 -17 q-3 -9 -10 -25t-30 -55.5t-49 -70t-67.5 -55.5t-86.5 -25q-84 0 -135.5 56.5t-51.5 135.5q0 67 40 122t120 78q-51 29 -51 108q0 27 18 60q-55 30 -80 30q-32 0 -52 -20.5t-20 -42.5q0 -23 9 -40.5t18 -24.5l9 -6q2 -1 2 -4q0 -5 -5 -5q-1 0 -3 1zM252 839q0 7 10 18t20 11 q7 0 17 -11q18 -19 34 -35.5t25.5 -25.5t18 -17.5t12 -12.5t6.5 -8.5t3.5 -7t0.5 -7.5q0 -10 -12 -19.5t-23 -9.5q-10 0 -28 17t-33 36.5t-31 41t-18 23.5q-2 4 -2 7z"/>
    <glyph glyph-name="Eacute" unicode="" horiz-adv-x="445" d="M441 865q7 0 18.5 -9t11.5 -19q0 -5 -11 -18q-18 -18 -34 -35t-24.5 -27t-16.5 -18.5t-12 -12t-8 -6.5t-6.5 -4t-6.5 -2h-2q-10 0 -20 11t-10 22q0 10 16 28.5t34.5 34.5t39.5 33.5t23 19.5t8 2zM52 412q-6 2 -14.5 7.5t-23 26t-14.5 47.5q0 33 26.5 56.5t55.5 23.5 q40 0 102 -33q32 45 87.5 75.5t106.5 30.5q27 0 45 -11.5t24.5 -29.5t8.5 -28.5t2 -20.5v-1q0 -11 -4.5 -25.5t-14.5 -32t-31 -29t-49 -11.5q-52 0 -118 32q-13 -24 -13 -43q0 -29 21 -50.5t71 -21.5q11 0 21 -12t10 -22q0 -6 -6 -8q-116 -31 -170.5 -89.5t-54.5 -123.5 q0 -52 30 -88.5t73 -36.5q41 0 78.5 21.5t63 52.5t44.5 62t28 52l9 22q0 8 13 8q18 0 18 -17q-3 -9 -10 -25t-30 -55.5t-49 -70t-67.5 -55.5t-86.5 -25q-84 0 -135.5 56.5t-51.5 135.5q0 67 40 122t120 78q-51 29 -51 108q0 27 18 60q-55 30 -80 30q-32 0 -52 -20.5 t-20 -42.5q0 -23 9 -40.5t18 -24.5l9 -6q2 -1 2 -4q0 -5 -5 -5q-1 0 -3 1zM251 504q50 -23 87 -23q28 0 48 11.5t28.5 28.5t12 29.5t3.5 20.5q0 31 -31 31q-32 0 -76.5 -30t-71.5 -68z"/>
    <glyph glyph-name="Ecircumflex" unicode="" horiz-adv-x="445" d="M251 504q50 -23 87 -23q28 0 48 11.5t28.5 28.5t12 29.5t3.5 20.5q0 31 -31 31q-32 0 -76.5 -30t-71.5 -68zM52 412q-6 2 -14.5 7.5t-23 26t-14.5 47.5q0 33 26.5 56.5t55.5 23.5q40 0 102 -33q32 45 87.5 75.5t106.5 30.5q27 0 45 -11.5t24.5 -29.5t8.5 -28.5t2 -20.5 v-1q0 -11 -4.5 -25.5t-14.5 -32t-31 -29t-49 -11.5q-52 0 -118 32q-13 -24 -13 -43q0 -29 21 -50.5t71 -21.5q11 0 21 -12t10 -22q0 -6 -6 -8q-116 -31 -170.5 -89.5t-54.5 -123.5q0 -52 30 -88.5t73 -36.5q41 0 78.5 21.5t63 52.5t44.5 62t28 52l9 22q0 8 13 8q18 0 18 -17 q-3 -9 -10 -25t-30 -55.5t-49 -70t-67.5 -55.5t-86.5 -25q-84 0 -135.5 56.5t-51.5 135.5q0 67 40 122t120 78q-51 29 -51 108q0 27 18 60q-55 30 -80 30q-32 0 -52 -20.5t-20 -42.5q0 -23 9 -40.5t18 -24.5l9 -6q2 -1 2 -4q0 -5 -5 -5q-1 0 -3 1zM272 731q-7 0 -7 5 q0 6 7 14q47 54 55 92q5 28 23 35l6 2q4 0 12 -11q77 -110 77 -128q0 -8 -13 -17t-23 -9q-11 0 -34.5 51.5t-24.5 51.5l-7 -11q-15 -28 -46 -59q-17 -16 -25 -16z"/>
    <glyph glyph-name="Edieresis" unicode="" horiz-adv-x="445" d="M251 504q50 -23 87 -23q28 0 48 11.5t28.5 28.5t12 29.5t3.5 20.5q0 31 -31 31q-32 0 -76.5 -30t-71.5 -68zM52 412q-6 2 -14.5 7.5t-23 26t-14.5 47.5q0 33 26.5 56.5t55.5 23.5q40 0 102 -33q32 45 87.5 75.5t106.5 30.5q27 0 45 -11.5t24.5 -29.5t8.5 -28.5t2 -20.5 v-1q0 -11 -4.5 -25.5t-14.5 -32t-31 -29t-49 -11.5q-52 0 -118 32q-13 -24 -13 -43q0 -29 21 -50.5t71 -21.5q11 0 21 -12t10 -22q0 -6 -6 -8q-116 -31 -170.5 -89.5t-54.5 -123.5q0 -52 30 -88.5t73 -36.5q41 0 78.5 21.5t63 52.5t44.5 62t28 52l9 22q0 8 13 8q18 0 18 -17 q-3 -9 -10 -25t-30 -55.5t-49 -70t-67.5 -55.5t-86.5 -25q-84 0 -135.5 56.5t-51.5 135.5q0 67 40 122t120 78q-51 29 -51 108q0 27 18 60q-55 30 -80 30q-32 0 -52 -20.5t-20 -42.5q0 -23 9 -40.5t18 -24.5l9 -6q2 -1 2 -4q0 -5 -5 -5q-1 0 -3 1zM402 714q-20 0 -36.5 13.5 t-16.5 29.5q0 12 13 25q13 14 27 14q20 0 38 -13.5t18 -29.5q0 -17 -12.5 -28t-30.5 -11zM296 714q-20 0 -36.5 13.5t-16.5 29.5q0 12 13 25q13 14 27 14q20 0 38 -13.5t18 -29.5q0 -17 -12.5 -28t-30.5 -11z"/>
    <glyph glyph-name="Igrave" unicode="" horiz-adv-x="387" d="M184 839q0 7 10 18t20 11q7 0 17 -11q18 -19 34 -35.5t25.5 -25.5t18 -17.5t12 -12.5t6.5 -8.5t3.5 -7t0.5 -7.5q0 -10 -12 -19.5t-23 -9.5q-10 0 -28 17t-33 36.5t-31 41t-18 23.5q-2 4 -2 7zM11 340q-19 22 -19 55q0 45 30 73q37 34 116 67.5t116 66.5q13 13 17 20 q13 31 33 31q10 0 26.5 -8.5t16.5 -19.5q0 -3 -1 -5q-30 -76 -30 -257v-91q0 -57 -2 -95.5t-9 -83.5t-20.5 -73t-38.5 -49t-60 -27q-2 0 -4.5 -0.5t-3.5 -0.5q-21 0 -21 10q0 7 19 10q28 5 43.5 51.5t19.5 119.5t4.5 149.5t3 159t10.5 129.5q-41 -32 -115.5 -65.5 t-92.5 -49.5q-31 -30 -31 -68q0 -23 11 -36q27 -30 62 -30l11 1q3 1 5 -1t1 -4.5t-4 -3.5q-11 -4 -28 -4q-40 0 -65 29z"/>
    <glyph glyph-name="Iacute" unicode="" horiz-adv-x="387" d="M378 865q7 0 18.5 -9t11.5 -19q0 -5 -11 -18q-18 -18 -34 -35t-24.5 -27t-16.5 -18.5t-12 -12t-8 -6.5t-6.5 -4t-6.5 -2h-2q-10 0 -20 11t-10 22q0 10 16 28.5t34.5 34.5t39.5 33.5t23 19.5t8 2zM11 340q-19 22 -19 55q0 45 30 73q37 34 116 67.5t116 66.5q13 13 17 20 q13 31 33 31q10 0 26.5 -8.5t16.5 -19.5q0 -3 -1 -5q-30 -76 -30 -257v-91q0 -57 -2 -95.5t-9 -83.5t-20.5 -73t-38.5 -49t-60 -27q-2 0 -4.5 -0.5t-3.5 -0.5q-21 0 -21 10q0 7 19 10q28 5 43.5 51.5t19.5 119.5t4.5 149.5t3 159t10.5 129.5q-41 -32 -115.5 -65.5 t-92.5 -49.5q-31 -30 -31 -68q0 -23 11 -36q27 -30 62 -30l11 1q3 1 5 -1t1 -4.5t-4 -3.5q-11 -4 -28 -4q-40 0 -65 29z"/>
    <glyph glyph-name="Icircumflex" unicode="" horiz-adv-x="387" d="M184 731q-7 0 -7 5q0 6 7 14q47 54 55 92q5 28 23 35l6 2q4 0 12 -11q77 -110 77 -128q0 -8 -13 -17t-23 -9q-11 0 -34.5 51.5t-24.5 51.5l-7 -11q-15 -28 -46 -59q-17 -16 -25 -16zM11 340q-19 22 -19 55q0 45 30 73q37 34 116 67.5t116 66.5q13 13 17 20q13 31 33 31 q10 0 26.5 -8.5t16.5 -19.5q0 -3 -1 -5q-30 -76 -30 -257v-91q0 -57 -2 -95.5t-9 -83.5t-20.5 -73t-38.5 -49t-60 -27q-2 0 -4.5 -0.5t-3.5 -0.5q-21 0 -21 10q0 7 19 10q28 5 43.5 51.5t19.5 119.5t4.5 149.5t3 159t10.5 129.5q-41 -32 -115.5 -65.5t-92.5 -49.5 q-31 -30 -31 -68q0 -23 11 -36q27 -30 62 -30l11 1q3 1 5 -1t1 -4.5t-4 -3.5q-11 -4 -28 -4q-40 0 -65 29z"/>
    <glyph glyph-name="Idieresis" unicode="" horiz-adv-x="387" d="M238 714q-20 0 -36.5 13.5t-16.5 29.5q0 12 13 25q13 14 27 14q20 0 38 -13.5t18 -29.5q0 -17 -12.5 -28t-30.5 -11zM344 714q-20 0 -36.5 13.5t-16.5 29.5q0 12 13 25q13 14 27 14q20 0 38 -13.5t18 -29.5q0 -17 -12.5 -28t-30.5 -11zM11 340q-19 22 -19 55q0 45 30 73 q37 34 116 67.5t116 66.5q13 13 17 20q13 31 33 31q10 0 26.5 -8.5t16.5 -19.5q0 -3 -1 -5q-30 -76 -30 -257v-91q0 -57 -2 -95.5t-9 -83.5t-20.5 -73t-38.5 -49t-60 -27q-2 0 -4.5 -0.5t-3.5 -0.5q-21 0 -21 10q0 7 19 10q28 5 43.5 51.5t19.5 119.5t4.5 149.5t3 159 t10.5 129.5q-41 -32 -115.5 -65.5t-92.5 -49.5q-31 -30 -31 -68q0 -23 11 -36q27 -30 62 -30l11 1q3 1 5 -1t1 -4.5t-4 -3.5q-11 -4 -28 -4q-40 0 -65 29z"/>
    <glyph glyph-name="Eth" unicode="" horiz-adv-x="521" d="M114 312q-35 -5 -53 -5q-9 0 -14 5q24 -44 63 -64q2 44 4 64zM209 368q28 -1 39.5 -2.5t20.5 -9t9 -22.5q-1 -6 -6 -7t-38 -2q-13 0 -33 -2q-10 -65 -10 -121q0 -46 7 -84q-14 -3 -30 -3q-49 0 -53 23q-6 30 -6 79v3q-12 5 -24.5 13.5t-31 26.5t-32.5 48.5t-19 69.5 q-2 20 -2 29q0 95 72 160.5t157 77.5q7 1 23 1q40 0 82 -15.5t81 -45t63.5 -81t24.5 -116.5q0 -121 -49 -220.5t-125.5 -153.5t-160.5 -55q-35 0 -60.5 14t-25.5 38q0 36 78 69.5t175 37.5l9 9t20 29.5t25 51.5t20 75.5t9 101.5q0 98 -45 156t-117 58q-7 0 -23 -2 q-89 -12 -147.5 -72.5t-58.5 -130.5q0 -38 14 -69v3q0 14 25 24t53 14q21 188 54 188q17 0 42 -20.5t25 -28.5q0 -3 -4.5 -21t-12.5 -51.5t-14 -64.5zM311 82q-59 -8 -117 -26.5t-58 -39.5q0 -11 20 -11q8 0 13 1q31 5 77.5 29.5t64.5 46.5z"/>
    <glyph glyph-name="Ntilde" unicode="" horiz-adv-x="672" d="M528 826q8 0 14 -7.5t6 -17.5q0 -6 -1 -9q0 -1 -3 -8.5t-9.5 -20.5t-14.5 -23q-20 -26 -45 -26q-41 0 -67 42q-11 20 -23 20q-11 0 -22.5 -16.5t-15.5 -26.5q-3 -9 -22 -9q-8 0 -14 7.5t-6 17.5q0 4 2 12q0 1 3 7.5t9.5 18t14.5 20.5q24 30 51 30q12 0 22.5 -6t16 -12.5 t14.5 -19.5t13 -17q14 -18 24 -18q11 0 21.5 18t13.5 28q5 16 18 16zM295 405q0 3 5.5 26.5t19 62t32.5 73.5t49.5 61t65.5 26q105 0 105 -181q0 -70 -18.5 -209.5t-18.5 -180.5q0 -67 29 -67q14 0 30.5 19.5t30 47t25 55t18.5 46.5l6 20q0 9 12 9q16 0 18 -12q-2 -9 -6 -24 t-18 -53.5t-30.5 -67.5t-43.5 -53t-57 -24q-88 0 -88 177q0 66 14.5 200t14.5 177q0 78 -30 78q-35 0 -67.5 -65t-54 -157t-38.5 -184.5t-24 -157.5l-8 -65q0 -26 -24 -26q-16 0 -30.5 13t-15.5 32q3 73 13.5 193t10.5 161q0 19 -1 27q-7 109 -72 109q-44 0 -85.5 -48.5 t-41.5 -104.5q0 -40 26.5 -66.5t50.5 -26.5h2q5 1 5.5 -5t-4.5 -7q-4 -1 -11 -1q-38 0 -66.5 31t-28.5 80q0 85 68.5 147.5t132.5 62.5q32 0 56 -31.5t32.5 -62.5t9.5 -54z"/>
    <glyph glyph-name="Ograve" unicode="" horiz-adv-x="508" d="M164 839q0 7 10 18t20 11q8 0 18 -11q18 -19 34 -35.5t25.5 -25.5t18 -17.5t12 -12.5t6.5 -8.5t3.5 -7t0.5 -7.5q0 -10 -12 -19.5t-23 -9.5q-10 0 -28 17t-33 36.5t-31 41t-18 23.5q-3 6 -3 7zM84 326q31 75 74 127t73 52q24 0 38.5 -20t16.5 -38q-72 -70 -119 -166 q9 -1 21 -1h7q7 -24 7 -46q0 -40 -29 -40q-17 0 -36 6q-10 -40 -10 -74q0 -29 5 -57t19.5 -52t37.5 -24h5q73 8 128 75.5t80.5 155.5t25.5 175q0 16 -2 46q-7 66 -43.5 114.5t-102.5 48.5q-11 0 -17 -1q-86 -9 -139.5 -74t-53.5 -146q0 -40 14 -61zM-2 410q0 102 76.5 173 t189.5 71q94 0 146.5 -61.5t63.5 -171.5q2 -22 2 -37q0 -64 -18 -136.5t-50.5 -139.5t-86 -111t-116.5 -44q-58 0 -103 46t-52 120q-2 24 -2 36q0 45 11 92q-61 63 -61 163z"/>
    <glyph glyph-name="Oacute" unicode="" horiz-adv-x="508" d="M355 865q7 0 18.5 -9t11.5 -19q0 -5 -11 -18q-18 -18 -34 -35t-24.5 -27t-16.5 -18.5t-12 -12t-8 -6.5t-6.5 -4t-6.5 -2h-2q-10 0 -20 11t-10 22q0 10 16 28.5t34.5 34.5t39.5 33.5t23 19.5t8 2zM84 326q31 75 74 127t73 52q24 0 38.5 -20t16.5 -38q-72 -70 -119 -166 q9 -1 21 -1h7q7 -24 7 -46q0 -40 -29 -40q-17 0 -36 6q-10 -40 -10 -74q0 -29 5 -57t19.5 -52t37.5 -24h5q73 8 128 75.5t80.5 155.5t25.5 175q0 16 -2 46q-7 66 -43.5 114.5t-102.5 48.5q-11 0 -17 -1q-86 -9 -139.5 -74t-53.5 -146q0 -40 14 -61zM-2 410q0 102 76.5 173 t189.5 71q94 0 146.5 -61.5t63.5 -171.5q2 -22 2 -37q0 -64 -18 -136.5t-50.5 -139.5t-86 -111t-116.5 -44q-58 0 -103 46t-52 120q-2 24 -2 36q0 45 11 92q-61 63 -61 163z"/>
    <glyph glyph-name="Ocircumflex" unicode="" horiz-adv-x="508" d="M215 731q-7 0 -7 5q0 6 7 14q47 54 55 92q5 28 23 35l6 2q5 0 13 -11q76 -108 76 -128q0 -8 -13 -17t-23 -9q-11 0 -34.5 51.5t-24.5 51.5l-7 -11q-15 -28 -46 -59q-17 -16 -25 -16zM84 326q31 75 74 127t73 52q24 0 38.5 -20t16.5 -38q-72 -70 -119 -166q9 -1 21 -1h7 q7 -24 7 -46q0 -40 -29 -40q-17 0 -36 6q-10 -40 -10 -74q0 -29 5 -57t19.5 -52t37.5 -24h5q73 8 128 75.5t80.5 155.5t25.5 175q0 16 -2 46q-7 66 -43.5 114.5t-102.5 48.5q-11 0 -17 -1q-86 -9 -139.5 -74t-53.5 -146q0 -40 14 -61zM-2 410q0 102 76.5 173t189.5 71 q94 0 146.5 -61.5t63.5 -171.5q2 -22 2 -37q0 -64 -18 -136.5t-50.5 -139.5t-86 -111t-116.5 -44q-58 0 -103 46t-52 120q-2 24 -2 36q0 45 11 92q-61 63 -61 163z"/>
    <glyph glyph-name="Otilde" unicode="" horiz-adv-x="508" d="M384 826q8 0 14 -7.5t6 -17.5q0 -6 -1 -9q0 -1 -3 -8.5t-9.5 -20.5t-14.5 -23q-20 -26 -45 -26q-41 0 -67 42q-11 20 -23 20q-11 0 -22.5 -16.5t-15.5 -26.5q-3 -9 -22 -9q-8 0 -14 7.5t-6 17.5q0 4 2 12q0 1 3 7.5t9.5 18t14.5 20.5q24 30 51 30q12 0 22.5 -6t16 -12.5 t14.5 -19.5t13 -17q14 -18 24 -18q11 0 21.5 18t13.5 28q5 16 18 16zM84 326q31 75 74 127t73 52q24 0 38.5 -20t16.5 -38q-72 -70 -119 -166q9 -1 21 -1h7q7 -24 7 -46q0 -40 -29 -40q-17 0 -36 6q-10 -40 -10 -74q0 -29 5 -57t19.5 -52t37.5 -24h5q73 8 128 75.5 t80.5 155.5t25.5 175q0 16 -2 46q-7 66 -43.5 114.5t-102.5 48.5q-11 0 -17 -1q-86 -9 -139.5 -74t-53.5 -146q0 -40 14 -61zM-2 410q0 102 76.5 173t189.5 71q94 0 146.5 -61.5t63.5 -171.5q2 -22 2 -37q0 -64 -18 -136.5t-50.5 -139.5t-86 -111t-116.5 -44q-58 0 -103 46 t-52 120q-2 24 -2 36q0 45 11 92q-61 63 -61 163z"/>
    <glyph glyph-name="Odieresis" unicode="" horiz-adv-x="508" d="M236 714q-20 0 -36.5 13.5t-16.5 29.5q0 12 13 25q13 14 27 14q20 0 38 -13.5t18 -29.5q0 -17 -12.5 -28t-30.5 -11zM342 714q-20 0 -36.5 13.5t-16.5 29.5q0 12 13 25q13 14 27 14q20 0 38 -13.5t18 -29.5q0 -17 -12.5 -28t-30.5 -11zM84 326q31 75 74 127t73 52 q24 0 38.5 -20t16.5 -38q-72 -70 -119 -166q9 -1 21 -1h7q7 -24 7 -46q0 -40 -29 -40q-17 0 -36 6q-10 -40 -10 -74q0 -29 5 -57t19.5 -52t37.5 -24h5q73 8 128 75.5t80.5 155.5t25.5 175q0 16 -2 46q-7 66 -43.5 114.5t-102.5 48.5q-11 0 -17 -1q-86 -9 -139.5 -74 t-53.5 -146q0 -40 14 -61zM-2 410q0 102 76.5 173t189.5 71q94 0 146.5 -61.5t63.5 -171.5q2 -22 2 -37q0 -64 -18 -136.5t-50.5 -139.5t-86 -111t-116.5 -44q-58 0 -103 46t-52 120q-2 24 -2 36q0 45 11 92q-61 63 -61 163z"/>
    <glyph glyph-name="Oslash" unicode="" horiz-adv-x="508" d="M398 537l-263 -480q16 -64 54 -64h5q73 8 128 75.5t80.5 155.5t25.5 175q0 85 -30 138zM176 194h-3q-17 0 -36 6q-10 -40 -10 -75v-13v-6zM84 326q31 75 74 127t73 52q24 0 38.5 -20t16.5 -38q-72 -70 -119 -166q9 -1 21 -1h7q5 -19 6 -39l177 323q-39 44 -98 44 q-11 0 -17 -1q-86 -9 -139.5 -74t-53.5 -146q0 -40 14 -61zM421 579q55 -74 55 -195q0 -64 -18 -136.5t-50.5 -139.5t-86 -111t-116.5 -44q-59 0 -102 45l-33 -59q-4 -8 -13 -8q-6 0 -10.5 4.5t-4.5 10.5q0 3 2 7l38 71q-34 53 -34 131q0 45 11 92q-61 63 -61 163 q0 102 76.5 173t189.5 71q82 0 136 -51l25 46q4 8 13 8q6 0 10.5 -4.5t4.5 -10.5q0 -3 -2 -7z"/>
    <glyph glyph-name="Ugrave" unicode="" horiz-adv-x="588" d="M160 839q0 7 10 18t20 11q7 0 17 -11q18 -19 34 -35.5t25.5 -25.5t18 -17.5t12 -12.5t6.5 -8.5t3.5 -7t0.5 -7.5q0 -10 -12 -19.5t-23 -9.5q-10 0 -28 17t-33 36.5t-31 41t-18 23.5q-2 4 -2 7zM65 646q6 3 16 3q19 0 40.5 -10.5t22.5 -20.5q-6 -28 -15.5 -74.5 t-25.5 -168.5t-16 -217q0 -57 12.5 -110t43.5 -53q45 0 88 64.5t73 156.5t54 183.5t36 156.5l11 64q-1 5 5 7.5t16 2.5q20 0 40 -8.5t21 -21.5q-62 -263 -62 -454q0 -52 17 -108.5t44 -56.5q32 0 58.5 55t37.5 110l11 55q0 10 8 10l17 -7q-1 -10 -4 -27t-13.5 -60.5 t-24.5 -76.5t-38.5 -60t-53.5 -27q-35 0 -63.5 24t-44.5 58t-27 68t-15 58l-3 24q-3 -9 -8 -25t-23.5 -56t-40 -70.5t-57 -55.5t-74.5 -25q-60 0 -94 74t-34 155q0 116 16 232t32 174z"/>
    <glyph glyph-name="Uacute" unicode="" horiz-adv-x="588" d="M337 865q7 0 18.5 -9t11.5 -19q0 -5 -11 -18q-18 -18 -34 -35t-24.5 -27t-16.5 -18.5t-12 -12t-8 -6.5t-6.5 -4t-6.5 -2h-2q-10 0 -20 11t-10 22q0 10 16 28.5t34.5 34.5t39.5 33.5t23 19.5t8 2zM65 646q6 3 16 3q19 0 40.5 -10.5t22.5 -20.5q-6 -28 -15.5 -74.5 t-25.5 -168.5t-16 -217q0 -57 12.5 -110t43.5 -53q45 0 88 64.5t73 156.5t54 183.5t36 156.5l11 64q-1 5 5 7.5t16 2.5q20 0 40 -8.5t21 -21.5q-62 -263 -62 -454q0 -52 17 -108.5t44 -56.5q32 0 58.5 55t37.5 110l11 55q0 10 8 10l17 -7q-1 -10 -4 -27t-13.5 -60.5 t-24.5 -76.5t-38.5 -60t-53.5 -27q-35 0 -63.5 24t-44.5 58t-27 68t-15 58l-3 24q-3 -9 -8 -25t-23.5 -56t-40 -70.5t-57 -55.5t-74.5 -25q-60 0 -94 74t-34 155q0 116 16 232t32 174z"/>
    <glyph glyph-name="Ucircumflex" unicode="" horiz-adv-x="588" d="M-125 730q-7 0 -7 6q0 5 7 13q46 53 55 93q5 28 23 35l6 2q5 0 13 -11q76 -108 76 -129q0 -8 -13 -17t-23 -9q-11 0 -34.5 52t-24.5 52l-7 -11q-16 -30 -46 -60q-17 -16 -25 -16zM65 646q6 3 16 3q19 0 40.5 -10.5t22.5 -20.5q-6 -28 -15.5 -74.5t-25.5 -168.5t-16 -217 q0 -57 12.5 -110t43.5 -53q45 0 88 64.5t73 156.5t54 183.5t36 156.5l11 64q-1 5 5 7.5t16 2.5q20 0 40 -8.5t21 -21.5q-62 -263 -62 -454q0 -52 17 -108.5t44 -56.5q32 0 58.5 55t37.5 110l11 55q0 10 8 10l17 -7q-1 -10 -4 -27t-13.5 -60.5t-24.5 -76.5t-38.5 -60 t-53.5 -27q-35 0 -63.5 24t-44.5 58t-27 68t-15 58l-3 24q-3 -9 -8 -25t-23.5 -56t-40 -70.5t-57 -55.5t-74.5 -25q-60 0 -94 74t-34 155q0 116 16 232t32 174z"/>
    <glyph glyph-name="Udieresis" unicode="" horiz-adv-x="588" d="M224 714q-20 0 -36.5 13.5t-16.5 29.5q0 12 13 25q13 14 27 14q20 0 38 -13.5t18 -29.5q0 -17 -12.5 -28t-30.5 -11zM330 714q-20 0 -36.5 13.5t-16.5 29.5q0 12 13 25q13 14 27 14q20 0 38 -13.5t18 -29.5q0 -17 -12.5 -28t-30.5 -11zM65 646q6 3 16 3q19 0 40.5 -10.5 t22.5 -20.5q-6 -28 -15.5 -74.5t-25.5 -168.5t-16 -217q0 -57 12.5 -110t43.5 -53q45 0 88 64.5t73 156.5t54 183.5t36 156.5l11 64q-1 5 5 7.5t16 2.5q20 0 40 -8.5t21 -21.5q-62 -263 -62 -454q0 -52 17 -108.5t44 -56.5q32 0 58.5 55t37.5 110l11 55q0 10 8 10l17 -7 q-1 -10 -4 -27t-13.5 -60.5t-24.5 -76.5t-38.5 -60t-53.5 -27q-35 0 -63.5 24t-44.5 58t-27 68t-15 58l-3 24q-3 -9 -8 -25t-23.5 -56t-40 -70.5t-57 -55.5t-74.5 -25q-60 0 -94 74t-34 155q0 116 16 232t32 174z"/>
    <glyph glyph-name="Yacute" unicode="" horiz-adv-x="447" d="M311 865q7 0 18.5 -9t11.5 -19q0 -5 -11 -18q-18 -18 -34 -35t-24.5 -27t-16.5 -18.5t-12 -12t-8 -6.5t-6.5 -4t-6.5 -2h-2q-10 0 -20 11t-10 22q0 10 16 28.5t34.5 34.5t39.5 33.5t23 19.5t8 2zM304 171q-7 -5 -17.5 -13.5t-38.5 -32.5t-49 -46.5t-38.5 -49.5t-17.5 -47 q0 -33 33 -33q32 0 64 55.5t48 111.5zM174 -71q-27 0 -44.5 15t-17.5 39q0 27 20.5 60t50 61t58.5 52t49 38l21 14q16 81 16 259v30q-2 -6 -5 -16.5t-14.5 -41.5t-23.5 -59t-30.5 -62.5t-37 -60t-42.5 -43.5t-47 -20q-3 0 -8 -0.5t-7 -0.5q-103 0 -115 139q-1 9 -1 29 q0 52 12.5 114.5t25.5 99.5l13 37q7 19 24 20q19 -1 44.5 -17.5t26.5 -32.5q-59 -175 -59 -281q0 -78 42 -78h4q27 6 57 48t53 98t42 111.5t29 93.5l11 38v1q0 1 1 2.5t2.5 3.5t4.5 4t7.5 4t11 3.5t15.5 2.5h3q11 0 23.5 -6.5t18.5 -12.5l7 -7q3 -34 3 -84 q0 -70 -5.5 -141.5t-22 -153t-42 -144.5t-69 -106.5t-98.5 -48.5h-7z"/>
    <glyph glyph-name="agrave" unicode="" horiz-adv-x="361" d="M58 504q0 6 10 17.5t20 11.5q7 0 17 -11q18 -19 34 -35.5t25.5 -25.5t18 -17.5t12 -12.5t6.5 -8.5t3.5 -7t0.5 -7.5q0 -10 -12 -19.5t-23 -9.5q-10 0 -28 17t-33 36.5t-31 41t-18 23.5q-2 4 -2 7zM260 -41h-3q-85 0 -85 160v12q-46 -128 -101 -128q-30 0 -57 28.5 t-27 88.5q0 81 38.5 140t84.5 59q51 0 92 -59q17 -2 34 -12.5t17 -21.5q-16 -92 -16 -160q0 -73 24 -73q27 0 52 52.5t37 105.5l11 53q0 8 13 8q17 0 17 -13q-1 -10 -3.5 -26t-13.5 -57.5t-24.5 -73t-37.5 -57.5t-52 -26zM180 248q-19 27 -34 27q-33 0 -59.5 -61.5 t-26.5 -116.5q0 -50 24 -50q33 0 96 201z"/>
    <glyph glyph-name="aacute" unicode="" horiz-adv-x="361" d="M222 530q7 0 18.5 -9t11.5 -19q0 -5 -11 -18q-18 -18 -34 -35t-24.5 -27t-16.5 -18.5t-12 -12t-8 -6.5t-6.5 -4t-6.5 -2h-2q-10 0 -20 11.5t-10 22.5q0 10 16 28.5t34.5 34.5t39 33t23.5 19q2 2 8 2zM260 -41h-3q-85 0 -85 160v12q-46 -128 -101 -128q-30 0 -57 28.5 t-27 88.5q0 81 38.5 140t84.5 59q51 0 92 -59q17 -2 34 -12.5t17 -21.5q-16 -92 -16 -160q0 -73 24 -73q27 0 52 52.5t37 105.5l11 53q0 8 13 8q17 0 17 -13q-1 -10 -3.5 -26t-13.5 -57.5t-24.5 -73t-37.5 -57.5t-52 -26zM180 248q-19 27 -34 27q-33 0 -59.5 -61.5 t-26.5 -116.5q0 -50 24 -50q33 0 96 201z"/>
    <glyph glyph-name="acircumflex" unicode="" horiz-adv-x="361" d="M260 -41h-3q-85 0 -85 160v12q-46 -128 -101 -128q-30 0 -57 28.5t-27 88.5q0 81 38.5 140t84.5 59q51 0 92 -59q17 -2 34 -12.5t17 -21.5q-16 -92 -16 -160q0 -73 24 -73q27 0 52 52.5t37 105.5l11 53q0 8 13 8q17 0 17 -13q-1 -10 -3.5 -26t-13.5 -57.5t-24.5 -73 t-37.5 -57.5t-52 -26zM180 248q-19 27 -34 27q-33 0 -59.5 -61.5t-26.5 -116.5q0 -50 24 -50q33 0 96 201zM78 396q-7 0 -7 6q0 5 7 13q46 53 55 93q5 28 23 35l6 2q5 0 13 -11q76 -108 76 -129q0 -8 -13 -17t-23 -9q-11 0 -34.5 52t-24.5 52l-7 -11q-16 -30 -46 -60 q-17 -16 -25 -16z"/>
    <glyph glyph-name="atilde" unicode="" horiz-adv-x="361" d="M253 491q8 0 14 -7.5t6 -17.5q0 -6 -1 -9q0 -1 -3 -8.5t-9.5 -20.5t-14.5 -23q-20 -26 -45 -26q-41 0 -67 42q-11 20 -23 20q-11 0 -22.5 -16.5t-15.5 -26.5q-3 -9 -22 -9q-8 0 -14 7.5t-6 17.5q0 4 2 12q0 1 3 7.5t9.5 18t14.5 20.5q24 30 51 30q12 0 22.5 -6t16 -12.5 t14.5 -19.5t13 -17q14 -18 24 -18q11 0 21.5 18t13.5 28q5 16 18 16zM260 -41h-3q-85 0 -85 160v12q-46 -128 -101 -128q-30 0 -57 28.5t-27 88.5q0 81 38.5 140t84.5 59q51 0 92 -59q17 -2 34 -12.5t17 -21.5q-16 -92 -16 -160q0 -73 24 -73q27 0 52 52.5t37 105.5l11 53 q0 8 13 8q17 0 17 -13q-1 -10 -3.5 -26t-13.5 -57.5t-24.5 -73t-37.5 -57.5t-52 -26zM180 248q-19 27 -34 27q-33 0 -59.5 -61.5t-26.5 -116.5q0 -50 24 -50q33 0 96 201z"/>
    <glyph glyph-name="adieresis" unicode="" horiz-adv-x="361" d="M91 379q-20 0 -36.5 13.5t-16.5 29.5q0 12 13 25q13 14 27 14q20 0 38 -13.5t18 -29.5q0 -17 -12.5 -28t-30.5 -11zM197 379q-20 0 -36.5 13.5t-16.5 29.5q0 12 13 25q13 14 27 14q20 0 38 -13.5t18 -29.5q0 -17 -12.5 -28t-30.5 -11zM260 -41h-3q-85 0 -85 160v12 q-46 -128 -101 -128q-30 0 -57 28.5t-27 88.5q0 81 38.5 140t84.5 59q51 0 92 -59q17 -2 34 -12.5t17 -21.5q-16 -92 -16 -160q0 -73 24 -73q27 0 52 52.5t37 105.5l11 53q0 8 13 8q17 0 17 -13q-1 -10 -3.5 -26t-13.5 -57.5t-24.5 -73t-37.5 -57.5t-52 -26zM180 248 q-19 27 -34 27q-33 0 -59.5 -61.5t-26.5 -116.5q0 -50 24 -50q33 0 96 201z"/>
    <glyph glyph-name="aring" unicode="" horiz-adv-x="361" d="M188 481q0 52 -18 52q-4 0 -17 -14q-30 -33 -30 -79q0 -4 1.5 -16t1.5 -14q0 -3 7 -10t10 -7q7 0 18.5 13.5t16.5 23.5q10 19 10 51zM138 554q31 0 50 -21.5t19 -54.5q0 -23 -10.5 -49.5t-21.5 -37.5q-13 -12 -32 -12q-30 0 -45.5 22.5t-15.5 59.5q0 31 11 55t29 33 q12 5 16 5zM260 -41h-3q-85 0 -85 160v12q-46 -128 -101 -128q-30 0 -57 28.5t-27 88.5q0 81 38.5 140t84.5 59q51 0 92 -59q17 -2 34 -12.5t17 -21.5q-16 -92 -16 -160q0 -73 24 -73q27 0 52 52.5t37 105.5l11 53q0 8 13 8q17 0 17 -13q-1 -10 -3.5 -26t-13.5 -57.5 t-24.5 -73t-37.5 -57.5t-52 -26zM180 248q-19 27 -34 27q-33 0 -59.5 -61.5t-26.5 -116.5q0 -50 24 -50q33 0 96 201z"/>
    <glyph glyph-name="ae" unicode="" horiz-adv-x="447" d="M180 248q-19 27 -34 27q-33 0 -59.5 -61.5t-26.5 -116.5q0 -50 24 -50q33 0 96 201zM236 180q3 -1 9 -1q29 0 52 27t23 51q0 18 -16 18q-22 0 -40 -27t-28 -68zM282 315q38 0 57 -18.5t19 -47.5q0 -37 -27 -68t-67 -31q-19 0 -33 9q-6 -32 -6 -63q0 -40 11.5 -65.5 t34.5 -25.5q29 0 58 20.5t49.5 49.5t37 58.5t24.5 50.5l8 20q0 8 11 8q7 0 13 -3.5t6 -9.5q-3 -9 -8 -24.5t-24 -54.5t-41 -69t-57.5 -54.5t-73.5 -24.5q-54 0 -83 33t-35 86q-39 -88 -85 -88q-30 0 -57 28.5t-27 88.5q0 81 38.5 140t84.5 59q51 0 89 -55q36 51 83 51z"/>
    <glyph glyph-name="ccedilla" unicode="" horiz-adv-x="293" d="M95 -96q-5 0 -9 -2t-7 -2q-5 0 -9 4.5t-4 9.5q0 2 1 4l17 50q2 4 3 5q-51 6 -76.5 45.5t-25.5 96.5q0 74 37 137t90 63q34 0 54.5 -24t20.5 -53q0 -39 -33 -39q-7 0 -11 2.5t-5 4.5l-1 3q12 27 12 46q0 20 -16 20q-32 0 -51.5 -54t-19.5 -118q0 -43 10 -70.5t29 -27.5 q29 0 60 20.5t53.5 49.5t41.5 58.5t28 50.5l10 20q0 8 11 8q7 0 13 -3.5t6 -9.5q-2 -5 -5 -13t-14 -31t-23.5 -44.5t-32 -47.5t-40 -45t-47.5 -32t-55 -14q3 -3 3 -9q0 -2 -1 -4l-10 -28q13 -1 20.5 -11.5t7.5 -25.5q0 -26 -14 -45t-37 -19q-19 0 -30 14.5t-11 35.5 q0 5 4.5 9t9.5 4q13 0 13 -13q0 -24 14 -24q9 0 16 14t7 26q0 8 -4 8z"/>
    <glyph glyph-name="egrave" unicode="" d="M13 500q0 6 10 17.5t20 11.5q7 0 17 -11q18 -19 34 -35.5t25.5 -25.5t18 -17.5t12 -12.5t6.5 -8.5t3.5 -7t0.5 -7.5q0 -10 -12 -19.5t-23 -9.5q-10 0 -28 17t-33 36.5t-31 41t-18 23.5q-2 4 -2 7zM112 315q38 0 57 -18.5t19 -47.5q0 -37 -27 -68t-67 -31q-19 0 -33 9 q-6 -31 -6 -63q0 -40 11.5 -65.5t34.5 -25.5q29 0 58 20.5t49.5 49.5t37 58.5t24.5 50.5l8 20q0 8 11 8q7 0 13 -3.5t6 -9.5q-3 -9 -8 -24.5t-24 -54.5t-41 -69t-57.5 -54.5t-73.5 -24.5q-60 0 -89.5 40.5t-29.5 102.5q0 74 37 137t90 63zM66 180q3 -1 9 -1q29 0 52 27 t23 51q0 18 -16 18q-22 0 -40 -27t-28 -68z"/>
    <glyph glyph-name="eacute" unicode="" d="M185 526q7 0 18.5 -9t11.5 -19q0 -5 -11 -18q-18 -18 -34 -35t-24.5 -27t-16.5 -18.5t-12 -12t-8 -6.5t-6.5 -4t-6.5 -2h-2q-10 0 -20 11.5t-10 22.5q0 10 16 28.5t34.5 34.5t39 33t23.5 19q2 2 8 2zM112 315q38 0 57 -18.5t19 -47.5q0 -37 -27 -68t-67 -31q-19 0 -33 9 q-6 -31 -6 -63q0 -40 11.5 -65.5t34.5 -25.5q29 0 58 20.5t49.5 49.5t37 58.5t24.5 50.5l8 20q0 8 11 8q7 0 13 -3.5t6 -9.5q-3 -9 -8 -24.5t-24 -54.5t-41 -69t-57.5 -54.5t-73.5 -24.5q-60 0 -89.5 40.5t-29.5 102.5q0 74 37 137t90 63zM66 180q3 -1 9 -1q29 0 52 27 t23 51q0 18 -16 18q-22 0 -40 -27t-28 -68z"/>
    <glyph glyph-name="ecircumflex" unicode="" d="M112 315q38 0 57 -18.5t19 -47.5q0 -37 -27 -68t-67 -31q-19 0 -33 9q-6 -31 -6 -63q0 -40 11.5 -65.5t34.5 -25.5q29 0 58 20.5t49.5 49.5t37 58.5t24.5 50.5l8 20q0 8 11 8q7 0 13 -3.5t6 -9.5q-3 -9 -8 -24.5t-24 -54.5t-41 -69t-57.5 -54.5t-73.5 -24.5 q-60 0 -89.5 40.5t-29.5 102.5q0 74 37 137t90 63zM66 180q3 -1 9 -1q29 0 52 27t23 51q0 18 -16 18q-22 0 -40 -27t-28 -68zM33 392q-7 0 -7 6q0 5 7 13q46 53 55 93q5 28 23 35l6 2q5 0 13 -11q76 -108 76 -129q0 -8 -13 -17t-23 -9q-11 0 -34.5 52t-24.5 52l-7 -11 q-16 -30 -46 -60q-17 -16 -25 -16z"/>
    <glyph glyph-name="edieresis" unicode="" d="M63 375q-20 0 -36.5 13.5t-16.5 29.5q0 12 13 25q13 14 27 14q20 0 38 -13.5t18 -29.5q0 -17 -12.5 -28t-30.5 -11zM169 375q-20 0 -36.5 13.5t-16.5 29.5q0 12 13 25q13 14 27 14q20 0 38 -13.5t18 -29.5q0 -17 -12.5 -28t-30.5 -11zM112 315q38 0 57 -18.5t19 -47.5 q0 -37 -27 -68t-67 -31q-19 0 -33 9q-6 -31 -6 -63q0 -40 11.5 -65.5t34.5 -25.5q29 0 58 20.5t49.5 49.5t37 58.5t24.5 50.5l8 20q0 8 11 8q7 0 13 -3.5t6 -9.5q-3 -9 -8 -24.5t-24 -54.5t-41 -69t-57.5 -54.5t-73.5 -24.5q-60 0 -89.5 40.5t-29.5 102.5q0 74 37 137t90 63 zM66 180q3 -1 9 -1q29 0 52 27t23 51q0 18 -16 18q-22 0 -40 -27t-28 -68z"/>
    <glyph glyph-name="igrave" unicode="" horiz-adv-x="184" d="M-59 493q0 7 10 18t20 11q7 0 17 -11q18 -19 34 -35.5t25.5 -25.5t18 -17.5t12 -12.5t6.5 -8.5t3.5 -7t0.5 -7.5q0 -10 -12 -19.5t-23 -9.5q-10 0 -28 17t-33 36.5t-31 41t-18 23.5q-2 4 -2 7zM83 -41h-3q-85 0 -85 160q0 31 3.5 64.5t6.5 51.5l3 18q0 8 11 8 q15 0 36 -12t21 -23q-16 -92 -16 -160q0 -73 24 -73q27 0 52 52.5t36 105.5l12 53q0 8 13 8q17 0 17 -13q-1 -10 -3.5 -26t-13.5 -57.5t-24.5 -73t-37.5 -57.5t-52 -26z"/>
    <glyph glyph-name="iacute" unicode="" horiz-adv-x="184" d="M121 519q7 0 18.5 -9t11.5 -19q0 -5 -11 -18q-18 -18 -34 -35t-24.5 -27t-16.5 -18.5t-12 -12t-8 -6.5t-6.5 -4t-6.5 -2h-2q-10 0 -20 11.5t-10 22.5q0 10 16 28.5t34.5 34.5t39 33t23.5 19q2 2 8 2zM83 -41h-3q-85 0 -85 160q0 31 3.5 64.5t6.5 51.5l3 18q0 8 11 8 q15 0 36 -12t21 -23q-16 -92 -16 -160q0 -73 24 -73q27 0 52 52.5t36 105.5l12 53q0 8 13 8q17 0 17 -13q-1 -10 -3.5 -26t-13.5 -57.5t-24.5 -73t-37.5 -57.5t-52 -26z"/>
    <glyph glyph-name="icircumflex" unicode="" horiz-adv-x="184" d="M83 -41h-3q-85 0 -85 160q0 31 3.5 64.5t6.5 51.5l3 18q0 8 11 8q15 0 36 -12t21 -23q-16 -92 -16 -160q0 -73 24 -73q27 0 52 52.5t36 105.5l12 53q0 8 13 8q17 0 17 -13q-1 -10 -3.5 -26t-13.5 -57.5t-24.5 -73t-37.5 -57.5t-52 -26zM-35 385q-7 0 -7 6q0 5 7 13 q46 53 55 93q5 28 23 35l6 2q5 0 13 -11q76 -108 76 -129q0 -8 -13 -17t-23 -9q-11 0 -34.5 52t-24.5 52l-7 -11q-16 -30 -46 -60q-17 -16 -25 -16z"/>
    <glyph glyph-name="idieresis" unicode="" horiz-adv-x="184" d="M-2 368q-20 0 -36.5 13.5t-16.5 29.5q0 12 13 25q13 14 27 14q20 0 38 -13.5t18 -29.5q0 -17 -12.5 -28t-30.5 -11zM104 368q-20 0 -36.5 13.5t-16.5 29.5q0 12 13 25q13 14 27 14q20 0 38 -13.5t18 -29.5q0 -17 -12.5 -28t-30.5 -11zM83 -41h-3q-85 0 -85 160 q0 31 3.5 64.5t6.5 51.5l3 18q0 8 11 8q15 0 36 -12t21 -23q-16 -92 -16 -160q0 -73 24 -73q27 0 52 52.5t36 105.5l12 53q0 8 13 8q17 0 17 -13q-1 -10 -3.5 -26t-13.5 -57.5t-24.5 -73t-37.5 -57.5t-52 -26z"/>
    <glyph glyph-name="ntilde" unicode="" horiz-adv-x="359" d="M230 483q8 0 14 -7.5t6 -17.5q0 -6 -1 -9q0 -1 -3 -8.5t-9.5 -20.5t-14.5 -23q-20 -26 -45 -26q-41 0 -67 42q-11 20 -23 20q-11 0 -22.5 -16.5t-15.5 -26.5q-3 -9 -22 -9q-8 0 -14 7.5t-6 17.5q0 4 2 12q0 1 3 7.5t9.5 18t14.5 20.5q24 30 51 30q12 0 22.5 -6t16 -12.5 t14.5 -19.5t13 -17q14 -18 24 -18q11 0 21.5 18t13.5 28q5 16 18 16zM252 237q0 -5 -4 -31t-8 -64t-4 -74q0 -75 24 -75q27 0 51.5 52.5t36.5 105.5l11 53q0 8 13 8q17 0 17 -13q-1 -10 -3.5 -26t-13 -57.5t-24 -73t-37.5 -57.5t-52 -26q-94 0 -94 123q0 37 9.5 97.5 t9.5 71.5q0 14 -6 14q-24 0 -52.5 -61.5t-45.5 -122.5l-16 -61q0 -11 -28 -11q-8 0 -15 3t-9 6l-3 3q-15 24 -15 101q0 30 3 63.5t7 51.5l3 18q0 11 21 11q16 0 30.5 -6.5t14.5 -16.5q-8 -58 -12 -115q53 183 132 183q59 0 59 -74z"/>
    <glyph glyph-name="ograve" unicode="" horiz-adv-x="281" d="M11 493q0 7 10 18t20 11q7 0 17 -11q18 -19 34 -35.5t25.5 -25.5t18 -17.5t12 -12.5t6.5 -8.5t3.5 -7t0.5 -7.5q0 -10 -12 -19.5t-23 -9.5q-10 0 -28 17t-33 36.5t-31 41t-18 23.5q-2 4 -2 7zM1 209q1 36 32 67.5t72 31.5q52 0 77.5 -32.5t25.5 -83.5q0 -13 -4 -39 q19 8 38 20t28 20l10 8q4 6 14 6t14 -3.5t4 -6.5l-1 -3q-44 -52 -115 -75q-18 -54 -54.5 -90.5t-81.5 -36.5q-37 0 -59.5 36t-22.5 77q0 56 23 104zM82 262q24 -18 24 -31q-19 -28 -35 -66q24 -27 70 -27q7 0 23 2q7 27 7 57q0 78 -47 78q-23 0 -42 -13zM154 110 q-7 -1 -22 -1q-39 0 -74 19q-7 -28 -7 -50q0 -19 8 -31t18 -12q48 0 77 75z"/>
    <glyph glyph-name="oacute" unicode="" horiz-adv-x="281" d="M173 519q7 0 18.5 -9t11.5 -19q0 -5 -11 -18q-18 -18 -34 -35t-24.5 -27t-16.5 -18.5t-12 -12t-8 -6.5t-6.5 -4t-6.5 -2h-2q-10 0 -20 11.5t-10 22.5q0 10 16 28.5t34.5 34.5t39 33t23.5 19q2 2 8 2zM1 209q1 36 32 67.5t72 31.5q52 0 77.5 -32.5t25.5 -83.5 q0 -13 -4 -39q19 8 38 20t28 20l10 8q4 6 14 6t14 -3.5t4 -6.5l-1 -3q-44 -52 -115 -75q-18 -54 -54.5 -90.5t-81.5 -36.5q-37 0 -59.5 36t-22.5 77q0 56 23 104zM82 262q24 -18 24 -31q-19 -28 -35 -66q24 -27 70 -27q7 0 23 2q7 27 7 57q0 78 -47 78q-23 0 -42 -13z M154 110q-7 -1 -22 -1q-39 0 -74 19q-7 -28 -7 -50q0 -19 8 -31t18 -12q48 0 77 75z"/>
    <glyph glyph-name="ocircumflex" unicode="" horiz-adv-x="281" d="M30 385q-7 0 -7 5q0 6 7 14q46 53 55 93q5 28 23 35l6 2q4 0 12 -11q77 -110 77 -129q0 -8 -13 -17t-23 -9q-11 0 -34.5 52t-24.5 52l-7 -11q-16 -30 -46 -60q-17 -16 -25 -16zM1 209q1 36 32 67.5t72 31.5q52 0 77.5 -32.5t25.5 -83.5q0 -13 -4 -39q19 8 38 20t28 20 l10 8q4 6 14 6t14 -3.5t4 -6.5l-1 -3q-44 -52 -115 -75q-18 -54 -54.5 -90.5t-81.5 -36.5q-37 0 -59.5 36t-22.5 77q0 56 23 104zM82 262q24 -18 24 -31q-19 -28 -35 -66q24 -27 70 -27q7 0 23 2q7 27 7 57q0 78 -47 78q-23 0 -42 -13zM154 110q-7 -1 -22 -1q-39 0 -74 19 q-7 -28 -7 -50q0 -19 8 -31t18 -12q48 0 77 75z"/>
    <glyph glyph-name="otilde" unicode="" horiz-adv-x="281" d="M212 480q8 0 14 -7.5t6 -17.5q0 -6 -1 -9q0 -1 -3 -8.5t-9.5 -20.5t-14.5 -23q-20 -26 -45 -26q-41 0 -67 42q-11 20 -23 20q-11 0 -22.5 -16.5t-15.5 -26.5q-3 -9 -22 -9q-8 0 -14 7.5t-6 17.5q0 4 2 12q0 1 3 7.5t9.5 18t14.5 20.5q24 30 51 30q12 0 22.5 -6t16 -12.5 t14.5 -19.5t13 -17q14 -18 24 -18q11 0 21.5 18t13.5 28q5 16 18 16zM1 209q1 36 32 67.5t72 31.5q52 0 77.5 -32.5t25.5 -83.5q0 -13 -4 -39q19 8 38 20t28 20l10 8q4 6 14 6t14 -3.5t4 -6.5l-1 -3q-44 -52 -115 -75q-18 -54 -54.5 -90.5t-81.5 -36.5q-37 0 -59.5 36 t-22.5 77q0 56 23 104zM82 262q24 -18 24 -31q-19 -28 -35 -66q24 -27 70 -27q7 0 23 2q7 27 7 57q0 78 -47 78q-23 0 -42 -13zM154 110q-7 -1 -22 -1q-39 0 -74 19q-7 -28 -7 -50q0 -19 8 -31t18 -12q48 0 77 75z"/>
    <glyph glyph-name="odieresis" unicode="" horiz-adv-x="281" d="M53 368q-20 0 -36.5 13.5t-16.5 29.5q0 12 13 25q13 14 27 14q20 0 38 -13.5t18 -29.5q0 -17 -12.5 -28t-30.5 -11zM159 368q-20 0 -36.5 13.5t-16.5 29.5q0 12 13 25q13 14 27 14q20 0 38 -13.5t18 -29.5q0 -17 -12.5 -28t-30.5 -11zM1 209q1 36 32 67.5t72 31.5 q52 0 77.5 -32.5t25.5 -83.5q0 -13 -4 -39q19 8 38 20t28 20l10 8q4 6 14 6t14 -3.5t4 -6.5l-1 -3q-44 -52 -115 -75q-18 -54 -54.5 -90.5t-81.5 -36.5q-37 0 -59.5 36t-22.5 77q0 56 23 104zM82 262q24 -18 24 -31q-19 -28 -35 -66q24 -27 70 -27q7 0 23 2q7 27 7 57 q0 78 -47 78q-23 0 -42 -13zM154 110q-7 -1 -22 -1q-39 0 -74 19q-7 -28 -7 -50q0 -19 8 -31t18 -12q48 0 77 75z"/>
    <glyph glyph-name="oslash" unicode="" horiz-adv-x="281" d="M111 142q18 -4 30 -4q7 0 23 2q7 27 7 57q0 20 -4 35zM83 154l68 110q-11 11 -27 11q-23 0 -42 -13q24 -18 24 -31q-19 -28 -35 -66q8 -8 12 -11zM94 114l-38 -61q8 -18 21 -18q48 0 77 75q-7 -1 -22 -1q-18 0 -38 5zM65 124q-1 1 -3.5 2.5t-3.5 1.5q-4 -13 -5 -22z M0 -23q-6 0 -10.5 4.5t-4.5 10.5t2 8l16 25q-25 36 -25 80q0 56 23 104q1 36 32 67.5t72 31.5q38 0 63 -19l12 21q5 7 13 7q6 0 10.5 -4.5t4.5 -10.5t-2 -8l-17 -27q19 -29 19 -75q0 -13 -4 -39q19 8 38 20t28 20l10 8q4 6 14 6q17 0 17 -10v-3q-44 -52 -115 -75 q-18 -54 -54.5 -90.5t-81.5 -36.5q-19 0 -35 11l-12 -19q-5 -7 -13 -7z"/>
    <glyph glyph-name="ugrave" unicode="" horiz-adv-x="365" d="M27 494q0 6 10 17.5t20 11.5q7 0 17 -11q18 -19 34 -35.5t25.5 -25.5t18 -17.5t12 -12.5t6.5 -8.5t3.5 -7t0.5 -7.5q0 -10 -12 -19.5t-23 -9.5q-10 0 -28 17t-33 36.5t-31 41t-18 23.5q-2 4 -2 7zM179 101q-38 -97 -95 -97q-85 0 -85 160q0 31 3.5 64.5t6.5 51.5l3 18 q0 11 21 11q17 0 33 -7t16 -17q-17 -100 -17 -173q0 -74 23 -74q27 0 52.5 59t37.5 118l13 59l1 2v2q0 8 11 8q15 0 36 -12t21 -23q-17 -105 -17 -181q0 -77 23 -77q27 0 52 52.5t36 105.5l12 53q0 8 13 8q17 0 17 -13q-1 -10 -3.5 -26t-13.5 -57.5t-24.5 -73t-38 -57.5 t-53.5 -26q-76 0 -84 142z"/>
    <glyph glyph-name="uacute" unicode="" horiz-adv-x="365" d="M204 520q7 0 18.5 -9t11.5 -19q0 -5 -11 -18q-18 -18 -34 -35t-24.5 -27t-16.5 -18.5t-12 -12t-8 -6.5t-6.5 -4t-6.5 -2h-2q-10 0 -20 11.5t-10 22.5q0 10 16 28.5t34.5 34.5t39 33t23.5 19q2 2 8 2zM179 101q-38 -97 -95 -97q-85 0 -85 160q0 31 3.5 64.5t6.5 51.5l3 18 q0 11 21 11q17 0 33 -7t16 -17q-17 -100 -17 -173q0 -74 23 -74q27 0 52.5 59t37.5 118l13 59l1 2v2q0 8 11 8q15 0 36 -12t21 -23q-17 -105 -17 -181q0 -77 23 -77q27 0 52 52.5t36 105.5l12 53q0 8 13 8q17 0 17 -13q-1 -10 -3.5 -26t-13.5 -57.5t-24.5 -73t-38 -57.5 t-53.5 -26q-76 0 -84 142z"/>
    <glyph glyph-name="ucircumflex" unicode="" horiz-adv-x="365" d="M50 386q-7 0 -7 5q0 6 7 14q46 53 55 93q5 28 23 35l6 2q4 0 12 -11q77 -110 77 -129q0 -8 -13 -17t-23 -9q-11 0 -34.5 51.5t-24.5 51.5t-7 -10q-16 -30 -46 -60q-17 -16 -25 -16zM179 101q-38 -97 -95 -97q-85 0 -85 160q0 31 3.5 64.5t6.5 51.5l3 18q0 11 21 11 q17 0 33 -7t16 -17q-17 -100 -17 -173q0 -74 23 -74q27 0 52.5 59t37.5 118l13 59l1 2v2q0 8 11 8q15 0 36 -12t21 -23q-17 -105 -17 -181q0 -77 23 -77q27 0 52 52.5t36 105.5l12 53q0 8 13 8q17 0 17 -13q-1 -10 -3.5 -26t-13.5 -57.5t-24.5 -73t-38 -57.5t-53.5 -26 q-76 0 -84 142z"/>
    <glyph glyph-name="udieresis" unicode="" horiz-adv-x="365" d="M90 369q-20 0 -36.5 13.5t-16.5 29.5q0 12 13 25q13 14 27 14q20 0 38 -13.5t18 -29.5q0 -17 -12.5 -28t-30.5 -11zM196 369q-20 0 -36.5 13.5t-16.5 29.5q0 12 13 25q13 14 27 14q20 0 38 -13.5t18 -29.5q0 -17 -12.5 -28t-30.5 -11zM179 101q-38 -97 -95 -97 q-85 0 -85 160q0 31 3.5 64.5t6.5 51.5l3 18q0 11 21 11q17 0 33 -7t16 -17q-17 -100 -17 -173q0 -74 23 -74q27 0 52.5 59t37.5 118l13 59l1 2v2q0 8 11 8q15 0 36 -12t21 -23q-17 -105 -17 -181q0 -77 23 -77q27 0 52 52.5t36 105.5l12 53q0 8 13 8q17 0 17 -13 q-1 -10 -3.5 -26t-13.5 -57.5t-24.5 -73t-38 -57.5t-53.5 -26q-76 0 -84 142z"/>
    <glyph glyph-name="yacute" unicode="" horiz-adv-x="367" d="M205 519q7 0 18.5 -9t11.5 -19q0 -5 -11 -18q-18 -18 -34 -35t-24.5 -27t-16.5 -18.5t-12 -12t-8 -6.5t-6.5 -4t-6.5 -2h-2q-10 0 -20 11.5t-10 22.5q0 10 16 28.5t34.5 34.5t39 33t23.5 19q2 2 8 2zM87 4h-3q-85 0 -85 161q0 30 3 63.5t6 51.5l3 18q0 8 12 8 q16 0 36.5 -12t20.5 -23q-16 -92 -16 -160q0 -73 24 -73q30 0 54.5 57t33.5 115l10 57q0 12 36 14q17 0 22.5 -2t7.5 -10q20 -54 20 -174q0 -23 -4 -77q40 32 65 78.5t29 77.5l5 30q0 8 13 8q17 0 17 -13q0 -6 -1 -16t-9 -39.5t-21 -56t-40 -59t-63 -54.5 q-11 -79 -32.5 -143t-62 -110.5t-92.5 -46.5q-47 0 -67.5 24t-20.5 61q0 35 21 70t51 60.5t60.5 46t51.5 30.5l21 10q8 67 8 132q0 35 -1 51q-39 -155 -113 -155zM188 -60q-7 -4 -18.5 -10t-40.5 -27.5t-51 -43.5t-40.5 -55t-18.5 -65q0 -34 28 -34q26 0 50 24t40 58.5 t28 69.5t17 59z"/>
    <glyph glyph-name="ydieresis" unicode="" horiz-adv-x="367" d="M92 368q-20 0 -36.5 13.5t-16.5 29.5q0 12 13 25q13 14 27 14q20 0 38 -13.5t18 -29.5q0 -17 -12.5 -28t-30.5 -11zM198 368q-20 0 -36.5 13.5t-16.5 29.5q0 12 13 25q13 14 27 14q20 0 38 -13.5t18 -29.5q0 -17 -12.5 -28t-30.5 -11zM87 4h-3q-85 0 -85 161q0 30 3 63.5 t6 51.5l3 18q0 8 12 8q16 0 36.5 -12t20.5 -23q-16 -92 -16 -160q0 -73 24 -73q30 0 54.5 57t33.5 115l10 57q0 12 36 14q17 0 22.5 -2t7.5 -10q20 -54 20 -174q0 -23 -4 -77q40 32 65 78.5t29 77.5l5 30q0 8 13 8q17 0 17 -13q0 -6 -1 -16t-9 -39.5t-21 -56t-40 -59 t-63 -54.5q-11 -79 -32.5 -143t-62 -110.5t-92.5 -46.5q-47 0 -67.5 24t-20.5 61q0 35 21 70t51 60.5t60.5 46t51.5 30.5l21 10q8 67 8 132q0 35 -1 51q-39 -155 -113 -155zM188 -60q-7 -4 -18.5 -10t-40.5 -27.5t-51 -43.5t-40.5 -55t-18.5 -65q0 -34 28 -34q26 0 50 24 t40 58.5t28 69.5t17 59z"/>
    <glyph glyph-name="quoteleft" unicode="" horiz-adv-x="116" d="M1 544q2 2 4 2t6 -2l6 -2q4 0 9 8q17 23 17 61q0 18 1.5 23.5t8.5 5.5q5 0 8 -1q32 -8 35 -34v-7q0 -27 -20.5 -47t-45.5 -20q-12 0 -20 4q-10 4 -10 7q0 1 1 2z"/>
    <glyph glyph-name="quoteright" unicode="" horiz-adv-x="116" d="M1 544q2 2 4 2t6 -2l6 -2q4 0 9 8q17 23 17 61q0 18 1.5 23.5t8.5 5.5q5 0 8 -1q32 -8 35 -34v-7q0 -27 -20.5 -47t-45.5 -20q-12 0 -20 4q-10 4 -10 7q0 1 1 2z"/>
    <glyph glyph-name="quotereversed" unicode="" horiz-adv-x="116" d="M1 544q2 2 4 2t6 -2l6 -2q4 0 9 8q17 23 17 61q0 18 1.5 23.5t8.5 5.5q5 0 8 -1q32 -8 35 -34v-7q0 -27 -20.5 -47t-45.5 -20q-12 0 -20 4q-10 4 -10 7q0 1 1 2z"/>
    <glyph glyph-name="quotedblleft" unicode="" horiz-adv-x="188" d="M1 544q2 2 4 2t6 -2l6 -2q4 0 9 8q17 23 17 61q0 18 1.5 23.5t8.5 5.5q5 0 8 -1q32 -8 35 -34v-7q0 -27 -20.5 -47t-45.5 -20q-12 0 -20 4q-10 4 -10 7q0 1 1 2zM73 544q2 2 4 2t6 -2l6 -2q4 0 9 8q17 23 17 61q0 18 1.5 23.5t8.5 5.5q5 0 8 -1q32 -8 35 -34v-7 q0 -27 -20.5 -47t-45.5 -20q-12 0 -20 4q-10 4 -10 7q0 1 1 2z"/>
    <glyph glyph-name="quotedblright" unicode="" horiz-adv-x="188" d="M73 544q2 2 4 2t6 -2l6 -2q4 0 9 8q17 23 17 61q0 18 1.5 23.5t8.5 5.5q5 0 8 -1q32 -8 35 -34v-7q0 -27 -20.5 -47t-45.5 -20q-12 0 -20 4q-10 4 -10 7q0 1 1 2zM1 544q2 2 4 2t6 -2l6 -2q4 0 9 8q17 23 17 61q0 18 1.5 23.5t8.5 5.5q5 0 8 -1q32 -8 35 -34v-7 q0 -27 -20.5 -47t-45.5 -20q-12 0 -20 4q-10 4 -10 7q0 1 1 2z"/>
    <glyph glyph-name="uni201F" unicode="" horiz-adv-x="188" d="M73 544q2 2 4 2t6 -2l6 -2q4 0 9 8q17 23 17 61q0 18 1.5 23.5t8.5 5.5q5 0 8 -1q32 -8 35 -34v-7q0 -27 -20.5 -47t-45.5 -20q-12 0 -20 4q-10 4 -10 7q0 1 1 2zM1 544q2 2 4 2t6 -2l6 -2q4 0 9 8q17 23 17 61q0 18 1.5 23.5t8.5 5.5q5 0 8 -1q32 -8 35 -34v-7 q0 -27 -20.5 -47t-45.5 -20q-12 0 -20 4q-10 4 -10 7q0 1 1 2z"/>
    <glyph glyph-name="perthousand" unicode="" horiz-adv-x="462" d="M96 471q27 18 27 54q0 11 -1 11q-2 0 -6 -6q-20 -26 -24 -51q-1 -4 -1 -8q0 -2 1 -2zM257 74q0 51 -10 51q-4 0 -16 -34q-12 -35 -12 -62q0 -19 7 -19q2 0 12 10q19 21 19 54zM297 98q0 -39 -23.5 -73.5t-61.5 -34.5q-26 0 -39 24l-3 14q-2 13 -5 26t-4 13q-3 0 -11 -11 q-40 -51 -75 -51q-25 0 -40 21t-15 56q0 103 156 374q57 98 61 117q2 6 2 11q0 17 -18.5 27.5t-39.5 10.5q-34 0 -48 -27q-3 -5 -3 -8t6 -10q7 -10 7 -15q0 -3 -3 -6q-2 -2 -2 -5q0 -1 2 -9q4 -16 4 -26q0 -34 -13 -58t-39 -24q-27 0 -47 20t-20 51q0 35 18.5 65.5 t41.5 30.5q3 0 10 -2.5t9 -2.5q5 0 5 6q0 19 22 32q11 7 45 7q51 0 91 -35q30 -26 30 -61q0 -15 -6 -35q-8 -31 -30.5 -73.5t-91.5 -155.5q-70 -116 -90 -170q-11 -31 -11 -60q0 -23 8 -23q5 0 22 11.5t29 23.5q33 33 56 79q13 28 19 32q5 4 15 4q15 0 34 -10.5t29 -20.5 q17 -19 17 -49zM402 74q0 51 -10 51q-4 0 -16 -34t-12 -62q0 -19 7 -19q2 0 12 10q19 21 19 54zM357 -10q-48 0 -48 79q0 32 10 62.5t28 42.5q5 4 15 4q15 0 34 -10.5t29 -20.5q17 -19 17 -49q0 -39 -23.5 -73.5t-61.5 -34.5z"/>
    <glyph glyph-name="Euro" unicode="" horiz-adv-x="450" d="M224 -4q-63 10 -99 81q-35 70 -35 144q0 9 -2 10.5t-16 1.5q-34 0 -47 18q-5 7 -5 9q0 8 42 11q25 2 26 3l2 19q0 2 0.5 5t0.5 4q0 6 -3 7t-17 3q-28 3 -43 16q-8 8 -8 13q0 11 47 14q23 1 27 3.5t7 15.5q24 120 67 184q13 21 35.5 42.5t39.5 29.5q23 12 48 12 q28 0 58 -15q51 -26 71 -84q11 -31 11 -46q0 -17 -13 -17q-11 0 -19 9t-20 38q-13 31 -27.5 52.5t-22.5 21.5q-17 0 -43 -28q-22 -24 -45.5 -76.5t-35.5 -105.5q-1 -6 -4 -16t-3 -13q0 -4 34 -4t43 -8t9 -14q0 -7 -7 -8q-5 -1 -46 -5q-29 -2 -34 -4.5t-7 -12.5 q-2 -14 -2 -21t4 -7h3q4 1 35 3q9 1 19 1t19 -9q11 -11 11 -14q0 -2 -4 -4q-2 -1 -43.5 -5.5t-43.5 -6.5q-1 -1 -1 -10q0 -58 12 -116q7 -31 20.5 -58t25.5 -32q4 -2 6 -2q5 0 16 7q34 18 69 78t48 120q5 27 18 27q2 0 12 -2q11 -2 11 -16q0 -24 -20 -79q-31 -85 -70 -125.5 t-89 -40.5q-6 0 -22 2z"/>
    <glyph glyph-name="notequal" unicode="" horiz-adv-x="290" d="M190 411q25 -1 33.5 -2t22.5 -4t19 -10t5 -19q-1 -6 -6.5 -7t-38.5 -2q-35 -2 -54 -4l-22 -54h1q32 0 48 -1q46 -3 55 -17q4 -7 4 -17q-1 -6 -6 -7t-38 -2q-38 -1 -85 -8l-27 -67q-4 -9 -14 -9q-6 0 -10.5 4.5t-4.5 10.5q0 3 1 5l21 51q-35 -5 -54 -5q-20 0 -20 21 q0 11 20 22t42 14q10 2 34 4l21 51q-67 -10 -85 -10q-19 0 -19 20q0 12 20 23t42 14q26 5 63 5l23 58q4 10 14 10q6 0 10.5 -4.5t4.5 -10.5q0 -4 -1 -6z"/>
    <glyph glyph-name="lessequal" unicode="" horiz-adv-x="298" d="M71 9q-24 -2 -31 -2h-6q-14 3 -14 21q0 4 1 6q3 7 23 17t38 13q29 5 68 5q32 0 48 -1q46 -3 55 -17q4 -7 4 -17q-1 -6 -6 -7t-38 -2q-25 -1 -142 -16zM233 179q-78 64 -145 76q-42 8 -55 33q-3 6 -3 10q0 8 15 19q163 125 193 125q11 0 25.5 -20t14.5 -35 q0 -16 -76.5 -54.5t-76.5 -40.5t16 -10q18 -8 48.5 -29t46.5 -36q25 -24 25 -38q0 -11 -7 -11q-9 0 -21 11z"/>
    <glyph glyph-name="greaterequal" unicode="" horiz-adv-x="283" d="M71 9q-24 -2 -31 -2h-6q-14 3 -14 21q0 4 1 6q3 7 23 17t38 13q29 5 68 5q32 0 48 -1q46 -3 55 -17q4 -7 4 -17q-1 -6 -6 -7t-38 -2q-25 -1 -142 -16zM45 165q-10 10 -10 21q0 4 3 9q8 13 57.5 48.5t76.5 49.5q18 9 18 10q0 2 -31 20q-82 49 -102 73q-11 13 -11 30 q0 16 10 16q20 0 79 -43q97 -72 114 -79q15 -7 15 -33q0 -10 -2 -14q-2 -7 -7 -11t-23 -12q-30 -14 -69 -36q-101 -56 -107 -56t-11 7z"/>
    <glyph glyph-name="b.swsh" unicode="" horiz-adv-x="376" d="M88 406q7 3 18 8t39 22.5t50 37t39.5 50.5t17.5 63q0 33 -28 33q-41 0 -75 -53.5t-47 -106.5zM223 88q-33 -8 -48 -12t-35.5 -14t-29.5 -24.5t-10 -35.5q0 -37 30 -37q25 0 50 35t43 88zM195 652q47 0 68 -24.5t21 -61.5q0 -35 -20.5 -67.5t-50 -54t-59.5 -38.5t-50 -24 l-21 -8q-12 -102 -12 -159q0 -43 3 -75q50 173 133 173q48 0 72.5 -39t24.5 -100q0 -19 -1 -28q49 23 73 58q0 4 18 4q19 0 19 -4q-38 -65 -115 -95q-15 -74 -56 -125.5t-98 -51.5q-24 0 -40.5 7.5t-23 19.5t-8.5 20.5t-2 15.5q0 16 2.5 29t9.5 23.5t11.5 18.5t18 15 t19.5 11t24.5 10t24 7.5t27.5 7t27 6.5q12 47 12 88q0 69 -38 69q-32 0 -63 -55t-45 -111l-15 -55q0 -12 -35 -14q-18 0 -23.5 1.5t-7.5 9.5q-19 54 -19 174q0 70 6 120q-29 -6 -56 -6q-80 0 -134.5 48.5t-64.5 113.5q-2 11 -2 31q0 42 18 65t41 23q18 0 28 -13q4 -5 4 -10 t-8 -11t-17 -11t-17 -17.5t-8 -29.5v-4q2 -62 48.5 -107t119.5 -45q25 0 52 6q17 119 63 194t122 75z"/>
    <glyph glyph-name="h.swsh" unicode="" horiz-adv-x="379" d="M-201 625q11 0 21.5 -6.5t10.5 -16.5q0 -5 -8 -11t-17 -11t-17 -17.5t-8 -29.5q0 -64 47 -110t121 -46q25 0 52 6q17 119 63 194t122 75q47 0 68 -24.5t21 -61.5q0 -35 -20.5 -67.5t-50.5 -54t-59.5 -38.5t-50.5 -24l-20 -8q-11 -106 -11 -152q0 -64 7 -118 q62 207 143 207q59 0 59 -75v-10q-16 -92 -16 -160q0 -73 24 -73q27 0 52 52.5t36 105.5l12 53q0 8 13 8q17 0 17 -13q-1 -10 -3.5 -26t-13.5 -57.5t-24.5 -73t-37.5 -57.5t-52 -26q-94 0 -94 122q0 37 10 98t10 72q0 14 -6 14q-24 0 -53 -58.5t-46.5 -113t-17.5 -59.5 q0 -12 -35 -14q-27 0 -31 12q-25 73 -25 193q0 74 6 125q-29 -6 -56 -6q-80 0 -134.5 48.5t-64.5 113.5q-2 11 -2 31q0 42 18 65t41 23zM79 406q7 3 18 8t39 22.5t50 37t39.5 50.5t17.5 63q0 33 -28 33q-41 0 -75 -53.5t-48 -106.5z"/>
    <glyph glyph-name="k.swsh" unicode="" horiz-adv-x="323" d="M74 374q-11 -103 -11 -148q0 -49 6 -109q14 80 43.5 140.5t73.5 60.5q19 0 35.5 -13t16.5 -43q0 -69 -90 -99q55 -8 55 -52v-12q0 -106 21 -106q27 0 52 52.5t36 105.5l12 53q0 8 13 8q17 0 17 -13q-1 -10 -3.5 -26t-13.5 -57.5t-24.5 -73t-37.5 -57.5t-52 -26h-2 q-68 0 -82 152l-2.5 10t-11 16.5t-24.5 10.5q-19 -68 -19 -114q0 -12 -35 -14q-27 0 -31 12q-25 73 -25 193q0 74 6 125q-29 -6 -56 -6q-80 0 -134.5 48.5t-64.5 113.5q-2 11 -2 31q0 42 18 65t41 23q18 0 28 -13q4 -5 4 -10t-8 -11t-17 -11t-17 -17.5t-8 -29.5 q0 -64 47 -110t121 -46q25 0 52 6q17 119 63 194t122 75q47 0 68 -24.5t21 -61.5q0 -35 -20.5 -67.5t-50.5 -54t-59.5 -38.5t-50.5 -24zM110 179q89 43 89 97q0 20 -12 20q-39 0 -77 -117zM79 406q7 3 18 8t39 22.5t50 37t39.5 50.5t17.5 63q0 33 -28 33q-41 0 -75 -53.5 t-48 -106.5z"/>
    <glyph glyph-name="l.swsh" unicode="" horiz-adv-x="218" d="M79 406q7 3 18 8t39 22.5t50 37t39.5 50.5t17.5 63q0 33 -28 33q-41 0 -75 -53.5t-48 -106.5zM74 374q-10 -82 -10 -156q0 -215 45 -215q18 0 35.5 20.5t30 50t23 59.5t15.5 51l5 20q0 8 13 8q17 0 17 -13q-2 -10 -5.5 -26t-17 -57.5t-29 -73t-41.5 -57.5t-54 -26 q-40 1 -66 43t-35.5 98t-9.5 125q0 62 7 125q-29 -6 -56 -6q-80 0 -134.5 48.5t-64.5 113.5q-2 11 -2 31q0 42 18 65t41 23q18 0 28 -13q4 -5 4 -10t-8 -11t-17 -11t-17 -17.5t-8 -29.5q0 -64 47 -110t121 -46q25 0 52 6q17 119 63 194t122 75q47 0 68 -24.5t21 -61.5 q0 -35 -20.5 -67.5t-50.5 -54t-59.5 -38.5t-50.5 -24z"/>
    <glyph glyph-name="r.1" unicode="" horiz-adv-x="343" d="M85 362q-4 0 -9 -5.5t-9.5 -18.5t-4.5 -29q0 -23 6 -39.5t12 -21.5l7 -5q12 51 12 86q0 33 -14 33zM62 399q68 0 68 -82q0 -19 -3.5 -40t-6.5 -33l-4 -12q86 -30 86 -60q0 -28 -8 -82t-8 -84q0 -71 25 -71q27 0 60 67.5t53 134.5l19 67q0 8 13 8q17 0 17 -13 q-3 -12 -7.5 -32t-21 -71.5t-34 -90.5t-45.5 -71t-56 -32h-3q-85 0 -85 160q0 56 7 100v8q0 5 -1 7q-9 3 -22 8q-29 -110 -65 -191q-4 -9 -14 -9q-6 0 -10.5 4.5t-4.5 10.5q0 4 1 6q41 94 65 192q-70 42 -70 120q0 39 19 60t36 21z"/>
    <glyph glyph-name="f.swsh" unicode="" horiz-adv-x="246" d="M189 508q-19 0 -42 -33.5t-37 -66.5l-14 -34q5 1 13 4t29 12.5t37 20t29 27t13 34.5q0 16 -8 26t-20 10zM-141 613q11 0 21.5 -6.5t10.5 -16.5q0 -5 -8 -11t-17 -11t-17 -17.5t-8 -29.5q0 -64 47 -110t121 -46q12 0 19 1q50 173 149 173q31 0 49 -20t18 -52v-5 q-2 -40 -40 -70t-76 -40l-37 -11q-16 -78 -20 -154q45 -20 80 -20q29 0 53 9.5t34 18.5l9 9q4 6 12 6q18 0 18 -9v-2q-4 -6 -13 -15.5t-41.5 -25.5t-70.5 -16q-26 0 -43 4q73 -69 73 -192q0 -44 -20.5 -73t-54.5 -29q-40 1 -66 42.5t-35.5 97.5t-9.5 125q0 114 24 216 q-3 0 -9.5 -0.5t-9.5 -0.5q-80 0 -134.5 48.5t-64.5 113.5q-2 11 -2 31q0 42 18 65t41 23zM70 141v-30q0 -215 45 -215h1q14 0 24 18t10 44q0 120 -80 183z"/>
    </font>
</defs>
</svg>
