<?xml version="1.0" encoding="UTF-8" standalone="no"?>
<!DOCTYPE svg PUBLIC "-//W3C//DTD SVG 1.1//EN" "http://www.w3.org/Graphics/SVG/1.1/DTD/svg11.dtd">
<svg xmlns="http://www.w3.org/2000/svg" xmlns:xlink="http://www.w3.org/1999/xlink" version="1.1">
<metadata>
Created by FontForge 20170731 at Tue Nov 10 13:45:32 2020
 By Aleksey,,,
Copyright (c) 2018 by Emil Bertell. All rights reserved. |DCNT
</metadata>
<defs>
<font id="Morison-Regular" horiz-adv-x="0">
  <font-face font-family="Morison" font-weight="400" font-stretch="normal" units-per-em="2048" panose-1="0 0 5 0 0 0 0 0 0 0" ascent="1626" descent="-422" x-height="973" cap-height="1464" bbox="-808 -530 2658 2083" underline-thickness="102" underline-position="-409" unicode-range="U+0020-FB02"/>
<missing-glyph horiz-adv-x="960" d="M178 1542h608v-1919h-608v1919zM639 1350v63h-317v-63h124v-70h-127v-63h320v63h-127v70h127zM512 1032v133h-193v-198h320v65h-127zM383 1100h63v-68h-63v68zM639 852v63h-320v-63h127v-72h-127v-63h193v135h127zM639 608v191h-64v-125h-256v-66h320zM639 348v217h-193 v-106h66v43h63v-90h-192v153h-64v-217h320zM639 16v217h-320v-217h320zM383 170h192v-90h-192v90zM639 -90v63h-320v-63h136l-136 -90v-64h320v64h-197l136 90h61z"/>
    <glyph glyph-name="fi" unicode="fi" horiz-adv-x="1368" d="M1149 973v-774q0 -74 32.5 -111t116.5 -49v-39h-518v37q82 13 115 51.5t33 110.5v694h-494v-703q0 -75 32 -106.5t130 -44.5v-39h-520v39q78 12 107.5 46t29.5 103v705h-164v80h164v131q0 242 102.5 355.5t331.5 113.5q177 0 286 -68.5t109 -189.5q0 -102 -73 -153 t-199 -25q90 59 90 180q0 78 -51 126t-147 48q-122 0 -175 -76.5t-53 -240.5v-201h715z"/>
    <glyph glyph-name="fl" unicode="fl" horiz-adv-x="1351" d="M1149 1505v-1308q0 -72 31 -109t108 -49v-39h-497v39q76 12 106.5 49.5t30.5 108.5v1278q-102 18 -207 18q-155 0 -221 -80.5t-66 -265.5v-174h289v-80h-289v-703q0 -75 36 -106.5t146 -44.5v-39h-540v39q78 12 107.5 46t29.5 103v705h-164v80h164v139q0 239 122 351 t386 112q251 0 428 -70z"/>
    <glyph glyph-name="f_b" unicode="fb" horiz-adv-x="1970" d="M1466 1004q199 0 302.5 -134.5t103.5 -373.5q0 -235 -119 -381q-122 -146 -354 -146q-198 0 -297 156l-131 -125h-43v1468q-122 25 -217 25q-142 0 -209.5 -75.5t-67.5 -233.5v-211h289v-80h-289v-703q0 -73 39 -106q41 -30 164 -45v-39h-561v39q78 12 107.5 46t29.5 103 v705h-164v80h164v153q0 227 116.5 338t370.5 111q281 0 449 -74v-645q106 148 317 148zM1362 53q138 0 207 117.5t69 325.5q0 198 -60 306.5t-177 108.5q-171 0 -252 -161v-576q74 -121 213 -121z"/>
    <glyph glyph-name="f_f" unicode="ff" horiz-adv-x="1511" d="M1370 1575q140 0 220.5 -55.5t80.5 -161.5q0 -89 -66.5 -138t-174.5 -36q71 62 71 170q0 139 -139 139q-184 0 -184 -250v-270h286v-80h-286v-703q0 -73 36 -106q41 -30 166 -45v-39h-563v39q78 13 108.5 46.5t30.5 102.5v705h-522l2 -737q6 -54 48.5 -79t152.5 -38v-39 h-561v39q78 12 107.5 46t29.5 103l2 -6l-2 711h-164v80h164v172q0 215 95.5 322.5t301.5 107.5q127 0 201 -57t74 -164q0 -96 -70.5 -145.5t-181.5 -32.5q90 63 90 184q0 133 -111 133q-178 0 -178 -250v-270h522v172q0 215 99 322.5t315 107.5z"/>
    <glyph glyph-name="f_f_i" unicode="ffi" horiz-adv-x="2109" d="M1890 973v-774q0 -72 34 -110t116 -50v-39h-518v37q82 13 114.5 51.5t32.5 110.5v694h-491v-703q0 -75 31.5 -106.5t129.5 -44.5v-39h-522v39q78 13 108.5 46.5t30.5 102.5v705l-522 -2v-701q0 -76 35.5 -107t148.5 -44v-39h-542v37q78 13 107.5 47.5t29.5 103.5v703 h-164v82h164v160q0 223 95.5 332.5t299.5 109.5q135 0 215 -57t80 -158q0 -95 -62.5 -144t-170.5 -32q71 62 71 176q0 133 -131 133q-92 0 -134 -64.5t-42 -197.5v-258h522v131q0 242 102 355.5t331 113.5q177 0 286 -68.5t109 -189.5q0 -102 -73.5 -153t-199.5 -25 q91 57 91 180q0 78 -51.5 126t-147.5 48q-122 0 -173.5 -76t-51.5 -241v-201h712z"/>
    <glyph glyph-name="f_f_l" unicode="ffl" horiz-adv-x="2093" d="M1890 1505v-1308q0 -71 31.5 -108.5t108.5 -49.5v-39h-498v39q76 12 106.5 49.5t30.5 108.5v1278q-102 18 -207 18q-154 0 -219 -80t-65 -266v-174h286v-80h-286v-703q0 -74 32 -106q35 -30 148 -45v-39h-541v39q78 13 108.5 46.5t30.5 102.5v705h-522v-703 q0 -76 35.5 -107t148.5 -44v-39h-542v39q78 12 107.5 46t29.5 103v705h-164v80h164v172q0 215 95.5 322.5t301.5 107.5q135 0 215 -57t80 -158q0 -95 -63 -144t-172 -32q71 62 71 176q0 133 -129 133q-178 0 -178 -250v-270h522v139q0 239 121 351t385 112q114 0 234 -21 q119 -20 194 -49z"/>
    <glyph glyph-name="f_h" unicode="fh" horiz-adv-x="2025" d="M1825 645v-446q0 -72 32 -110.5t115 -51.5v-37h-510v39q77 12 109.5 50.5t32.5 109.5v473q0 229 -179 229q-97 0 -169 -70.5t-107 -203.5v-430q0 -70 29 -106t100 -48v-43h-487v39q76 12 106.5 49.5t30.5 108.5v1273q-97 23 -217 23q-142 0 -209.5 -80.5t-67.5 -251.5 v-188h289v-80h-289v-703q0 -75 36 -106.5t146 -44.5v-39h-540v39q78 12 107.5 46t29.5 103v705h-164v80h164v151q0 451 485 451q271 0 451 -70v-733q105 232 360 232q316 0 316 -359z"/>
    <glyph glyph-name="f_k" unicode="fk" horiz-adv-x="1968" d="M1483 659l276 -493q37 -69 66.5 -94.5t87.5 -32.5v-39h-479v39q132 12 73 133l-192 348l-166 -135v-195q0 -73 26 -105.5t97 -45.5v-39h-481v39q76 12 106.5 49.5t30.5 108.5v1271q-109 25 -199 25q-157 0 -226 -79t-69 -249v-192h289v-80h-289v-703q0 -75 36 -106.5 t146 -44.5v-39h-540v39q78 12 107.5 46t29.5 103v705h-164v80h164v162q0 440 485 440q253 0 451 -70v-1022l321 267q87 74 74.5 124t-117.5 58v41h474v-41q-61 -6 -121 -41q-58 -36 -164 -123z"/>
    <glyph glyph-name=".notdef" horiz-adv-x="960" d="M178 1542h608v-1919h-608v1919zM639 1350v63h-317v-63h124v-70h-127v-63h320v63h-127v70h127zM512 1032v133h-193v-198h320v65h-127zM383 1100h63v-68h-63v68zM639 852v63h-320v-63h127v-72h-127v-63h193v135h127zM639 608v191h-64v-125h-256v-66h320zM639 348v217h-193 v-106h66v43h63v-90h-192v153h-64v-217h320zM639 16v217h-320v-217h320zM383 170h192v-90h-192v90zM639 -90v63h-320v-63h136l-136 -90v-64h320v64h-197l136 90h61z"/>
    <glyph glyph-name=".null"/>
    <glyph glyph-name="nonmarkingreturn" horiz-adv-x="682"/>
    <glyph glyph-name="space" unicode=" " horiz-adv-x="366"/>
    <glyph glyph-name="exclam" unicode="!" horiz-adv-x="743" d="M401 401h-53l-135 1063h311zM379 -31q-49 0 -83 33.5t-34 83.5q0 47 35 81t82 34t81 -35t34 -80q0 -49 -33.5 -83t-81.5 -34z"/>
    <glyph glyph-name="quotedbl" unicode="&quot;" horiz-adv-x="1044" d="M436 1331l-65 -418h-43l-68 418q-19 81 7 122.5t83 41.5q54 0 79.5 -41.5t6.5 -122.5zM782 1331l-65 -418h-43l-66 418q-19 81 6 122.5t82 41.5q54 0 79.5 -41.5t6.5 -122.5z"/>
    <glyph glyph-name="numbersign" unicode="#" horiz-adv-x="1918" d="M1769 1073v-80h-231l-139 -524h217v-80h-238l-102 -389h-248l102 389h-522l-102 -391l-246 2l102 389h-212v80h233l139 524h-219v80h240l102 391h246l-103 -391h523l102 391h248l-102 -391h210zM629 469h522l139 524h-522z"/>
    <glyph glyph-name="dollar" unicode="$" horiz-adv-x="1251" d="M684 1294v-440q106 -33 178 -67.5t137 -84.5q136 -103 136 -299q0 -163 -110 -251.5t-292 -88.5q-36 0 -51 3v-203h-82v213q-82 16 -170 55q-90 41 -121 41q-66 0 -51 -133h-57l-72 582l45 4q38 -198 148 -319t278 -150v477l-22 6q-195 58 -310 145q-137 104 -137 293 q0 148 99 234t272 86q64 0 100 -8v184h82v-203q62 -19 117 -47q67 -33 92 -33q64 0 39 140h57l86 -512l-45 -5q-94 307 -346 381zM313 1141q0 -98 70.5 -157.5t218.5 -104.5v432q-62 4 -70 4q-100 0 -159.5 -45.5t-59.5 -128.5zM682 145h31q109 0 174 49t65 140 q0 102 -64 162t-206 110v-461z"/>
    <glyph glyph-name="percent" unicode="%" horiz-adv-x="1656" d="M483 786q-170 0 -267 97.5t-97 255.5q0 157 97 253.5t267 96.5q173 0 270 -96.5t97 -253.5q0 -159 -97 -256t-270 -97zM1380 1464l-1192 -1464h113l1190 1464h-111zM483 1415q-88 0 -137 -71t-49 -205q0 -137 49 -208t137 -71q89 0 139 71t50 208q0 134 -50 205t-139 71z M901 68q-94 101 -94 254t94 251q94 101 273 101q176 0 270 -99q94 -98 94 -253q0 -156 -94 -254q-94 -99 -270 -99q-178 0 -273 99zM985 322q0 -135 50 -207t139 -72t138.5 71t49.5 208t-49.5 207.5t-138.5 70.5q-90 0 -139.5 -70.5t-49.5 -207.5z"/>
    <glyph glyph-name="ampersand" unicode="&amp;" horiz-adv-x="1804" d="M1788 96l16 -28q-102 -99 -313 -99q-213 0 -383 105q-211 -105 -514 -105q-259 0 -402 113t-143 315q0 170 114 289.5t326 175.5q-61 143 -61 277q0 166 115.5 258t324.5 92q189 0 291.5 -77.5t102.5 -203.5q0 -184 -177 -264q-82 -37 -164.5 -57.5t-197.5 -34.5 q54 -100 149 -229q179 -248 324 -381q151 125 186 307q21 103 -26 141q-43 37 -205 53v35h590v-35q-149 -15 -191 -47q-46 -29 -61 -114q-47 -250 -221 -402q163 -129 315 -129q122 0 205 45zM854 1405q-115 0 -178.5 -58t-63.5 -161q0 -121 84 -287q365 82 365 309 q0 197 -207 197zM676 74q190 0 342 63q-146 121 -289 320q-155 222 -217 354q-238 -121 -238 -377q0 -169 103.5 -264.5t298.5 -95.5z"/>
    <glyph glyph-name="quotesingle" unicode="'" horiz-adv-x="698" d="M436 1331l-65 -418h-43l-68 418q-19 81 7 122.5t83 41.5q54 0 79.5 -41.5t6.5 -122.5z"/>
    <glyph glyph-name="parenleft" unicode="(" horiz-adv-x="974" d="M850 -143l-12 -41q-304 101 -471.5 332t-167.5 579q0 349 169 581t472 328l10 -41q-160 -60 -285 -301t-125 -567q0 -328 125 -569t285 -301z"/>
    <glyph glyph-name="parenright" unicode=")" horiz-adv-x="974" d="M135 -184l-10 41q158 59 283 301q127 245 127 569q0 322 -127 567q-125 241 -285 301l12 41q303 -96 472 -328.5t169 -580.5q0 -349 -167.5 -580t-473.5 -331z"/>
    <glyph glyph-name="asterisk" unicode="*" horiz-adv-x="927" d="M489 1141l201 -68q49 -11 68 -45.5t-2 -60.5q-16 -31 -50 -30t-75 38l-158 149l47 -211q18 -53 0.5 -82.5t-57.5 -29.5q-39 0 -55.5 29.5t0.5 82.5l47 211l-158 -149q-41 -37 -75 -38t-50 30q-21 26 -2 60.5t68 45.5l202 68l-202 65q-49 11 -68 46t2 61q12 20 30 27 t42.5 -1.5t52.5 -35.5l158 -148l-47 211q-26 68 15 100q32 23 69 6q44 -20 36 -76q-2 -14 -8 -30l-47 -211l158 148q27 27 52.5 35.5t44 1.5t30.5 -27q21 -26 1 -60.5t-69 -46.5z"/>
    <glyph glyph-name="plus" unicode="+" horiz-adv-x="1128" d="M606 672h383v-80h-383v-377h-82v377h-387v80h387v379h82v-379z"/>
    <glyph glyph-name="comma" unicode="," horiz-adv-x="536" d="M256 201q62 0 99.5 -47t37.5 -138q0 -139 -82 -252q-80 -110 -225 -151l-16 37q106 45 169 137.5t64 214.5q-28 -22 -67 -22q-46 0 -71.5 29t-25.5 75q0 48 33.5 82.5t83.5 34.5z"/>
    <glyph glyph-name="hyphen" unicode="-" horiz-adv-x="1228" d="M1010 561h-791v82h791v-82z"/>
    <glyph glyph-name="period" unicode="." horiz-adv-x="550" d="M160 86q0 47 34.5 81t81.5 34t81 -35t34 -80q0 -49 -33.5 -83t-81.5 -34t-82 34t-34 83z"/>
    <glyph glyph-name="slash" unicode="/" horiz-adv-x="1177" d="M98 -219l740 1806h241l-737 -1806h-244z"/>
    <glyph glyph-name="zero" unicode="0" horiz-adv-x="1538" d="M133 727q0 350 162 557q163 211 473 211q311 0 475 -209q162 -207 162 -559q0 -349 -162 -553q-163 -205 -475 -205t-475 205q-160 207 -160 553zM1153 727q0 682 -385 682t-385 -682q0 -670 385 -670t385 670z"/>
    <glyph glyph-name="one" unicode="1" horiz-adv-x="813" d="M532 1477v-1280q0 -80 41.5 -113t159.5 -43v-41h-676v41q138 10 187 43t49 113v1126q-122 -78 -187 -78q-48 0 -62.5 51.5t13.5 102.5q70 -34 197 -13q125 20 244 91h34z"/>
    <glyph glyph-name="two" unicode="2" horiz-adv-x="1302" d="M1188 528l43 -10l-98 -588h-54q-11 40 -31 55t-69 15h-903v68q334 193 557 464q225 273 225 537q0 161 -76 248.5t-223 87.5q-146 0 -225.5 -77.5t-79.5 -205.5q0 -198 141 -268q-162 -43 -260 24t-98 220q0 175 143 282q145 109 395 109q260 0 397.5 -109.5 t137.5 -326.5q0 -127 -66.5 -259t-185.5 -251q-221 -221 -522 -398l438 31q96 6 143 18t99 46t89.5 99t82.5 189z"/>
    <glyph glyph-name="three" unicode="3" horiz-adv-x="1300" d="M694 758q498 -40 498 -389q0 -194 -157.5 -297t-469.5 -103q-241 0 -371.5 84.5t-130.5 243.5q0 123 93 186t227 33q-111 -64 -111 -207q0 -118 77.5 -186t217.5 -68q173 0 274 80.5t101 224.5q0 169 -104 263q-107 96 -377 96h-160v80h160q270 0 356 112q41 53 56.5 104 t15.5 120q0 133 -75 201.5t-216 68.5q-129 0 -202.5 -59t-73.5 -162q0 -141 104 -187q-146 -38 -233 14t-87 167q0 141 136.5 226t373.5 85q523 0 523 -356q0 -165 -119 -258t-326 -117z"/>
    <glyph glyph-name="four" unicode="4" horiz-adv-x="1406" d="M1329 696l33 -10l-86 -405h-35q-6 47 -21.5 64t-52.5 17h-133v-165q0 -83 42.5 -116.5t164.5 -43.5v-37h-672v37q134 10 181 44t47 116v165h-760v136l739 966h258v-964h64q84 0 130.5 39.5t100.5 156.5zM797 1356l-656 -858l656 2v856z"/>
    <glyph glyph-name="five" unicode="5" horiz-adv-x="1249" d="M664 852q80 0 148.5 -11.5t134.5 -41t112.5 -76.5t75 -123.5t28.5 -175.5q0 -228 -158.5 -341.5t-449.5 -113.5q-237 0 -352 87.5t-115 242.5q0 125 102 178q105 55 218 0q-113 -49 -113 -192q0 -105 68 -170.5t196 -65.5q149 0 252 92q100 93 100 256q0 170 -86.5 262.5 t-259.5 92.5q-87 0 -180 -19q-79 -17 -113 -28l-88 -37v796h762q61 0 85.5 13.5t53.5 66.5l41 -12l-53 -272h-792v-484q192 76 383 76z"/>
    <glyph glyph-name="six" unicode="6" horiz-adv-x="1384" d="M881 846q179 0 301 -96q121 -95 121 -314q0 -227 -162 -346q-165 -121 -416 -121q-594 0 -594 758q0 338 172 549q174 213 502 213q205 0 327.5 -80.5t122.5 -226.5q0 -119 -100 -170t-223 -8q115 59 115 194q0 100 -68.5 155.5t-177.5 55.5q-200 0 -309 -171.5 t-109 -510.5q0 -101 6 -186q68 138 197.5 221.5t294.5 83.5zM723 55q154 0 246 98.5t92 270.5q0 311 -264 311q-131 0 -240 -86q-104 -79 -158 -209q26 -200 105 -292.5t219 -92.5z"/>
    <glyph glyph-name="seven" unicode="7" horiz-adv-x="1159" d="M231 1464h902v-49q-243 -292 -377 -631q-129 -334 -123 -784h-289q89 722 588 1260h-598q-108 0 -160 -43q-49 -43 -102 -183l-39 8l71 492h43q5 -38 23.5 -54t60.5 -16z"/>
    <glyph glyph-name="eight" unicode="8" horiz-adv-x="1265" d="M793 819q108 -54 170 -92t120 -90q119 -107 119 -281q0 -188 -150 -287.5t-442 -99.5q-547 0 -547 377q0 150 117 252q119 104 277 139q-312 170 -312 408q0 166 130.5 258t369.5 92q249 0 374.5 -85.5t125.5 -242.5q0 -238 -352 -348zM350 1194q0 -101 78.5 -173 t273.5 -161h3l4 -2q233 102 233 303q0 248 -301 248q-139 0 -215 -59t-76 -156zM610 55q175 0 280 63t105 187q0 126 -100 201q-101 78 -324 176q-23 8 -34 16q-271 -132 -271 -356q0 -128 87 -207.5t257 -79.5z"/>
    <glyph glyph-name="nine" unicode="9" horiz-adv-x="1392" d="M664 1495q608 0 608 -768q0 -370 -170 -563t-502 -193q-236 0 -361.5 82t-125.5 240q0 113 98 174q101 64 223 18q-106 -66 -106 -206q0 -104 77.5 -165t198.5 -61q209 0 312.5 160t103.5 514q0 130 -8 201q-65 -122 -203 -201q-138 -78 -301 -78q-187 0 -297.5 101.5 t-110.5 296.5q0 208 150.5 328t413.5 120zM594 760q134 0 243.5 74t161.5 192q-61 383 -335 383q-156 0 -239 -92.5t-83 -255.5q0 -145 68.5 -223t183.5 -78z"/>
    <glyph glyph-name="colon" unicode=":" horiz-adv-x="550" d="M160 815q0 47 34.5 81t81.5 34t81 -35t34 -80q0 -49 -33.5 -83t-81.5 -34t-82 34t-34 83zM281 -16q-50 0 -83.5 33.5t-33.5 82.5q0 48 34 81.5t83 33.5q47 0 80.5 -34t33.5 -81q0 -49 -33 -82.5t-81 -33.5z"/>
    <glyph glyph-name="semicolon" unicode=";" horiz-adv-x="536" d="M262 698q-50 0 -84.5 34t-34.5 83q0 47 35 81t84 34q44 0 78.5 -35.5t34.5 -79.5q0 -49 -34 -83t-79 -34zM260 201q62 0 98.5 -47t36.5 -138q0 -139 -82 -252q-76 -109 -225 -151l-16 37q106 45 169 137.5t64 214.5q-28 -22 -67 -22q-43 0 -69 29.5t-26 74.5 q0 48 33.5 82.5t83.5 34.5z"/>
    <glyph glyph-name="less" unicode="&lt;" horiz-adv-x="1056" d="M903 1071l33 -70l-713 -352l711 -348l-31 -70l-778 381v74z"/>
    <glyph glyph-name="equal" unicode="=" horiz-adv-x="1128" d="M989 782h-852v80h852v-80zM989 403h-852v80h852v-80z"/>
    <glyph glyph-name="greater" unicode="&gt;" horiz-adv-x="1056" d="M121 1001l33 70l776 -385v-74l-776 -381l-31 70l711 348z"/>
    <glyph glyph-name="question" unicode="?" horiz-adv-x="1247" d="M905 1176q0 110 -77 169.5t-205 59.5q-134 0 -220 -68t-86 -174q0 -124 82 -194q-134 -35 -209 12.5t-75 163.5q0 139 129 241q133 103 383 103q265 0 397.5 -88t132.5 -256q0 -149 -98 -240q-93 -90 -283 -186q-146 -79 -196 -150q-48 -66 -39 -174h-56 q-61 121 -20.5 228.5t188.5 212.5q93 70 143.5 118.5t79.5 103.5t29 118zM526 -31q-49 0 -82.5 33.5t-33.5 83.5q0 47 34.5 81t81.5 34t81 -35t34 -80q0 -49 -33.5 -83t-81.5 -34z"/>
    <glyph glyph-name="at" unicode="@" horiz-adv-x="1871" d="M987 1382q373 0 584 -208q213 -207 213 -519q0 -224 -96 -350.5t-261 -126.5q-122 0 -195.5 48.5t-98.5 131.5q-82 -180 -285 -180q-169 0 -265 113t-96 299q0 188 97.5 299.5t277.5 111.5q166 0 244 -124l115 108h75v-397q0 -170 36.5 -250t129.5 -80q102 0 164 99.5 t62 297.5q0 130 -39 238.5t-105.5 184t-156.5 128t-191 77t-209 24.5q-287 0 -522 -162q-120 -84 -190 -230t-70 -331q0 -227 92 -387q176 -297 553 -297q251 0 467 86l22 -58q-232 -104 -489 -104q-354 0 -549 213q-192 210 -192 549q0 368 247 581q250 215 631 215z M895 260q130 0 195 152v364q-59 148 -189 148q-194 0 -194 -334q0 -154 50 -242t138 -88z"/>
    <glyph glyph-name="A" unicode="A" horiz-adv-x="1622" d="M899 1464l506 -1237q34 -90 77 -132.5t124 -53.5v-41h-625v41q142 18 179.5 65.5t-9.5 133.5l-100 241h-625l-82 -217q-45 -100 -5.5 -156.5t171.5 -66.5v-41h-494v41q96 12 146 59q46 43 94 164l449 1200h194zM723 1276l-270 -723h569z"/>
    <glyph glyph-name="B" unicode="B" horiz-adv-x="1538" d="M1026 791q426 -46 426 -379q0 -412 -592 -412h-758v41q112 10 151.5 43t39.5 113v1071q0 80 -39.5 112.5t-151.5 42.5v41h848q426 0 426 -323q0 -136 -92.5 -227.5t-257.5 -122.5zM807 1386h-275v-565h230q181 0 273.5 78.5t92.5 226.5q0 132 -77.5 196t-243.5 64z M532 80h238q430 0 430 348q0 315 -438 315h-230v-663z"/>
    <glyph glyph-name="C" unicode="C" horiz-adv-x="1552" d="M797 -31q-334 0 -511 199t-177 555q0 346 176 555q178 211 516 211q129 0 260 -51q134 -49 164 -49q35 0 46 30.5t3 104.5h59l74 -645l-43 -7q-56 252 -194 390.5t-339 138.5q-230 0 -352 -174q-121 -174 -121 -463q0 -320 129.5 -495t384.5 -175q217 0 363 119 q145 119 180 307l29 -6q-21 -242 -195 -393q-172 -152 -452 -152z"/>
    <glyph glyph-name="D" unicode="D" horiz-adv-x="1722" d="M102 1464h762q373 0 561.5 -187.5t188.5 -545.5q0 -359 -188 -545t-562 -186h-762v41q112 10 151.5 43t39.5 113v1071q0 80 -39.5 112.5t-151.5 42.5v41zM532 80h279q278 0 415.5 168.5t137.5 482.5t-138 484.5t-415 170.5h-279v-1306z"/>
    <glyph glyph-name="E" unicode="E" horiz-adv-x="1490" d="M1350 498l45 -9l-80 -550h-47q-5 37 -24.5 49t-76.5 12h-1065v41q112 10 151.5 43t39.5 113v1071q0 80 -39.5 112.5t-151.5 42.5v41h1008q56 0 75.5 13t24.5 51h47l101 -549l-45 -10q-56 147 -100.5 229.5t-94.5 122.5q-48 41 -93.5 53t-125.5 12h-367v-583h199 q129 0 174 57q49 58 70 252h47v-684h-47q-18 177 -66 238q-47 59 -178 59h-199v-645h390q168 0 254 80q88 79 174 338z"/>
    <glyph glyph-name="F" unicode="F" horiz-adv-x="1398" d="M1190 1528h47l123 -549l-45 -8q-53 142 -97 221.5t-96 122.5t-103.5 57t-139.5 14h-353v-583h201q129 0 174 57q47 59 68 252h47v-684h-47q-21 184 -68 240q-45 57 -174 57h-201v-518q0 -87 49 -121q50 -33 209 -45v-41h-688v41q112 10 151.5 43t39.5 113v1071 q0 80 -39.5 112.5t-151.5 42.5v41l994 2q59 0 77 12t23 50z"/>
    <glyph glyph-name="G" unicode="G" horiz-adv-x="1656" d="M954 735h668v-41q-108 -12 -146 -44.5t-38 -110.5v-539h-39q-21 69 -39.5 95t-48.5 26q-16 2 -70.5 -22t-121 -54t-171 -54t-205.5 -22q-306 0 -471 201q-163 202 -163 553q0 347 176 559q177 213 506 213q66 0 140.5 -18t126.5 -39.5t97 -39.5t59 -18q64 0 52 144h49 l71 -611l-40 -8q-64 241 -203.5 372.5t-311.5 131.5q-229 0 -352 -176q-121 -177 -121 -469q0 -324 122 -501t362 -177q190 0 360 111v342q0 79 -50.5 111t-197.5 44v41z"/>
    <glyph glyph-name="H" unicode="H" horiz-adv-x="1800" d="M1698 1464v-34q-112 -12 -150.5 -46t-38.5 -116v-1071q0 -83 39 -116.5t150 -43.5v-37h-619v37q112 10 151.5 44t39.5 116v540h-727v-540q0 -83 36.5 -116.5t141.5 -43.5v-37h-619v37q116 10 157.5 44t41.5 116v1071q0 83 -41 116.5t-158 45.5v34h619v-34 q-105 -12 -141.5 -46t-36.5 -116v-451h727v451q0 82 -39.5 116t-151.5 46v34h619z"/>
    <glyph glyph-name="I" unicode="I" horiz-adv-x="813" d="M713 1464v-41q-106 -10 -143.5 -42.5t-37.5 -112.5v-1071q0 -80 38 -113t143 -43v-41h-611v41q112 10 151.5 43t39.5 113v1071q0 80 -39.5 112.5t-151.5 42.5v41h611z"/>
    <glyph glyph-name="J" unicode="J" horiz-adv-x="1320" d="M612 1464h639v-41q-105 -10 -141.5 -42.5t-36.5 -112.5v-717q0 -293 -134 -437.5t-423 -144.5q-220 0 -344.5 99t-124.5 272q0 133 96 223q102 91 293 76l4 -21q-170 -83 -170 -282q0 -285 256 -285q147 0 230 103q86 106 86 360v754q0 78 -47 108q-51 33 -183 47v41z "/>
    <glyph glyph-name="K" unicode="K" horiz-adv-x="1640" d="M950 961l455 -758q46 -76 88 -109q39 -31 139 -53v-41h-645v41q122 17 148.5 66.5t-31.5 130.5l-330 553l-242 -232v-362q0 -80 37 -113t142 -43v-41h-609v41q112 10 151.5 43t39.5 113v1071q0 80 -39.5 112.5t-151.5 42.5v41h609v-41q-104 -10 -141.5 -42.5 t-37.5 -112.5v-611l549 537q92 85 70.5 153.5t-147.5 75.5v41h561v-41q-74 -9 -138 -45q-68 -35 -112 -73q-52 -42 -123 -113z"/>
    <glyph glyph-name="L" unicode="L" horiz-adv-x="1411" d="M1327 494l45 -5l-115 -550h-47q-5 36 -24.5 48.5t-75.5 12.5h-1008v41q112 10 151.5 43t39.5 113v1071q0 80 -39.5 112.5t-151.5 42.5v41h650v-41q-127 -10 -173.5 -43.5t-46.5 -111.5v-1188h332q179 0 269 78q88 79 194 336z"/>
    <glyph glyph-name="M" unicode="M" horiz-adv-x="2234" d="M2132 1464v-41q-111 -10 -149.5 -42.5t-38.5 -112.5v-1071q0 -79 39.5 -112.5t148.5 -43.5v-41h-629v41q118 10 159.5 43t41.5 113v1052l-598 -1085h-125l-600 1067v-1012q0 -91 43 -128.5t164 -49.5v-41h-486v41q117 12 158 49t41 129v1049q0 80 -40.5 112.5 t-158.5 42.5v41h422l611 -1083l594 1083h403z"/>
    <glyph glyph-name="N" unicode="N" horiz-adv-x="1722" d="M1143 1464h487v-41q-110 -12 -149 -49t-39 -129v-1245h-176l-881 1227v-1008q0 -91 43 -128.5t164 -49.5v-41h-490v41q117 12 158 49t41 129v1049q0 80 -40.5 112.5t-158.5 42.5v41h402l854 -1192v973q0 92 -44.5 129t-170.5 49v41z"/>
    <glyph glyph-name="O" unicode="O" horiz-adv-x="1652" d="M825 -31q-353 0 -536 207q-180 204 -180 551q0 349 180 553q182 209 536 209q355 0 537 -209q182 -206 182 -553t-180 -551q-183 -207 -539 -207zM825 55q230 0 348.5 176.5t118.5 495.5q0 320 -119 499t-348 179q-228 0 -347.5 -179.5t-119.5 -498.5 q0 -317 119.5 -494.5t347.5 -177.5z"/>
    <glyph glyph-name="P" unicode="P" horiz-adv-x="1415" d="M117 1464h733q268 0 399 -97t131 -306q0 -436 -563 -436h-270v-428q0 -80 52 -113t200 -43v-41h-682v41q112 10 151 43t39 113v1071q0 80 -39 112.5t-151 42.5v41zM547 705h194q389 0 389 350q0 175 -97 253t-292 78h-194v-681z"/>
    <glyph glyph-name="Q" unicode="Q" horiz-adv-x="1656" d="M1538 61h31q21 -175 -43 -288q-65 -115 -232 -115q-130 0 -216 79.5t-150 235.5q-86 -4 -99 -4q-355 0 -538 207q-180 204 -180 551q0 349 180 553q182 209 538 209q355 0 537 -209q180 -204 180 -553q0 -267 -107 -452t-315 -259q102 -178 232 -178q91 0 140.5 61 t41.5 162zM829 1405q-229 0 -349 -179.5t-120 -498.5q0 -328 125 -502q12 148 74.5 222.5t159.5 74.5q64 0 104 -30q4 -3 15 -10.5t15 -10t12.5 -9.5t13.5 -12.5t12.5 -14.5t15.5 -19q44 -58 68 -107l31 -59q14 -23 32 -66l31 -61q227 152 227 604q0 319 -119.5 498.5 t-347.5 179.5zM829 55q4 0 66 4l-27 74q-9 24 -18.5 51.5t-16 45t-16.5 40.5q-24 53 -61 99q-29 39 -80 39q-132 0 -162 -220q118 -133 315 -133z"/>
    <glyph glyph-name="R" unicode="R" horiz-adv-x="1585" d="M1020 705l334 -517q47 -66 88 -98q49 -31 135 -49v-41h-428q-21 110 -90 215l-295 471h-236v-489q0 -79 46.5 -112.5t175.5 -43.5v-41h-648v41q112 10 151.5 43t39.5 113v1071q0 80 -39.5 112.5t-151.5 42.5v41h734q274 0 405 -90t131 -284q0 -318 -352 -385zM528 1386 v-620h203q397 0 397 315q0 161 -98.5 233t-298.5 72h-203z"/>
    <glyph glyph-name="S" unicode="S" horiz-adv-x="1302" d="M256 -45h-55l-74 608l45 4q55 -249 190.5 -379.5t333.5 -130.5q149 0 230.5 61.5t81.5 178.5q0 152 -121 225q-68 43 -127 62q-91 31 -170 53q-100 27 -174.5 61t-147.5 88q-155 117 -155 328q0 173 112.5 274t313.5 101q83 0 169 -28.5t145 -56.5t75 -28q66 0 51 137h55 l99 -595l-46 -5q-62 234 -197.5 362t-324.5 128q-121 0 -190.5 -59.5t-69.5 -159.5q0 -111 76 -187q33 -33 86 -59q79 -37 211 -74q132 -38 209.5 -70.5t152.5 -86.5q162 -110 162 -338q0 -188 -129 -294t-348 -106q-68 0 -141 17.5t-121.5 38t-93 38t-62.5 17.5 q-63 0 -51 -125z"/>
    <glyph glyph-name="T" unicode="T" horiz-adv-x="1525" d="M1329 1528h47l123 -561l-43 -9q-62 153 -110.5 237.5t-102.5 125.5q-52 41 -96.5 53t-128.5 12h-135v-1189q0 -80 55 -113t209 -43v-41h-768v41q154 10 209 43t55 113v1189h-135q-58 -2 -96 -7.5t-76.5 -23t-66 -44t-60.5 -76.5t-64.5 -114t-74.5 -163l-43 9l123 561h47 q5 -38 24.5 -51t75.5 -13h932q56 0 75.5 13t24.5 51z"/>
    <glyph glyph-name="U" unicode="U" horiz-adv-x="1724" d="M1044 1464h611v-41q-105 -10 -142.5 -42.5t-37.5 -112.5v-658q0 -310 -149 -475.5t-454 -165.5q-600 0 -600 641v658q0 80 -39 112.5t-151 42.5v41h610v-41q-105 -10 -141.5 -42.5t-36.5 -112.5v-711q0 -242 90 -371t268 -129q181 0 272 129t91 371v711q0 80 -39.5 112.5 t-151.5 42.5v41z"/>
    <glyph glyph-name="V" unicode="V" horiz-adv-x="1626" d="M1114 1423v41h494v-41q-96 -12 -144 -57q-48 -48 -94 -166l-455 -1200h-194l-502 1237q-38 93 -80.5 133.5t-120.5 52.5v41h627v-41q-143 -17 -179.5 -62.5t9.5 -135.5l418 -1045l387 1022q14 36 19.5 62.5t1.5 56t-23 49t-60 34t-104 19.5z"/>
    <glyph glyph-name="W" unicode="W" horiz-adv-x="2588" d="M2071 1423v41h497v-41q-95 -12 -143 -57q-48 -48 -94 -166l-463 -1200h-195l-373 973l-385 -973h-194l-502 1237q-38 93 -80.5 133.5t-120.5 52.5v41h627v-41q-141 -19 -176 -60t6 -138l418 -1049l362 914l-55 147q-35 88 -82.5 131.5t-140.5 54.5v41h649v-41 q-139 -18 -176 -65t8 -133l389 -1043l394 1020q18 50 21.5 85t-11.5 65t-59.5 47.5t-120.5 23.5z"/>
    <glyph glyph-name="X" unicode="X" horiz-adv-x="1583" d="M911 770l424 -590q45 -64 88.5 -93t120.5 -46v-41h-633v41q245 22 101 195l-320 446l-307 -471q-25 -40 -32.5 -67.5t3 -50t48 -35.5t104.5 -17v-41h-469v41q89 15 141 51q54 36 117 135l344 525l-397 555q-44 63 -76 82q-38 23 -102 34v41h624v-41q-136 -10 -162.5 -51 t39.5 -123l295 -411l283 405q64 82 37 126t-154 54v41h477v-41q-97 -16 -145 -53q-54 -41 -127 -145z"/>
    <glyph glyph-name="Y" unicode="Y" horiz-adv-x="1476" d="M999 1423v41h455v-41q-88 -15 -141 -59q-50 -41 -111 -139l-323 -531v-497q0 -80 36.5 -113t141.5 -43v-41h-611v41q112 10 151.5 43t39.5 113v491l-447 619q-44 62 -75 82q-23 18 -92 34v41h636v-41q-134 -10 -167 -53t26 -121l322 -463l272 447q29 47 39 78t1 56 t-46.5 38.5t-106.5 17.5z"/>
    <glyph glyph-name="Z" unicode="Z" horiz-adv-x="1439" d="M1331 516l43 -10l-133 -569h-45q-6 37 -25.5 49t-74.5 12l-961 2v49l860 1337h-374q-98 0 -153 -13t-114 -54q-60 -42 -111 -129.5t-110 -241.5l-43 10l123 570h45q5 -37 24 -50.5t70 -13.5h957v-49l-860 -1335h395q181 0 282 84q94 79 205 352z"/>
    <glyph glyph-name="bracketleft" unicode="[" horiz-adv-x="798" d="M645 1645v-82h-196v-1626h196v-80h-426v1788h426z"/>
    <glyph glyph-name="backslash" unicode="\" horiz-adv-x="1177" d="M98 1587h244l737 -1806h-243z"/>
    <glyph glyph-name="bracketright" unicode="]" horiz-adv-x="798" d="M154 1645h428v-1788h-428v80h198v1626h-198v82z"/>
    <glyph glyph-name="asciicircum" unicode="^" horiz-adv-x="1048" d="M565 1464l322 -688h-84l-275 590l-276 -590h-86l326 688h73z"/>
    <glyph glyph-name="underscore" unicode="_" horiz-adv-x="1417" d="M1288 -244h-1155v82h1155v-82z"/>
    <glyph glyph-name="a" unicode="a" horiz-adv-x="1124" d="M1087 96l9 -18q-76 -94 -224 -94q-164 0 -167 174q-123 -187 -357 -187q-128 0 -195 63t-67 175q0 232 342 291l277 49v100q0 152 -46 213.5t-149 61.5q-89 0 -141 -42.5t-52 -127.5q0 -99 60 -150q-108 -30 -177 8.5t-69 135.5q0 124 117 188q121 65 278 65 q203 0 300.5 -89t97.5 -277v-483q0 -82 65 -82q36 0 98 26zM444 82q80 0 150 45t111 123v221l-181 -35q-121 -24 -167 -73t-46 -134q0 -147 133 -147z"/>
    <glyph glyph-name="b" unicode="b" horiz-adv-x="1214" d="M711 1004q199 0 302 -134t103 -374q0 -235 -119 -381q-122 -146 -354 -146q-195 0 -297 156l-129 -125h-45v1307q0 78 -27 108t-120 45v41l368 72v-719q105 150 318 150zM606 53q139 0 209 118t70 325q0 197 -61.5 306t-178.5 109q-171 0 -252 -161v-576 q77 -121 213 -121z"/>
    <glyph glyph-name="c" unicode="c" horiz-adv-x="1050" d="M332 506q0 -198 72 -307t217 -109q232 0 327 209l27 -10q-35 -157 -145.5 -238.5t-278.5 -81.5q-222 0 -336.5 132t-114.5 374q0 247 129 388t377 141q163 0 265 -73t102 -204q0 -94 -66.5 -144t-181.5 -32q72 63 72 174q0 197 -187 197q-141 0 -209.5 -111.5 t-68.5 -304.5z"/>
    <glyph glyph-name="d" unicode="d" horiz-adv-x="1271" d="M1051 1571v-1374q0 -70 31 -106t108 -48v-43h-336v170q-118 -201 -358 -201q-190 0 -294 137t-104 377q0 232 113 375q116 146 340 146q177 0 278 -125v428q0 77 -28.5 108.5t-118.5 44.5v41zM569 61q165 0 260 179v512q-70 168 -231 168q-266 0 -266 -437 q0 -201 60 -311.5t177 -110.5z"/>
    <glyph glyph-name="e" unicode="e" horiz-adv-x="1073" d="M618 90q224 0 326 209l27 -10q-36 -158 -145 -239t-277 -81q-222 0 -336.5 132t-114.5 374q0 244 125.5 386.5t358.5 142.5q222 0 324 -121t59 -371h-635q0 -422 288 -422zM575 922q-104 0 -166.5 -87.5t-74.5 -238.5h434q11 166 -36 246t-157 80z"/>
    <glyph glyph-name="f" unicode="f" horiz-adv-x="770" d="M629 1575q140 0 220.5 -55.5t80.5 -161.5q0 -89 -67 -138t-175 -36q72 63 72 170q0 139 -139 139q-187 0 -187 -250v-270h289v-80h-289v-703q0 -73 39 -106q41 -30 164 -45v-39h-561v39q78 12 107.5 46t29.5 103v705h-164v80h164v172q0 215 100 322.5t316 107.5z"/>
    <glyph glyph-name="g" unicode="g" horiz-adv-x="1048" d="M930 930q26 26 26 74q0 51 -51 51q-79 0 -147 -103q155 -82 155 -262q0 -141 -105.5 -223t-297.5 -82h-16q-211 0 -211 -90q0 -39 56.5 -60t207.5 -34q256 -21 358 -84q107 -64 107 -215q0 -155 -137.5 -233.5t-382.5 -76.5q-241 2 -359.5 55.5t-118.5 172.5 q0 180 322 223q-115 20 -165 67t-50 123q0 64 52 111.5t149 67.5q-213 68 -213 278q0 148 104 231t297 83q127 0 203 -33q91 198 241 198q55 0 87 -29t32 -85q0 -55 -39 -87.5t-104 -37.5zM315 690q0 -110 52 -170.5t143 -60.5q92 0 143.5 60t51.5 171q0 112 -52 175 t-143 63t-143 -63t-52 -175zM834 -141q0 80 -76 119t-254 49q-295 -40 -295 -187q0 -81 79 -124.5t222 -43.5q154 0 239 46.5t85 140.5z"/>
    <glyph glyph-name="h" unicode="h" horiz-adv-x="1320" d="M1118 645v-446q0 -72 33 -110.5t115 -51.5v-37h-508v39q77 12 108 50t31 110v473q0 229 -176 229q-97 0 -169.5 -70.5t-107.5 -203.5v-430q0 -70 29 -106t100 -48v-43h-489v39q77 12 108 49t31 109v1110q0 77 -28.5 108.5t-118.5 44.5v41l368 70v-795q105 228 359 228 q315 0 315 -359z"/>
    <glyph glyph-name="i" unicode="i" horiz-adv-x="677" d="M424 1225q-38 -38 -96 -38t-99 38q-38 41 -38 98.5t38 95.5q41 41 99 41t96 -41q41 -38 41 -95.5t-41 -98.5zM461 989v-790q0 -74 32.5 -111t116.5 -49v-39h-518v37q82 13 115 51.5t33 110.5v532q0 74 -29 103t-129 47v37z"/>
    <glyph glyph-name="j" unicode="j" horiz-adv-x="579" d="M383 1225q-38 -38 -96 -38t-99 38q-38 41 -38 98.5t38 95.5q41 41 99 41t96 -41q41 -38 41 -95.5t-41 -98.5zM31 -406q-122 0 -195.5 45t-73.5 128q0 72 59.5 110t155.5 14q-49 -40 -49 -112q0 -107 107 -107q160 0 160 258v801q0 74 -29 103t-129 47v37l379 71v-954 q0 -227 -93.5 -334t-291.5 -107z"/>
    <glyph glyph-name="k" unicode="k" horiz-adv-x="1261" d="M778 659l275 -493q37 -69 66 -94.5t87 -32.5v-39h-477v39q137 12 72 133l-193 348l-166 -135v-195q0 -70 27 -104t98 -47v-39h-483v39q76 12 106.5 49.5t30.5 108.5v1110q0 79 -26 108q-27 30 -121 45v41l368 70v-1090l322 269q87 74 75 124t-116 58v41h473v-41 q-63 -6 -123 -41q-49 -31 -162 -123z"/>
    <glyph glyph-name="l" unicode="l" horiz-adv-x="630" d="M428 1571v-1374q0 -72 31 -109t108 -49v-39h-497v39q76 12 106.5 49.5t30.5 108.5v1110q0 78 -27 108t-121 45v41z"/>
    <glyph glyph-name="m" unicode="m" horiz-adv-x="1966" d="M1763 645v-446q0 -70 33 -108.5t115 -51.5v-39h-508v39q77 13 108 51t31 109v473q0 229 -164 229q-93 0 -162 -69t-104 -199v-434q0 -72 31 -110.5t108 -51.5v-37h-499v39q77 12 108 50t31 110v473q0 116 -45 172.5t-123 56.5q-92 0 -161 -69.5t-101 -198.5v-434 q0 -72 31 -110t108 -50v-39h-508v37q82 13 115 51.5t33 110.5v532q0 74 -29 103t-129 47v37l369 69l-7 -246q95 263 363 263q252 0 295 -242q99 242 358 242q303 0 303 -359z"/>
    <glyph glyph-name="n" unicode="n" horiz-adv-x="1337" d="M1135 645v-446q0 -72 32.5 -110.5t114.5 -51.5v-37h-508v39q77 12 108 50t31 110v473q0 229 -176 229q-98 0 -169.5 -70t-106.5 -202v-430q0 -72 31 -110t108 -50v-39h-508v37q82 13 115 51.5t33 110.5v532q0 74 -29 103t-129 47v37l369 69l-7 -252q100 269 375 269 q316 0 316 -359z"/>
    <glyph glyph-name="o" unicode="o" horiz-adv-x="1210" d="M1114 487q0 -231 -125 -374q-126 -144 -383 -144t-383 144q-125 143 -125 374q0 228 125 371q128 146 383 146t383 -146q125 -143 125 -371zM606 922q-137 0 -205.5 -115t-68.5 -320t68.5 -320.5t205.5 -115.5q136 0 204.5 116t68.5 320t-68.5 319.5t-204.5 115.5z"/>
    <glyph glyph-name="p" unicode="p" horiz-adv-x="1224" d="M721 1004q199 0 302 -134t103 -372q0 -246 -120.5 -387.5t-352.5 -141.5q-156 0 -250 101v-256q0 -76 43.5 -109t169.5 -45v-37h-581v35q85 13 116 47.5t31 108.5v909q0 79 -27 111t-120 45v41l358 69l-4 -174q103 189 332 189zM616 53q139 0 208 117.5t69 327.5 q0 195 -60.5 304t-177.5 109q-169 0 -252 -176v-563q73 -119 213 -119z"/>
    <glyph glyph-name="q" unicode="q" horiz-adv-x="1251" d="M1051 973v-1153q0 -73 28.5 -107t106.5 -47v-43h-553v39q109 12 152.5 48.5t43.5 111.5v311q-114 -164 -325 -164q-199 0 -302.5 135t-103.5 379q0 232 113 375q116 146 340 146q206 0 315 -183l148 152h37zM575 61q160 0 254 175v514q-71 170 -233 170q-266 0 -266 -437 q0 -422 245 -422z"/>
    <glyph glyph-name="r" unicode="r" horiz-adv-x="989" d="M758 1004q82 0 134 -45.5t52 -129.5q0 -88 -58.5 -130t-152.5 -40q49 49 49 127q0 95 -88 95q-178 0 -233 -377v-305q0 -71 45.5 -107t165.5 -53v-39h-580v37q82 13 115 51.5t33 110.5v532q0 74 -29 103t-129 47v37l377 69l-17 -321q37 179 115.5 258.5t200.5 79.5z"/>
    <glyph glyph-name="s" unicode="s" horiz-adv-x="1007" d="M547 590q88 -25 140.5 -47t103.5 -58q104 -71 104 -231q0 -139 -96.5 -212t-259.5 -73q-182 0 -308 105l-79 -84h-39v368h47q32 -152 123 -232.5t223 -80.5q96 0 152.5 41t56.5 123q0 75 -58.5 115.5t-212.5 83.5q-77 21 -125.5 41t-101.5 55q-106 72 -106 235 q0 125 85 195t238 70q188 0 301 -119l72 98h39v-348h-45q-105 293 -336 293q-86 0 -131 -37t-45 -105q0 -76 57.5 -116.5t200.5 -79.5z"/>
    <glyph glyph-name="t" unicode="t" horiz-adv-x="849" d="M807 279l31 -7q-20 -138 -113 -220.5t-231 -82.5q-170 0 -243 92t-73 291v539h-135v82h135q127 53 164 356h57v-356h357v-82h-357v-565q0 -129 38 -186.5t128 -57.5t155.5 56.5t86.5 140.5z"/>
    <glyph glyph-name="u" unicode="u" horiz-adv-x="1294" d="M1071 973v-750q0 -75 27 -102q28 -28 121 -43v-39l-359 -57l8 213q-58 -113 -156 -169.5t-218 -56.5q-308 0 -308 361v446q0 70 -33 108.5t-112 51.5v37h367v-649q0 -250 178 -250q83 0 153 55.5t111 157.5v489q0 74 -34.5 110t-123.5 48v39h379z"/>
    <glyph glyph-name="v" unicode="v" horiz-adv-x="1263" d="M858 936v37h383v-37q-64 -20 -100 -62q-35 -41 -80 -143l-334 -731h-190l-353 768q-43 91 -69 117q-28 32 -92 51v37h532v-37q-210 -25 -129 -164l283 -627l276 625q22 42 20.5 76t-39 58t-108.5 32z"/>
    <glyph glyph-name="w" unicode="w" horiz-adv-x="1896" d="M1493 936v37h385v-37q-69 -18 -102 -57q-28 -31 -78 -146l-301 -733h-168l-277 735l-286 -735h-177l-311 768q-34 83 -64.5 116.5t-95.5 51.5v37h537v-37q-107 -13 -133.5 -62t14.5 -133l213 -555l303 787h158l281 -774l215 540q41 86 15.5 135.5t-128.5 61.5z"/>
    <glyph glyph-name="x" unicode="x" horiz-adv-x="1173" d="M715 494l248 -308q62 -75 94.5 -103t85.5 -46v-37h-525v37q71 9 101 29.5t23 49.5t-44 68l-206 256l-197 -272q-82 -113 80 -131v-37h-352v37q59 15 96 49q30 26 112 131l213 283l-231 286q-69 85 -94 105q-26 26 -82 45v37h524v-37q-103 -13 -123.5 -47.5t33.5 -89.5 l195 -242l174 242q41 57 21 94t-95 43v39h348v-39q-59 -15 -96 -49q-39 -39 -109 -129z"/>
    <glyph glyph-name="y" unicode="y" horiz-adv-x="1263" d="M860 936v37h387v-37q-69 -22 -100 -59q-38 -45 -82 -144l-324 -706q-105 -228 -213 -330q-108 -105 -272 -105q-105 0 -165 47t-60 134q0 85 62.5 130.5t168.5 37.5q-67 -76 -67 -146q0 -55 30 -88t84 -33q137 0 273 226l-404 868q-43 91 -69 117q-25 32 -93 51v37h537 v-37q-81 -11 -117 -33.5t-34 -55t20 -75.5l287 -620l280 618q13 35 16 58.5t-6.5 47.5t-44 38.5t-94.5 21.5z"/>
    <glyph glyph-name="z" unicode="z" horiz-adv-x="1085" d="M946 395l43 -6l-59 -430h-43q-9 41 -72 41h-700v74l583 819h-225q-152 0 -209 -57q-58 -58 -123 -258l-43 8l52 430h43q12 -43 71 -43h705v-74l-586 -819h238q133 0 198 59q65 62 127 256z"/>
    <glyph glyph-name="braceleft" unicode="{" horiz-adv-x="837" d="M479 37q0 -165 244 -82l12 -43q-139 -68 -270 -68q-97 0 -150 54.5t-53 152.5q0 95 45 271q47 186 47 243q0 150 -166 150h-84v82h84q166 0 166 149q0 64 -43 246q-42 177 -45 266q-2 100 52.5 153.5t158.5 53.5q129 0 258 -63l-12 -46q-244 83 -244 -81q0 -101 39 -254 q41 -161 41 -254q0 -82 -51.5 -135.5t-134.5 -75.5q82 -18 134 -73t52 -134q3 -89 -39 -258q-41 -166 -41 -254z"/>
    <glyph glyph-name="bar" unicode="|" horiz-adv-x="1071" d="M575 1831l-2 -2214h-79l2 2214h79z"/>
    <glyph glyph-name="braceright" unicode="}" horiz-adv-x="837" d="M649 797h84v-82h-84q-166 0 -166 -150q0 -64 45 -243q47 -183 47 -271q0 -98 -52.5 -152.5t-149.5 -54.5q-132 0 -271 68l13 43q243 -82 243 82q0 88 -41 254q-41 165 -38 258q0 79 52 134t134 73q-83 22 -134.5 75.5t-51.5 135.5q0 105 38 254q41 161 41 254 q0 163 -243 81l-13 46q129 63 258 63q104 0 158.5 -53.5t52.5 -153.5q-3 -89 -45 -266q-43 -182 -43 -246q0 -149 166 -149z"/>
    <glyph glyph-name="asciitilde" unicode="~" horiz-adv-x="1239"/>
    <glyph glyph-name="exclamdown" unicode="¡" horiz-adv-x="763" d="M383 1001q45 0 79 -33.5t34 -82.5q0 -44 -34.5 -79.5t-78.5 -35.5q-49 0 -84 34t-35 81q0 49 34.5 82.5t84.5 33.5zM217 -494l135 1063h54l120 -1063h-309z"/>
    <glyph glyph-name="cent" unicode="¢" horiz-adv-x="1142" d="M993 584l27 -11q-30 -137 -126 -218t-237 -99v-332h-84v328q-228 4 -347.5 129.5t-119.5 345.5q0 224 119 357t350 151v276h82v-274q163 -5 261 -77.5t98 -203.5q0 -92 -59 -137.5t-164 -32.5q57 57 57 164q0 199 -193 205v-790q241 6 336 219zM338 758q0 -161 59.5 -262 t175.5 -125l2 778q-119 -24 -178 -127.5t-59 -263.5z"/>
    <glyph glyph-name="sterling" unicode="£" horiz-adv-x="1343" d="M1260 532l38 -4q10 -275 -92 -417t-282 -142q-56 -2 -116.5 14.5t-112 41t-99.5 49.5t-94 42t-80 15q-74 0 -143 -29.5t-181 -101.5l-49 78q216 127 297 205q82 82 82 204q0 91 -72 238h-329v78h288q-108 199 -108 364q0 144 96.5 233t261.5 89q75 0 152 -18t126.5 -39.5 t93.5 -39.5t62 -18q63 0 48 121h59l68 -528l-46 -4q-47 218 -182 327q-137 113 -293 113q-98 0 -154.5 -53.5t-56.5 -147.5q0 -86 43 -203l47 -104l43 -92h512v-78h-481q25 -83 25 -145q0 -208 -211 -328q101 15 268 -37q165 -51 258 -51q140 0 223.5 96t90.5 272z"/>
    <glyph glyph-name="currency" unicode="¤" horiz-adv-x="1239"/>
    <glyph glyph-name="yen" unicode="¥" horiz-adv-x="1480" d="M1456 1464v-41q-85 -19 -129 -57q-49 -40 -123 -141l-293 -418h400v-82h-437v-268h435v-82h-435v-178q0 -80 39 -113t150 -43v-41h-629v41q117 10 158 43t41 113v178h-434v82h434v268h-430v82h375l-385 498q-55 71 -78 86q-25 17 -90 32v41h637v-41q-140 -10 -172.5 -56 t36.5 -124l308 -407l266 381q72 92 50 144t-149 62v41h455z"/>
    <glyph glyph-name="brokenbar" unicode="¦" horiz-adv-x="1071" d="M575 870h-79v961h79v-961zM496 580h79l-2 -963h-79z"/>
    <glyph glyph-name="section" unicode="§" horiz-adv-x="1400" d="M1270 623q0 -113 -81 -188t-226 -105q217 -105 217 -305q0 -127 -89 -201t-257 -74q-74 0 -151.5 17.5t-128 39t-94 39t-57.5 17.5q-35 0 -46 -32t-1 -105h-57l-76 458l47 4q43 -163 185 -258q140 -94 327 -94q222 0 222 146q0 94 -93 147q-90 51 -311 111 q-120 32 -191 59t-141 68q-135 84 -135 251q0 114 81 189t226 102q-219 109 -219 314q0 124 84 195t240 71q102 0 203.5 -28.5t167 -56.5t79.5 -28q56 0 41 137h58l75 -458l-47 -4q-44 165 -182.5 258.5t-331.5 93.5q-209 0 -209 -137q0 -103 93 -156q90 -51 311 -111 q122 -32 191 -58t139 -67q137 -81 137 -251zM741 408l107 -31q114 11 183 61.5t69 128.5q0 107 -125 162q-85 40 -293 98l-25 7l-104 30q-114 -11 -182 -61.5t-68 -128.5q-10 -94 125 -168q35 -18 92 -37l101 -31z"/>
    <glyph glyph-name="copyright" unicode="©" horiz-adv-x="1839" d="M920 -29q-346 0 -570 205q-223 204 -223 553t223 553q227 207 570 207t573 -207q227 -205 227 -553t-227 -553t-573 -205zM920 47q99 0 194.5 22.5t189 75t164 129t113.5 194t43 261.5q0 143 -43.5 261t-114 195t-163.5 129.5t-189 75.5t-194 23q-258 0 -465 -153 q-108 -80 -171 -218.5t-63 -312.5q0 -173 63 -310t171 -218q209 -154 465 -154zM932 283q-190 0 -300 119t-110 319q0 208 109 338q110 131 301 131q92 0 168 -33q82 -31 94 -31q42 0 33 66h53l47 -395l-45 -6q-70 333 -309 333q-117 0 -190.5 -94t-73.5 -252 q0 -399 290 -399q127 0 215 60t121 165l23 -6q-22 -136 -133 -225q-116 -90 -293 -90z"/>
    <glyph glyph-name="guillemotleft" unicode="«" horiz-adv-x="1021" d="M496 844l32 -41l-233 -305l233 -299l-32 -41l-418 309v70zM877 844l32 -41l-233 -305l233 -299l-32 -41l-418 309v70z"/>
    <glyph glyph-name="logicalnot" unicode="¬" horiz-adv-x="1239"/>
    <glyph glyph-name="registered" unicode="®" horiz-adv-x="1226" d="M242 1360q144 129 364 129q219 0 363 -129q143 -125 143 -340q0 -214 -143 -342q-145 -127 -363 -127q-219 0 -364 127q-144 129 -144 342q0 214 144 340zM606 618q105 0 195 37q98 39 163.5 136.5t65.5 228.5q0 139 -69 231q-119 170 -355 170q-168 0 -297 -100 q-129 -102 -129 -301t129 -301q131 -101 297 -101zM711 999l71 -108q31 -42 90 -51v-25h-163q-10 31 -21 47l-80 129h-57v-100q0 -25 12.5 -35.5t44.5 -15.5v-25h-219v25q38 5 53 15.5t15 35.5v287q0 25 -15 35.5t-53 15.5v24h254q91 0 131.5 -29.5t40.5 -95.5 q0 -105 -104 -129zM604 1212h-53v-182h53q113 0 113 98q0 84 -113 84z"/>
    <glyph glyph-name="degree" unicode="°" horiz-adv-x="966" d="M479 831q147 0 242 89q96 90 96 235q0 146 -96 236t-242 90q-145 0 -241 -90q-97 -91 -97 -236q0 -146 95 -235t243 -89zM731 1155q2 -96 -50 -161.5t-127 -80.5t-150 0t-127 80.5t-50 161.5q-2 95 50 160.5t127 81t150 0.5t127 -80.5t50 -161.5z"/>
    <glyph glyph-name="plusminus" unicode="±" horiz-adv-x="1132" d="M606 432h-84v309h-385v78h385v307h84v-307h383v-78h-383v-309zM131 172v80h870v-80h-870z"/>
    <glyph glyph-name="paragraph" unicode="¶" horiz-adv-x="1687" d="M653 1464h852v-34q-105 -12 -141.5 -46t-36.5 -116v-1647h-86v1763h-309v-1763h-86v977h-193q-228 0 -360.5 119t-132.5 327q0 196 132.5 308t360.5 112z"/>
    <glyph glyph-name="middot" unicode="·" horiz-adv-x="550" d="M281 606q-49 0 -83 34t-34 83q0 48 34 81.5t83 33.5q47 0 80.5 -34t33.5 -81q0 -49 -33.5 -83t-80.5 -34z"/>
    <glyph glyph-name="guillemotright" unicode="»" horiz-adv-x="1056" d="M145 844l418 -307v-70l-418 -309l-32 41l233 299l-233 305zM494 803l32 41l418 -307v-70l-418 -309l-32 41l233 299z"/>
    <glyph glyph-name="onequarter" unicode="¼" horiz-adv-x="1800" d="M496 594h-461v29q81 7 111 30.5t30 75.5v635q-74 -51 -127 -51q-37 0 -47.5 38t10.5 79q54 -28 154 -13q107 16 180 66h33v-754q0 -52 24.5 -75.5t92.5 -30.5v-29zM205 0l1192 1464h110l-1190 -1464h-112zM1741 438l26 -8l-51 -268h-28q-3 45 -48 45h-63v-205h-217v205 h-447v115l435 563h229v-561h12q56 0 86 22t66 92zM1360 797l-365 -473h365v473z"/>
    <glyph glyph-name="onehalf" unicode="½" horiz-adv-x="1806" d="M35 594v29q81 7 111 30.5t30 75.5v635q-74 -51 -127 -51q-37 0 -47.5 38t10.5 79q54 -28 154 -13q107 16 180 66h33v-754q0 -52 24.5 -75.5t92.5 -30.5v-29h-461zM139 0l1192 1464h113l-1192 -1464h-113zM1741 354l31 -8l-64 -387h-39q-9 41 -61 41h-592v55 q201 106 336 273q131 162 131 319q0 86 -39 135t-111 49q-74 0 -114.5 -42.5t-40.5 -112.5q0 -120 79 -166q-122 -36 -194 4t-72 141q0 110 96 176t259 66q173 0 266.5 -67t93.5 -195q0 -257 -469 -500l227 21q108 12 168 47q60 39 109 151z"/>
    <glyph glyph-name="threequarters" unicode="¾" horiz-adv-x="1873" d="M776 815q0 -242 -414 -242q-331 0 -331 205q0 84 68.5 123t166.5 14q-53 -47 -53 -131q0 -67 39 -106t110 -39q87 0 140 48.5t53 129.5q0 203 -262 203h-100v63h100q237 0 237 193q0 149 -145 149q-63 0 -101 -34t-38 -91q0 -71 55 -108q-113 -34 -176.5 0t-63.5 108 q0 89 88.5 140t251.5 51q353 0 353 -217q0 -195 -305 -225q327 -21 327 -234zM326 0l1192 1464h110l-1190 -1464h-112zM1812 438l27 -8l-51 -268h-29q-5 26 -14.5 35.5t-32.5 9.5h-63v-205h-217v205h-447v115l434 563h230v-561h12q55 0 85 22t66 92zM1432 797l-365 -473h365 v473z"/>
    <glyph glyph-name="questiondown" unicode="¿" horiz-adv-x="1247" d="M721 1004q49 0 83 -34t34 -83q0 -48 -34 -81.5t-83 -33.5q-45 0 -80 34t-35 81q0 49 33.5 83t81.5 34zM342 -203q0 -110 77.5 -169.5t205.5 -59.5q133 0 219 68t86 174q0 124 -82 194q134 37 210.5 -10.5t76.5 -163.5q0 -143 -131 -244q-132 -102 -383 -102 q-263 0 -396 88.5t-133 255.5q0 155 115 258q58 52 115 88t151 82q147 76 197 145q48 66 39 177h55q58 -121 18 -227t-188 -214q-93 -70 -143.5 -118.5t-79.5 -103.5t-29 -118z"/>
    <glyph glyph-name="Agrave" unicode="À" horiz-adv-x="1622" d="M854 1640l-182 150q-101 64 -101 135q0 35 22.5 57.5t57.5 22.5q44 0 72.5 -31.5t48.5 -105.5l94 -217zM899 1464l506 -1237q34 -90 77 -132.5t124 -53.5v-41h-625v41q142 18 179.5 65.5t-9.5 133.5l-100 241h-625l-82 -217q-45 -100 -5.5 -156.5t171.5 -66.5v-41h-494 v41q96 12 146 59q46 43 94 164l449 1200h194zM723 1276l-270 -723h569z"/>
    <glyph glyph-name="Aacute" unicode="Á" horiz-adv-x="1622" d="M961 1790l-181 -150l-12 11l92 217q37 137 121 137q37 0 59.5 -22.5t22.5 -57.5q0 -71 -102 -135zM899 1464l506 -1237q34 -90 77 -132.5t124 -53.5v-41h-625v41q142 18 179.5 65.5t-9.5 133.5l-100 241h-625l-82 -217q-45 -100 -5.5 -156.5t171.5 -66.5v-41h-494v41 q96 12 146 59q46 43 94 164l449 1200h194zM723 1276l-270 -723h569z"/>
    <glyph glyph-name="Acircumflex" unicode="Â" horiz-adv-x="1622" d="M1065 1647l-254 184l-258 -184l-12 12l127 190q40 72 70.5 101.5t70.5 29.5t69 -28t72 -103l127 -190zM899 1464l506 -1237q34 -90 77 -132.5t124 -53.5v-41h-625v41q142 18 179.5 65.5t-9.5 133.5l-100 241h-625l-82 -217q-45 -100 -5.5 -156.5t171.5 -66.5v-41h-494v41 q96 12 146 59q46 43 94 164l449 1200h194zM723 1276l-270 -723h569z"/>
    <glyph glyph-name="Atilde" unicode="Ã" horiz-adv-x="1622" d="M657 1841q-71 0 -135 -119l-18 7q23 116 72.5 174.5t117.5 58.5q59 0 135 -64q76 -61 121 -61q72 0 131 123l17 -6q-44 -234 -193 -234q-51 0 -129 60q-73 61 -119 61zM899 1464l506 -1237q34 -90 77 -132.5t124 -53.5v-41h-625v41q142 18 179.5 65.5t-9.5 133.5 l-100 241h-625l-82 -217q-45 -100 -5.5 -156.5t171.5 -66.5v-41h-494v41q96 12 146 59q46 43 94 164l449 1200h194zM723 1276l-270 -723h569z"/>
    <glyph glyph-name="Adieresis" unicode="Ä" horiz-adv-x="1622" d="M672 1720q-38 -37 -94.5 -37t-94.5 37q-38 38 -38 94.5t38 94.5t94.5 38t94.5 -38t38 -94.5t-38 -94.5zM1155 1815q0 -54 -39 -93t-94 -39q-56 0 -94.5 38.5t-38.5 93.5t38.5 94t94.5 39t94.5 -39t38.5 -94zM899 1464l506 -1237q34 -90 77 -132.5t124 -53.5v-41h-625v41 q142 18 179.5 65.5t-9.5 133.5l-100 241h-625l-82 -217q-45 -100 -5.5 -156.5t171.5 -66.5v-41h-494v41q96 12 146 59q46 43 94 164l449 1200h194zM723 1276l-270 -723h569z"/>
    <glyph glyph-name="Aring" unicode="Å" horiz-adv-x="1622" d="M809 1595q-96 0 -156.5 50t-60.5 143q0 91 60.5 140.5t156.5 49.5q95 0 155 -49.5t60 -140.5q0 -93 -60 -143t-155 -50zM891 1874q-29 35 -82 35t-84 -35q-31 -32 -31 -85.5t31 -88.5t84 -35t82 35q31 35 31 88.5t-31 85.5zM899 1464l506 -1237q34 -90 77 -132.5 t124 -53.5v-41h-625v41q142 18 179.5 65.5t-9.5 133.5l-100 241h-625l-82 -217q-45 -100 -5.5 -156.5t171.5 -66.5v-41h-494v41q96 12 146 59q46 43 94 164l449 1200h194zM723 1276l-270 -723h569z"/>
    <glyph glyph-name="AE" unicode="Æ" horiz-adv-x="2338" d="M2198 498l45 -9l-80 -550h-47q-6 37 -25 49t-70 12h-1050v41q125 14 170 50t41 120l-29 272h-639l-162 -254q-62 -97 -31.5 -136t179.5 -52v-41h-510v41q87 7 141.5 43t104.5 117l800 1263h924q55 0 75 13.5t25 50.5h47l101 -549l-45 -10q-49 148 -94 230t-103 122 q-54 41 -107.5 53t-156.5 12h-399l59 -583h219q128 0 174 55q49 58 70 246h47v-668h-47q-21 178 -68 234q-45 57 -176 57h-211l66 -647h321q179 0 268 80q94 82 173 338zM1065 1354l-506 -799h588z"/>
    <glyph glyph-name="Ccedilla" unicode="Ç" horiz-adv-x="1552" d="M1415 520l29 -6q-21 -229 -180 -379q-155 -149 -418 -164l-6 -86q50 15 102 15q154 0 154 -142q0 -80 -61.5 -125t-160.5 -45q-177 0 -276 129l10 13q92 -62 211 -62q144 0 144 90q0 70 -86 70q-45 0 -115 -21l14 162q-324 6 -495.5 204t-171.5 550q0 346 176 555 q178 211 516 211q129 0 260 -51q134 -49 164 -49q35 0 46 30.5t3 104.5h59l74 -645l-43 -7q-56 252 -194 390.5t-339 138.5q-230 0 -352 -174q-121 -174 -121 -463q0 -320 129.5 -495t384.5 -175q217 0 363 119q145 119 180 307z"/>
    <glyph glyph-name="Egrave" unicode="È" horiz-adv-x="1490" d="M803 1640l-182 150q-101 64 -101 135q0 35 22.5 57.5t57.5 22.5q44 0 72.5 -31.5t48.5 -105.5l94 -217zM1350 498l45 -9l-80 -550h-47q-5 37 -24.5 49t-76.5 12h-1065v41q112 10 151.5 43t39.5 113v1071q0 80 -39.5 112.5t-151.5 42.5v41h1008q56 0 75.5 13t24.5 51h47 l101 -549l-45 -10q-56 147 -100.5 229.5t-94.5 122.5q-48 41 -93.5 53t-125.5 12h-367v-583h199q129 0 174 57q49 58 70 252h47v-684h-47q-18 177 -66 238q-47 59 -178 59h-199v-645h390q168 0 254 80q88 79 174 338z"/>
    <glyph glyph-name="Eacute" unicode="É" horiz-adv-x="1490" d="M909 1790l-180 -150l-12 11l92 217q37 137 121 137q37 0 59.5 -22.5t22.5 -57.5q0 -70 -103 -135zM1350 498l45 -9l-80 -550h-47q-5 37 -24.5 49t-76.5 12h-1065v41q112 10 151.5 43t39.5 113v1071q0 80 -39.5 112.5t-151.5 42.5v41h1008q56 0 75.5 13t24.5 51h47 l101 -549l-45 -10q-56 147 -100.5 229.5t-94.5 122.5q-48 41 -93.5 53t-125.5 12h-367v-583h199q129 0 174 57q49 58 70 252h47v-684h-47q-18 177 -66 238q-47 59 -178 59h-199v-645h390q168 0 254 80q88 79 174 338z"/>
    <glyph glyph-name="Ecircumflex" unicode="Ê" horiz-adv-x="1490" d="M1014 1647l-254 184l-258 -184l-13 12l127 190q40 71 71 101t71 30t69 -28t72 -103l127 -190zM1350 498l45 -9l-80 -550h-47q-5 37 -24.5 49t-76.5 12h-1065v41q112 10 151.5 43t39.5 113v1071q0 80 -39.5 112.5t-151.5 42.5v41h1008q56 0 75.5 13t24.5 51h47l101 -549 l-45 -10q-56 147 -100.5 229.5t-94.5 122.5q-48 41 -93.5 53t-125.5 12h-367v-583h199q129 0 174 57q49 58 70 252h47v-684h-47q-18 177 -66 238q-47 59 -178 59h-199v-645h390q168 0 254 80q88 79 174 338z"/>
    <glyph glyph-name="Edieresis" unicode="Ë" horiz-adv-x="1490" d="M621 1720q-38 -37 -94.5 -37t-94.5 37q-38 38 -38 94.5t38 94.5t94.5 38t94.5 -38t38 -94.5t-38 -94.5zM1104 1815q0 -54 -39 -93t-94 -39q-56 0 -94.5 38.5t-38.5 93.5t39 94t94 39t94 -39t39 -94zM1350 498l45 -9l-80 -550h-47q-5 37 -24.5 49t-76.5 12h-1065v41 q112 10 151.5 43t39.5 113v1071q0 80 -39.5 112.5t-151.5 42.5v41h1008q56 0 75.5 13t24.5 51h47l101 -549l-45 -10q-56 147 -100.5 229.5t-94.5 122.5q-48 41 -93.5 53t-125.5 12h-367v-583h199q129 0 174 57q49 58 70 252h47v-684h-47q-18 177 -66 238q-47 59 -178 59 h-199v-645h390q168 0 254 80q88 79 174 338z"/>
    <glyph glyph-name="Igrave" unicode="Ì" horiz-adv-x="813" d="M453 1640l-183 150q-100 63 -100 135q0 35 22.5 57.5t57.5 22.5q44 0 72.5 -31.5t48.5 -105.5l94 -217zM713 1464v-41q-106 -10 -143.5 -42.5t-37.5 -112.5v-1071q0 -80 38 -113t143 -43v-41h-611v41q112 10 151.5 43t39.5 113v1071q0 80 -39.5 112.5t-151.5 42.5v41h611 z"/>
    <glyph glyph-name="Iacute" unicode="Í" horiz-adv-x="813" d="M559 1790l-180 -150l-12 11l92 217q37 137 121 137q37 0 59.5 -22.5t22.5 -57.5q0 -70 -103 -135zM713 1464v-41q-106 -10 -143.5 -42.5t-37.5 -112.5v-1071q0 -80 38 -113t143 -43v-41h-611v41q112 10 151.5 43t39.5 113v1071q0 80 -39.5 112.5t-151.5 42.5v41h611z"/>
    <glyph glyph-name="Icircumflex" unicode="Î" horiz-adv-x="813" d="M664 1647l-254 184l-258 -184l-13 12l127 190q40 71 71 101t71 30t69 -28t72 -103l127 -190zM713 1464v-41q-106 -10 -143.5 -42.5t-37.5 -112.5v-1071q0 -80 38 -113t143 -43v-41h-611v41q112 10 151.5 43t39.5 113v1071q0 80 -39.5 112.5t-151.5 42.5v41h611z"/>
    <glyph glyph-name="Idieresis" unicode="Ï" horiz-adv-x="813" d="M270 1909q38 -38 38 -94.5t-38 -94.5q-38 -37 -94 -37t-94 37q-38 38 -38 94.5t38 94.5t94 38t94 -38zM754 1815q0 -54 -39 -93t-94 -39q-56 0 -95 38.5t-39 93.5t39 94t95 39q55 0 94 -39t39 -94zM102 1464h611v-41q-106 -10 -143.5 -42.5t-37.5 -112.5v-1071 q0 -80 38 -113t143 -43v-41h-611v41q112 10 151.5 43t39.5 113v1071q0 80 -39.5 112.5t-151.5 42.5v41z"/>
    <glyph glyph-name="Eth" unicode="Ð" horiz-adv-x="1722" d="M102 1464h762q373 0 561.5 -187.5t188.5 -545.5q0 -359 -188 -545t-562 -186h-762v41q112 10 151.5 43t39.5 113v516h-180v78h180v477q0 80 -39.5 112.5t-151.5 42.5v41zM532 80h279q278 0 415.5 168.5t137.5 482.5t-138 484.5t-415 170.5h-279v-595h486v-78h-486v-633z "/>
    <glyph glyph-name="Ntilde" unicode="Ñ" horiz-adv-x="1722" d="M739 1841q-71 0 -135 -119l-18 7q23 116 72.5 174.5t117.5 58.5q59 0 135 -64q76 -61 121 -61q72 0 131 123l17 -6q-44 -234 -193 -234q-51 0 -129 60q-73 61 -119 61zM1143 1464h487v-41q-110 -12 -149 -49t-39 -129v-1245h-176l-881 1227v-1008q0 -91 43 -128.5 t164 -49.5v-41h-490v41q117 12 158 49t41 129v1049q0 80 -40.5 112.5t-158.5 42.5v41h402l854 -1192v973q0 92 -44.5 129t-170.5 49v41z"/>
    <glyph glyph-name="Ograve" unicode="Ò" horiz-adv-x="1652" d="M870 1640l-182 150q-100 63 -100 135q0 35 22.5 57.5t57.5 22.5q43 0 71.5 -31.5t48.5 -105.5l95 -217zM825 -31q-353 0 -536 207q-180 204 -180 551q0 349 180 553q182 209 536 209q355 0 537 -209q182 -206 182 -553t-180 -551q-183 -207 -539 -207zM825 55 q230 0 348.5 176.5t118.5 495.5q0 320 -119 499t-348 179q-228 0 -347.5 -179.5t-119.5 -498.5q0 -317 119.5 -494.5t347.5 -177.5z"/>
    <glyph glyph-name="Oacute" unicode="Ó" horiz-adv-x="1652" d="M977 1790l-180 -150l-13 11l93 217q37 137 120 137q37 0 59.5 -22.5t22.5 -57.5q0 -71 -102 -135zM825 -31q-353 0 -536 207q-180 204 -180 551q0 349 180 553q182 209 536 209q355 0 537 -209q182 -206 182 -553t-180 -551q-183 -207 -539 -207zM825 55 q230 0 348.5 176.5t118.5 495.5q0 320 -119 499t-348 179q-228 0 -347.5 -179.5t-119.5 -498.5q0 -317 119.5 -494.5t347.5 -177.5z"/>
    <glyph glyph-name="Ocircumflex" unicode="Ô" horiz-adv-x="1652" d="M1081 1647l-254 184l-258 -184l-12 12l127 190q40 72 70.5 101.5t70.5 29.5t69.5 -28.5t72.5 -102.5l127 -190zM1544 727q0 -347 -180 -551q-183 -207 -539 -207q-353 0 -536 207q-180 204 -180 551q0 349 180 553q182 209 536 209q355 0 537 -209q182 -206 182 -553z M825 55q230 0 348.5 176.5t118.5 495.5q0 320 -119 499t-348 179q-228 0 -347.5 -179.5t-119.5 -498.5q0 -317 119.5 -494.5t347.5 -177.5z"/>
    <glyph glyph-name="Otilde" unicode="Õ" horiz-adv-x="1652" d="M674 1841q-71 0 -135 -119l-19 7q23 115 73 174t118 59q59 0 135 -64q76 -61 121 -61q73 0 131 123l16 -6q-44 -234 -192 -234q-51 0 -129 60q-73 61 -119 61zM825 -31q356 0 539 207q180 204 180 551t-182 553q-182 209 -537 209q-354 0 -536 -209q-180 -204 -180 -553 q0 -347 180 -551q183 -207 536 -207zM825 55q-228 0 -347.5 177.5t-119.5 494.5q0 319 119.5 498.5t347.5 179.5q229 0 348 -179t119 -499q0 -319 -118.5 -495.5t-348.5 -176.5z"/>
    <glyph glyph-name="Odieresis" unicode="Ö" horiz-adv-x="1652" d="M690 1720q-38 -37 -94 -37t-94 37q-38 38 -38 94.5t38 94.5t94 38t94 -38t38 -94.5t-38 -94.5zM1174 1815q0 -54 -39.5 -93t-94.5 -39q-56 0 -94.5 38.5t-38.5 93.5t38.5 94t94.5 39t95 -39t39 -94zM825 -31q-353 0 -536 207q-180 204 -180 551q0 349 180 553 q182 209 536 209q355 0 537 -209q182 -206 182 -553t-180 -551q-183 -207 -539 -207zM825 55q230 0 348.5 176.5t118.5 495.5q0 320 -119 499t-348 179q-228 0 -347.5 -179.5t-119.5 -498.5q0 -317 119.5 -494.5t347.5 -177.5z"/>
    <glyph glyph-name="multiply" unicode="×" horiz-adv-x="1067" d="M819 979l58 -57l-285 -279l285 -276l-56 -60l-286 281l-289 -281l-53 60l284 276l-284 279l55 57l287 -279z"/>
    <glyph glyph-name="Oslash" unicode="Ø" horiz-adv-x="1652" d="M1530 1350l-125 -121q139 -195 139 -502q0 -347 -180 -551q-183 -207 -539 -207q-335 0 -522 193l-143 -139l-54 57l146 141q-143 192 -143 506q0 349 180 553q182 209 536 209q344 0 531 -199l119 115zM358 727q0 -208 52 -354l804 780q-120 252 -389 252 q-228 0 -347.5 -179.5t-119.5 -498.5zM825 55q230 0 348.5 176.5t118.5 495.5q0 194 -47 346l-805 -778q120 -240 385 -240z"/>
    <glyph glyph-name="Ugrave" unicode="Ù" horiz-adv-x="1724" d="M913 1640l-182 150q-100 63 -100 135q0 35 22.5 57.5t57.5 22.5q43 0 71.5 -31.5t48.5 -105.5l95 -217zM1044 1464h611v-41q-105 -10 -142.5 -42.5t-37.5 -112.5v-658q0 -310 -149 -475.5t-454 -165.5q-600 0 -600 641v658q0 80 -39 112.5t-151 42.5v41h610v-41 q-105 -10 -141.5 -42.5t-36.5 -112.5v-711q0 -242 90 -371t268 -129q181 0 272 129t91 371v711q0 80 -39.5 112.5t-151.5 42.5v41z"/>
    <glyph glyph-name="Uacute" unicode="Ú" horiz-adv-x="1724" d="M1020 1790l-180 -150l-13 11l93 217q37 137 120 137q37 0 59.5 -22.5t22.5 -57.5q0 -71 -102 -135zM1044 1464h611v-41q-105 -10 -142.5 -42.5t-37.5 -112.5v-658q0 -310 -149 -475.5t-454 -165.5q-600 0 -600 641v658q0 80 -39 112.5t-151 42.5v41h610v-41 q-105 -10 -141.5 -42.5t-36.5 -112.5v-711q0 -242 90 -371t268 -129q181 0 272 129t91 371v711q0 80 -39.5 112.5t-151.5 42.5v41z"/>
    <glyph glyph-name="Ucircumflex" unicode="Û" horiz-adv-x="1724" d="M1124 1647l-254 184l-258 -184l-12 12l127 190q40 72 70.5 101.5t70.5 29.5t69.5 -28.5t72.5 -102.5l127 -190zM1044 1464h611v-41q-105 -10 -142.5 -42.5t-37.5 -112.5v-658q0 -310 -149 -475.5t-454 -165.5q-600 0 -600 641v658q0 80 -39 112.5t-151 42.5v41h610v-41 q-105 -10 -141.5 -42.5t-36.5 -112.5v-711q0 -242 90 -371t268 -129q181 0 272 129t91 371v711q0 80 -39.5 112.5t-151.5 42.5v41z"/>
    <glyph glyph-name="Udieresis" unicode="Ü" horiz-adv-x="1724" d="M733 1720q-38 -37 -94 -37t-94 37q-38 38 -38 94.5t38 94.5t94 38t94 -38t38 -94.5t-38 -94.5zM1217 1815q0 -54 -39.5 -93t-94.5 -39q-56 0 -94.5 38.5t-38.5 93.5t39 94t94 39q56 0 95 -39t39 -94zM1044 1464h611v-41q-105 -10 -142.5 -42.5t-37.5 -112.5v-658 q0 -310 -149 -475.5t-454 -165.5q-600 0 -600 641v658q0 80 -39 112.5t-151 42.5v41h610v-41q-105 -10 -141.5 -42.5t-36.5 -112.5v-711q0 -242 90 -371t268 -129q181 0 272 129t91 371v711q0 80 -39.5 112.5t-151.5 42.5v41z"/>
    <glyph glyph-name="Yacute" unicode="Ý" horiz-adv-x="1476" d="M975 1790l-180 -150l-13 11l92 217q37 137 121 137q37 0 59.5 -22.5t22.5 -57.5q0 -71 -102 -135zM999 1423v41h455v-41q-88 -15 -141 -59q-50 -41 -111 -139l-323 -531v-497q0 -80 36.5 -113t141.5 -43v-41h-611v41q112 10 151.5 43t39.5 113v491l-447 619 q-44 62 -75 82q-23 18 -92 34v41h636v-41q-134 -10 -167 -53t26 -121l322 -463l272 447q29 47 39 78t1 56t-46.5 38.5t-106.5 17.5z"/>
    <glyph glyph-name="Thorn" unicode="Þ" horiz-adv-x="1413" d="M532 1147h304q266 0 392 -90.5t126 -284.5q0 -202 -134.5 -301.5t-416.5 -99.5h-271v-174q0 -80 47 -113t177 -43v-41h-654v41q112 10 151.5 43t39.5 113v1071q0 80 -39.5 112.5t-151.5 42.5v41h627v-41q-117 -10 -157 -42.5t-40 -112.5v-121zM532 449h203q367 0 367 323 q0 295 -367 295h-203v-618z"/>
    <glyph glyph-name="germandbls" unicode="ß" horiz-adv-x="1376" d="M958 739q189 -96 278 -198t89 -248q0 -156 -109.5 -240t-287.5 -84q-160 0 -252 63t-92 173q0 102 71 149q73 46 152 8q-59 -59 -59 -159q0 -70 47 -113t135 -43q93 0 150 50t57 134q0 98 -58 171t-188 143q-136 76 -193 142.5t-57 160.5q0 47 21.5 90.5t53 75t69 66.5 t69 66t53 74t21.5 89q0 85 -60 134.5t-159 49.5q-140 0 -206.5 -90t-66.5 -281v-1122h-368v35q84 12 115.5 46.5t31.5 108.5v859q0 268 118 396t380 128q193 0 308.5 -69.5t115.5 -205.5q0 -82 -55 -152.5t-132 -109.5q-186 -87 -186 -153q0 -35 37 -62q36 -26 157 -82z"/>
    <glyph glyph-name="agrave" unicode="à" horiz-adv-x="1124" d="M582 1149l-183 149q-100 63 -100 136q0 35 22.5 57t57.5 22q44 0 72.5 -31.5t48.5 -105.5l94 -217zM1087 96l9 -18q-76 -94 -224 -94q-164 0 -167 174q-123 -187 -357 -187q-128 0 -195 63t-67 175q0 232 342 291l277 49v100q0 152 -46 213.5t-149 61.5q-89 0 -141 -42.5 t-52 -127.5q0 -99 60 -150q-108 -30 -177 8.5t-69 135.5q0 124 117 188q121 65 278 65q203 0 300.5 -89t97.5 -277v-483q0 -82 65 -82q36 0 98 26zM444 82q80 0 150 45t111 123v221l-181 -35q-121 -24 -167 -73t-46 -134q0 -147 133 -147z"/>
    <glyph glyph-name="aacute" unicode="á" horiz-adv-x="1124" d="M690 1298l-180 -149l-12 10l92 217q23 74 51 105.5t70 31.5q37 0 59.5 -22t22.5 -57q0 -71 -103 -136zM1087 96l9 -18q-76 -94 -224 -94q-164 0 -167 174q-123 -187 -357 -187q-128 0 -195 63t-67 175q0 232 342 291l277 49v100q0 152 -46 213.5t-149 61.5 q-89 0 -141 -42.5t-52 -127.5q0 -99 60 -150q-108 -30 -177 8.5t-69 135.5q0 124 117 188q121 65 278 65q203 0 300.5 -89t97.5 -277v-483q0 -82 65 -82q36 0 98 26zM444 82q80 0 150 45t111 123v221l-181 -35q-121 -24 -167 -73t-46 -134q0 -147 133 -147z"/>
    <glyph glyph-name="acircumflex" unicode="â" horiz-adv-x="1124" d="M793 1155l-254 184l-258 -184l-13 12l127 191q40 71 71 101t71 30t69 -28t72 -103l127 -191zM1087 96l9 -18q-76 -94 -224 -94q-164 0 -167 174q-123 -187 -357 -187q-128 0 -195 63t-67 175q0 232 342 291l277 49v100q0 152 -46 213.5t-149 61.5q-89 0 -141 -42.5 t-52 -127.5q0 -99 60 -150q-108 -30 -177 8.5t-69 135.5q0 124 117 188q121 65 278 65q203 0 300.5 -89t97.5 -277v-483q0 -82 65 -82q36 0 98 26zM444 82q80 0 150 45t111 123v221l-181 -35q-121 -24 -167 -73t-46 -134q0 -147 133 -147z"/>
    <glyph glyph-name="atilde" unicode="ã" horiz-adv-x="1124" d="M391 1350q-71 0 -135 -119l-18 6q46 233 190 233q61 0 137 -61t119 -61q76 0 131 120l16 -6q-43 -233 -192 -233q-57 0 -131 59q-74 62 -117 62zM1087 96l9 -18q-76 -94 -224 -94q-164 0 -167 174q-123 -187 -357 -187q-128 0 -195 63t-67 175q0 232 342 291l277 49v100 q0 152 -46 213.5t-149 61.5q-89 0 -141 -42.5t-52 -127.5q0 -99 60 -150q-108 -30 -177 8.5t-69 135.5q0 124 117 188q121 65 278 65q203 0 300.5 -89t97.5 -277v-483q0 -82 65 -82q36 0 98 26zM444 82q80 0 150 45t111 123v221l-181 -35q-121 -24 -167 -73t-46 -134 q0 -147 133 -147z"/>
    <glyph glyph-name="adieresis" unicode="ä" horiz-adv-x="1124" d="M186 1323q0 54 35.5 89.5t89.5 35.5t89.5 -35.5t35.5 -89.5q0 -51 -36 -87t-89 -36t-89 36t-36 87zM745 1200q-53 0 -88.5 35.5t-35.5 87.5q0 54 35 89.5t89 35.5t89.5 -35.5t35.5 -89.5q0 -51 -37 -87t-88 -36zM1087 96l9 -18q-76 -94 -224 -94q-164 0 -167 174 q-123 -187 -357 -187q-128 0 -195 63t-67 175q0 232 342 291l277 49v100q0 152 -46 213.5t-149 61.5q-89 0 -141 -42.5t-52 -127.5q0 -99 60 -150q-108 -30 -177 8.5t-69 135.5q0 124 117 188q121 65 278 65q203 0 300.5 -89t97.5 -277v-483q0 -82 65 -82q36 0 98 26z M444 82q80 0 150 45t111 123v221l-181 -35q-121 -24 -167 -73t-46 -134q0 -147 133 -147z"/>
    <glyph glyph-name="aring" unicode="å" horiz-adv-x="1124" d="M539 1145q-97 0 -157 49.5t-60 142.5q0 91 60.5 141t156.5 50q94 0 154.5 -50t60.5 -141q0 -93 -60 -142.5t-155 -49.5zM621 1423q-29 35 -82 35t-84 -35q-31 -32 -31 -85.5t31 -88.5t84 -35t82 35q31 35 31 88.5t-31 85.5zM1087 96l9 -18q-76 -94 -224 -94 q-164 0 -167 174q-123 -187 -357 -187q-128 0 -195 63t-67 175q0 232 342 291l277 49v100q0 152 -46 213.5t-149 61.5q-89 0 -141 -42.5t-52 -127.5q0 -99 60 -150q-108 -30 -177 8.5t-69 135.5q0 124 117 188q121 65 278 65q203 0 300.5 -89t97.5 -277v-483q0 -82 65 -82 q36 0 98 26zM444 82q80 0 150 45t111 123v221l-181 -35q-121 -24 -167 -73t-46 -134q0 -147 133 -147z"/>
    <glyph glyph-name="ae" unicode="æ" horiz-adv-x="1679" d="M1225 90q223 0 325 209l27 -10q-71 -320 -428 -320q-290 0 -385 238q-55 -110 -164 -173t-240 -63q-127 0 -194.5 63t-67.5 175q0 233 340 291l277 49v100q0 151 -46 213t-147 62q-88 0 -140 -42.5t-52 -127.5q0 -102 57 -150q-108 -30 -177 8.5t-69 135.5q0 124 117 188 q121 65 281 65q235 0 317 -153q114 156 332 156q222 0 324 -121t59 -371h-635q0 -422 289 -422zM1182 922q-104 0 -167 -87.5t-75 -238.5h434q11 167 -35.5 246.5t-156.5 79.5zM455 82q77 0 147.5 47.5t112.5 126.5v215l-180 -35q-121 -23 -167 -73t-46 -134 q0 -147 133 -147z"/>
    <glyph glyph-name="ccedilla" unicode="ç" horiz-adv-x="1050" d="M948 299l27 -10q-32 -151 -133.5 -231.5t-257.5 -88.5l-17 -84q47 15 99 15q153 0 153 -142q0 -80 -60 -125t-155 -45q-175 0 -274 129l10 13q86 -62 209 -62q63 0 100 23.5t37 66.5q0 70 -86 70q-44 0 -115 -21l29 162q-204 12 -309 143.5t-105 362.5q0 247 129 388 t377 141q163 0 265 -73t102 -204q0 -94 -66.5 -144t-181.5 -32q72 63 72 174q0 197 -187 197q-141 0 -209.5 -111.5t-68.5 -304.5q0 -198 72 -307t217 -109q232 0 327 209z"/>
    <glyph glyph-name="egrave" unicode="è" horiz-adv-x="1073" d="M618 1149l-182 149q-100 63 -100 136q0 35 22.5 57t57.5 22q44 0 72.5 -31.5t48.5 -105.5l94 -217zM618 90q224 0 326 209l27 -10q-36 -158 -145 -239t-277 -81q-222 0 -336.5 132t-114.5 374q0 244 125.5 386.5t358.5 142.5q222 0 324 -121t59 -371h-635 q0 -422 288 -422zM575 922q-104 0 -166.5 -87.5t-74.5 -238.5h434q11 166 -36 246t-157 80z"/>
    <glyph glyph-name="eacute" unicode="é" horiz-adv-x="1073" d="M725 1298l-180 -149l-13 10l93 217q23 74 50.5 105.5t69.5 31.5q37 0 59.5 -22t22.5 -57q0 -72 -102 -136zM618 90q224 0 326 209l27 -10q-36 -158 -145 -239t-277 -81q-222 0 -336.5 132t-114.5 374q0 244 125.5 386.5t358.5 142.5q222 0 324 -121t59 -371h-635 q0 -422 288 -422zM575 922q-104 0 -166.5 -87.5t-74.5 -238.5h434q11 166 -36 246t-157 80z"/>
    <glyph glyph-name="ecircumflex" unicode="ê" horiz-adv-x="1073" d="M829 1155l-254 184l-258 -184l-12 12l127 191q40 72 70.5 101.5t70.5 29.5t69.5 -28.5t72.5 -102.5l127 -191zM618 90q224 0 326 209l27 -10q-36 -158 -145 -239t-277 -81q-222 0 -336.5 132t-114.5 374q0 244 125.5 386.5t358.5 142.5q222 0 324 -121t59 -371h-635 q0 -422 288 -422zM575 922q-104 0 -166.5 -87.5t-74.5 -238.5h434q11 166 -36 246t-157 80z"/>
    <glyph glyph-name="edieresis" unicode="ë" horiz-adv-x="1073" d="M221 1323q0 53 36.5 89t88.5 36t88.5 -36t36.5 -89q0 -51 -35.5 -87t-89.5 -36t-89.5 36t-35.5 87zM780 1200q-54 0 -89.5 36t-35.5 87q0 53 36.5 89t88.5 36t88.5 -36t36.5 -89q0 -51 -37 -87t-88 -36zM618 90q224 0 326 209l27 -10q-36 -158 -145 -239t-277 -81 q-222 0 -336.5 132t-114.5 374q0 244 125.5 386.5t358.5 142.5q222 0 324 -121t59 -371h-635q0 -422 288 -422zM575 922q-104 0 -166.5 -87.5t-74.5 -238.5h434q11 166 -36 246t-157 80z"/>
    <glyph glyph-name="eth" unicode="ð" horiz-adv-x="1193" d="M1135 1372l24 -69l-180 -68q117 -202 117 -526q0 -740 -555 -740q-223 0 -338 123t-115 342q0 206 117.5 327.5t324.5 121.5q238 0 326 -211v45q0 275 -68 446l-360 -135l-25 70l355 133q-102 178 -305 178q-119 0 -201 -39l-25 72q109 53 283 53q272 0 428 -197zM551 51 q133 0 203.5 103.5t91.5 320.5q-17 152 -91 238t-184 86q-117 0 -183 -99t-66 -266q0 -179 60 -281t169 -102z"/>
    <glyph glyph-name="ntilde" unicode="ñ" horiz-adv-x="1337" d="M563 1350q-71 0 -135 -119l-18 6q46 233 190 233q61 0 137 -61t119 -61q76 0 131 120l17 -6q-43 -233 -193 -233q-57 0 -131 59q-74 62 -117 62zM1135 645v-446q0 -72 32.5 -110.5t114.5 -51.5v-37h-508v39q77 12 108 50t31 110v473q0 229 -176 229q-98 0 -169.5 -70 t-106.5 -202v-430q0 -72 31 -110t108 -50v-39h-508v37q82 13 115 51.5t33 110.5v532q0 74 -29 103t-129 47v37l369 69l-7 -252q100 269 375 269q316 0 316 -359z"/>
    <glyph glyph-name="ograve" unicode="ò" horiz-adv-x="1210" d="M649 1149l-182 149q-100 63 -100 136q0 35 22 57t57 22q44 0 72.5 -31.5t48.5 -105.5l95 -217zM1114 487q0 -231 -125 -374q-126 -144 -383 -144t-383 144q-125 143 -125 374q0 228 125 371q128 146 383 146t383 -146q125 -143 125 -371zM606 922q-137 0 -205.5 -115 t-68.5 -320t68.5 -320.5t205.5 -115.5q136 0 204.5 116t68.5 320t-68.5 319.5t-204.5 115.5z"/>
    <glyph glyph-name="oacute" unicode="ó" horiz-adv-x="1210" d="M758 1298l-180 -149l-13 10l92 217q23 74 51 105.5t70 31.5q37 0 59.5 -22t22.5 -57q0 -72 -102 -136zM1114 487q0 -231 -125 -374q-126 -144 -383 -144t-383 144q-125 143 -125 374q0 228 125 371q128 146 383 146t383 -146q125 -143 125 -371zM606 922 q-137 0 -205.5 -115t-68.5 -320t68.5 -320.5t205.5 -115.5q136 0 204.5 116t68.5 320t-68.5 319.5t-204.5 115.5z"/>
    <glyph glyph-name="ocircumflex" unicode="ô" horiz-adv-x="1210" d="M860 1155l-254 184l-258 -184l-12 12l127 191q40 72 70.5 101.5t70.5 29.5t69 -28t72 -103l127 -191zM1114 487q0 -231 -125 -374q-126 -144 -383 -144t-383 144q-125 143 -125 374q0 228 125 371q128 146 383 146t383 -146q125 -143 125 -371zM606 51q136 0 204.5 116 t68.5 320t-68.5 319.5t-204.5 115.5q-137 0 -205.5 -115t-68.5 -320t68.5 -320.5t205.5 -115.5z"/>
    <glyph glyph-name="otilde" unicode="õ" horiz-adv-x="1210" d="M459 1350q-71 0 -135 -119l-19 6q46 233 191 233q61 0 137 -61t119 -61q76 0 131 120l16 -6q-43 -233 -192 -233q-58 0 -132 59q-74 62 -116 62zM1114 487q0 -231 -125 -374q-126 -144 -383 -144t-383 144q-125 143 -125 374q0 228 125 371q128 146 383 146t383 -146 q125 -143 125 -371zM606 922q-137 0 -205.5 -115t-68.5 -320t68.5 -320.5t205.5 -115.5q136 0 204.5 116t68.5 320t-68.5 319.5t-204.5 115.5z"/>
    <glyph glyph-name="odieresis" unicode="ö" horiz-adv-x="1210" d="M254 1323q0 53 36.5 89t88.5 36t88.5 -36t36.5 -89q0 -51 -36 -87t-89 -36t-89 36t-36 87zM813 1200q-53 0 -89 36t-36 87q0 53 36.5 89t88.5 36t88.5 -36t36.5 -89q0 -51 -37 -87t-88 -36zM1114 487q0 -231 -125 -374q-126 -144 -383 -144t-383 144q-125 143 -125 374 q0 228 125 371q128 146 383 146t383 -146q125 -143 125 -371zM606 922q-137 0 -205.5 -115t-68.5 -320t68.5 -320.5t205.5 -115.5q136 0 204.5 116t68.5 320t-68.5 319.5t-204.5 115.5z"/>
    <glyph glyph-name="divide" unicode="÷" horiz-adv-x="1128" d="M485 901q-3 47 37.5 66.5t81 0t37.5 -66.5q0 -31 -23 -54.5t-55 -23.5t-55 23.5t-23 54.5zM989 592h-852v80h852v-80zM561 287q-47 -4 -66.5 36t0 80t66.5 37q31 0 53.5 -23t22.5 -55t-22.5 -53.5t-53.5 -21.5z"/>
    <glyph glyph-name="oslash" unicode="ø" horiz-adv-x="1210" d="M1110 936l-98 -102q102 -132 102 -347q0 -231 -125 -374q-126 -144 -383 -144q-200 0 -332 97l-116 -121l-56 53l117 121q-121 136 -121 368q0 228 125 371q128 146 383 146q226 0 355 -117l96 100zM332 487q0 -135 26 -223l478 494q-68 164 -230 164q-137 0 -205.5 -115 t-68.5 -320zM606 51q136 0 204.5 116t68.5 320q0 102 -19 189l-471 -490q71 -135 217 -135z"/>
    <glyph glyph-name="ugrave" unicode="ù" horiz-adv-x="1294" d="M647 1149l-182 149q-100 63 -100 136q0 35 22 57t57 22q44 0 72.5 -31.5t48.5 -105.5l94 -217zM1071 973v-750q0 -75 27 -102q28 -28 121 -43v-39l-359 -57l8 213q-58 -113 -156 -169.5t-218 -56.5q-308 0 -308 361v446q0 70 -33 108.5t-112 51.5v37h367v-649 q0 -250 178 -250q83 0 153 55.5t111 157.5v489q0 74 -34.5 110t-123.5 48v39h379z"/>
    <glyph glyph-name="uacute" unicode="ú" horiz-adv-x="1294" d="M756 1298l-181 -149l-12 10l92 217q23 74 51 105.5t70 31.5q37 0 59.5 -22t22.5 -57q0 -72 -102 -136zM1071 973v-750q0 -75 27 -102q28 -28 121 -43v-39l-359 -57l8 213q-58 -113 -156 -169.5t-218 -56.5q-308 0 -308 361v446q0 70 -33 108.5t-112 51.5v37h367v-649 q0 -250 178 -250q83 0 153 55.5t111 157.5v489q0 74 -34.5 110t-123.5 48v39h379z"/>
    <glyph glyph-name="ucircumflex" unicode="û" horiz-adv-x="1294" d="M858 1155l-254 184l-258 -184l-12 12l127 191q40 72 70.5 101.5t70.5 29.5t69 -28t72 -103l127 -191zM1071 973v-750q0 -75 27 -102q28 -28 121 -43v-39l-359 -57l8 213q-58 -113 -156 -169.5t-218 -56.5q-308 0 -308 361v446q0 70 -33 108.5t-112 51.5v37h367v-649 q0 -250 178 -250q83 0 153 55.5t111 157.5v489q0 74 -34.5 110t-123.5 48v39h379z"/>
    <glyph glyph-name="udieresis" unicode="ü" horiz-adv-x="1294" d="M252 1323q0 54 35.5 89.5t89.5 35.5t89.5 -35.5t35.5 -89.5q0 -51 -36 -87t-89 -36t-89 36t-36 87zM811 1200q-53 0 -89 36t-36 87q0 54 35.5 89.5t89.5 35.5t89.5 -35.5t35.5 -89.5q0 -51 -37 -87t-88 -36zM1071 973v-750q0 -75 27 -102q28 -28 121 -43v-39l-359 -57 l8 213q-58 -113 -156 -169.5t-218 -56.5q-308 0 -308 361v446q0 70 -33 108.5t-112 51.5v37h367v-649q0 -250 178 -250q83 0 153 55.5t111 157.5v489q0 74 -34.5 110t-123.5 48v39h379z"/>
    <glyph glyph-name="yacute" unicode="ý" horiz-adv-x="1263" d="M846 1298l-180 -149l-13 10l92 217q23 74 51 105.5t70 31.5q37 0 59.5 -22t22.5 -57q0 -72 -102 -136zM860 936v37h387v-37q-69 -22 -100 -59q-38 -45 -82 -144l-324 -706q-105 -228 -213 -330q-108 -105 -272 -105q-105 0 -165 47t-60 134q0 85 62.5 130.5t168.5 37.5 q-67 -76 -67 -146q0 -55 30 -88t84 -33q137 0 273 226l-404 868q-43 91 -69 117q-25 32 -93 51v37h537v-37q-81 -11 -117 -33.5t-34 -55t20 -75.5l287 -620l280 618q13 35 16 58.5t-6.5 47.5t-44 38.5t-94.5 21.5z"/>
    <glyph glyph-name="thorn" unicode="þ" horiz-adv-x="1241" d="M739 1004q199 0 302.5 -134t103.5 -372q0 -246 -121.5 -387.5t-353.5 -141.5q-154 0 -248 99v-254q0 -74 41 -109t172 -47v-37h-582v35q85 13 116.5 48t31.5 108v1499q0 78 -27.5 109t-120.5 44v41l367 70l-4 -744q105 173 323 173zM635 53q139 0 207.5 117t68.5 328 q0 196 -60.5 304.5t-176.5 108.5q-170 0 -252 -174v-565q73 -119 213 -119z"/>
    <glyph glyph-name="ydieresis" unicode="ÿ" horiz-adv-x="1263" d="M342 1323q0 54 35.5 89.5t89.5 35.5t89.5 -35.5t35.5 -89.5q0 -51 -36 -87t-89 -36t-89 36t-36 87zM901 1200q-53 0 -89 36t-36 87q0 54 35.5 89.5t89.5 35.5t89.5 -35.5t35.5 -89.5q0 -51 -37 -87t-88 -36zM860 936v37h387v-37q-69 -22 -100 -59q-38 -45 -82 -144 l-324 -706q-105 -228 -213 -330q-108 -105 -272 -105q-105 0 -165 47t-60 134q0 85 62.5 130.5t168.5 37.5q-67 -76 -67 -146q0 -55 30 -88t84 -33q137 0 273 226l-404 868q-43 91 -69 117q-25 32 -93 51v37h537v-37q-81 -11 -117 -33.5t-34 -55t20 -75.5l287 -620l280 618 q13 35 16 58.5t-6.5 47.5t-44 38.5t-94.5 21.5z"/>
    <glyph glyph-name="Amacron" unicode="Ā" horiz-adv-x="1622" d="M506 1935h608v-77h-608v77zM899 1464l506 -1237q34 -90 77 -132.5t124 -53.5v-41h-625v41q142 18 179.5 65.5t-9.5 133.5l-100 241h-625l-82 -217q-45 -100 -5.5 -156.5t171.5 -66.5v-41h-494v41q96 12 146 59q46 43 94 164l449 1200h194zM723 1276l-270 -723h569z"/>
    <glyph glyph-name="amacron" unicode="ā" horiz-adv-x="1124" d="M233 1393h609v-80h-609v80zM1087 96l9 -18q-76 -94 -224 -94q-164 0 -167 174q-123 -187 -357 -187q-128 0 -195 63t-67 175q0 232 342 291l277 49v100q0 152 -46 213.5t-149 61.5q-89 0 -141 -42.5t-52 -127.5q0 -99 60 -150q-108 -30 -177 8.5t-69 135.5q0 124 117 188 q121 65 278 65q203 0 300.5 -89t97.5 -277v-483q0 -82 65 -82q36 0 98 26zM444 82q80 0 150 45t111 123v221l-181 -35q-121 -24 -167 -73t-46 -134q0 -147 133 -147z"/>
    <glyph glyph-name="Abreve" unicode="Ă" horiz-adv-x="1622" d="M565 1962l19 2q47 -176 225 -176t225 176l19 -2q-4 -143 -70 -220t-174 -77t-173 76.5t-71 220.5zM899 1464l506 -1237q34 -90 77 -132.5t124 -53.5v-41h-625v41q142 18 179.5 65.5t-9.5 133.5l-100 241h-625l-82 -217q-45 -100 -5.5 -156.5t171.5 -66.5v-41h-494v41 q96 12 146 59q46 43 94 164l449 1200h194zM723 1276l-270 -723h569z"/>
    <glyph glyph-name="abreve" unicode="ă" horiz-adv-x="1124" d="M295 1473l18 2q46 -172 226 -172q179 0 225 172l18 -2q-4 -143 -69.5 -220t-173.5 -77t-173 76.5t-71 220.5zM1087 96l9 -18q-76 -94 -224 -94q-164 0 -167 174q-123 -187 -357 -187q-128 0 -195 63t-67 175q0 232 342 291l277 49v100q0 152 -46 213.5t-149 61.5 q-89 0 -141 -42.5t-52 -127.5q0 -99 60 -150q-108 -30 -177 8.5t-69 135.5q0 124 117 188q121 65 278 65q203 0 300.5 -89t97.5 -277v-483q0 -82 65 -82q36 0 98 26zM444 82q80 0 150 45t111 123v221l-181 -35q-121 -24 -167 -73t-46 -134q0 -147 133 -147z"/>
    <glyph glyph-name="Aogonek" unicode="Ą" horiz-adv-x="1622" d="M1606 0h-11q-101 -43 -160 -114t-59 -142q0 -72 66 -72q68 0 137 54l10 -13q-77 -135 -235 -135q-125 0 -125 121q0 181 276 301h-524v41q142 18 179.5 65.5t-9.5 133.5l-100 241h-625l-82 -217q-45 -100 -5.5 -156.5t171.5 -66.5v-41h-494v41q96 12 146 59q46 43 94 164 l449 1200h194l506 -1237q34 -90 77 -132.5t124 -53.5v-41zM723 1276l-270 -723h569z"/>
    <glyph glyph-name="aogonek" unicode="ą" horiz-adv-x="1124" d="M995 6q-97 -47 -154 -116.5t-57 -137.5q0 -69 66 -69q69 0 137 51l10 -13q-77 -135 -235 -135q-125 0 -125 121q0 163 225 277q-154 6 -157 174q-123 -187 -357 -187q-128 0 -195 63t-67 175q0 232 342 291l277 49v100q0 152 -46 213.5t-149 61.5q-89 0 -141 -42.5 t-52 -127.5q0 -99 60 -150q-108 -30 -177 8.5t-69 135.5q0 124 117 188q121 65 278 65q203 0 300.5 -89t97.5 -277v-483q0 -82 65 -82q36 0 98 26l9 -18q-36 -45 -101 -72zM444 82q80 0 150 45t111 123v221l-181 -35q-121 -24 -167 -73t-46 -134q0 -147 133 -147z"/>
    <glyph glyph-name="Cacute" unicode="Ć" horiz-adv-x="1552" d="M954 1790l-180 -150l-12 11l92 217q37 137 121 137q37 0 59.5 -22.5t22.5 -57.5q0 -70 -103 -135zM797 -31q-334 0 -511 199t-177 555q0 346 176 555q178 211 516 211q129 0 260 -51q134 -49 164 -49q35 0 46 30.5t3 104.5h59l74 -645l-43 -7q-56 252 -194 390.5 t-339 138.5q-230 0 -352 -174q-121 -174 -121 -463q0 -320 129.5 -495t384.5 -175q217 0 363 119q145 119 180 307l29 -6q-21 -242 -195 -393q-172 -152 -452 -152z"/>
    <glyph glyph-name="cacute" unicode="ć" horiz-adv-x="1050" d="M678 1298l-180 -149l-13 10l93 217q23 74 50.5 105.5t69.5 31.5q37 0 59.5 -22t22.5 -57q0 -72 -102 -136zM332 506q0 -198 72 -307t217 -109q232 0 327 209l27 -10q-35 -157 -145.5 -238.5t-278.5 -81.5q-222 0 -336.5 132t-114.5 374q0 247 129 388t377 141 q163 0 265 -73t102 -204q0 -94 -66.5 -144t-181.5 -32q72 63 72 174q0 197 -187 197q-141 0 -209.5 -111.5t-68.5 -304.5z"/>
    <glyph glyph-name="Cdotaccent" unicode="Ċ" horiz-adv-x="1552" d="M903 1710q-41 -41 -100.5 -41t-102.5 41q-41 43 -41 102.5t41 102.5q43 43 102.5 43t100.5 -43q43 -43 43 -102.5t-43 -102.5zM797 -31q-334 0 -511 199t-177 555q0 346 176 555q178 211 516 211q129 0 260 -51q134 -49 164 -49q35 0 46 30.5t3 104.5h59l74 -645l-43 -7 q-56 252 -194 390.5t-339 138.5q-230 0 -352 -174q-121 -174 -121 -463q0 -320 129.5 -495t384.5 -175q217 0 363 119q145 119 180 307l29 -6q-21 -242 -195 -393q-172 -152 -452 -152z"/>
    <glyph glyph-name="cdotaccent" unicode="ċ" horiz-adv-x="1050" d="M522 1180q-59 0 -99 40.5t-40 98.5q0 59 40.5 100t98.5 41q59 0 100.5 -41.5t41.5 -99.5q0 -57 -42.5 -98t-99.5 -41zM332 506q0 -198 72 -307t217 -109q232 0 327 209l27 -10q-35 -157 -145.5 -238.5t-278.5 -81.5q-222 0 -336.5 132t-114.5 374q0 247 129 388t377 141 q163 0 265 -73t102 -204q0 -94 -66.5 -144t-181.5 -32q72 63 72 174q0 197 -187 197q-141 0 -209.5 -111.5t-68.5 -304.5z"/>
    <glyph glyph-name="Ccaron" unicode="Č" horiz-adv-x="1552" d="M662 1778l-127 190l12 12l258 -184l254 184l12 -12l-127 -190q-43 -75 -72 -103t-69 -28t-70.5 29.5t-70.5 101.5zM1415 520l29 -6q-21 -242 -195 -393q-172 -152 -452 -152q-334 0 -511 199t-177 555q0 346 176 555q178 211 516 211q129 0 260 -51q134 -49 164 -49 q35 0 46 30.5t3 104.5h59l74 -645l-43 -7q-56 252 -194 390.5t-339 138.5q-230 0 -352 -174q-121 -174 -121 -463q0 -320 129.5 -495t384.5 -175q217 0 363 119q145 119 180 307z"/>
    <glyph glyph-name="ccaron" unicode="č" horiz-adv-x="1050" d="M383 1286l-127 191l12 12l258 -182l254 182l13 -12l-127 -191q-42 -73 -73 -102t-69 -29t-70 30.5t-71 100.5zM948 299l27 -10q-35 -157 -145.5 -238.5t-278.5 -81.5q-222 0 -336.5 132t-114.5 374q0 247 129 388t377 141q163 0 265 -73t102 -204q0 -94 -66.5 -144 t-181.5 -32q72 63 72 174q0 197 -187 197q-141 0 -209.5 -111.5t-68.5 -304.5q0 -198 72 -307t217 -109q232 0 327 209z"/>
    <glyph glyph-name="Dcaron" unicode="Ď" horiz-adv-x="1722" d="M657 1778l-127 190l13 12l258 -184l254 184l12 -12l-127 -190q-43 -75 -72 -103t-69 -28t-71 30t-71 101zM102 1464h762q373 0 561.5 -187.5t188.5 -545.5q0 -359 -188 -545t-562 -186h-762v41q112 10 151.5 43t39.5 113v1071q0 80 -39.5 112.5t-151.5 42.5v41zM532 80 h279q278 0 415.5 168.5t137.5 482.5t-138 484.5t-415 170.5h-279v-1306z"/>
    <glyph glyph-name="dcaron" unicode="ď" horiz-adv-x="1271" d="M1051 1571v-1374q0 -70 31 -106t108 -48v-43h-336v170q-118 -201 -358 -201q-190 0 -294 137t-104 377q0 232 113 375q116 146 340 146q177 0 278 -125v428q0 77 -28.5 108.5t-118.5 44.5v41zM1323 1571q76 0 76 -78q0 -59 -45 -145l-105 -320l-16 2v371q-9 170 90 170z M569 61q165 0 260 179v512q-70 168 -231 168q-266 0 -266 -437q0 -201 60 -311.5t177 -110.5z"/>
    <glyph glyph-name="Dcroat" unicode="Đ" horiz-adv-x="1722" d="M102 1464h762q373 0 561.5 -187.5t188.5 -545.5q0 -359 -188 -545t-562 -186h-762v41q112 10 151.5 43t39.5 113v516h-180v78h180v477q0 80 -39.5 112.5t-151.5 42.5v41zM532 80h279q278 0 415.5 168.5t137.5 482.5t-138 484.5t-415 170.5h-279v-595h486v-78h-486v-633z "/>
    <glyph glyph-name="dslash" unicode="đ" horiz-adv-x="1271" d="M1243 1278v-82h-192v-999q0 -70 31 -106t108 -48v-43h-336v170q-118 -201 -358 -201q-190 0 -294 137t-104 377q0 232 113 375q116 146 340 146q177 0 278 -125v317h-442v82h442v29q0 77 -28.5 108.5t-118.5 44.5v41l369 70v-293h192zM569 61q165 0 260 179v512 q-70 168 -231 168q-266 0 -266 -437q0 -201 60 -311.5t177 -110.5z"/>
    <glyph glyph-name="Emacron" unicode="Ē" horiz-adv-x="1490" d="M455 1935h608v-77h-608v77zM1350 498l45 -9l-80 -550h-47q-5 37 -24.5 49t-76.5 12h-1065v41q112 10 151.5 43t39.5 113v1071q0 80 -39.5 112.5t-151.5 42.5v41h1008q56 0 75.5 13t24.5 51h47l101 -549l-45 -10q-56 147 -100.5 229.5t-94.5 122.5q-48 41 -93.5 53 t-125.5 12h-367v-583h199q129 0 174 57q49 58 70 252h47v-684h-47q-18 177 -66 238q-47 59 -178 59h-199v-645h390q168 0 254 80q88 79 174 338z"/>
    <glyph glyph-name="emacron" unicode="ē" horiz-adv-x="1073" d="M270 1393h609v-80h-609v80zM618 90q224 0 326 209l27 -10q-36 -158 -145 -239t-277 -81q-222 0 -336.5 132t-114.5 374q0 244 125.5 386.5t358.5 142.5q222 0 324 -121t59 -371h-635q0 -422 288 -422zM575 922q-104 0 -166.5 -87.5t-74.5 -238.5h434q11 166 -36 246 t-157 80z"/>
    <glyph glyph-name="Edotaccent" unicode="Ė" horiz-adv-x="1490" d="M858 1710q-41 -41 -100.5 -41t-102.5 41q-41 43 -41 102.5t41 102.5q43 43 102.5 43t100.5 -43q43 -43 43 -102.5t-43 -102.5zM1350 498l45 -9l-80 -550h-47q-5 37 -24.5 49t-76.5 12h-1065v41q112 10 151.5 43t39.5 113v1071q0 80 -39.5 112.5t-151.5 42.5v41h1008 q56 0 75.5 13t24.5 51h47l101 -549l-45 -10q-56 147 -100.5 229.5t-94.5 122.5q-48 41 -93.5 53t-125.5 12h-367v-583h199q129 0 174 57q49 58 70 252h47v-684h-47q-18 177 -66 238q-47 59 -178 59h-199v-645h390q168 0 254 80q88 79 174 338z"/>
    <glyph glyph-name="edotaccent" unicode="ė" horiz-adv-x="1073" d="M430 1319q0 59 41 100t98 41t99.5 -42t42.5 -99t-42.5 -98t-99.5 -41t-98 41t-41 98zM618 90q224 0 326 209l27 -10q-36 -158 -145 -239t-277 -81q-222 0 -336.5 132t-114.5 374q0 244 125.5 386.5t358.5 142.5q222 0 324 -121t59 -371h-635q0 -422 288 -422zM575 922 q-104 0 -166.5 -87.5t-74.5 -238.5h434q11 166 -36 246t-157 80z"/>
    <glyph glyph-name="Eogonek" unicode="Ę" horiz-adv-x="1490" d="M1350 498l45 -9l-80 -550h-47q-5 37 -24.5 49t-76.5 12h-6q-101 -43 -162 -115.5t-61 -142.5q0 -72 66 -72q68 0 137 54l10 -13q-77 -135 -236 -135q-124 0 -124 121q0 90 73.5 168.5t208.5 134.5h-971v41q112 10 151.5 43t39.5 113v1071q0 80 -39.5 112.5t-151.5 42.5 v41h1008q56 0 75.5 13t24.5 51h47l101 -549l-45 -10q-56 147 -100.5 229.5t-94.5 122.5q-48 41 -93.5 53t-125.5 12h-367v-583h199q129 0 174 57q49 58 70 252h47v-684h-47q-18 177 -66 238q-47 59 -178 59h-199v-645h390q168 0 254 80q88 79 174 338z"/>
    <glyph glyph-name="eogonek" unicode="ę" horiz-adv-x="1073" d="M618 90q224 0 326 209l27 -10q-52 -232 -262 -297q-97 -47 -155 -117.5t-58 -138.5q0 -70 65 -70q69 0 137 51l11 -12q-77 -135 -236 -135q-125 0 -125 121q0 164 230 278h-29q-222 0 -336.5 132t-114.5 374q0 244 125.5 386.5t358.5 142.5q222 0 324 -121t59 -371h-635 q0 -422 288 -422zM575 922q-104 0 -166.5 -87.5t-74.5 -238.5h434q11 166 -36 246t-157 80z"/>
    <glyph glyph-name="Ecaron" unicode="Ě" horiz-adv-x="1490" d="M616 1778l-127 190l13 12l258 -184l254 184l12 -12l-127 -190q-43 -75 -72 -103t-69 -28t-71 30t-71 101zM1350 498l45 -9l-80 -550h-47q-5 37 -24.5 49t-76.5 12h-1065v41q112 10 151.5 43t39.5 113v1071q0 80 -39.5 112.5t-151.5 42.5v41h1008q56 0 75.5 13t24.5 51h47 l101 -549l-45 -10q-56 147 -100.5 229.5t-94.5 122.5q-48 41 -93.5 53t-125.5 12h-367v-583h199q129 0 174 57q49 58 70 252h47v-684h-47q-18 177 -66 238q-47 59 -178 59h-199v-645h390q168 0 254 80q88 79 174 338z"/>
    <glyph glyph-name="ecaron" unicode="ě" horiz-adv-x="1073" d="M432 1286l-127 191l12 12l258 -182l254 182l13 -12l-127 -191q-42 -73 -73 -102t-69 -29t-70 30.5t-71 100.5zM618 90q224 0 326 209l27 -10q-36 -158 -145 -239t-277 -81q-222 0 -336.5 132t-114.5 374q0 244 125.5 386.5t358.5 142.5q222 0 324 -121t59 -371h-635 q0 -422 288 -422zM575 922q-104 0 -166.5 -87.5t-74.5 -238.5h434q11 166 -36 246t-157 80z"/>
    <glyph glyph-name="Gbreve" unicode="Ğ" horiz-adv-x="1656" d="M565 1962l19 2q47 -176 225 -176t225 176l19 -2q-4 -143 -70 -220t-174 -77t-173 76.5t-71 220.5zM954 735h668v-41q-108 -12 -146 -44.5t-38 -110.5v-539h-39q-21 69 -39.5 95t-48.5 26q-16 2 -70.5 -22t-121 -54t-171 -54t-205.5 -22q-306 0 -471 201 q-163 202 -163 553q0 347 176 559q177 213 506 213q66 0 140.5 -18t126.5 -39.5t97 -39.5t59 -18q64 0 52 144h49l71 -611l-40 -8q-64 241 -203.5 372.5t-311.5 131.5q-229 0 -352 -176q-121 -177 -121 -469q0 -324 122 -501t362 -177q190 0 360 111v342q0 79 -50.5 111 t-197.5 44v41z"/>
    <glyph glyph-name="gbreve" unicode="ğ" horiz-adv-x="1048" d="M285 1473l18 2q46 -172 225 -172q180 0 226 172l18 -2q-4 -143 -70 -220t-174 -77t-172.5 76.5t-70.5 220.5zM930 930q26 26 26 74q0 51 -51 51q-79 0 -147 -103q155 -82 155 -262q0 -141 -105.5 -223t-297.5 -82h-16q-211 0 -211 -90q0 -39 56.5 -60t207.5 -34 q256 -21 358 -84q107 -64 107 -215q0 -155 -137.5 -233.5t-382.5 -76.5q-241 2 -359.5 55.5t-118.5 172.5q0 180 322 223q-115 20 -165 67t-50 123q0 64 52 111.5t149 67.5q-213 68 -213 278q0 148 104 231t297 83q127 0 203 -33q91 198 241 198q55 0 87 -29t32 -85 q0 -55 -39 -87.5t-104 -37.5zM315 690q0 -110 52 -170.5t143 -60.5q92 0 143.5 60t51.5 171q0 112 -52 175t-143 63t-143 -63t-52 -175zM834 -141q0 80 -76 119t-254 49q-295 -40 -295 -187q0 -81 79 -124.5t222 -43.5q154 0 239 46.5t85 140.5z"/>
    <glyph glyph-name="Gdotaccent" unicode="Ġ" horiz-adv-x="1656" d="M909 1710q-41 -41 -100 -41t-102 41q-41 43 -41 102.5t41 102.5q43 43 102 43t100 -43q43 -43 43 -102.5t-43 -102.5zM954 735h668v-41q-108 -12 -146 -44.5t-38 -110.5v-539h-39q-21 69 -39.5 95t-48.5 26q-16 2 -70.5 -22t-121 -54t-171 -54t-205.5 -22 q-306 0 -471 201q-163 202 -163 553q0 347 176 559q177 213 506 213q66 0 140.5 -18t126.5 -39.5t97 -39.5t59 -18q64 0 52 144h49l71 -611l-40 -8q-64 241 -203.5 372.5t-311.5 131.5q-229 0 -352 -176q-121 -177 -121 -469q0 -324 122 -501t362 -177q190 0 360 111v342 q0 79 -50.5 111t-197.5 44v41z"/>
    <glyph glyph-name="gdotaccent" unicode="ġ" horiz-adv-x="1048" d="M385 1319q0 59 40.5 100t98.5 41q57 0 99.5 -42t42.5 -99t-42.5 -98t-99.5 -41t-98 41t-41 98zM930 930q26 26 26 74q0 51 -51 51q-79 0 -147 -103q155 -82 155 -262q0 -141 -105.5 -223t-297.5 -82h-16q-211 0 -211 -90q0 -39 56.5 -60t207.5 -34q256 -21 358 -84 q107 -64 107 -215q0 -155 -137.5 -233.5t-382.5 -76.5q-241 2 -359.5 55.5t-118.5 172.5q0 180 322 223q-115 20 -165 67t-50 123q0 64 52 111.5t149 67.5q-213 68 -213 278q0 148 104 231t297 83q127 0 203 -33q91 198 241 198q55 0 87 -29t32 -85q0 -55 -39 -87.5 t-104 -37.5zM315 690q0 -110 52 -170.5t143 -60.5q92 0 143.5 60t51.5 171q0 112 -52 175t-143 63t-143 -63t-52 -175zM834 -141q0 80 -76 119t-254 49q-295 -40 -295 -187q0 -81 79 -124.5t222 -43.5q154 0 239 46.5t85 140.5z"/>
    <glyph glyph-name="uni0122" unicode="Ģ" horiz-adv-x="1656" d="M954 735h668v-41q-108 -12 -146 -44.5t-38 -110.5v-539h-39q-21 69 -39.5 95t-48.5 26q-16 2 -70.5 -22t-121 -54t-171 -54t-205.5 -22q-306 0 -471 201q-163 202 -163 553q0 347 176 559q177 213 506 213q66 0 140.5 -18t126.5 -39.5t97 -39.5t59 -18q64 0 52 144h49 l71 -611l-40 -8q-64 241 -203.5 372.5t-311.5 131.5q-229 0 -352 -176q-121 -177 -121 -469q0 -324 122 -501t362 -177q190 0 360 111v342q0 79 -50.5 111t-197.5 44v41zM813 -100q57 0 92 -42t35 -116q0 -94 -60.5 -165t-170.5 -97l-15 35q71 24 111.5 79.5t40.5 120.5v9 q-23 -13 -47 -13q-42 0 -67 25t-25 67q0 41 31 69t75 28z"/>
    <glyph glyph-name="uni0123" unicode="ģ" horiz-adv-x="1048" d="M520 1161q-61 0 -94 40.5t-33 113.5q0 101 65.5 173t184.5 85l8 -31q-167 -50 -170 -219q29 29 70 29q39 0 61.5 -23t22.5 -65q0 -47 -32.5 -75t-82.5 -28zM930 930q26 26 26 74q0 51 -51 51q-79 0 -147 -103q155 -82 155 -262q0 -141 -105.5 -223t-297.5 -82h-16 q-211 0 -211 -90q0 -39 56.5 -60t207.5 -34q256 -21 358 -84q107 -64 107 -215q0 -155 -137.5 -233.5t-382.5 -76.5q-241 2 -359.5 55.5t-118.5 172.5q0 180 322 223q-115 20 -165 67t-50 123q0 64 52 111.5t149 67.5q-213 68 -213 278q0 148 104 231t297 83q127 0 203 -33 q91 198 241 198q55 0 87 -29t32 -85q0 -55 -39 -87.5t-104 -37.5zM315 690q0 -110 52 -170.5t143 -60.5q92 0 143.5 60t51.5 171q0 112 -52 175t-143 63t-143 -63t-52 -175zM834 -141q0 80 -76 119t-254 49q-295 -40 -295 -187q0 -81 79 -124.5t222 -43.5q154 0 239 46.5 t85 140.5z"/>
    <glyph glyph-name="Hbar" unicode="Ħ" horiz-adv-x="1800" d="M1698 1464v-34q-112 -12 -150.5 -46t-38.5 -116v-193h148v-80h-148v-798q0 -83 39 -116.5t150 -43.5v-37h-619v37q112 10 151.5 44t39.5 116v374h-727v-374q0 -83 36.5 -116.5t141.5 -43.5v-37h-619v37q116 10 157.5 44t41.5 116v798h-147v80h147v193q0 83 -41 116.5 t-158 45.5v34h619v-34q-105 -12 -141.5 -46t-36.5 -116v-193h727v193q0 82 -39.5 116t-151.5 46v34h619zM543 651h727v344h-727v-344z"/>
    <glyph glyph-name="hbar" unicode="ħ" horiz-adv-x="1320" d="M1118 645v-446q0 -72 33 -110.5t115 -51.5v-37h-508v39q77 12 108 50t31 110v473q0 229 -176 229q-97 0 -169.5 -70.5t-107.5 -203.5v-430q0 -70 29 -106t100 -48v-43h-489v39q77 12 108 49t31 109v983h-166v82h166v45q0 77 -28.5 108.5t-118.5 44.5v41l368 70v-309h426 v-82h-426v-404q105 228 359 228q315 0 315 -359z"/>
    <glyph glyph-name="Imacron" unicode="Ī" horiz-adv-x="813" d="M104 1858v77h609v-77h-609zM102 1464h611v-41q-106 -10 -143.5 -42.5t-37.5 -112.5v-1071q0 -80 38 -113t143 -43v-41h-611v41q112 10 151.5 43t39.5 113v1071q0 80 -39.5 112.5t-151.5 42.5v41z"/>
    <glyph glyph-name="Iogonek" unicode="Į" horiz-adv-x="813" d="M713 1464v-41q-106 -10 -143.5 -42.5t-37.5 -112.5v-1071q0 -80 38 -113t143 -43v-41q-101 -44 -162.5 -116t-61.5 -142q0 -72 66 -72q68 0 137 54l10 -13q-76 -135 -235 -135q-125 0 -125 121q0 90 74 168.5t209 134.5h-523v41q112 10 151.5 43t39.5 113v1071 q0 80 -39.5 112.5t-151.5 42.5v41h611z"/>
    <glyph glyph-name="Idot" unicode="İ" horiz-adv-x="813" d="M508 1710q-41 -41 -100.5 -41t-102.5 41q-41 43 -41 102.5t41 102.5q43 43 102.5 43t100.5 -43q43 -43 43 -102.5t-43 -102.5zM713 1464v-41q-106 -10 -143.5 -42.5t-37.5 -112.5v-1071q0 -80 38 -113t143 -43v-41h-611v41q112 10 151.5 43t39.5 113v1071 q0 80 -39.5 112.5t-151.5 42.5v41h611z"/>
    <glyph glyph-name="dotlessi" unicode="ı" horiz-adv-x="677" d="M461 989v-790q0 -74 32.5 -111t116.5 -49v-39h-518v37q82 13 115 51.5t33 110.5v532q0 74 -29 103t-129 47v37z"/>
    <glyph glyph-name="uni0136" unicode="Ķ" horiz-adv-x="1640" d="M950 961l455 -758q46 -76 88 -109q39 -31 139 -53v-41h-645v41q122 17 148.5 66.5t-31.5 130.5l-330 553l-242 -232v-362q0 -80 37 -113t142 -43v-41h-609v41q112 10 151.5 43t39.5 113v1071q0 80 -39.5 112.5t-151.5 42.5v41h609v-41q-104 -10 -141.5 -42.5 t-37.5 -112.5v-611l549 537q92 85 70.5 153.5t-147.5 75.5v41h561v-41q-74 -9 -138 -45q-68 -35 -112 -73q-52 -42 -123 -113zM848 -100q57 0 92 -42t35 -116q0 -94 -61 -165t-171 -97l-14 35q71 24 111.5 79.5t40.5 120.5v9q-23 -13 -47 -13q-42 0 -67.5 25.5t-25.5 66.5 t31 69t76 28z"/>
    <glyph glyph-name="uni0137" unicode="ķ" horiz-adv-x="1261" d="M778 659l275 -493q37 -69 66 -94.5t87 -32.5v-39h-477v39q137 12 72 133l-193 348l-166 -135v-195q0 -70 27 -104t98 -47v-39h-483v39q76 12 106.5 49.5t30.5 108.5v1110q0 79 -26 108q-27 30 -121 45v41l368 70v-1090l322 269q87 74 75 124t-116 58v41h473v-41 q-63 -6 -123 -41q-49 -31 -162 -123zM655 -94q57 0 93 -44t36 -124q0 -100 -63 -171t-178 -97l-13 34q157 62 160 220q-23 -13 -49 -13q-56 -6 -79 47q-23 50 1 99q27 54 92 49z"/>
    <glyph glyph-name="Lacute" unicode="Ĺ" horiz-adv-x="1411" d="M586 1790l-180 -150l-13 11l92 217q37 137 121 137q37 0 59.5 -22.5t22.5 -57.5q0 -71 -102 -135zM1327 494l45 -5l-115 -550h-47q-5 36 -24.5 48.5t-75.5 12.5h-1008v41q112 10 151.5 43t39.5 113v1071q0 80 -39.5 112.5t-151.5 42.5v41h650v-41q-127 -10 -173.5 -43.5 t-46.5 -111.5v-1188h332q179 0 269 78q88 79 194 336z"/>
    <glyph glyph-name="lacute" unicode="ĺ" horiz-adv-x="630" d="M467 1868l-180 -150l-13 11l93 217q37 137 120 137q37 0 59.5 -22.5t22.5 -57.5q0 -71 -102 -135zM428 1571v-1374q0 -72 31 -109t108 -49v-39h-497v39q76 12 106.5 49.5t30.5 108.5v1110q0 78 -27 108t-121 45v41z"/>
    <glyph glyph-name="uni013B" unicode="Ļ" horiz-adv-x="1411" d="M1327 494l45 -5l-115 -550h-47q-5 36 -24.5 48.5t-75.5 12.5h-1008v41q112 10 151.5 43t39.5 113v1071q0 80 -39.5 112.5t-151.5 42.5v41h650v-41q-127 -10 -173.5 -43.5t-46.5 -111.5v-1188h332q179 0 269 78q88 79 194 336zM717 -100q57 0 92 -42t35 -116 q0 -94 -61 -165t-171 -97l-14 35q71 24 111.5 79.5t40.5 120.5v9q-23 -13 -48 -13q-42 0 -67 25t-25 67q0 41 31 69t76 28z"/>
    <glyph glyph-name="uni013C" unicode="ļ" horiz-adv-x="630" d="M428 1571v-1374q0 -72 31 -109t108 -49v-39h-497v39q76 12 106.5 49.5t30.5 108.5v1110q0 78 -27 108t-121 45v41zM315 -94q57 0 93 -44t36 -124q0 -100 -63 -171t-178 -97l-13 34q157 62 160 220q-23 -13 -49 -13q-56 -6 -79 47q-23 50 1 99q27 54 92 49z"/>
    <glyph glyph-name="Lcaron" unicode="Ľ" horiz-adv-x="1411" d="M1012 948l-17 2v373q-5 88 15 128t75 40q76 0 76 -78q0 -57 -45 -143zM1327 494l45 -5l-115 -550h-47q-5 36 -24.5 48.5t-75.5 12.5h-1008v41q112 10 151.5 43t39.5 113v1071q0 80 -39.5 112.5t-151.5 42.5v41h650v-41q-127 -10 -173.5 -43.5t-46.5 -111.5v-1188h332 q179 0 269 78q88 79 194 336z"/>
    <glyph glyph-name="lcaron" unicode="ľ" horiz-adv-x="630" d="M428 1571v-1374q0 -72 31 -109t108 -49v-39h-497v39q76 12 106.5 49.5t30.5 108.5v1110q0 78 -27 108t-121 45v41zM674 1571q76 0 76 -78q0 -59 -45 -145l-105 -320l-16 2v371q-9 170 90 170z"/>
    <glyph glyph-name="Lslash" unicode="Ł" horiz-adv-x="1468" d="M1386 494l46 -5l-115 -550h-47q-5 36 -25.5 48.5t-75.5 12.5h-1009v41q114 10 153 42.5t39 113.5v477l-256 -113l-33 74l289 127v506q0 80 -39 112.5t-153 42.5v41h649v-41q-124 -10 -170.5 -43.5t-46.5 -111.5v-402l401 176l33 -73l-434 -191v-698h332q178 0 268 78 q88 79 194 336z"/>
    <glyph glyph-name="lslash" unicode="ł" horiz-adv-x="741" d="M492 850v-653q0 -72 31 -109t108 -49v-39h-498v39q76 12 106.5 49.5t30.5 108.5v553l-215 -99l-35 74l250 113v469q0 79 -26 108q-27 30 -121 45v41l369 70v-633l241 111l33 -74z"/>
    <glyph glyph-name="Nacute" unicode="Ń" horiz-adv-x="1722" d="M1042 1790l-180 -150l-12 11l92 217q37 137 121 137q37 0 59.5 -22.5t22.5 -57.5q0 -70 -103 -135zM1143 1464h487v-41q-110 -12 -149 -49t-39 -129v-1245h-176l-881 1227v-1008q0 -91 43 -128.5t164 -49.5v-41h-490v41q117 12 158 49t41 129v1049q0 80 -40.5 112.5 t-158.5 42.5v41h402l854 -1192v973q0 92 -44.5 129t-170.5 49v41z"/>
    <glyph glyph-name="nacute" unicode="ń" horiz-adv-x="1337" d="M860 1298l-180 -149l-12 10l92 217q23 74 51 105.5t70 31.5q37 0 59.5 -22t22.5 -57q0 -71 -103 -136zM1135 645v-446q0 -72 32.5 -110.5t114.5 -51.5v-37h-508v39q77 12 108 50t31 110v473q0 229 -176 229q-98 0 -169.5 -70t-106.5 -202v-430q0 -72 31 -110t108 -50v-39 h-508v37q82 13 115 51.5t33 110.5v532q0 74 -29 103t-129 47v37l369 69l-7 -252q100 269 375 269q316 0 316 -359z"/>
    <glyph glyph-name="uni0145" unicode="Ņ" horiz-adv-x="1722" d="M1143 1464h487v-41q-110 -12 -149 -49t-39 -129v-1245h-176l-881 1227v-1008q0 -91 43 -128.5t164 -49.5v-41h-490v41q117 12 158 49t41 129v1049q0 80 -40.5 112.5t-158.5 42.5v41h402l854 -1192v973q0 92 -44.5 129t-170.5 49v41zM891 -100q57 0 92 -42t35 -116 q0 -94 -61 -165t-171 -97l-14 35q71 24 111.5 79.5t40.5 120.5v9q-23 -13 -47 -13q-43 0 -68 25.5t-25 66.5t31 69t76 28z"/>
    <glyph glyph-name="uni0146" unicode="ņ" horiz-adv-x="1337" d="M1135 645v-446q0 -72 32.5 -110.5t114.5 -51.5v-37h-508v39q77 12 108 50t31 110v473q0 229 -176 229q-98 0 -169.5 -70t-106.5 -202v-430q0 -72 31 -110t108 -50v-39h-508v37q82 13 115 51.5t33 110.5v532q0 74 -29 103t-129 47v37l369 69l-7 -252q100 269 375 269 q316 0 316 -359zM692 -94q57 0 93 -44t36 -124q0 -100 -63 -171t-178 -97l-13 34q157 62 160 220q-23 -13 -49 -13q-56 -6 -79 47q-23 50 1 99q27 54 92 49z"/>
    <glyph glyph-name="Ncaron" unicode="Ň" horiz-adv-x="1722" d="M750 1778l-127 190l12 12l258 -184l254 184l12 -12l-127 -190q-43 -75 -72 -103t-69 -28t-70.5 29.5t-70.5 101.5zM1143 1464h487v-41q-110 -12 -149 -49t-39 -129v-1245h-176l-881 1227v-1008q0 -91 43 -128.5t164 -49.5v-41h-490v41q117 12 158 49t41 129v1049 q0 80 -40.5 112.5t-158.5 42.5v41h402l854 -1192v973q0 92 -44.5 129t-170.5 49v41z"/>
    <glyph glyph-name="ncaron" unicode="ň" horiz-adv-x="1337" d="M567 1286l-127 191l13 12l258 -182l254 182l12 -12l-127 -191q-42 -73 -72.5 -102t-68.5 -29t-70.5 30.5t-71.5 100.5zM1135 645v-446q0 -72 32.5 -110.5t114.5 -51.5v-37h-508v39q77 12 108 50t31 110v473q0 229 -176 229q-98 0 -169.5 -70t-106.5 -202v-430 q0 -72 31 -110t108 -50v-39h-508v37q82 13 115 51.5t33 110.5v532q0 74 -29 103t-129 47v37l369 69l-7 -252q100 269 375 269q316 0 316 -359z"/>
    <glyph glyph-name="Eng" unicode="Ŋ" horiz-adv-x="1714" d="M1143 1464h487v-41q-110 -12 -149 -49t-39 -129v-1126q0 -525 -365 -525q-120 0 -199 71t-87 173l26 19q90 -140 256 -140q223 0 270 246l-958 1254v-998q0 -91 43 -128.5t164 -49.5v-41h-490v41q117 12 158 49t41 129v1049q0 80 -40.5 112.5t-158.5 42.5v41h392 l864 -1132v913q0 92 -44.5 129t-170.5 49v41z"/>
    <glyph glyph-name="eng" unicode="ŋ" horiz-adv-x="1335" d="M819 1004q316 0 316 -359v-563q0 -254 -95 -371t-290 -117q-119 0 -194 46.5t-75 126.5q0 51 44.5 77.5t117.5 14.5q-24 -75 5 -131t102 -56q85 0 124 72t39 231v697q0 229 -176 229q-98 0 -169.5 -70t-106.5 -202v-430q0 -72 31 -110t108 -50v-39h-508v37 q82 13 115 51.5t33 110.5v532q0 74 -29 103t-129 47v37l369 69l-7 -252q100 269 375 269z"/>
    <glyph glyph-name="Omacron" unicode="Ō" horiz-adv-x="1652" d="M1130 1858h-608v77h608v-77zM825 -31q-353 0 -536 207q-180 204 -180 551q0 349 180 553q182 209 536 209q355 0 537 -209q182 -206 182 -553t-180 -551q-183 -207 -539 -207zM825 55q230 0 348.5 176.5t118.5 495.5q0 320 -119 499t-348 179q-228 0 -347.5 -179.5 t-119.5 -498.5q0 -317 119.5 -494.5t347.5 -177.5z"/>
    <glyph glyph-name="omacron" unicode="ō" horiz-adv-x="1210" d="M909 1313h-608v80h608v-80zM1114 487q0 -231 -125 -374q-126 -144 -383 -144t-383 144q-125 143 -125 374q0 228 125 371q128 146 383 146t383 -146q125 -143 125 -371zM606 922q-137 0 -205.5 -115t-68.5 -320t68.5 -320.5t205.5 -115.5q136 0 204.5 116t68.5 320 t-68.5 319.5t-204.5 115.5z"/>
    <glyph glyph-name="Ohungarumlaut" unicode="Ő" horiz-adv-x="1652" d="M807 1849l-113 -207l-16 5l4 235q-12 81 11 129.5t79 48.5q38 0 60 -23.5t22 -62.5q0 -51 -47 -125zM1090 1798l-183 -158l-12 11l104 241q37 123 117 123q37 0 59.5 -21.5t22.5 -56.5q0 -68 -108 -139zM825 -31q-353 0 -536 207q-180 204 -180 551q0 349 180 553 q182 209 536 209q355 0 537 -209q182 -206 182 -553t-180 -551q-183 -207 -539 -207zM825 55q230 0 348.5 176.5t118.5 495.5q0 320 -119 499t-348 179q-228 0 -347.5 -179.5t-119.5 -498.5q0 -317 119.5 -494.5t347.5 -177.5z"/>
    <glyph glyph-name="ohungarumlaut" unicode="ő" horiz-adv-x="1210" d="M592 1358l-113 -207l-16 4l4 236q-12 81 11 129.5t79 48.5q38 0 60 -23.5t22 -62.5q0 -51 -47 -125zM874 1307l-182 -158l-12 10l104 242q38 123 117 123q37 0 59.5 -21.5t22.5 -56.5q0 -68 -109 -139zM1114 487q0 -231 -125 -374q-126 -144 -383 -144t-383 144 q-125 143 -125 374q0 228 125 371q128 146 383 146t383 -146q125 -143 125 -371zM606 922q-137 0 -205.5 -115t-68.5 -320t68.5 -320.5t205.5 -115.5q136 0 204.5 116t68.5 320t-68.5 319.5t-204.5 115.5z"/>
    <glyph glyph-name="OE" unicode="Œ" horiz-adv-x="2338" d="M2198 498l45 -9l-80 -550h-47q-5 37 -24.5 49t-76.5 12h-1059q-428 0 -637.5 187.5t-209.5 539.5q0 354 210.5 545.5t636.5 191.5h1004q56 0 75.5 13t24.5 51h47l101 -549l-45 -10q-56 147 -100.5 229.5t-94.5 122.5q-49 41 -93.5 53t-127.5 12h-365v-583h199 q129 0 174 57q49 58 70 252h47v-684h-47q-21 178 -68 238q-47 59 -176 59h-199v-645h387q168 0 254 80q90 81 175 338zM977 80h164v1306h-164q-311 0 -465 -171.5t-154 -487.5q0 -310 154 -478.5t465 -168.5z"/>
    <glyph glyph-name="oe" unicode="œ" horiz-adv-x="1855" d="M1401 90q223 0 325 209l27 -10q-36 -158 -144 -239t-272 -81q-242 0 -356 172q-126 -172 -385 -172q-252 0 -375 144t-123 374q0 228 125 371q128 146 383 146q264 0 385 -183q124 183 381 183q209 0 316 -119q109 -119 63 -373h-637q0 -422 287 -422zM606 51 q136 0 204.5 116t68.5 320t-68.5 319.5t-204.5 115.5q-137 0 -205.5 -115t-68.5 -320t68.5 -320.5t205.5 -115.5zM1368 922q-110 0 -174 -86t-76 -238h436q18 324 -186 324z"/>
    <glyph glyph-name="Racute" unicode="Ŕ" horiz-adv-x="1585" d="M895 1790l-180 -150l-13 11l93 217q37 137 120 137q37 0 59.5 -22.5t22.5 -57.5q0 -71 -102 -135zM1020 705l334 -517q47 -66 88 -98q49 -31 135 -49v-41h-428q-21 110 -90 215l-295 471h-236v-489q0 -79 46.5 -112.5t175.5 -43.5v-41h-648v41q112 10 151.5 43t39.5 113 v1071q0 80 -39.5 112.5t-151.5 42.5v41h734q274 0 405 -90t131 -284q0 -318 -352 -385zM528 1386v-620h203q397 0 397 315q0 161 -98.5 233t-298.5 72h-203z"/>
    <glyph glyph-name="racute" unicode="ŕ" horiz-adv-x="989" d="M678 1298l-180 -149l-13 10l93 217q23 74 50.5 105.5t69.5 31.5q37 0 59.5 -22t22.5 -57q0 -72 -102 -136zM758 1004q82 0 134 -45.5t52 -129.5q0 -88 -58.5 -130t-152.5 -40q49 49 49 127q0 95 -88 95q-178 0 -233 -377v-305q0 -71 45.5 -107t165.5 -53v-39h-580v37 q82 13 115 51.5t33 110.5v532q0 74 -29 103t-129 47v37l377 69l-17 -321q37 179 115.5 258.5t200.5 79.5z"/>
    <glyph glyph-name="uni0156" unicode="Ŗ" horiz-adv-x="1585" d="M1020 705l334 -517q47 -66 88 -98q49 -31 135 -49v-41h-428q-21 110 -90 215l-295 471h-236v-489q0 -79 46.5 -112.5t175.5 -43.5v-41h-648v41q112 10 151.5 43t39.5 113v1071q0 80 -39.5 112.5t-151.5 42.5v41h734q274 0 405 -90t131 -284q0 -318 -352 -385zM528 1386 v-620h203q397 0 397 315q0 161 -98.5 233t-298.5 72h-203zM868 -100q57 0 92 -42t35 -116q0 -94 -60.5 -165t-170.5 -97l-14 35q71 24 111 79.5t40 120.5v9q-23 -13 -47 -13q-42 0 -67 25t-25 67q0 41 31 69t75 28z"/>
    <glyph glyph-name="uni0157" unicode="ŗ" horiz-adv-x="989" d="M758 1004q82 0 134 -45.5t52 -129.5q0 -88 -58.5 -130t-152.5 -40q49 49 49 127q0 95 -88 95q-178 0 -233 -377v-305q0 -71 45.5 -107t165.5 -53v-39h-580v37q82 13 115 51.5t33 110.5v532q0 74 -29 103t-129 47v37l377 69l-17 -321q37 179 115.5 258.5t200.5 79.5z M350 -94q57 0 93 -44t36 -124q0 -100 -63 -171t-178 -97l-13 34q157 62 160 220q-23 -13 -49 -13q-56 -6 -79 47q-23 50 1 99q27 54 92 49z"/>
    <glyph glyph-name="Rcaron" unicode="Ř" horiz-adv-x="1585" d="M602 1778l-127 190l12 12l258 -184l254 184l13 -12l-127 -190q-43 -74 -72.5 -102.5t-69.5 -28.5t-70.5 29.5t-70.5 101.5zM1020 705l334 -517q47 -66 88 -98q49 -31 135 -49v-41h-428q-21 110 -90 215l-295 471h-236v-489q0 -79 46.5 -112.5t175.5 -43.5v-41h-648v41 q112 10 151.5 43t39.5 113v1071q0 80 -39.5 112.5t-151.5 42.5v41h734q274 0 405 -90t131 -284q0 -318 -352 -385zM528 1386v-620h203q397 0 397 315q0 161 -98.5 233t-298.5 72h-203z"/>
    <glyph glyph-name="rcaron" unicode="ř" horiz-adv-x="989" d="M383 1286l-127 191l12 12l258 -182l254 182l13 -12l-127 -191q-42 -73 -73 -102t-69 -29t-70 30.5t-71 100.5zM758 1004q82 0 134 -45.5t52 -129.5q0 -88 -58.5 -130t-152.5 -40q49 49 49 127q0 95 -88 95q-178 0 -233 -377v-305q0 -71 45.5 -107t165.5 -53v-39h-580v37 q82 13 115 51.5t33 110.5v532q0 74 -29 103t-129 47v37l377 69l-17 -321q37 179 115.5 258.5t200.5 79.5z"/>
    <glyph glyph-name="Sacute" unicode="Ś" horiz-adv-x="1302" d="M739 1790l-180 -150l-12 11l92 217q37 137 121 137q37 0 59.5 -22.5t22.5 -57.5q0 -70 -103 -135zM256 -45h-55l-74 608l45 4q55 -249 190.5 -379.5t333.5 -130.5q149 0 230.5 61.5t81.5 178.5q0 152 -121 225q-68 43 -127 62q-91 31 -170 53q-100 27 -174.5 61 t-147.5 88q-155 117 -155 328q0 173 112.5 274t313.5 101q83 0 169 -28.5t145 -56.5t75 -28q66 0 51 137h55l99 -595l-46 -5q-62 234 -197.5 362t-324.5 128q-121 0 -190.5 -59.5t-69.5 -159.5q0 -111 76 -187q33 -33 86 -59q79 -37 211 -74q132 -38 209.5 -70.5 t152.5 -86.5q162 -110 162 -338q0 -188 -129 -294t-348 -106q-68 0 -141 17.5t-121.5 38t-93 38t-62.5 17.5q-63 0 -51 -125z"/>
    <glyph glyph-name="sacute" unicode="ś" horiz-adv-x="1007" d="M653 1298l-180 -149l-12 10l92 217q23 74 51 105.5t70 31.5q37 0 59.5 -22t22.5 -57q0 -71 -103 -136zM547 590q88 -25 140.5 -47t103.5 -58q104 -71 104 -231q0 -139 -96.5 -212t-259.5 -73q-182 0 -308 105l-79 -84h-39v368h47q32 -152 123 -232.5t223 -80.5 q96 0 152.5 41t56.5 123q0 75 -58.5 115.5t-212.5 83.5q-77 21 -125.5 41t-101.5 55q-106 72 -106 235q0 125 85 195t238 70q188 0 301 -119l72 98h39v-348h-45q-105 293 -336 293q-86 0 -131 -37t-45 -105q0 -76 57.5 -116.5t200.5 -79.5z"/>
    <glyph glyph-name="Scedilla" unicode="Ş" horiz-adv-x="1302" d="M1202 369q0 -187 -126 -292.5t-343 -107.5l-6 -84q52 15 102 15q154 0 154 -142q0 -80 -61 -125t-160 -45q-178 0 -277 129l11 13q92 -62 211 -62q143 0 143 90q0 70 -86 70q-44 0 -115 -21l15 164q-96 9 -215 60q-110 49 -142 49q-63 0 -51 -125h-55l-74 608l45 4 q55 -249 190.5 -379.5t333.5 -130.5q149 0 230.5 61.5t81.5 178.5q0 152 -121 225q-68 43 -127 62q-91 31 -170 53q-100 27 -174.5 61t-147.5 88q-155 117 -155 328q0 173 112.5 274t313.5 101q83 0 169 -28.5t145 -56.5t75 -28q66 0 51 137h55l99 -595l-46 -5 q-62 234 -197.5 362t-324.5 128q-121 0 -190.5 -59.5t-69.5 -159.5q0 -111 76 -187q33 -33 86 -59q79 -37 211 -74q132 -38 209.5 -70.5t152.5 -86.5q162 -110 162 -338z"/>
    <glyph glyph-name="scedilla" unicode="ş" horiz-adv-x="1007" d="M895 254q0 -137 -95.5 -210t-256.5 -75l-15 -84q46 15 99 15q153 0 153 -142q0 -80 -60 -125t-155 -45q-175 0 -274 129l10 13q86 -62 209 -62q63 0 100 23.5t37 66.5q0 70 -86 70q-45 0 -115 -21l31 166q-143 15 -246 101l-79 -84h-39v368h47q32 -152 123 -232.5 t223 -80.5q96 0 152.5 41t56.5 123q0 75 -58.5 115.5t-212.5 83.5q-77 21 -125.5 41t-101.5 55q-106 72 -106 235q0 125 85 195t238 70q188 0 301 -119l72 98h39v-348h-45q-105 293 -336 293q-86 0 -131 -37t-45 -105q0 -76 57.5 -116.5t200.5 -79.5q88 -25 140.5 -47 t103.5 -58q104 -71 104 -231z"/>
    <glyph glyph-name="Scaron" unicode="Š" horiz-adv-x="1302" d="M446 1778l-127 190l13 12l258 -184l254 184l12 -12l-127 -190q-43 -75 -72 -103t-69 -28t-71 30t-71 101zM678 864q132 -38 209.5 -70.5t152.5 -86.5q162 -110 162 -338q0 -188 -129 -294t-348 -106q-68 0 -141 17.5t-121.5 38t-93 38t-62.5 17.5q-63 0 -51 -125h-55 l-74 608l45 4q55 -249 190.5 -379.5t333.5 -130.5q149 0 230.5 61.5t81.5 178.5q0 152 -121 225q-68 43 -127 62q-91 31 -170 53q-100 27 -174.5 61t-147.5 88q-155 117 -155 328q0 173 112.5 274t313.5 101q83 0 169 -28.5t145 -56.5t75 -28q66 0 51 137h55l99 -595l-46 -5 q-62 234 -197.5 362t-324.5 128q-121 0 -190.5 -59.5t-69.5 -159.5q0 -111 76 -187q33 -33 86 -59q79 -37 211 -74z"/>
    <glyph glyph-name="scaron" unicode="š" horiz-adv-x="1007" d="M360 1286l-127 191l13 12l258 -182l254 182l12 -12l-127 -191q-42 -73 -72.5 -102t-68.5 -29t-70.5 30.5t-71.5 100.5zM547 590q88 -25 140.5 -47t103.5 -58q104 -71 104 -231q0 -139 -96.5 -212t-259.5 -73q-182 0 -308 105l-79 -84h-39v368h47q32 -152 123 -232.5 t223 -80.5q96 0 152.5 41t56.5 123q0 75 -58.5 115.5t-212.5 83.5q-77 21 -125.5 41t-101.5 55q-106 72 -106 235q0 125 85 195t238 70q188 0 301 -119l72 98h39v-348h-45q-105 293 -336 293q-86 0 -131 -37t-45 -105q0 -76 57.5 -116.5t200.5 -79.5z"/>
    <glyph glyph-name="uni0162" unicode="Ţ" horiz-adv-x="1525" d="M1329 1528h47l123 -561l-43 -9q-62 153 -110.5 237.5t-102.5 125.5q-52 41 -96.5 53t-128.5 12h-135v-1189q0 -80 55 -113t209 -43v-41h-348l-8 -115q49 15 102 15q154 0 154 -142q0 -80 -61.5 -125t-160.5 -45q-177 0 -276 129l10 13q92 -62 211 -62q143 0 143 90 q0 70 -86 70q-43 0 -114 -21l18 193h-352v41q154 10 209 43t55 113v1189h-135q-58 -2 -96 -7.5t-76.5 -23t-66 -44t-60.5 -76.5t-64.5 -114t-74.5 -163l-43 9l123 561h47q5 -38 24.5 -51t75.5 -13h932q56 0 75.5 13t24.5 51z"/>
    <glyph glyph-name="uni0163" unicode="ţ" horiz-adv-x="849" d="M631 -100q153 0 153 -142q0 -80 -60 -125t-155 -45q-175 0 -274 129l10 13q86 -62 209 -62q63 0 100 23.5t37 66.5q0 70 -86 70q-43 0 -114 -21l28 162q-163 4 -232 96t-69 287v539h-135v82h135q127 53 164 356h57v-356h357v-82h-357v-565q0 -129 38 -186.5t128 -57.5 t155.5 56.5t86.5 140.5l31 -7q-19 -124 -96 -205t-193 -94l-17 -88q46 15 99 15z"/>
    <glyph glyph-name="Tcaron" unicode="Ť" horiz-adv-x="1525" d="M623 1778l-127 190l12 12l258 -184l254 184l12 -12l-127 -190q-43 -75 -72 -103t-69 -28t-70.5 29.5t-70.5 101.5zM1329 1528h47l123 -561l-43 -9q-62 153 -110.5 237.5t-102.5 125.5q-52 41 -96.5 53t-128.5 12h-135v-1189q0 -80 55 -113t209 -43v-41h-768v41 q154 10 209 43t55 113v1189h-135q-58 -2 -96 -7.5t-76.5 -23t-66 -44t-60.5 -76.5t-64.5 -114t-74.5 -163l-43 9l123 561h47q5 -38 24.5 -51t75.5 -13h932q56 0 75.5 13t24.5 51z"/>
    <glyph glyph-name="tcaron" unicode="ť" horiz-adv-x="888" d="M586 1106l-17 2l-4 328q-12 168 90 168q76 0 76 -82q0 -60 -47 -140zM807 279l31 -7q-20 -138 -113 -220.5t-231 -82.5q-170 0 -243 92t-73 291v539h-135v82h135q127 53 164 356h57v-356h357v-82h-357v-565q0 -129 38 -186.5t128 -57.5t155.5 56.5t86.5 140.5z"/>
    <glyph glyph-name="Tbar" unicode="Ŧ" horiz-adv-x="1562" d="M1018 1386h-135v-669h391v-82h-391v-438q0 -80 55 -113t209 -43v-41h-768v41q154 10 209 43t55 113v438h-356v82h356v669h-135q-58 -2 -96 -7.5t-76.5 -23t-66 -44t-60.5 -76.5t-64.5 -114t-74.5 -163l-43 9l123 561h47q5 -38 24.5 -51t75.5 -13h932q56 0 75.5 13 t24.5 51h47l123 -561l-43 -9q-62 153 -110.5 237.5t-102.5 125.5q-52 41 -96.5 53t-128.5 12z"/>
    <glyph glyph-name="tbar" unicode="ŧ" horiz-adv-x="849" d="M807 279l31 -7q-20 -138 -113 -220.5t-231 -82.5q-170 0 -243 92t-73 291v215h-147v78h147v246h-135v82h135q127 53 164 356h57v-356h357v-82h-357v-246h351v-78h-351v-241q0 -129 38 -186.5t128 -57.5t155.5 56.5t86.5 140.5z"/>
    <glyph glyph-name="Umacron" unicode="Ū" horiz-adv-x="1724" d="M565 1935h609v-77h-609v77zM1044 1464h611v-41q-105 -10 -142.5 -42.5t-37.5 -112.5v-658q0 -310 -149 -475.5t-454 -165.5q-600 0 -600 641v658q0 80 -39 112.5t-151 42.5v41h610v-41q-105 -10 -141.5 -42.5t-36.5 -112.5v-711q0 -242 90 -371t268 -129q181 0 272 129 t91 371v711q0 80 -39.5 112.5t-151.5 42.5v41z"/>
    <glyph glyph-name="umacron" unicode="ū" horiz-adv-x="1294" d="M299 1393h608v-80h-608v80zM1071 973v-750q0 -75 27 -102q28 -28 121 -43v-39l-359 -57l8 213q-58 -113 -156 -169.5t-218 -56.5q-308 0 -308 361v446q0 70 -33 108.5t-112 51.5v37h367v-649q0 -250 178 -250q83 0 153 55.5t111 157.5v489q0 74 -34.5 110t-123.5 48v39 h379z"/>
    <glyph glyph-name="Uring" unicode="Ů" horiz-adv-x="1724" d="M868 1595q-96 0 -156.5 50t-60.5 143q0 91 60.5 140.5t156.5 49.5q95 0 155 -49.5t60 -140.5q0 -93 -60 -143t-155 -50zM950 1874q-29 35 -82 35t-84 -35q-31 -32 -31 -85.5t31 -88.5t84 -35t82 35q31 35 31 88.5t-31 85.5zM1044 1464h611v-41q-105 -10 -142.5 -42.5 t-37.5 -112.5v-658q0 -310 -149 -475.5t-454 -165.5q-600 0 -600 641v658q0 80 -39 112.5t-151 42.5v41h610v-41q-105 -10 -141.5 -42.5t-36.5 -112.5v-711q0 -242 90 -371t268 -129q181 0 272 129t91 371v711q0 80 -39.5 112.5t-151.5 42.5v41z"/>
    <glyph glyph-name="uring" unicode="ů" horiz-adv-x="1294" d="M604 1145q-97 0 -157 49.5t-60 142.5q0 91 60.5 141t156.5 50q94 0 154.5 -50t60.5 -141q0 -93 -60 -142.5t-155 -49.5zM686 1423q-29 35 -82 35t-84 -35q-31 -32 -31 -85.5t31 -88.5t84 -35t82 35q31 35 31 88.5t-31 85.5zM1071 973v-750q0 -75 27 -102q28 -28 121 -43 v-39l-359 -57l8 213q-58 -113 -156 -169.5t-218 -56.5q-308 0 -308 361v446q0 70 -33 108.5t-112 51.5v37h367v-649q0 -250 178 -250q83 0 153 55.5t111 157.5v489q0 74 -34.5 110t-123.5 48v39h379z"/>
    <glyph glyph-name="Uhungarumlaut" unicode="Ű" horiz-adv-x="1724" d="M850 1849l-113 -207l-16 5l4 235q-12 81 11 129.5t79 48.5q38 0 60 -23.5t22 -62.5q0 -51 -47 -125zM1133 1798l-183 -158l-12 11l104 241q38 123 117 123q37 0 59.5 -21.5t22.5 -56.5q0 -68 -108 -139zM1044 1464h611v-41q-105 -10 -142.5 -42.5t-37.5 -112.5v-658 q0 -310 -149 -475.5t-454 -165.5q-600 0 -600 641v658q0 80 -39 112.5t-151 42.5v41h610v-41q-105 -10 -141.5 -42.5t-36.5 -112.5v-711q0 -242 90 -371t268 -129q181 0 272 129t91 371v711q0 80 -39.5 112.5t-151.5 42.5v41z"/>
    <glyph glyph-name="uhungarumlaut" unicode="ű" horiz-adv-x="1294" d="M590 1358l-113 -207l-16 4l4 236q-12 81 11 129.5t79 48.5q38 0 60 -23.5t22 -62.5q0 -51 -47 -125zM872 1307l-182 -158l-12 10l104 242q38 123 117 123q37 0 59.5 -21.5t22.5 -56.5q0 -68 -109 -139zM1071 973v-750q0 -75 27 -102q28 -28 121 -43v-39l-359 -57l8 213 q-58 -113 -156 -169.5t-218 -56.5q-308 0 -308 361v446q0 70 -33 108.5t-112 51.5v37h367v-649q0 -250 178 -250q83 0 153 55.5t111 157.5v489q0 74 -34.5 110t-123.5 48v39h379z"/>
    <glyph glyph-name="Uogonek" unicode="Ų" horiz-adv-x="1724" d="M1044 1464h611v-41q-105 -10 -142.5 -42.5t-37.5 -112.5v-658q0 -462 -322 -594q-101 -43 -162 -115.5t-61 -142.5q0 -71 65 -71q70 0 138 53l10 -12q-77 -136 -236 -136q-125 0 -125 121q0 151 197 262q-49 -6 -107 -6q-600 0 -600 641v658q0 80 -39 112.5t-151 42.5v41 h610v-41q-105 -10 -141.5 -42.5t-36.5 -112.5v-711q0 -242 90 -371t268 -129q181 0 272 129t91 371v711q0 80 -39.5 112.5t-151.5 42.5v41z"/>
    <glyph glyph-name="uogonek" unicode="ų" horiz-adv-x="1294" d="M1219 78v-39q-100 -46 -164 -119q-60 -72 -60 -141q0 -70 66 -70q69 0 137 51l10 -12q-76 -135 -235 -135q-125 0 -125 121q0 167 239 284l-227 -36l8 213q-58 -113 -156 -169.5t-218 -56.5q-308 0 -308 361v446q0 70 -33 108.5t-112 51.5v37h367v-649q0 -250 178 -250 q83 0 153 55.5t111 157.5v489q0 74 -34.5 110t-123.5 48v39h379v-750q0 -75 27 -102q28 -28 121 -43z"/>
    <glyph glyph-name="Wcircumflex" unicode="Ŵ" horiz-adv-x="2588" d="M1587 1647l-254 184l-258 -184l-12 12l127 190q40 72 70.5 101.5t70.5 29.5t69.5 -28.5t72.5 -102.5l126 -190zM2071 1423v41h497v-41q-95 -12 -143 -57q-48 -48 -94 -166l-463 -1200h-195l-373 973l-385 -973h-194l-502 1237q-38 93 -80.5 133.5t-120.5 52.5v41h627v-41 q-141 -19 -176 -60t6 -138l418 -1049l362 914l-55 147q-35 88 -82.5 131.5t-140.5 54.5v41h649v-41q-139 -18 -176 -65t8 -133l389 -1043l394 1020q18 50 21.5 85t-11.5 65t-59.5 47.5t-120.5 23.5z"/>
    <glyph glyph-name="wcircumflex" unicode="ŵ" horiz-adv-x="1896" d="M1253 1155l-254 184l-258 -184l-12 12l127 191q40 72 70.5 101.5t70.5 29.5t69.5 -28.5t72.5 -102.5l127 -191zM1493 936v37h385v-37q-69 -18 -102 -57q-28 -31 -78 -146l-301 -733h-168l-277 735l-286 -735h-177l-311 768q-34 83 -64.5 116.5t-95.5 51.5v37h537v-37 q-107 -13 -133.5 -62t14.5 -133l213 -555l303 787h158l281 -774l215 540q41 86 15.5 135.5t-128.5 61.5z"/>
    <glyph glyph-name="Ycircumflex" unicode="Ŷ" horiz-adv-x="1476" d="M1079 1647l-254 184l-258 -184l-12 12l127 190q40 72 70.5 101.5t70.5 29.5t69.5 -28.5t72.5 -102.5l127 -190zM999 1423v41h455v-41q-88 -15 -141 -59q-50 -41 -111 -139l-323 -531v-497q0 -80 36.5 -113t141.5 -43v-41h-611v41q112 10 151.5 43t39.5 113v491l-447 619 q-44 62 -75 82q-23 18 -92 34v41h636v-41q-134 -10 -167 -53t26 -121l322 -463l272 447q29 47 39 78t1 56t-46.5 38.5t-106.5 17.5z"/>
    <glyph glyph-name="ycircumflex" unicode="ŷ" horiz-adv-x="1263" d="M950 1155l-254 184l-258 -184l-12 12l127 191q40 72 70.5 101.5t70.5 29.5t69.5 -28.5t72.5 -102.5l127 -191zM860 936v37h387v-37q-69 -22 -100 -59q-38 -45 -82 -144l-324 -706q-105 -228 -213 -330q-108 -105 -272 -105q-105 0 -165 47t-60 134q0 85 62.5 130.5 t168.5 37.5q-67 -76 -67 -146q0 -55 30 -88t84 -33q137 0 273 226l-404 868q-43 91 -69 117q-25 32 -93 51v37h537v-37q-81 -11 -117 -33.5t-34 -55t20 -75.5l287 -620l280 618q13 35 16 58.5t-6.5 47.5t-44 38.5t-94.5 21.5z"/>
    <glyph glyph-name="Ydieresis" unicode="Ÿ" horiz-adv-x="1476" d="M686 1720q-38 -37 -94 -37t-94 37q-38 38 -38 94.5t38 94.5t94 38t94 -38t38 -94.5t-38 -94.5zM1169 1815q0 -54 -39 -93t-94 -39q-56 0 -94.5 38.5t-38.5 93.5t38.5 94t94.5 39t94.5 -39t38.5 -94zM999 1423v41h455v-41q-88 -15 -141 -59q-50 -41 -111 -139l-323 -531 v-497q0 -80 36.5 -113t141.5 -43v-41h-611v41q112 10 151.5 43t39.5 113v491l-447 619q-44 62 -75 82q-23 18 -92 34v41h636v-41q-134 -10 -167 -53t26 -121l322 -463l272 447q29 47 39 78t1 56t-46.5 38.5t-106.5 17.5z"/>
    <glyph glyph-name="Zacute" unicode="Ź" horiz-adv-x="1439" d="M885 1790l-180 -150l-13 11l92 217q37 137 121 137q37 0 59.5 -22.5t22.5 -57.5q0 -71 -102 -135zM1331 516l43 -10l-133 -569h-45q-6 37 -25.5 49t-74.5 12l-961 2v49l860 1337h-374q-98 0 -153 -13t-114 -54q-60 -42 -111 -129.5t-110 -241.5l-43 10l123 570h45 q5 -37 24 -50.5t70 -13.5h957v-49l-860 -1335h395q181 0 282 84q94 79 205 352z"/>
    <glyph glyph-name="zacute" unicode="ź" horiz-adv-x="1085" d="M723 1298l-180 -149l-13 10l93 217q23 74 50.5 105.5t69.5 31.5q37 0 59.5 -22t22.5 -57q0 -72 -102 -136zM946 395l43 -6l-59 -430h-43q-9 41 -72 41h-700v74l583 819h-225q-152 0 -209 -57q-58 -58 -123 -258l-43 8l52 430h43q12 -43 71 -43h705v-74l-586 -819h238 q133 0 198 59q65 62 127 256z"/>
    <glyph glyph-name="Zdotaccent" unicode="Ż" horiz-adv-x="1439" d="M834 1710q-41 -41 -100.5 -41t-102.5 41q-41 43 -41 102.5t41 102.5q43 43 102.5 43t100.5 -43q43 -43 43 -102.5t-43 -102.5zM1331 516l43 -10l-133 -569h-45q-6 37 -25.5 49t-74.5 12l-961 2v49l860 1337h-374q-98 0 -153 -13t-114 -54q-60 -42 -111 -129.5 t-110 -241.5l-43 10l123 570h45q5 -37 24 -50.5t70 -13.5h957v-49l-860 -1335h395q181 0 282 84q94 79 205 352z"/>
    <glyph glyph-name="zdotaccent" unicode="ż" horiz-adv-x="1085" d="M702 1307q0 -56 -39 -96t-96 -40t-96 39.5t-39 96.5t39 96t96 39t96 -39t39 -96zM946 395l43 -6l-59 -430h-43q-9 41 -72 41h-700v74l583 819h-225q-152 0 -209 -57q-58 -58 -123 -258l-43 8l52 430h43q12 -43 71 -43h705v-74l-586 -819h238q133 0 198 59q65 62 127 256z "/>
    <glyph glyph-name="Zcaron" unicode="Ž" horiz-adv-x="1439" d="M592 1778l-127 190l12 12l258 -184l254 184l12 -12l-127 -190q-43 -75 -72 -103t-69 -28t-70.5 29.5t-70.5 101.5zM1331 516l43 -10l-133 -569h-45q-6 37 -25.5 49t-74.5 12l-961 2v49l860 1337h-374q-98 0 -153 -13t-114 -54q-60 -42 -111 -129.5t-110 -241.5l-43 10 l123 570h45q5 -37 24 -50.5t70 -13.5h957v-49l-860 -1335h395q181 0 282 84q94 79 205 352z"/>
    <glyph glyph-name="zcaron" unicode="ž" horiz-adv-x="1085" d="M430 1286l-127 191l12 12l258 -182l254 182l13 -12l-127 -191q-42 -73 -73 -102t-69 -29t-70 30.5t-71 100.5zM946 395l43 -6l-59 -430h-43q-9 41 -72 41h-700v74l583 819h-225q-152 0 -209 -57q-58 -58 -123 -258l-43 8l52 430h43q12 -43 71 -43h705v-74l-586 -819h238 q133 0 198 59q65 62 127 256z"/>
    <glyph glyph-name="uni0218" unicode="Ș" horiz-adv-x="1302" d="M678 864q132 -38 209.5 -70.5t152.5 -86.5q162 -110 162 -338q0 -188 -129 -294t-348 -106q-68 0 -141 17.5t-121.5 38t-93 38t-62.5 17.5q-63 0 -51 -125h-55l-74 608l45 4q55 -249 190.5 -379.5t333.5 -130.5q149 0 230.5 61.5t81.5 178.5q0 152 -121 225 q-68 43 -127 62q-91 31 -170 53q-100 27 -174.5 61t-147.5 88q-155 117 -155 328q0 173 112.5 274t313.5 101q83 0 169 -28.5t145 -56.5t75 -28q66 0 51 137h55l99 -595l-46 -5q-62 234 -197.5 362t-324.5 128q-121 0 -190.5 -59.5t-69.5 -159.5q0 -111 76 -187 q33 -33 86 -59q79 -37 211 -74zM702 -100q57 0 92 -42t35 -116q0 -94 -60.5 -165t-170.5 -97l-14 35q71 24 111 79.5t40 120.5v9q-23 -13 -47 -13q-42 0 -67 25t-25 67q0 41 31 69t75 28z"/>
    <glyph glyph-name="uni0219" unicode="ș" horiz-adv-x="1007" d="M547 590q88 -25 140.5 -47t103.5 -58q104 -71 104 -231q0 -139 -96.5 -212t-259.5 -73q-182 0 -308 105l-79 -84h-39v368h47q32 -152 123 -232.5t223 -80.5q96 0 152.5 41t56.5 123q0 75 -58.5 115.5t-212.5 83.5q-77 21 -125.5 41t-101.5 55q-106 72 -106 235 q0 125 85 195t238 70q188 0 301 -119l72 98h39v-348h-45q-105 293 -336 293q-86 0 -131 -37t-45 -105q0 -76 57.5 -116.5t200.5 -79.5zM514 -94q57 0 93 -44t36 -124q0 -99 -63 -170.5t-179 -97.5l-12 34q157 62 160 220q-23 -13 -49 -13q-56 -6 -79 47q-23 50 1 99 q27 54 92 49z"/>
    <glyph glyph-name="uni021A" unicode="Ț" horiz-adv-x="1525" d="M1329 1528h47l123 -561l-43 -9q-62 153 -110.5 237.5t-102.5 125.5q-52 41 -96.5 53t-128.5 12h-135v-1189q0 -80 55 -113t209 -43v-41h-768v41q154 10 209 43t55 113v1189h-135q-58 -2 -96 -7.5t-76.5 -23t-66 -44t-60.5 -76.5t-64.5 -114t-74.5 -163l-43 9l123 561h47 q5 -38 24.5 -51t75.5 -13h932q56 0 75.5 13t24.5 51zM766 -100q57 0 92 -42t35 -116q0 -94 -60.5 -165t-170.5 -97l-15 35q71 24 111.5 79.5t40.5 120.5v9q-23 -13 -47 -13q-42 0 -67.5 25.5t-25.5 66.5t31 69t76 28z"/>
    <glyph glyph-name="uni021B" unicode="ț" horiz-adv-x="849" d="M807 279l31 -7q-20 -138 -113 -220.5t-231 -82.5q-170 0 -243 92t-73 291v539h-135v82h135q127 53 164 356h57v-356h357v-82h-357v-565q0 -129 38 -186.5t128 -57.5t155.5 56.5t86.5 140.5zM518 -94q57 0 93 -44t36 -124q0 -100 -63 -171t-178 -97l-13 34q157 62 160 220 q-23 -13 -49 -13q-56 -6 -79 47q-23 50 1 99q27 54 92 49z"/>
    <glyph glyph-name="gravecomb" unicode="̀" d="M-53 1149l-183 149q-100 63 -100 136q0 35 22.5 57t57.5 22q44 0 72.5 -31.5t48.5 -105.5l94 -217z"/>
    <glyph glyph-name="acutecomb" unicode="́" d="M-156 1298l-180 -149l-12 10l92 217q23 74 51 105.5t70 31.5q37 0 59.5 -22t22.5 -57q0 -71 -103 -136z"/>
    <glyph glyph-name="uni0302" unicode="̂" d="M-188 1358l127 -191l-13 -12l-254 184l-258 -184l-12 12l127 191q40 72 70.5 101.5t70.5 29.5t69.5 -28.5t72.5 -102.5z"/>
    <glyph glyph-name="tildecomb" unicode="̃" d="M-498 1350q-71 0 -135 -119l-18 6q46 233 190 233q63 0 139 -61t117 -61q75 0 131 120l17 -6q-43 -233 -193 -233q-57 0 -131 59q-74 62 -117 62z"/>
    <glyph glyph-name="uni0304" unicode="̄" d="M-63 1313h-609v80h609v-80z"/>
    <glyph glyph-name="uni0306" unicode="̆" d="M-68 1473q-4 -143 -69.5 -220t-173.5 -77t-173 76.5t-71 220.5l18 2q46 -172 226 -172q179 0 225 172z"/>
    <glyph glyph-name="uni0307" unicode="̇" d="M-348 1319q0 59 41 100t98 41t99 -42t42 -99t-42 -98t-99 -41t-98 41t-41 98z"/>
    <glyph glyph-name="uni0308" unicode="̈" d="M-745 1323q0 53 36 89t88 36t88.5 -36t36.5 -89q0 -51 -36 -87t-89 -36t-88.5 35.5t-35.5 87.5zM-186 1200q-54 0 -89.5 36t-35.5 87q0 53 36.5 89t88.5 36t88.5 -36t36.5 -89q0 -51 -37 -87t-88 -36z"/>
    <glyph glyph-name="uni030A" unicode="̊" d="M-276 1528q94 0 154.5 -50t60.5 -141q0 -93 -60 -142.5t-155 -49.5q-97 0 -157.5 49.5t-60.5 142.5q0 91 61 141t157 50zM-360 1249q31 -35 83.5 -35t83.5 35q29 35 29 88.5t-29 85.5q-31 35 -83.5 35t-83.5 -35q-31 -32 -31 -85.5t31 -88.5z"/>
    <glyph glyph-name="uni030B" unicode="̋" d="M-420 1358l-112 -207l-17 4l4 236q-12 81 11 129.5t79 48.5q38 0 60 -23.5t22 -62.5q0 -51 -47 -125zM-137 1307l-182 -158l-13 10l105 242q37 123 116 123q37 0 59.5 -21.5t22.5 -56.5q0 -68 -108 -139z"/>
    <glyph glyph-name="uni030C" unicode="̌" d="M-328 1307l254 182l13 -12l-127 -191q-42 -73 -73 -102t-69 -29t-70 30.5t-71 100.5l-127 191l12 12z"/>
    <glyph glyph-name="uni0312" unicode="̒" d="M-154 1389q39 0 61.5 -23.5t22.5 -65.5q0 -47 -32 -74.5t-82 -27.5q-61 0 -94 40.5t-33 113.5q0 101 65.5 173t184.5 85l8 -31q-167 -50 -170 -219q29 29 69 29z"/>
    <glyph glyph-name="uni0326" unicode="̦" d="M-184 -94q57 0 93 -44t36 -124q0 -99 -63 -170.5t-179 -97.5l-12 34q156 61 159 220q-23 -13 -49 -13q-56 -6 -79 47q-22 50 2 99q27 54 92 49z"/>
    <glyph glyph-name="uni0327" unicode="̧" d="M-207 -100q154 0 154 -142q0 -80 -60 -125t-155 -45q-176 0 -275 129l11 13q86 -62 208 -62q63 0 100.5 23.5t37.5 66.5q0 70 -86 70q-44 0 -115 -21l37 203h67l-22 -125q47 15 98 15z"/>
    <glyph glyph-name="uni0328" unicode="̨" d="M-63 27l16 -25q-102 -46 -162 -119q-61 -70 -61 -141q0 -70 65 -70q67 0 137 52l11 -13q-77 -135 -236 -135q-125 0 -125 121q0 102 94 189t261 141z"/>
    <glyph glyph-name="Wgrave" unicode="Ẁ" horiz-adv-x="2588" d="M1376 1640l-182 150q-100 63 -100 135q0 35 22.5 57.5t57.5 22.5q43 0 71.5 -31.5t48.5 -105.5l95 -217zM2071 1423v41h497v-41q-95 -12 -143 -57q-48 -48 -94 -166l-463 -1200h-195l-373 973l-385 -973h-194l-502 1237q-38 93 -80.5 133.5t-120.5 52.5v41h627v-41 q-141 -19 -176 -60t6 -138l418 -1049l362 914l-55 147q-35 88 -82.5 131.5t-140.5 54.5v41h649v-41q-139 -18 -176 -65t8 -133l389 -1043l394 1020q18 50 21.5 85t-11.5 65t-59.5 47.5t-120.5 23.5z"/>
    <glyph glyph-name="wgrave" unicode="ẁ" horiz-adv-x="1896" d="M1042 1149l-182 149q-100 63 -100 136q0 35 22.5 57t57.5 22q44 0 72.5 -31.5t48.5 -105.5l94 -217zM1493 936v37h385v-37q-69 -18 -102 -57q-28 -31 -78 -146l-301 -733h-168l-277 735l-286 -735h-177l-311 768q-34 83 -64.5 116.5t-95.5 51.5v37h537v-37 q-107 -13 -133.5 -62t14.5 -133l213 -555l303 787h158l281 -774l215 540q41 86 15.5 135.5t-128.5 61.5z"/>
    <glyph glyph-name="Wacute" unicode="Ẃ" horiz-adv-x="2588" d="M1483 1790l-180 -150l-13 11l92 217q37 137 121 137q37 0 59.5 -22.5t22.5 -57.5q0 -71 -102 -135zM2071 1423v41h497v-41q-95 -12 -143 -57q-48 -48 -94 -166l-463 -1200h-195l-373 973l-385 -973h-194l-502 1237q-38 93 -80.5 133.5t-120.5 52.5v41h627v-41 q-141 -19 -176 -60t6 -138l418 -1049l362 914l-55 147q-35 88 -82.5 131.5t-140.5 54.5v41h649v-41q-139 -18 -176 -65t8 -133l389 -1043l394 1020q18 50 21.5 85t-11.5 65t-59.5 47.5t-120.5 23.5z"/>
    <glyph glyph-name="wacute" unicode="ẃ" horiz-adv-x="1896" d="M1151 1298l-180 -149l-13 10l93 217q23 74 50.5 105.5t69.5 31.5q37 0 59.5 -22t22.5 -57q0 -72 -102 -136zM1493 936v37h385v-37q-69 -18 -102 -57q-28 -31 -78 -146l-301 -733h-168l-277 735l-286 -735h-177l-311 768q-34 83 -64.5 116.5t-95.5 51.5v37h537v-37 q-107 -13 -133.5 -62t14.5 -133l213 -555l303 787h158l281 -774l215 540q41 86 15.5 135.5t-128.5 61.5z"/>
    <glyph glyph-name="Wdieresis" unicode="Ẅ" horiz-adv-x="2588" d="M1194 1720q-38 -37 -94 -37t-94 37q-38 38 -38 94.5t38 94.5t94 38t94 -38t38 -94.5t-38 -94.5zM1677 1815q0 -54 -39 -93t-94 -39q-56 0 -94.5 38.5t-38.5 93.5t38.5 94t94.5 39t94.5 -39t38.5 -94zM2071 1423v41h497v-41q-95 -12 -143 -57q-48 -48 -94 -166l-463 -1200 h-195l-373 973l-385 -973h-194l-502 1237q-38 93 -80.5 133.5t-120.5 52.5v41h627v-41q-141 -19 -176 -60t6 -138l418 -1049l362 914l-55 147q-35 88 -82.5 131.5t-140.5 54.5v41h649v-41q-139 -18 -176 -65t8 -133l389 -1043l394 1020q18 50 21.5 85t-11.5 65t-59.5 47.5 t-120.5 23.5z"/>
    <glyph glyph-name="wdieresis" unicode="ẅ" horiz-adv-x="1896" d="M647 1323q0 53 36.5 89t88.5 36t88.5 -36t36.5 -89q0 -51 -35.5 -87t-89.5 -36t-89.5 36t-35.5 87zM1206 1200q-54 0 -89.5 36t-35.5 87q0 53 36.5 89t88.5 36t88.5 -36t36.5 -89q0 -51 -37 -87t-88 -36zM1493 936v37h385v-37q-69 -18 -102 -57q-28 -31 -78 -146 l-301 -733h-168l-277 735l-286 -735h-177l-311 768q-34 83 -64.5 116.5t-95.5 51.5v37h537v-37q-107 -13 -133.5 -62t14.5 -133l213 -555l303 787h158l281 -774l215 540q41 86 15.5 135.5t-128.5 61.5z"/>
    <glyph glyph-name="uni1E9E" unicode="ẞ" horiz-adv-x="1677" d="M1436 1362l-330 -582q227 -25 353 -128.5t126 -282.5q0 -88 -27.5 -157.5t-73 -114.5t-109.5 -74.5t-132.5 -41.5t-146.5 -12q-189 0 -292.5 77t-103.5 210q0 100 76 152t176 12q-61 -64 -61 -182q0 -88 52 -137.5t153 -49.5q117 0 187.5 76.5t70.5 224.5q0 193 -142 285 q-139 93 -350 90l-6 29l330 610q-116 43 -283 43q-399 0 -399 -426v-983h-438v37q118 10 159 44t41 116v702q0 302 146 449t458 147q330 0 566 -133z"/>
    <glyph glyph-name="Ygrave" unicode="Ỳ" horiz-adv-x="1476" d="M866 1640l-182 150q-100 63 -100 135q0 35 22.5 57.5t57.5 22.5q43 0 71.5 -31.5t48.5 -105.5l95 -217zM999 1423v41h455v-41q-88 -15 -141 -59q-50 -41 -111 -139l-323 -531v-497q0 -80 36.5 -113t141.5 -43v-41h-611v41q112 10 151.5 43t39.5 113v491l-447 619 q-44 62 -75 82q-23 18 -92 34v41h636v-41q-134 -10 -167 -53t26 -121l322 -463l272 447q29 47 39 78t1 56t-46.5 38.5t-106.5 17.5z"/>
    <glyph glyph-name="ygrave" unicode="ỳ" horiz-adv-x="1263" d="M739 1149l-182 149q-100 63 -100 136q0 35 22.5 57t57.5 22q43 0 71.5 -31.5t48.5 -105.5l95 -217zM860 936v37h387v-37q-69 -22 -100 -59q-38 -45 -82 -144l-324 -706q-105 -228 -213 -330q-108 -105 -272 -105q-105 0 -165 47t-60 134q0 85 62.5 130.5t168.5 37.5 q-67 -76 -67 -146q0 -55 30 -88t84 -33q137 0 273 226l-404 868q-43 91 -69 117q-25 32 -93 51v37h537v-37q-81 -11 -117 -33.5t-34 -55t20 -75.5l287 -620l280 618q13 35 16 58.5t-6.5 47.5t-44 38.5t-94.5 21.5z"/>
    <glyph glyph-name="endash" unicode="–" horiz-adv-x="1593" d="M1374 561h-1155v82h1155v-82z"/>
    <glyph glyph-name="emdash" unicode="—" horiz-adv-x="2156" d="M1937 561h-1718v82h1718v-82z"/>
    <glyph glyph-name="quoteleft" unicode="‘" horiz-adv-x="495" d="M303 1294q41 0 64.5 -25t23.5 -67q0 -45 -30.5 -74.5t-77.5 -29.5q-133 0 -133 180q0 103 65 192q69 90 170 117l14 -35q-77 -40 -122.5 -112.5t-45.5 -167.5q28 22 72 22z"/>
    <glyph glyph-name="quoteright" unicode="’" horiz-adv-x="495" d="M213 1575q131 0 131 -180q0 -105 -65.5 -192t-167.5 -118l-15 35q77 40 122 113t44 168q-32 -22 -69 -22.5t-65 25.5t-24 66q0 45 30 75t79 30z"/>
    <glyph glyph-name="quotesinglbase" unicode="‚" horiz-adv-x="471" d="M215 160q133 0 133 -180q0 -104 -66 -191.5t-169 -118.5l-15 37q76 38 122 111t46 168q-30 -23 -71 -23t-65 25t-24 67q0 45 31 75t78 30z"/>
    <glyph glyph-name="quotedblleft" unicode="“" horiz-adv-x="802" d="M385 1579l14 -37q-76 -38 -122 -110.5t-46 -167.5q28 22 72 22q41 0 64.5 -25t23.5 -67q0 -45 -30.5 -74.5t-77.5 -29.5q-133 0 -133 180q0 104 66 191t169 118zM698 1194q0 -45 -30.5 -74.5t-77.5 -29.5q-133 0 -133 180q0 104 66 191t169 118l15 -37 q-77 -38 -123 -111.5t-45 -168.5q34 24 71 24.5t64.5 -26t23.5 -66.5z"/>
    <glyph glyph-name="quotedblright" unicode="”" horiz-adv-x="802" d="M213 1575q131 0 131 -180q0 -105 -65.5 -192t-167.5 -118l-15 35q77 40 122 113t44 168q-32 -22 -69 -22.5t-65 25.5t-24 66q0 45 30 75t79 30zM520 1575q133 0 133 -180q0 -104 -66 -191.5t-169 -118.5l-15 35q77 40 122 113t44 168q-32 -22 -68.5 -22.5t-64.5 25.5 t-24 66q0 45 30.5 75t77.5 30z"/>
    <glyph glyph-name="quotedblbase" unicode="„" horiz-adv-x="782" d="M215 164q133 0 133 -180q0 -103 -66.5 -191t-168.5 -119l-15 37q76 38 122 111t46 168q-30 -23 -71 -23t-65 25t-24 67q0 45 31 75t78 30zM524 164q131 0 131 -180q0 -103 -66.5 -191t-168.5 -119l-14 37q76 38 121.5 111t45.5 168q-30 -23 -71 -23t-64.5 25t-23.5 67 q0 45 30.5 75t79.5 30z"/>
    <glyph glyph-name="dagger" unicode="†" horiz-adv-x="1083" d="M584 1110h299v-78h-299v-749h-82v749h-301v78h301v354h82v-354z"/>
    <glyph glyph-name="daggerdbl" unicode="‡" horiz-adv-x="1079" d="M883 1169v-77h-299v-439h297v-75h-297v-295h-82v295h-303v75h303v439h-301v77h301v295h82v-295h299z"/>
    <glyph glyph-name="bullet" unicode="•" horiz-adv-x="770" d="M416 528q-100 0 -170 70t-70 170q0 94 70 164q69 69 170 69q95 0 164 -69t69 -164q0 -101 -69 -170q-70 -70 -164 -70z"/>
    <glyph glyph-name="ellipsis" unicode="…" horiz-adv-x="1343" d="M391 86q0 -49 -33.5 -83t-81.5 -34t-82 34t-34 83q0 47 34.5 81t81.5 34t81 -35t34 -80zM889 201q44 0 79.5 -35.5t35.5 -79.5q0 -49 -33.5 -83t-81.5 -34q-17 0 -21 2q-4 -2 -18 -2q-50 0 -83.5 33.5t-33.5 83.5q0 47 35 81t82 34q14 0 18 -2q4 2 21 2z"/>
    <glyph glyph-name="perthousand" unicode="‰" horiz-adv-x="2459" d="M852 1139q0 -159 -96 -256t-269 -97t-269.5 97t-96.5 256q0 158 96.5 254t269.5 96t269 -96t96 -254zM1382 1464l-1189 -1464h110l1192 1464h-113zM487 1415q-89 0 -138.5 -70.5t-49.5 -205.5q0 -137 49.5 -208t138.5 -71q88 0 138.5 71t50.5 208q0 134 -50.5 205 t-138.5 71zM905 68q-94 98 -94 254q0 155 94 253q94 99 271 99q176 0 270 -99q94 -98 94 -253q0 -156 -94 -254q-94 -99 -270 -99q-177 0 -271 99zM1706 68q-94 98 -94 254q0 155 94 253q94 99 270 99t271 -99q94 -98 94 -253q0 -156 -94 -254q-95 -99 -271 -99t-270 99z M987 322q0 -135 50 -207t139 -72t138.5 71t49.5 208t-49.5 207.5t-138.5 70.5q-90 0 -139.5 -70.5t-49.5 -207.5zM2165 322q0 137 -49.5 207.5t-139.5 70.5q-89 0 -138.5 -70.5t-49.5 -207.5t49.5 -208t138.5 -71t139 72t50 207z"/>
    <glyph glyph-name="guilsinglleft" unicode="‹" horiz-adv-x="667" d="M522 844l33 -41l-258 -305l258 -299l-33 -41l-444 309v70z"/>
    <glyph glyph-name="guilsinglright" unicode="›" horiz-adv-x="667" d="M113 803l34 41l445 -307v-70l-445 -309l-34 41l258 299z"/>
    <glyph glyph-name="fraction" unicode="⁄" horiz-adv-x="1470" d="M84 0l1192 1464h110l-1191 -1464h-111z"/>
    <glyph glyph-name="Euro" unicode="€" horiz-adv-x="1624" d="M1507 520l31 -6q-21 -242 -195 -393q-172 -152 -456 -152q-279 0 -444.5 151.5t-202.5 430.5h-197v82h188q-2 18 -2 82q0 85 13 174h-195v82h211q61 243 229 380.5t420 137.5q132 0 254 -51q128 -49 156 -49q36 0 47.5 31t3.5 104h57l72 -635l-43 -6q-56 248 -188 384 t-322 136q-178 0 -291.5 -113t-152.5 -319h571v-82h-584q-6 -61 -6 -125q0 -70 6 -131h580v-82h-569q77 -459 471 -459q212 0 358 119q145 118 180 309z"/>
    <glyph glyph-name="uni2116" unicode="№" horiz-adv-x="2791" d="M2187 571q-230 0 -351.5 123.5t-121.5 335.5q0 215 121.5 340t351.5 125q229 0 350 -124.5t121 -340.5q0 -212 -121.5 -335.5t-349.5 -123.5zM1151 1464h489v-41q-112 -12 -150 -48.5t-38 -129.5v-1245h-186l-871 1223v-1004q0 -93 42 -129.5t163 -48.5v-41h-489v41 q118 12 159 49.5t41 128.5v1049q0 80 -41 112.5t-159 42.5v41h401l856 -1204v985q0 92 -44.5 129t-172.5 49v41zM2187 1430q-258 0 -258 -400q0 -391 258 -391q256 0 256 391q0 400 -256 400zM2605 287h-838v78l838 2v-80z"/>
    <glyph glyph-name="trademark" unicode="™" horiz-adv-x="2656" d="M977 1528h37l121 -414l-31 -10q-104 186 -178 239q-70 52 -193 52h-26v-547q0 -79 38 -109.5t154 -42.5v-34h-586v34q111 12 152 41q39 26 39 111v547h-23q-126 0 -200 -56q-69 -51 -172 -235l-31 10l121 414h37q5 -38 24.5 -51t75.5 -13h541q56 0 75.5 13t24.5 51z M2499 1464v-34q-84 -12 -113 -45.5t-29 -116.5v-418q0 -81 27.5 -110.5t114.5 -41.5v-34h-502v34q97 12 128.5 42t31.5 110v473l-349 -535h-59l-342 484v-400q0 -93 33 -126.5t133 -47.5v-34h-408v34q98 14 130 48t32 126v396q0 83 -33 116.5t-129 45.5v34h355l327 -471 l305 471h347z"/>
    <glyph glyph-name="oneeighth" unicode="⅛" horiz-adv-x="1738" d="M35 594v29q81 7 111 30.5t30 75.5v635q-74 -51 -127 -51q-37 0 -47.5 38t10.5 79q54 -28 154 -13q107 16 180 66h33v-754q0 -52 24.5 -75.5t92.5 -30.5v-29h-461zM154 0l1192 1464h110l-1192 -1464h-110zM1452 506q138 -65 199 -127t61 -154q0 -250 -381 -250 q-360 0 -360 220q0 87 72.5 147.5t175.5 73.5q-199 105 -199 256q0 109 86 167t246 58q323 0 323 -188q0 -151 -223 -203zM1346 831q-72 0 -112 -30t-40 -80q0 -55 45 -95.5t150 -90.5q118 55 118 163q0 133 -161 133zM1335 41q90 0 145.5 32.5t55.5 96.5q0 65 -54 109 t-194 104l-26 12q-115 -77 -115 -194q0 -71 47.5 -115.5t140.5 -44.5z"/>
    <glyph glyph-name="threeeighths" unicode="⅜" horiz-adv-x="1890" d="M776 815q0 -242 -414 -242q-331 0 -331 205q0 84 68.5 123t166.5 14q-53 -47 -53 -131q0 -67 39 -106t110 -39q87 0 140 48.5t53 129.5q0 203 -262 203h-100v63h100q237 0 237 193q0 149 -145 149q-63 0 -101 -34t-38 -91q0 -71 55 -108q-113 -34 -176.5 0t-63.5 108 q0 89 88.5 140t251.5 51q353 0 353 -217q0 -195 -305 -225q327 -21 327 -234zM315 0l1190 1464h113l-1192 -1464h-111zM1602 506q138 -65 199 -127t61 -154q0 -250 -383 -250q-361 0 -361 220q0 89 73 149.5t177 71.5q-201 103 -201 256q0 109 86 167t246 58q326 0 326 -188 q0 -151 -223 -203zM1495 831q-73 0 -113.5 -30t-40.5 -80q0 -55 45 -96t152 -90q119 55 119 163q0 133 -162 133zM1485 41q90 0 145.5 32.5t55.5 96.5q0 63 -53 106t-195 107l-27 12q-117 -77 -117 -194q0 -71 49 -115.5t142 -44.5z"/>
    <glyph glyph-name="fiveeighths" unicode="⅝" horiz-adv-x="1902" d="M743 856q0 -283 -393 -283q-156 0 -235.5 51.5t-79.5 145.5q0 89 76 123q79 38 161 -14q-55 -27 -55 -119q0 -56 35.5 -90.5t101.5 -34.5q75 0 120.5 50t45.5 136q0 207 -211 207q-113 0 -209 -47v496h482q43 0 61.5 8.5t38.5 38.5l31 -11l-39 -219h-498v-227 q112 37 234 37q333 0 333 -248zM307 0l1192 1464h113l-1192 -1464h-113zM1614 506q138 -65 199 -127t61 -154q0 -250 -381 -250q-360 0 -360 220q0 89 71 148.5t176 72.5q-198 101 -198 256q0 109 85.5 167t243.5 58q326 0 326 -188q0 -151 -223 -203zM1507 831 q-72 0 -111.5 -30t-39.5 -80q0 -55 44.5 -95.5t149.5 -90.5q119 55 119 163q0 133 -162 133zM1497 41q90 0 145.5 32.5t55.5 96.5q0 65 -54 109t-194 104l-27 12q-114 -77 -114 -194q0 -71 47.5 -115.5t140.5 -44.5z"/>
    <glyph glyph-name="seveneighths" unicode="⅞" horiz-adv-x="1824" d="M588 1294h-328q-72 0 -106 -24q-31 -19 -74 -107l-33 8l51 347h37q3 -41 51 -41h580v-33q-106 -127 -164 -227q-64 -111 -100.5 -272.5t-30.5 -350.5h-254q68 406 371 700zM209 0l1192 1464h110l-1192 -1464h-110zM1536 506q138 -65 199 -127t61 -154q0 -250 -383 -250 q-360 0 -360 220q0 87 72 147.5t175 73.5q-198 104 -198 256q0 109 86 167t246 58q325 0 325 -188q0 -151 -223 -203zM1427 831q-71 0 -111 -30t-40 -80q0 -55 45 -96t152 -90q118 55 118 163q0 133 -164 133zM1417 41q91 0 147 33t56 96q0 64 -55 108.5t-195 104.5l-27 12 q-114 -77 -114 -194q0 -71 47.5 -115.5t140.5 -44.5z"/>
    <glyph glyph-name="partialdiff" unicode="∂" horiz-adv-x="1239"/>
    <glyph glyph-name="emptyset" unicode="∅" horiz-adv-x="1239"/>
    <glyph glyph-name="product" unicode="∏" horiz-adv-x="1239"/>
    <glyph glyph-name="summation" unicode="∑" horiz-adv-x="1239"/>
    <glyph glyph-name="minus" unicode="−" horiz-adv-x="1128" d="M989 592h-852v80h852v-80z"/>
    <glyph glyph-name="radical" unicode="√" horiz-adv-x="1239"/>
    <glyph glyph-name="infinity" unicode="∞" horiz-adv-x="1239"/>
    <glyph glyph-name="integral" unicode="∫" horiz-adv-x="1239"/>
    <glyph glyph-name="approxequal" unicode="≈" horiz-adv-x="1239"/>
    <glyph glyph-name="notequal" unicode="≠" horiz-adv-x="1128" d="M989 862v-80h-299l-155 -299h454v-80h-495l-129 -247h-89l130 247h-269v80h309l156 299h-465v80h506l129 250h90l-129 -250h256z"/>
    <glyph glyph-name="lessequal" unicode="≤" horiz-adv-x="1210" d="M309 764l713 -275l-29 -71l-786 309v74l786 311l29 -70zM164 156v71h891v-71h-891z"/>
    <glyph glyph-name="greaterequal" unicode="≥" horiz-adv-x="1210" d="M217 418l-29 71l711 275l-713 278l31 70l784 -311v-74zM154 156v71h890v-71h-890z"/>
    <glyph glyph-name="lozenge" unicode="◊" horiz-adv-x="1214" d="M565 1464h74l463 -731l-463 -733h-74l-452 733zM205 733l397 -649l408 649l-408 649z"/>
    <glyph glyph-name="NULL"/>
    <glyph glyph-name="CR" horiz-adv-x="681"/>
    <glyph glyph-name="i.loclTRK" horiz-adv-x="677" d="M197 1319q0 59 40.5 100t98.5 41q57 0 99 -42t42 -99t-42 -98t-99 -41t-98 41t-41 98zM461 989v-790q0 -74 32.5 -111t116.5 -49v-39h-518v37q82 13 115 51.5t33 110.5v532q0 74 -29 103t-129 47v37z"/>
    <glyph glyph-name="a.sc" horiz-adv-x="1441" d="M815 1065l410 -879q28 -59 53 -94q19 -25 41.5 -36t60.5 -17v-39h-557v39q223 24 133 168l-51 106h-522l-45 -104q-73 -156 131 -170v-39h-408v39q70 9 109 45q34 31 76 123l368 858h201zM629 889l-217 -506h460z"/>
    <glyph glyph-name="aacute.sc" horiz-adv-x="1441" d="M870 1391l-180 -150l-12 10l92 217q23 74 51 106t70 32q37 0 59.5 -22.5t22.5 -57.5q0 -70 -103 -135zM815 1065l410 -879q28 -59 53 -94q19 -25 41.5 -36t60.5 -17v-39h-557v39q223 24 133 168l-51 106h-522l-45 -104q-73 -156 131 -170v-39h-408v39q70 9 109 45 q34 31 76 123l368 858h201zM629 889l-217 -506h460z"/>
    <glyph glyph-name="abreve.sc" horiz-adv-x="1441" d="M475 1565l19 2q46 -172 225 -172t225 172l19 -2q-4 -143 -70 -220t-174 -77t-173 76.5t-71 220.5zM815 1065l410 -879q28 -59 53 -94q19 -25 41.5 -36t60.5 -17v-39h-557v39q223 24 133 168l-51 106h-522l-45 -104q-73 -156 131 -170v-39h-408v39q70 9 109 45 q34 31 76 123l368 858h201zM629 889l-217 -506h460z"/>
    <glyph glyph-name="acircumflex.sc" horiz-adv-x="1441" d="M975 1247l-254 185l-258 -185l-12 13l127 190q40 72 70.5 101.5t70.5 29.5t69 -28t72 -103l127 -190zM815 1065l410 -879q28 -59 53 -94q19 -25 41.5 -36t60.5 -17v-39h-557v39q223 24 133 168l-51 106h-522l-45 -104q-73 -156 131 -170v-39h-408v39q70 9 109 45 q34 31 76 123l368 858h201zM629 889l-217 -506h460z"/>
    <glyph glyph-name="adieresis.sc" horiz-adv-x="1441" d="M580 1327q-35 -35 -88.5 -35t-90.5 35q-35 37 -35 88t35 88q37 37 90.5 37t88.5 -37q37 -37 37 -88t-37 -88zM926 1292q-54 0 -89.5 36t-35.5 87q0 52 36 88.5t89 36.5t89 -36.5t36 -88.5q0 -51 -37 -87t-88 -36zM815 1065l410 -879q28 -59 53 -94q19 -25 41.5 -36 t60.5 -17v-39h-557v39q223 24 133 168l-51 106h-522l-45 -104q-73 -156 131 -170v-39h-408v39q70 9 109 45q34 31 76 123l368 858h201zM629 889l-217 -506h460z"/>
    <glyph glyph-name="agrave.sc" horiz-adv-x="1441" d="M762 1241l-182 150q-101 64 -101 135q0 35 22.5 57.5t57.5 22.5q43 0 72 -32t49 -106l94 -217zM815 1065l410 -879q28 -59 53 -94q19 -25 41.5 -36t60.5 -17v-39h-557v39q223 24 133 168l-51 106h-522l-45 -104q-73 -156 131 -170v-39h-408v39q70 9 109 45q34 31 76 123 l368 858h201zM629 889l-217 -506h460z"/>
    <glyph glyph-name="amacron.sc" horiz-adv-x="1441" d="M414 1485h608v-80h-608v80zM815 1065l410 -879q28 -59 53 -94q19 -25 41.5 -36t60.5 -17v-39h-557v39q223 24 133 168l-51 106h-522l-45 -104q-73 -156 131 -170v-39h-408v39q70 9 109 45q34 31 76 123l368 858h201zM629 889l-217 -506h460z"/>
    <glyph glyph-name="aogonek.sc" horiz-adv-x="1441" d="M1382 0h-2q-103 -47 -161 -117t-58 -141q0 -70 66 -70q67 0 137 52l10 -13q-76 -135 -235 -135q-125 0 -125 121q0 90 73.5 168.5t208.5 134.5h-473v39q223 24 133 168l-51 106h-522l-45 -104q-73 -156 131 -170v-39h-408v39q70 9 109 45q34 31 76 123l368 858h201 l410 -879q28 -59 53 -94q19 -25 41.5 -36t60.5 -17v-31l4 -6zM629 889l-217 -506h460z"/>
    <glyph glyph-name="aring.sc" horiz-adv-x="1441" d="M719 1237q-96 0 -156.5 50t-60.5 143q0 91 60.5 140.5t156.5 49.5q95 0 155 -49.5t60 -140.5q0 -93 -60 -143t-155 -50zM801 1516q-29 35 -82 35t-84 -35q-31 -32 -31 -86t31 -89t84 -35t82 35q31 35 31 89t-31 86zM815 1065l410 -879q28 -59 53 -94q19 -25 41.5 -36 t60.5 -17v-39h-557v39q223 24 133 168l-51 106h-522l-45 -104q-73 -156 131 -170v-39h-408v39q70 9 109 45q34 31 76 123l368 858h201zM629 889l-217 -506h460z"/>
    <glyph glyph-name="atilde.sc" horiz-adv-x="1441" d="M571 1442q-71 0 -135 -119l-18 6q46 234 190 234q60 0 137 -62q76 -61 119 -61q75 0 131 121l17 -7q-43 -233 -193 -233q-57 0 -131 59q-74 62 -117 62zM815 1065l410 -879q28 -59 53 -94q19 -25 41.5 -36t60.5 -17v-39h-557v39q223 24 133 168l-51 106h-522l-45 -104 q-73 -156 131 -170v-39h-408v39q70 9 109 45q34 31 76 123l368 858h201zM629 889l-217 -506h460z"/>
    <glyph glyph-name="ae.sc" horiz-adv-x="1986" d="M1829 373l43 -4l-66 -416h-45q-6 27 -21.5 37t-53.5 10h-859v35q92 10 129 37.5t39 83.5l-22 184h-508l-113 -158q-28 -32 -36.5 -55.5t2.5 -42.5t48 -31t101 -18v-35h-422v35q70 6 113.5 33.5t83.5 85.5l639 907h757q43 0 61 10.5t19 38.5h43l82 -414l-41 -10 q-57 160 -141 240q-30 30 -82 45q-54 15 -84 18q-23 2 -102 2h-250l45 -401h143q97 0 137 37q41 38 62 176h41v-490h-41q-18 131 -60 170q-39 39 -139 39h-137l51 -450h205q145 0 227 55q81 58 152 246zM903 961l-395 -560h459z"/>
    <glyph glyph-name="b.sc" horiz-adv-x="1415" d="M975 578q315 -40 315 -273q0 -305 -479 -305h-666v39q89 7 120.5 34t31.5 89v735q0 62 -32.5 88t-119.5 33v41h742q344 0 344 -225q0 -98 -67 -164.5t-189 -91.5zM745 979h-206v-371h166q280 0 280 205q0 166 -240 166zM539 80h161q342 0 342 239q0 211 -311 211h-192 v-450z"/>
    <glyph glyph-name="c.sc" horiz-adv-x="1316" d="M678 -31q-267 0 -410 145t-143 402q0 252 145 412q144 159 410 159q116 0 217 -38q107 -37 127 -37q59 0 47 96h59l64 -477l-45 -8q-113 376 -428 376q-162 0 -254 -119t-92 -317q0 -223 98.5 -344t292.5 -121q149 0 264 80q118 85 144 207l28 -6q-24 -175 -160 -293 q-132 -117 -364 -117z"/>
    <glyph glyph-name="cacute.sc" horiz-adv-x="1316" d="M862 1391l-180 -150l-12 10l92 217q23 74 51 106t70 32q37 0 59.5 -22.5t22.5 -57.5q0 -70 -103 -135zM678 -31q-267 0 -410 145t-143 402q0 252 145 412q144 159 410 159q116 0 217 -38q107 -37 127 -37q59 0 47 96h59l64 -477l-45 -8q-113 376 -428 376 q-162 0 -254 -119t-92 -317q0 -223 98.5 -344t292.5 -121q149 0 264 80q118 85 144 207l28 -6q-24 -175 -160 -293q-132 -117 -364 -117z"/>
    <glyph glyph-name="ccaron.sc" horiz-adv-x="1316" d="M569 1378l-127 191l13 12l258 -182l254 182l12 -12l-127 -191q-42 -73 -72.5 -102t-68.5 -29t-70.5 30.5t-71.5 100.5zM1174 385l28 -6q-24 -175 -160 -293q-132 -117 -364 -117q-267 0 -410 145t-143 402q0 252 145 412q144 159 410 159q116 0 217 -38q107 -37 127 -37 q59 0 47 96h59l64 -477l-45 -8q-113 376 -428 376q-162 0 -254 -119t-92 -317q0 -223 98.5 -344t292.5 -121q149 0 264 80q118 85 144 207z"/>
    <glyph glyph-name="ccedilla.sc" horiz-adv-x="1316" d="M1174 385l28 -6q-24 -167 -140.5 -277.5t-307.5 -128.5l-17 -86q47 15 99 15q153 0 153 -142q0 -80 -60 -125t-155 -45q-175 0 -274 129l10 13q86 -62 209 -62q63 0 100 23.5t37 66.5q0 70 -86 70q-48 0 -115 -20l29 159h-6q-267 0 -410 145t-143 402q0 252 145 412 q144 159 410 159q116 0 217 -38q107 -37 127 -37q59 0 47 96h59l64 -477l-45 -8q-113 376 -428 376q-162 0 -254 -119t-92 -317q0 -223 98.5 -344t292.5 -121q149 0 264 80q118 85 144 207z"/>
    <glyph glyph-name="cdotaccent.sc" horiz-adv-x="1316" d="M707 1272q-60 0 -100 39.5t-40 99.5q0 59 41 100t99 41q60 0 100.5 -40.5t40.5 -100.5q0 -57 -42 -98t-99 -41zM678 -31q-267 0 -410 145t-143 402q0 252 145 412q144 159 410 159q116 0 217 -38q107 -37 127 -37q59 0 47 96h59l64 -477l-45 -8q-113 376 -428 376 q-162 0 -254 -119t-92 -317q0 -223 98.5 -344t292.5 -121q149 0 264 80q118 85 144 207l28 -6q-24 -175 -160 -293q-132 -117 -364 -117z"/>
    <glyph glyph-name="d.sc" horiz-adv-x="1531" d="M145 1059h631q633 0 633 -510q0 -264 -165.5 -406.5t-467.5 -142.5h-631v39q89 7 120.5 34t31.5 89v735q0 62 -32.5 88t-119.5 33v41zM539 80h186q215 0 323.5 123.5t108.5 345.5q0 430 -432 430h-186v-899z"/>
    <glyph glyph-name="eth.sc" horiz-adv-x="1531" d="M145 1059h631q633 0 633 -510q0 -264 -165.5 -406.5t-467.5 -142.5h-631v39q89 7 120.5 34t31.5 89v344h-150v80h150v311q0 62 -32.5 88t-119.5 33v41zM539 80h186q215 0 323.5 123.5t108.5 345.5q0 430 -432 430h-186v-393h354v-80h-354v-426z"/>
    <glyph glyph-name="dcaron.sc" horiz-adv-x="1531" d="M580 1378l-127 191l12 12l258 -182l254 182l12 -12l-127 -191q-42 -73 -72.5 -102t-68.5 -29t-70 30.5t-71 100.5zM145 1059h631q633 0 633 -510q0 -264 -165.5 -406.5t-467.5 -142.5h-631v39q89 7 120.5 34t31.5 89v735q0 62 -32.5 88t-119.5 33v41zM539 80h186 q215 0 323.5 123.5t108.5 345.5q0 430 -432 430h-186v-899z"/>
    <glyph glyph-name="dcroat.sc" horiz-adv-x="1531" d="M145 1059h631q633 0 633 -510q0 -264 -165.5 -406.5t-467.5 -142.5h-631v39q89 7 120.5 34t31.5 89v344h-150v80h150v311q0 62 -32.5 88t-119.5 33v41zM539 80h186q215 0 323.5 123.5t108.5 345.5q0 430 -432 430h-186v-393h354v-80h-354v-426z"/>
    <glyph glyph-name="e.sc" horiz-adv-x="1349" d="M1188 377l45 -8l-68 -416h-49q-5 28 -20.5 37.5t-63.5 9.5h-887v39q87 7 119.5 33.5t32.5 87.5v739q0 60 -32.5 86t-119.5 33v41h840q48 0 64.5 10t21.5 37h49l86 -414l-49 -10q-82 184 -178 260q-20 17 -57 27q-43 10 -115 10h-268v-381h135q102 0 141 39q44 41 62 180 h49v-514h-49q-18 128 -60 174q-40 43 -143 43h-135v-440h286q71 0 108.5 7.5t82.5 35.5q48 29 88 88.5t84 165.5z"/>
    <glyph glyph-name="eacute.sc" horiz-adv-x="1349" d="M850 1391l-180 -150l-13 10l93 217q23 75 51 106.5t69 31.5q37 0 59.5 -22.5t22.5 -57.5q0 -70 -102 -135zM1188 377l45 -8l-68 -416h-49q-5 28 -20.5 37.5t-63.5 9.5h-887v39q87 7 119.5 33.5t32.5 87.5v739q0 60 -32.5 86t-119.5 33v41h840q48 0 64.5 10t21.5 37h49 l86 -414l-49 -10q-82 184 -178 260q-20 17 -57 27q-43 10 -115 10h-268v-381h135q102 0 141 39q44 41 62 180h49v-514h-49q-18 128 -60 174q-40 43 -143 43h-135v-440h286q71 0 108.5 7.5t82.5 35.5q48 29 88 88.5t84 165.5z"/>
    <glyph glyph-name="ecaron.sc" horiz-adv-x="1349" d="M557 1378l-127 191l12 12l258 -182l254 182l13 -12l-127 -191q-42 -73 -73 -102t-69 -29t-70 30.5t-71 100.5zM1188 377l45 -8l-68 -416h-49q-5 28 -20.5 37.5t-63.5 9.5h-887v39q87 7 119.5 33.5t32.5 87.5v739q0 60 -32.5 86t-119.5 33v41h840q48 0 64.5 10t21.5 37h49 l86 -414l-49 -10q-82 184 -178 260q-20 17 -57 27q-43 10 -115 10h-268v-381h135q102 0 141 39q44 41 62 180h49v-514h-49q-18 128 -60 174q-40 43 -143 43h-135v-440h286q71 0 108.5 7.5t82.5 35.5q48 29 88 88.5t84 165.5z"/>
    <glyph glyph-name="ecircumflex.sc" horiz-adv-x="1349" d="M954 1247l-254 185l-258 -185l-12 13l127 190q40 72 70.5 101.5t70.5 29.5t69.5 -28.5t72.5 -102.5l127 -190zM1188 377l45 -8l-68 -416h-49q-5 28 -20.5 37.5t-63.5 9.5h-887v39q87 7 119.5 33.5t32.5 87.5v739q0 60 -32.5 86t-119.5 33v41h840q48 0 64.5 10t21.5 37h49 l86 -414l-49 -10q-82 184 -178 260q-20 17 -57 27q-43 10 -115 10h-268v-381h135q102 0 141 39q44 41 62 180h49v-514h-49q-18 128 -60 174q-40 43 -143 43h-135v-440h286q71 0 108.5 7.5t82.5 35.5q48 29 88 88.5t84 165.5z"/>
    <glyph glyph-name="edieresis.sc" horiz-adv-x="1349" d="M559 1327q-35 -35 -88 -35t-90 35q-35 37 -35 88t35 88q37 37 90 37t88 -37q37 -37 37 -88t-37 -88zM905 1292q-53 0 -89 36t-36 87q0 52 36 88.5t89 36.5t89 -36.5t36 -88.5q0 -51 -37 -87t-88 -36zM1188 377l45 -8l-68 -416h-49q-5 28 -20.5 37.5t-63.5 9.5h-887v39 q87 7 119.5 33.5t32.5 87.5v739q0 60 -32.5 86t-119.5 33v41h840q48 0 64.5 10t21.5 37h49l86 -414l-49 -10q-82 184 -178 260q-20 17 -57 27q-43 10 -115 10h-268v-381h135q102 0 141 39q44 41 62 180h49v-514h-49q-18 128 -60 174q-40 43 -143 43h-135v-440h286 q71 0 108.5 7.5t82.5 35.5q48 29 88 88.5t84 165.5z"/>
    <glyph glyph-name="edotaccent.sc" horiz-adv-x="1349" d="M694 1272q-60 0 -99.5 39.5t-39.5 99.5q0 59 40.5 100t98.5 41q60 0 101 -40.5t41 -100.5q0 -57 -42.5 -98t-99.5 -41zM1188 377l45 -8l-68 -416h-49q-5 28 -20.5 37.5t-63.5 9.5h-887v39q87 7 119.5 33.5t32.5 87.5v739q0 60 -32.5 86t-119.5 33v41h840q48 0 64.5 10 t21.5 37h49l86 -414l-49 -10q-82 184 -178 260q-20 17 -57 27q-43 10 -115 10h-268v-381h135q102 0 141 39q44 41 62 180h49v-514h-49q-18 128 -60 174q-40 43 -143 43h-135v-440h286q71 0 108.5 7.5t82.5 35.5q48 29 88 88.5t84 165.5z"/>
    <glyph glyph-name="egrave.sc" horiz-adv-x="1349" d="M743 1241l-182 150q-100 63 -100 135q0 35 22.5 57.5t57.5 22.5q43 0 72 -32t49 -106l94 -217zM1188 377l45 -8l-68 -416h-49q-5 28 -20.5 37.5t-63.5 9.5h-887v39q87 7 119.5 33.5t32.5 87.5v739q0 60 -32.5 86t-119.5 33v41h840q48 0 64.5 10t21.5 37h49l86 -414 l-49 -10q-82 184 -178 260q-20 17 -57 27q-43 10 -115 10h-268v-381h135q102 0 141 39q44 41 62 180h49v-514h-49q-18 128 -60 174q-40 43 -143 43h-135v-440h286q71 0 108.5 7.5t82.5 35.5q48 29 88 88.5t84 165.5z"/>
    <glyph glyph-name="emacron.sc" horiz-adv-x="1349" d="M395 1485h609v-80h-609v80zM1188 377l45 -8l-68 -416h-49q-5 28 -20.5 37.5t-63.5 9.5h-887v39q87 7 119.5 33.5t32.5 87.5v739q0 60 -32.5 86t-119.5 33v41h840q48 0 64.5 10t21.5 37h49l86 -414l-49 -10q-82 184 -178 260q-20 17 -57 27q-43 10 -115 10h-268v-381h135 q102 0 141 39q44 41 62 180h49v-514h-49q-18 128 -60 174q-40 43 -143 43h-135v-440h286q71 0 108.5 7.5t82.5 35.5q48 29 88 88.5t84 165.5z"/>
    <glyph glyph-name="eogonek.sc" horiz-adv-x="1349" d="M1188 377l45 -8l-68 -416h-49q-5 28 -20.5 37.5t-63.5 9.5h-14q-104 -48 -162 -117q-57 -69 -57 -141q0 -70 65 -70q67 0 137 52l11 -13q-76 -135 -236 -135q-125 0 -125 121q0 90 74 168.5t209 134.5h-789v39q87 7 119.5 33.5t32.5 87.5v739q0 60 -32.5 86t-119.5 33v41 h840q48 0 64.5 10t21.5 37h49l86 -414l-49 -10q-82 184 -178 260q-20 17 -57 27q-43 10 -115 10h-268v-381h135q102 0 141 39q44 41 62 180h49v-514h-49q-18 128 -60 174q-40 43 -143 43h-135v-440h286q71 0 108.5 7.5t82.5 35.5q48 29 88 88.5t84 165.5z"/>
    <glyph glyph-name="f.sc" horiz-adv-x="1261" d="M1036 1106h51l99 -414l-47 -12q-81 183 -168 242q-80 57 -232 57h-229v-391h141q52 0 77.5 5.5t53.5 24.5t43.5 63t26.5 126h49v-512h-49q-21 143 -59 178q-40 37 -142 37h-141v-336q0 -69 42 -97t167 -38v-39h-600v39q89 7 120 34.5t31 90.5v735q0 60 -32 86t-119 33v41 h829q49 0 67.5 10t20.5 37z"/>
    <glyph glyph-name="g.sc" horiz-adv-x="1464" d="M817 532h576v-40q-84 -7 -114 -32.5t-30 -86.5v-373h-43q-34 100 -84 100q-11 0 -57 -20.5t-103 -45t-145.5 -45t-173.5 -20.5q-246 0 -382 148.5t-136 408.5q0 248 147 404q148 157 418 157q106 0 219 -43q113 -40 138 -40q62 0 47 102h51l57 -449l-41 -8 q-55 161 -174.5 255.5t-265.5 94.5q-164 0 -256 -127q-90 -128 -90 -325q0 -226 91.5 -356t260.5 -130q153 0 287 93v219q0 58 -42 85t-155 34v40z"/>
    <glyph glyph-name="gbreve.sc" horiz-adv-x="1464" d="M473 1565l19 2q46 -172 225 -172t225 172l19 -2q-4 -143 -70 -220t-174 -77t-173 76.5t-71 220.5zM817 532h576v-40q-84 -7 -114 -32.5t-30 -86.5v-373h-43q-34 100 -84 100q-11 0 -57 -20.5t-103 -45t-145.5 -45t-173.5 -20.5q-246 0 -382 148.5t-136 408.5 q0 248 147 404q148 157 418 157q106 0 219 -43q113 -40 138 -40q62 0 47 102h51l57 -449l-41 -8q-55 161 -174.5 255.5t-265.5 94.5q-164 0 -256 -127q-90 -128 -90 -325q0 -226 91.5 -356t260.5 -130q153 0 287 93v219q0 58 -42 85t-155 34v40z"/>
    <glyph glyph-name="uni0123.sc" horiz-adv-x="1464" d="M817 532h576v-40q-84 -7 -114 -32.5t-30 -86.5v-373h-43q-34 100 -84 100q-11 0 -57 -20.5t-103 -45t-145.5 -45t-173.5 -20.5q-246 0 -382 148.5t-136 408.5q0 248 147 404q148 157 418 157q106 0 219 -43q113 -40 138 -40q62 0 47 102h51l57 -449l-41 -8 q-55 161 -174.5 255.5t-265.5 94.5q-164 0 -256 -127q-90 -128 -90 -325q0 -226 91.5 -356t260.5 -130q153 0 287 93v219q0 58 -42 85t-155 34v40zM717 -94q57 0 93 -44t36 -124q0 -99 -63 -170.5t-179 -97.5l-12 34q157 62 160 220q-23 -13 -50 -13q-56 -6 -79 47 q-22 50 2 99q27 54 92 49z"/>
    <glyph glyph-name="gdotaccent.sc" horiz-adv-x="1464" d="M854 1411q0 -57 -42 -98t-99 -41q-58 0 -99 40t-41 99t41 100t99 41t99.5 -41t41.5 -100zM817 532h576v-40q-84 -7 -114 -32.5t-30 -86.5v-373h-43q-34 100 -84 100q-11 0 -57 -20.5t-103 -45t-145.5 -45t-173.5 -20.5q-246 0 -382 148.5t-136 408.5q0 248 147 404 q148 157 418 157q106 0 219 -43q113 -40 138 -40q62 0 47 102h51l57 -449l-41 -8q-55 161 -174.5 255.5t-265.5 94.5q-164 0 -256 -127q-90 -128 -90 -325q0 -226 91.5 -356t260.5 -130q153 0 287 93v219q0 58 -42 85t-155 34v40z"/>
    <glyph glyph-name="h.sc" horiz-adv-x="1642" d="M1497 1059v-37q-90 -7 -123 -34.5t-33 -90.5v-735q0 -63 33.5 -90.5t122.5 -34.5v-37h-547v37q87 7 118.5 34t31.5 91v350h-551v-350q0 -63 30 -90.5t113 -34.5v-37h-547v37q92 7 127 35t35 90v735q0 62 -35 90t-127 35v37h547v-37q-84 -7 -113.5 -34.5t-29.5 -90.5v-307 h551v307q0 63 -31.5 90.5t-120.5 34.5v37h549z"/>
    <glyph glyph-name="hbar.sc" horiz-adv-x="1642" d="M1497 1059v-37q-90 -7 -123 -34.5t-33 -90.5v-68h142v-81h-142v-586q0 -63 33.5 -90.5t122.5 -34.5v-37h-547v37q87 7 118.5 34t31.5 91v350h-551v-350q0 -63 30 -90.5t113 -34.5v-37h-547v37q92 7 127 35t35 90v586h-133v81h133v68q0 62 -35 90t-127 35v37h547v-37 q-84 -7 -113.5 -34.5t-29.5 -90.5v-68h551v68q0 63 -31.5 90.5t-120.5 34.5v37h549zM549 590h551v158h-551v-158z"/>
    <glyph glyph-name="i.sc" horiz-adv-x="825" d="M682 1059v-41q-84 -7 -113.5 -32.5t-29.5 -86.5v-739q0 -61 30 -87.5t113 -33.5v-39h-537v39q87 7 119.5 33.5t32.5 87.5v739q0 60 -32.5 86t-119.5 33v41h537z"/>
    <glyph glyph-name="iacute.sc" horiz-adv-x="825" d="M567 1391l-180 -150l-12 10l92 217q23 74 51 106t70 32q37 0 59.5 -22.5t22.5 -57.5q0 -70 -103 -135zM682 1059v-41q-84 -7 -113.5 -32.5t-29.5 -86.5v-739q0 -61 30 -87.5t113 -33.5v-39h-537v39q87 7 119.5 33.5t32.5 87.5v739q0 60 -32.5 86t-119.5 33v41h537z"/>
    <glyph glyph-name="icircumflex.sc" horiz-adv-x="825" d="M670 1247l-254 185l-258 -185l-13 13l127 190q40 71 71 101t71 30t69 -28t72 -103l127 -190zM145 1059h537v-41q-84 -7 -113.5 -32.5t-29.5 -86.5v-739q0 -61 30 -87.5t113 -33.5v-39h-537v39q87 7 119.5 33.5t32.5 87.5v739q0 60 -32.5 86t-119.5 33v41z"/>
    <glyph glyph-name="idieresis.sc" horiz-adv-x="825" d="M276 1503q37 -37 37 -88t-37 -88q-35 -35 -88 -35t-90 35q-35 37 -35 88t35 88q37 37 90 37t88 -37zM623 1292q-53 0 -89 36t-36 87q0 52 36 88.5t89 36.5t89 -36.5t36 -88.5q0 -51 -37 -87t-88 -36zM145 1059h537v-41q-84 -7 -113.5 -32.5t-29.5 -86.5v-739 q0 -61 30 -87.5t113 -33.5v-39h-537v39q87 7 119.5 33.5t32.5 87.5v739q0 60 -32.5 86t-119.5 33v41z"/>
    <glyph glyph-name="i.sc.loclTRK" horiz-adv-x="825" d="M412 1272q-60 0 -100 39.5t-40 99.5q0 59 41 100t99 41q60 0 100.5 -40.5t40.5 -100.5q0 -57 -42 -98t-99 -41zM682 1059v-41q-84 -7 -113.5 -32.5t-29.5 -86.5v-739q0 -61 30 -87.5t113 -33.5v-39h-537v39q87 7 119.5 33.5t32.5 87.5v739q0 60 -32.5 86t-119.5 33v41 h537z"/>
    <glyph glyph-name="igrave.sc" horiz-adv-x="825" d="M459 1241l-183 150q-100 63 -100 135q0 35 22.5 57.5t57.5 22.5q43 0 72 -32t49 -106l94 -217zM682 1059v-41q-84 -7 -113.5 -32.5t-29.5 -86.5v-739q0 -61 30 -87.5t113 -33.5v-39h-537v39q87 7 119.5 33.5t32.5 87.5v739q0 60 -32.5 86t-119.5 33v41h537z"/>
    <glyph glyph-name="imacron.sc" horiz-adv-x="825" d="M111 1405v80h608v-80h-608zM145 1059h537v-41q-84 -7 -113.5 -32.5t-29.5 -86.5v-739q0 -61 30 -87.5t113 -33.5v-39h-537v39q87 7 119.5 33.5t32.5 87.5v739q0 60 -32.5 86t-119.5 33v41z"/>
    <glyph glyph-name="iogonek.sc" horiz-adv-x="825" d="M682 1059v-41q-84 -7 -113.5 -32.5t-29.5 -86.5v-739q0 -61 30 -87.5t113 -33.5v-39h-8l2 -4q-100 -46 -164 -119q-59 -71 -59 -141t65 -70q69 0 137 51l11 -12q-76 -135 -236 -135q-125 0 -125 121q0 92 78 172.5t219 136.5h-457v39q87 7 119.5 33.5t32.5 87.5v739 q0 60 -32.5 86t-119.5 33v41h537z"/>
    <glyph glyph-name="j.sc" horiz-adv-x="1181" d="M530 1059h562v-35q-84 -7 -114 -34t-30 -91v-436q0 -251 -111 -372.5t-354 -121.5q-196 0 -302.5 75t-106.5 212q0 122 88 195t239 61l7 -18q-123 -70 -123 -248q0 -95 49.5 -149t146.5 -54q236 0 236 344v512q0 61 -36.5 84t-150.5 41v35z"/>
    <glyph glyph-name="k.sc" horiz-adv-x="1503" d="M901 702l359 -546q37 -57 71.5 -80.5t108.5 -40.5v-35h-557v35q175 22 78 147l-244 371l-178 -147v-246q0 -64 28 -91t105 -34v-35h-527v35q89 7 120.5 34t31.5 91v739q0 64 -31.5 91t-120.5 34v35h537v-35q-84 -7 -113.5 -34t-29.5 -91v-397l395 323q93 75 82 134 t-117 65v35h487v-35q-52 -6 -110 -39q-73 -41 -98 -59l-109 -84z"/>
    <glyph glyph-name="uni0137.sc" horiz-adv-x="1503" d="M901 702l359 -546q37 -57 71.5 -80.5t108.5 -40.5v-35h-557v35q175 22 78 147l-244 371l-178 -147v-246q0 -64 28 -91t105 -34v-35h-527v35q89 7 120.5 34t31.5 91v739q0 64 -31.5 91t-120.5 34v35h537v-35q-84 -7 -113.5 -34t-29.5 -91v-397l395 323q93 75 82 134 t-117 65v35h487v-35q-52 -6 -110 -39q-73 -41 -98 -59l-109 -84zM774 -94q57 0 93 -44t36 -124q0 -100 -63 -171t-178 -97l-13 34q157 62 160 220q-23 -13 -49 -13q-56 -6 -79 47q-23 50 1 99q27 54 92 49z"/>
    <glyph glyph-name="l.sc" horiz-adv-x="1212" d="M1176 436l47 -6l-101 -477h-49q-4 29 -22 38t-68 9h-838v39q87 7 119.5 33.5t32.5 87.5v739q0 60 -32.5 86t-119.5 33v41h572v-41q-102 -7 -140 -33t-38 -86v-819h217q156 0 239 65q88 68 181 291z"/>
    <glyph glyph-name="lacute.sc" horiz-adv-x="1212" d="M590 1391l-180 -150l-13 10l92 217q23 74 51 106t70 32q37 0 59.5 -22.5t22.5 -57.5q0 -70 -102 -135zM1176 436l47 -6l-101 -477h-49q-4 29 -22 38t-68 9h-838v39q87 7 119.5 33.5t32.5 87.5v739q0 60 -32.5 86t-119.5 33v41h572v-41q-102 -7 -140 -33t-38 -86v-819h217 q156 0 239 65q88 68 181 291z"/>
    <glyph glyph-name="lcaron.sc" horiz-adv-x="1212" d="M930 551l-17 2v371q-9 170 91 170q75 0 75 -78q0 -60 -45 -146zM1176 436l47 -6l-101 -477h-49q-4 29 -22 38t-68 9h-838v39q87 7 119.5 33.5t32.5 87.5v739q0 60 -32.5 86t-119.5 33v41h572v-41q-102 -7 -140 -33t-38 -86v-819h217q156 0 239 65q88 68 181 291z"/>
    <glyph glyph-name="uni013C.sc" horiz-adv-x="1212" d="M1176 436l47 -6l-101 -477h-49q-4 29 -22 38t-68 9h-838v39q87 7 119.5 33.5t32.5 87.5v739q0 60 -32.5 86t-119.5 33v41h572v-41q-102 -7 -140 -33t-38 -86v-819h217q156 0 239 65q88 68 181 291zM662 -94q57 0 93 -44t36 -124q0 -99 -63 -170.5t-179 -97.5l-12 34 q156 61 159 220q-23 -13 -49 -13q-56 -6 -79 47q-22 50 2 99q27 54 92 49z"/>
    <glyph glyph-name="lslash.sc" horiz-adv-x="1320" d="M1223 436l47 -6l-101 -477h-49q-4 29 -22 38t-68 9h-837v39q87 7 119 33.5t32 87.5v313l-219 -88l-31 74l250 102v338q0 60 -32 86t-119 33v41h571v-41q-102 -7 -140 -33t-38 -86v-240l332 136l30 -76l-362 -148v-491h219q154 0 237 65q88 68 181 291z"/>
    <glyph glyph-name="m.sc" horiz-adv-x="2000" d="M1858 1059v-41q-90 -7 -122 -32t-32 -87v-739q0 -59 32.5 -86.5t121.5 -34.5v-39h-568v39q98 7 134 33.5t36 87.5v696l-471 -737h-127l-471 708v-634q0 -73 39.5 -108.5t136.5 -45.5v-39h-422v39q91 10 126.5 45t35.5 109v706q0 60 -34.5 86t-127.5 33v41h383l492 -737 l467 737h371z"/>
    <glyph glyph-name="n.sc" horiz-adv-x="1560" d="M987 1059h430v-41q-90 -7 -121.5 -39.5t-31.5 -114.5v-864h-181l-684 819v-624q0 -81 37.5 -113t138.5 -43v-39h-430v39q97 11 129.5 41.5t32.5 114.5v704q0 60 -34.5 86t-127.5 33v41h371l655 -789v594q0 84 -36.5 113.5t-147.5 40.5v41z"/>
    <glyph glyph-name="nacute.sc" horiz-adv-x="1560" d="M963 1391l-181 -150l-12 10l92 217q23 74 51 106t70 32q37 0 59.5 -22.5t22.5 -57.5q0 -70 -102 -135zM987 1059h430v-41q-90 -7 -121.5 -39.5t-31.5 -114.5v-864h-181l-684 819v-624q0 -81 37.5 -113t138.5 -43v-39h-430v39q97 11 129.5 41.5t32.5 114.5v704 q0 60 -34.5 86t-127.5 33v41h371l655 -789v594q0 84 -36.5 113.5t-147.5 40.5v41z"/>
    <glyph glyph-name="ncaron.sc" horiz-adv-x="1560" d="M668 1378l-127 191l12 12l258 -182l254 182l12 -12l-127 -191q-42 -73 -72.5 -102t-68.5 -29t-70 30.5t-71 100.5zM987 1059h430v-41q-90 -7 -121.5 -39.5t-31.5 -114.5v-864h-181l-684 819v-624q0 -81 37.5 -113t138.5 -43v-39h-430v39q97 11 129.5 41.5t32.5 114.5v704 q0 60 -34.5 86t-127.5 33v41h371l655 -789v594q0 84 -36.5 113.5t-147.5 40.5v41z"/>
    <glyph glyph-name="uni0146.sc" horiz-adv-x="1560" d="M987 1059h430v-41q-90 -7 -121.5 -39.5t-31.5 -114.5v-864h-181l-684 819v-624q0 -81 37.5 -113t138.5 -43v-39h-430v39q97 11 129.5 41.5t32.5 114.5v704q0 60 -34.5 86t-127.5 33v41h371l655 -789v594q0 84 -36.5 113.5t-147.5 40.5v41zM797 -94q57 0 93 -44t36 -124 q0 -99 -63 -170.5t-179 -97.5l-12 34q156 61 159 220q-23 -13 -49 -13q-56 -6 -79 47q-22 50 2 99q27 54 92 49z"/>
    <glyph glyph-name="eng.sc" horiz-adv-x="1562" d="M987 1059h430v-41q-90 -7 -121.5 -39.5t-31.5 -114.5v-741q0 -529 -373 -529q-112 0 -186 67.5t-82 164.5l26 20q83 -129 238 -129q225 0 272 258l-760 846v-626q0 -81 37.5 -113t138.5 -43v-39h-430v39q97 11 129.5 41.5t32.5 114.5v704q0 60 -34.5 86t-127.5 33v41h371 l655 -721v526q0 84 -36.5 113.5t-147.5 40.5v41z"/>
    <glyph glyph-name="ntilde.sc" horiz-adv-x="1560" d="M664 1442q-72 0 -136 -119l-18 6q46 234 190 234q61 0 138 -62q76 -61 118 -61q75 0 131 121l17 -7q-43 -233 -193 -233q-57 0 -131 59q-74 62 -116 62zM987 1059h430v-41q-90 -7 -121.5 -39.5t-31.5 -114.5v-864h-181l-684 819v-624q0 -81 37.5 -113t138.5 -43v-39h-430 v39q97 11 129.5 41.5t32.5 114.5v704q0 60 -34.5 86t-127.5 33v41h371l655 -789v594q0 84 -36.5 113.5t-147.5 40.5v41z"/>
    <glyph glyph-name="o.sc" horiz-adv-x="1470" d="M1346 530q0 -247 -158 -405q-156 -156 -453 -156q-296 0 -452 156q-158 158 -158 405q0 242 158 400q160 157 452 157q296 0 453 -157q158 -158 158 -400zM375 530q0 -222 95 -349.5t265 -127.5t265.5 129t95.5 348q0 217 -95.5 344t-265.5 127t-265 -126.5t-95 -344.5z "/>
    <glyph glyph-name="oacute.sc" horiz-adv-x="1470" d="M887 1391l-180 -150l-13 10l92 217q23 74 51 106t70 32q37 0 59.5 -22.5t22.5 -57.5q0 -70 -102 -135zM1346 530q0 -247 -158 -405q-156 -156 -453 -156q-296 0 -452 156q-158 158 -158 405q0 242 158 400q160 157 452 157q296 0 453 -157q158 -158 158 -400zM375 530 q0 -222 95 -349.5t265 -127.5t265.5 129t95.5 348q0 217 -95.5 344t-265.5 127t-265 -126.5t-95 -344.5z"/>
    <glyph glyph-name="ocircumflex.sc" horiz-adv-x="1470" d="M991 1247l-254 185l-258 -185l-12 13l127 190q40 72 70.5 101.5t70.5 29.5t69.5 -28.5t72.5 -102.5l127 -190zM735 1087q296 0 453 -157q158 -158 158 -400q0 -247 -158 -405q-156 -156 -453 -156q-296 0 -452 156q-158 158 -158 405q0 242 158 400q160 157 452 157z M1096 530q0 217 -95.5 344t-265.5 127t-265 -126.5t-95 -344.5q0 -222 95 -349.5t265 -127.5t265.5 129t95.5 348z"/>
    <glyph glyph-name="odieresis.sc" horiz-adv-x="1470" d="M596 1327q-35 -35 -88 -35t-90 35q-35 37 -35 88t35 88q37 37 90 37t88 -37q37 -37 37 -88t-37 -88zM942 1292q-54 0 -89.5 36t-35.5 87q0 52 36 88.5t89 36.5t89 -36.5t36 -88.5q0 -51 -37 -87t-88 -36zM1346 530q0 -247 -158 -405q-156 -156 -453 -156q-296 0 -452 156 q-158 158 -158 405q0 242 158 400q160 157 452 157q296 0 453 -157q158 -158 158 -400zM375 530q0 -222 95 -349.5t265 -127.5t265.5 129t95.5 348q0 217 -95.5 344t-265.5 127t-265 -126.5t-95 -344.5z"/>
    <glyph glyph-name="ograve.sc" horiz-adv-x="1470" d="M780 1241l-182 150q-100 63 -100 135q0 35 22.5 57.5t57.5 22.5q43 0 71.5 -32t48.5 -106l95 -217zM1346 530q0 -247 -158 -405q-156 -156 -453 -156q-296 0 -452 156q-158 158 -158 405q0 242 158 400q160 157 452 157q296 0 453 -157q158 -158 158 -400zM375 530 q0 -222 95 -349.5t265 -127.5t265.5 129t95.5 348q0 217 -95.5 344t-265.5 127t-265 -126.5t-95 -344.5z"/>
    <glyph glyph-name="ohungarumlaut.sc" horiz-adv-x="1470" d="M723 1450l-113 -207l-16 4l4 236q-12 81 11 129.5t79 48.5q38 0 60 -23.5t22 -62.5q0 -51 -47 -125zM1006 1399l-183 -158l-12 10l104 242q37 123 117 123q37 0 59.5 -21.5t22.5 -56.5q0 -68 -108 -139zM1346 530q0 -247 -158 -405q-156 -156 -453 -156q-296 0 -452 156 q-158 158 -158 405q0 242 158 400q160 157 452 157q296 0 453 -157q158 -158 158 -400zM375 530q0 -222 95 -349.5t265 -127.5t265.5 129t95.5 348q0 217 -95.5 344t-265.5 127t-265 -126.5t-95 -344.5z"/>
    <glyph glyph-name="omacron.sc" horiz-adv-x="1470" d="M1040 1405h-608v80h608v-80zM1346 530q0 -247 -158 -405q-156 -156 -453 -156q-296 0 -452 156q-158 158 -158 405q0 242 158 400q160 157 452 157q296 0 453 -157q158 -158 158 -400zM375 530q0 -222 95 -349.5t265 -127.5t265.5 129t95.5 348q0 217 -95.5 344 t-265.5 127t-265 -126.5t-95 -344.5z"/>
    <glyph glyph-name="oslash.sc" horiz-adv-x="1470" d="M1323 1063l49 -57l-143 -119q117 -144 117 -357q0 -247 -158 -405q-156 -156 -453 -156q-268 0 -434 140l-147 -123l-50 57l144 121q-123 144 -123 366q0 242 158 400q160 157 452 157q279 0 443 -147zM375 530q0 -128 35 -231l624 522q-94 180 -299 180 q-170 0 -265 -126.5t-95 -344.5zM1096 530q0 120 -31 218l-625 -523q99 -172 295 -172q170 0 265.5 129t95.5 348z"/>
    <glyph glyph-name="otilde.sc" horiz-adv-x="1470" d="M590 1442q-71 0 -135 -119l-19 6q46 234 191 234q60 0 137 -62q76 -61 119 -61q75 0 131 121l16 -7q-43 -233 -192 -233q-57 0 -131 59q-74 62 -117 62zM1346 530q0 -247 -158 -405q-156 -156 -453 -156q-296 0 -452 156q-158 158 -158 405q0 242 158 400 q160 157 452 157q296 0 453 -157q158 -158 158 -400zM375 530q0 -222 95 -349.5t265 -127.5t265.5 129t95.5 348q0 217 -95.5 344t-265.5 127t-265 -126.5t-95 -344.5z"/>
    <glyph glyph-name="oe.sc" horiz-adv-x="2007" d="M1845 377l47 -8l-67 -416h-51q-5 28 -20.5 37.5t-63.5 9.5h-893q-328 0 -500 139.5t-172 390.5q0 246 172.5 386.5t499.5 140.5l845 2q49 0 65.5 10t21.5 37h49l86 -414l-49 -10q-52 111 -95 173.5t-88 86.5q-42 25 -72 31t-94 6h-270v-381h135q103 0 142 39 q43 40 61 180h49v-514h-49q-18 130 -59 174q-40 43 -144 43h-135v-440h287q71 0 108 7.5t82 35.5q48 29 88 88.5t84 165.5zM825 80h129v899h-129q-218 0 -334 -119.5t-116 -329.5q0 -213 115.5 -331.5t334.5 -118.5z"/>
    <glyph glyph-name="p.sc" horiz-adv-x="1292" d="M145 1059h605q238 0 348 -71.5t110 -225.5q0 -336 -460 -336h-209v-266q0 -61 41.5 -87.5t156.5 -33.5v-39h-592v39q86 7 119 35t33 86v739q0 60 -32.5 86t-119.5 33v41zM539 504h127q292 0 292 258q0 118 -72 167.5t-220 49.5h-127v-475z"/>
    <glyph glyph-name="thorn.sc" horiz-adv-x="1304" d="M539 827h233q230 0 336 -64.5t106 -201.5q0 -307 -444 -307h-231v-94q0 -61 41.5 -87.5t156.5 -33.5v-39h-592v39q86 7 119 35t33 86v739q0 60 -32.5 86t-119.5 33v41h545v-41q-87 -7 -119 -33t-32 -86v-72zM539 332h137q289 0 289 229q0 102 -71 145.5t-218 43.5h-137 v-418z"/>
    <glyph glyph-name="q.sc" horiz-adv-x="1474" d="M1348 47h30q14 -165 -44 -259.5t-199 -94.5q-111 0 -186 70t-134 208q-16 -2 -76 -2q-304 0 -458 154q-154 157 -154 403q0 247 154 404q157 157 458 157t455 -157t154 -404q0 -187 -85.5 -321t-250.5 -193q86 -139 186 -139q72 0 112 48.5t38 125.5zM739 1001 q-183 0 -272 -127q-90 -128 -90 -348q0 -223 88 -342q12 113 61.5 170.5t126.5 57.5q107 0 176 -97q47 -61 60 -86q29 -48 61 -108q150 117 150 405q0 225 -92.5 350t-268.5 125zM739 53q33 0 43 2q-64 171 -104 211q-29 29 -64 29q-89 0 -116 -150q89 -92 241 -92z"/>
    <glyph glyph-name="r.sc" horiz-adv-x="1435" d="M942 496l244 -336q39 -55 78.5 -81.5t107.5 -39.5v-39h-393q-15 82 -90 193l-195 288h-162v-321q0 -61 36 -87.5t134 -33.5v-39h-557v39q87 7 119.5 33.5t32.5 87.5v739q0 60 -32.5 86t-119.5 33v41h678q398 0 398 -268q0 -243 -279 -295zM692 979h-160v-438h148 q299 0 299 231q0 114 -71.5 160.5t-215.5 46.5z"/>
    <glyph glyph-name="racute.sc" horiz-adv-x="1435" d="M842 1391l-180 -150l-13 10l92 217q23 74 51 106t70 32q37 0 59.5 -22.5t22.5 -57.5q0 -70 -102 -135zM942 496l244 -336q39 -55 78.5 -81.5t107.5 -39.5v-39h-393q-15 82 -90 193l-195 288h-162v-321q0 -61 36 -87.5t134 -33.5v-39h-557v39q87 7 119.5 33.5t32.5 87.5 v739q0 60 -32.5 86t-119.5 33v41h678q398 0 398 -268q0 -243 -279 -295zM692 979h-160v-438h148q299 0 299 231q0 114 -71.5 160.5t-215.5 46.5z"/>
    <glyph glyph-name="rcaron.sc" horiz-adv-x="1435" d="M549 1378l-127 191l12 12l258 -182l254 182l12 -12l-127 -191q-42 -73 -72.5 -102t-68.5 -29t-70 30.5t-71 100.5zM942 496l244 -336q39 -55 78.5 -81.5t107.5 -39.5v-39h-393q-15 82 -90 193l-195 288h-162v-321q0 -61 36 -87.5t134 -33.5v-39h-557v39q87 7 119.5 33.5 t32.5 87.5v739q0 60 -32.5 86t-119.5 33v41h678q398 0 398 -268q0 -243 -279 -295zM692 979h-160v-438h148q299 0 299 231q0 114 -71.5 160.5t-215.5 46.5z"/>
    <glyph glyph-name="uni0157.sc" horiz-adv-x="1435" d="M942 496l244 -336q39 -55 78.5 -81.5t107.5 -39.5v-39h-393q-15 82 -90 193l-195 288h-162v-321q0 -61 36 -87.5t134 -33.5v-39h-557v39q87 7 119.5 33.5t32.5 87.5v739q0 60 -32.5 86t-119.5 33v41h678q398 0 398 -268q0 -243 -279 -295zM692 979h-160v-438h148 q299 0 299 231q0 114 -71.5 160.5t-215.5 46.5zM788 -94q57 0 93.5 -44.5t36.5 -123.5q0 -99 -63 -170.5t-179 -97.5l-12 34q156 61 159 220q-23 -13 -49 -13q-56 -6 -79 47q-23 50 1 99q27 54 92 49z"/>
    <glyph glyph-name="s.sc" horiz-adv-x="1191" d="M260 -41h-61l-56 440l47 4q43 -158 163.5 -252t281.5 -94q104 0 162.5 40.5t58.5 117.5q0 72 -57 115q-19 19 -70 39q-56 22 -197 59q-184 48 -283 134.5t-99 232.5q0 136 90.5 214t253.5 78q98 0 202 -40q109 -41 129 -41q57 -3 43 96h62l78 -430l-50 -6 q-50 150 -168 241.5t-266 91.5q-89 0 -136.5 -36.5t-47.5 -100.5q0 -65 53 -114q24 -21 66 -37l73 -29q31 -10 91 -25q148 -44 241 -94q89 -43 134.5 -109t45.5 -165q0 -151 -104 -235.5t-278 -84.5q-108 0 -224 35q-112 37 -129 37q-29 3 -41.5 -17.5t-7.5 -64.5z"/>
    <glyph glyph-name="sacute.sc" horiz-adv-x="1191" d="M717 1391l-180 -150l-13 10l92 217q23 74 51 106t70 32q37 0 59.5 -22.5t22.5 -57.5q0 -70 -102 -135zM260 -41h-61l-56 440l47 4q43 -158 163.5 -252t281.5 -94q104 0 162.5 40.5t58.5 117.5q0 72 -57 115q-19 19 -70 39q-56 22 -197 59q-184 48 -283 134.5t-99 232.5 q0 136 90.5 214t253.5 78q98 0 202 -40q109 -41 129 -41q57 -3 43 96h62l78 -430l-50 -6q-50 150 -168 241.5t-266 91.5q-89 0 -136.5 -36.5t-47.5 -100.5q0 -65 53 -114q24 -21 66 -37l73 -29q31 -10 91 -25q148 -44 241 -94q89 -43 134.5 -109t45.5 -165 q0 -151 -104 -235.5t-278 -84.5q-108 0 -224 35q-112 37 -129 37q-29 3 -41.5 -17.5t-7.5 -64.5z"/>
    <glyph glyph-name="scaron.sc" horiz-adv-x="1191" d="M422 1378l-127 191l12 12l258 -182l254 182l12 -12l-126 -191q-42 -73 -73 -102t-69 -29t-70 30.5t-71 100.5zM623 657q148 -44 241 -94q89 -43 134.5 -109t45.5 -165q0 -151 -104 -235.5t-278 -84.5q-108 0 -224 35q-112 37 -129 37q-29 3 -41.5 -17.5t-7.5 -64.5h-61 l-56 440l47 4q43 -158 163.5 -252t281.5 -94q104 0 162.5 40.5t58.5 117.5q0 72 -57 115q-19 19 -70 39q-56 22 -197 59q-184 48 -283 134.5t-99 232.5q0 136 90.5 214t253.5 78q98 0 202 -40q109 -41 129 -41q57 -3 43 96h62l78 -430l-50 -6q-50 150 -168 241.5t-266 91.5 q-89 0 -136.5 -36.5t-47.5 -100.5q0 -65 53 -114q24 -21 66 -37l73 -29q31 -10 91 -25z"/>
    <glyph glyph-name="scedilla.sc" horiz-adv-x="1191" d="M662 -31h-11l-14 -80q47 15 98 15q154 0 154 -142q0 -80 -60 -125t-155 -45q-176 0 -275 129l11 13q86 -62 208 -62q63 0 100.5 23.5t37.5 66.5q0 70 -86 70q-48 0 -115 -20l29 161q-70 8 -164 37q-90 28 -111 31q-29 3 -41.5 -17.5t-7.5 -64.5h-61l-56 440l47 4 q43 -158 163.5 -252t281.5 -94q104 0 162.5 40.5t58.5 117.5q0 72 -57 115q-19 19 -70 39q-56 22 -197 59q-184 48 -283 134.5t-99 232.5q0 136 90.5 214t253.5 78q98 0 202 -40q109 -41 129 -41q57 -3 43 96h62l78 -430l-50 -6q-50 150 -168 241.5t-266 91.5 q-89 0 -136.5 -36.5t-47.5 -100.5q0 -65 53 -114q24 -21 66 -37l73 -29q31 -10 91 -25q148 -44 241 -94q89 -43 134.5 -109t45.5 -165q0 -151 -104 -235.5t-278 -84.5z"/>
    <glyph glyph-name="uni0219.sc" horiz-adv-x="1191" d="M623 657q148 -44 241 -94q89 -43 134.5 -109t45.5 -165q0 -151 -104 -235.5t-278 -84.5q-108 0 -224 35q-112 37 -129 37q-29 3 -41.5 -17.5t-7.5 -64.5h-61l-56 440l47 4q43 -158 163.5 -252t281.5 -94q104 0 162.5 40.5t58.5 117.5q0 72 -57 115q-19 19 -70 39 q-56 22 -197 59q-184 48 -283 134.5t-99 232.5q0 136 90.5 214t253.5 78q98 0 202 -40q109 -41 129 -41q57 -3 43 96h62l78 -430l-50 -6q-50 150 -168 241.5t-266 91.5q-89 0 -136.5 -36.5t-47.5 -100.5q0 -65 53 -114q24 -21 66 -37l73 -29q31 -10 91 -25zM623 -90 q57 0 93 -44t36 -124q0 -99 -63 -170.5t-179 -97.5l-12 34q156 61 159 220q-23 -13 -49 -13q-56 -6 -79 47q-22 50 2 99q27 54 92 49z"/>
    <glyph glyph-name="germandbls.sc" horiz-adv-x="1587" d="M1309 948l-265 -373q165 -26 261 -104t96 -199q0 -157 -121 -231q-123 -72 -293 -72q-167 0 -258.5 60.5t-91.5 169.5q0 95 62 144t165 26q-57 -69 -57 -168q0 -72 45 -111t127 -39q86 0 143.5 54.5t57.5 154.5q0 130 -95.5 202.5t-259.5 80.5l-8 28l260 379 q-111 51 -266 51q-152 0 -225.5 -79t-73.5 -263v-659h-389v37q89 7 120 34.5t31 90.5v413q0 274 123.5 393t403.5 119q269 0 508 -139z"/>
    <glyph glyph-name="t.sc" horiz-adv-x="1347" d="M1145 1106h49l98 -426l-45 -10q-56 110 -100.5 171t-93.5 91q-49 29 -92.5 38t-122.5 9h-43v-819q0 -61 45 -87.5t166 -33.5v-39h-662v39q121 7 165 33.5t44 87.5v819h-51q-145 0 -228 -59q-79 -58 -174 -250l-45 10l101 426h47q5 -27 21.5 -37t62.5 -10h770q49 0 66 10 t22 37z"/>
    <glyph glyph-name="tbar.sc" horiz-adv-x="1347" d="M1145 1106h49l98 -426l-45 -10q-56 110 -100.5 171t-93.5 91q-49 29 -92.5 38t-122.5 9h-43v-391h286v-80h-286v-348q0 -61 45 -87.5t166 -33.5v-39h-662v39q121 7 165 33.5t44 87.5v348h-291v80h291v391h-51q-145 0 -228 -59q-79 -58 -174 -250l-45 10l101 426h47 q5 -27 21.5 -37t62.5 -10h770q49 0 66 10t22 37z"/>
    <glyph glyph-name="tcaron.sc" horiz-adv-x="1347" d="M532 1378l-126 191l12 12l258 -182l254 182l12 -12l-127 -191q-42 -73 -72.5 -102t-68.5 -29t-70.5 30.5t-71.5 100.5zM1145 1106h49l98 -426l-45 -10q-56 110 -100.5 171t-93.5 91q-49 29 -92.5 38t-122.5 9h-43v-819q0 -61 45 -87.5t166 -33.5v-39h-662v39 q121 7 165 33.5t44 87.5v819h-51q-145 0 -228 -59q-79 -58 -174 -250l-45 10l101 426h47q5 -27 21.5 -37t62.5 -10h770q49 0 66 10t22 37z"/>
    <glyph glyph-name="uni0163.sc" horiz-adv-x="1347" d="M1145 1106h49l98 -426l-45 -10q-56 110 -100.5 171t-93.5 91q-49 29 -92.5 38t-122.5 9h-43v-819q0 -61 45 -87.5t166 -33.5v-39h-295l-21 -115q46 15 98 15q154 0 154 -142q0 -80 -60 -125t-155 -45q-175 0 -274 129l10 13q86 -62 209 -62q63 0 100 23.5t37 66.5 q0 70 -86 70q-45 0 -115 -21l35 193h-299v39q121 7 165 33.5t44 87.5v819h-51q-145 0 -228 -59q-79 -58 -174 -250l-45 10l101 426h47q5 -27 21.5 -37t62.5 -10h770q49 0 66 10t22 37z"/>
    <glyph glyph-name="uni021B.sc" horiz-adv-x="1347" d="M1145 1106h49l98 -426l-45 -10q-56 110 -100.5 171t-93.5 91q-49 29 -92.5 38t-122.5 9h-43v-819q0 -61 45 -87.5t166 -33.5v-39h-662v39q121 7 165 33.5t44 87.5v819h-51q-145 0 -228 -59q-79 -58 -174 -250l-45 10l101 426h47q5 -27 21.5 -37t62.5 -10h770q49 0 66 10 t22 37zM676 -94q57 0 93 -44t36 -124q0 -99 -63 -170.5t-179 -97.5l-12 34q157 62 160 220q-23 -13 -49 -13q-56 -6 -79 47q-23 50 1 99q27 54 92 49z"/>
    <glyph glyph-name="u.sc" horiz-adv-x="1540" d="M897 1059h535v-41q-85 -7 -115.5 -32.5t-30.5 -86.5v-393q0 -537 -518 -537q-265 0 -387.5 136t-122.5 401v393q0 60 -32.5 86t-119.5 33v41h537v-41q-84 -7 -113.5 -32.5t-29.5 -86.5v-461q0 -193 64.5 -287t203.5 -94q281 0 281 381v461q0 61 -32.5 86t-119.5 33v41z "/>
    <glyph glyph-name="uacute.sc" horiz-adv-x="1540" d="M922 1391l-181 -150l-12 10l92 217q23 74 51 106t70 32q37 0 59.5 -22.5t22.5 -57.5q0 -70 -102 -135zM897 1059h535v-41q-85 -7 -115.5 -32.5t-30.5 -86.5v-393q0 -537 -518 -537q-265 0 -387.5 136t-122.5 401v393q0 60 -32.5 86t-119.5 33v41h537v-41 q-84 -7 -113.5 -32.5t-29.5 -86.5v-461q0 -193 64.5 -287t203.5 -94q281 0 281 381v461q0 61 -32.5 86t-119.5 33v41z"/>
    <glyph glyph-name="ucircumflex.sc" horiz-adv-x="1540" d="M1026 1247l-254 185l-258 -185l-12 13l127 190q40 72 70.5 101.5t70.5 29.5t69 -28t72 -103l127 -190zM897 1059h535v-41q-85 -7 -115.5 -32.5t-30.5 -86.5v-393q0 -537 -518 -537q-265 0 -387.5 136t-122.5 401v393q0 60 -32.5 86t-119.5 33v41h537v-41 q-84 -7 -113.5 -32.5t-29.5 -86.5v-461q0 -193 64.5 -287t203.5 -94q281 0 281 381v461q0 61 -32.5 86t-119.5 33v41z"/>
    <glyph glyph-name="udieresis.sc" horiz-adv-x="1540" d="M631 1327q-35 -35 -88 -35t-90 35q-35 37 -35 88t37 88t88 37t88 -37t37 -88t-37 -88zM977 1292q-53 0 -89 36t-36 87t37 88t88 37t88 -37t37 -88t-37 -87t-88 -36zM897 1059h535v-41q-85 -7 -115.5 -32.5t-30.5 -86.5v-393q0 -537 -518 -537q-265 0 -387.5 136 t-122.5 401v393q0 60 -32.5 86t-119.5 33v41h537v-41q-84 -7 -113.5 -32.5t-29.5 -86.5v-461q0 -193 64.5 -287t203.5 -94q281 0 281 381v461q0 61 -32.5 86t-119.5 33v41z"/>
    <glyph glyph-name="ugrave.sc" horiz-adv-x="1540" d="M815 1241l-182 150q-101 64 -101 135q0 35 22.5 57.5t57.5 22.5q43 0 72 -32t49 -106l94 -217zM897 1059h535v-41q-85 -7 -115.5 -32.5t-30.5 -86.5v-393q0 -537 -518 -537q-265 0 -387.5 136t-122.5 401v393q0 60 -32.5 86t-119.5 33v41h537v-41q-84 -7 -113.5 -32.5 t-29.5 -86.5v-461q0 -193 64.5 -287t203.5 -94q281 0 281 381v461q0 61 -32.5 86t-119.5 33v41z"/>
    <glyph glyph-name="uhungarumlaut.sc" horiz-adv-x="1540" d="M758 1450l-113 -207l-16 4l4 236q-12 81 11 129.5t79 48.5q38 0 60 -23.5t22 -62.5q0 -51 -47 -125zM1040 1399l-182 -158l-12 10l104 242q38 123 117 123q37 0 59.5 -21.5t22.5 -56.5q0 -68 -109 -139zM897 1059h535v-41q-85 -7 -115.5 -32.5t-30.5 -86.5v-393 q0 -537 -518 -537q-265 0 -387.5 136t-122.5 401v393q0 60 -32.5 86t-119.5 33v41h537v-41q-84 -7 -113.5 -32.5t-29.5 -86.5v-461q0 -193 64.5 -287t203.5 -94q281 0 281 381v461q0 61 -32.5 86t-119.5 33v41z"/>
    <glyph glyph-name="umacron.sc" horiz-adv-x="1540" d="M467 1485h608v-80h-608v80zM897 1059h535v-41q-85 -7 -115.5 -32.5t-30.5 -86.5v-393q0 -537 -518 -537q-265 0 -387.5 136t-122.5 401v393q0 60 -32.5 86t-119.5 33v41h537v-41q-84 -7 -113.5 -32.5t-29.5 -86.5v-461q0 -193 64.5 -287t203.5 -94q281 0 281 381v461 q0 61 -32.5 86t-119.5 33v41z"/>
    <glyph glyph-name="uogonek.sc" horiz-adv-x="1540" d="M897 1059h535v-41q-85 -7 -115.5 -32.5t-30.5 -86.5v-393q0 -403 -291 -504q-93 -47 -147.5 -115t-54.5 -135q0 -69 65 -69q69 0 137 51l11 -13q-77 -135 -236 -135q-125 0 -125 121q0 152 203 266q-66 -4 -80 -4q-265 0 -387.5 136t-122.5 401v393q0 60 -32.5 86 t-119.5 33v41h537v-41q-84 -7 -113.5 -32.5t-29.5 -86.5v-461q0 -193 64.5 -287t203.5 -94q281 0 281 381v461q0 61 -32.5 86t-119.5 33v41z"/>
    <glyph glyph-name="uring.sc" horiz-adv-x="1540" d="M770 1237q-96 0 -156.5 50t-60.5 143q0 91 60.5 140.5t156.5 49.5q95 0 155 -49.5t60 -140.5q0 -93 -60 -143t-155 -50zM852 1516q-29 35 -82 35t-84 -35q-31 -32 -31 -86t31 -89t84 -35t82 35q31 35 31 89t-31 86zM897 1059h535v-41q-85 -7 -115.5 -32.5t-30.5 -86.5 v-393q0 -537 -518 -537q-265 0 -387.5 136t-122.5 401v393q0 60 -32.5 86t-119.5 33v41h537v-41q-84 -7 -113.5 -32.5t-29.5 -86.5v-461q0 -193 64.5 -287t203.5 -94q281 0 281 381v461q0 61 -32.5 86t-119.5 33v41z"/>
    <glyph glyph-name="v.sc" horiz-adv-x="1456" d="M975 1018v41h424v-41q-78 -7 -117.5 -41t-81.5 -125l-377 -852h-186l-414 879q-33 70 -68 101.5t-98 37.5v41h559v-41q-84 -8 -121 -25.5t-35.5 -45t19.5 -66.5l330 -705l303 682q15 32 19 54.5t-4.5 47t-46.5 39.5t-105 19z"/>
    <glyph glyph-name="w.sc" horiz-adv-x="2267" d="M1788 1018v41h420v-41q-77 -7 -117.5 -43t-83.5 -131l-379 -844h-176l-315 692l-324 -692h-174l-414 872q-34 72 -71 106t-97 40v41h559v-41q-109 -12 -137 -48.5t10 -111.5l318 -674l283 609l-29 63q-17 39 -41 74q-21 32 -62.5 57t-95.5 31v41h584v-41 q-111 -12 -139.5 -53t12.5 -107l303 -678l289 645q46 88 17.5 137t-140.5 56z"/>
    <glyph glyph-name="wacute.sc" horiz-adv-x="2267" d="M1335 1391l-180 -150l-12 10l92 217q23 74 51 106t70 32q37 0 59.5 -22.5t22.5 -57.5q0 -70 -103 -135zM1788 1018v41h420v-41q-77 -7 -117.5 -43t-83.5 -131l-379 -844h-176l-315 692l-324 -692h-174l-414 872q-34 72 -71 106t-97 40v41h559v-41q-109 -12 -137 -48.5 t10 -111.5l318 -674l283 609l-29 63q-17 39 -41 74q-21 32 -62.5 57t-95.5 31v41h584v-41q-111 -12 -139.5 -53t12.5 -107l303 -678l289 645q46 88 17.5 137t-140.5 56z"/>
    <glyph glyph-name="wcircumflex.sc" horiz-adv-x="2267" d="M1438 1247l-254 185l-258 -185l-13 13l127 190q40 71 71 101t71 30t69 -28t72 -103l127 -190zM1788 1018v41h420v-41q-77 -7 -117.5 -43t-83.5 -131l-379 -844h-176l-315 692l-324 -692h-174l-414 872q-34 72 -71 106t-97 40v41h559v-41q-109 -12 -137 -48.5t10 -111.5 l318 -674l283 609l-29 63q-17 39 -41 74q-21 32 -62.5 57t-95.5 31v41h584v-41q-111 -12 -139.5 -53t12.5 -107l303 -678l289 645q46 88 17.5 137t-140.5 56z"/>
    <glyph glyph-name="wdieresis.sc" horiz-adv-x="2267" d="M1044 1327q-35 -35 -88 -35t-90 35q-35 37 -35 88t37 88t88 37t88 -37t37 -88t-37 -88zM1391 1292q-53 0 -89 36t-36 87t37 88t88 37t88 -37t37 -88t-37 -87t-88 -36zM1788 1018v41h420v-41q-77 -7 -117.5 -43t-83.5 -131l-379 -844h-176l-315 692l-324 -692h-174 l-414 872q-34 72 -71 106t-97 40v41h559v-41q-109 -12 -137 -48.5t10 -111.5l318 -674l283 609l-29 63q-17 39 -41 74q-21 32 -62.5 57t-95.5 31v41h584v-41q-111 -12 -139.5 -53t12.5 -107l303 -678l289 645q46 88 17.5 137t-140.5 56z"/>
    <glyph glyph-name="wgrave.sc" horiz-adv-x="2267" d="M1227 1241l-183 150q-100 63 -100 135q0 35 22.5 57.5t57.5 22.5q43 0 72 -32t49 -106l94 -217zM1788 1018v41h420v-41q-77 -7 -117.5 -43t-83.5 -131l-379 -844h-176l-315 692l-324 -692h-174l-414 872q-34 72 -71 106t-97 40v41h559v-41q-109 -12 -137 -48.5t10 -111.5 l318 -674l283 609l-29 63q-17 39 -41 74q-21 32 -62.5 57t-95.5 31v41h584v-41q-111 -12 -139.5 -53t12.5 -107l303 -678l289 645q46 88 17.5 137t-140.5 56z"/>
    <glyph glyph-name="x.sc" horiz-adv-x="1429" d="M831 561l355 -430q53 -65 166 -92v-39h-568v39q101 7 118 45.5t-42 95.5l-242 295l-219 -293q-54 -69 -32.5 -103t125.5 -40v-39h-414v39q71 11 119 41q41 24 98 100l272 359l-331 403q-32 39 -58 54t-82 22v41h572v-41q-112 -4 -134 -38t39 -103l209 -254l205 251 q53 78 33 108t-121 36v41h420v-41q-72 -8 -119 -41q-37 -23 -104 -103z"/>
    <glyph glyph-name="y.sc" horiz-adv-x="1339" d="M887 1018v41h391v-41q-73 -12 -118.5 -45t-94.5 -105l-256 -399v-309q0 -61 30 -87.5t113 -33.5v-39h-534v39q87 7 118 33t31 88v317l-377 467q-27 36 -53 51.5t-76 22.5v41h584v-41q-102 -4 -132.5 -37.5t13.5 -87.5l252 -320l197 308q44 66 23.5 98.5t-111.5 38.5z"/>
    <glyph glyph-name="yacute.sc" horiz-adv-x="1339" d="M915 1391l-180 -150l-12 10l92 217q23 74 51 106t70 32q37 0 59.5 -22.5t22.5 -57.5q0 -70 -103 -135zM887 1018v41h391v-41q-73 -12 -118.5 -45t-94.5 -105l-256 -399v-309q0 -61 30 -87.5t113 -33.5v-39h-534v39q87 7 118 33t31 88v317l-377 467q-27 36 -53 51.5 t-76 22.5v41h584v-41q-102 -4 -132.5 -37.5t13.5 -87.5l252 -320l197 308q44 66 23.5 98.5t-111.5 38.5z"/>
    <glyph glyph-name="ycircumflex.sc" horiz-adv-x="1339" d="M1020 1247l-254 185l-258 -185l-12 13l127 190q40 72 70.5 101.5t70.5 29.5t69 -28t72 -103l127 -190zM887 1018v41h391v-41q-73 -12 -118.5 -45t-94.5 -105l-256 -399v-309q0 -61 30 -87.5t113 -33.5v-39h-534v39q87 7 118 33t31 88v317l-377 467q-27 36 -53 51.5 t-76 22.5v41h584v-41q-102 -4 -132.5 -37.5t13.5 -87.5l252 -320l197 308q44 66 23.5 98.5t-111.5 38.5z"/>
    <glyph glyph-name="ydieresis.sc" horiz-adv-x="1339" d="M625 1327q-35 -35 -88.5 -35t-90.5 35q-35 37 -35 88t35 88q37 37 90.5 37t88.5 -37q37 -37 37 -88t-37 -88zM971 1292q-53 0 -89 36t-36 87q0 52 36 88.5t89 36.5t89 -36.5t36 -88.5q0 -51 -37 -87t-88 -36zM887 1018v41h391v-41q-73 -12 -118.5 -45t-94.5 -105 l-256 -399v-309q0 -61 30 -87.5t113 -33.5v-39h-534v39q87 7 118 33t31 88v317l-377 467q-27 36 -53 51.5t-76 22.5v41h584v-41q-102 -4 -132.5 -37.5t13.5 -87.5l252 -320l197 308q44 66 23.5 98.5t-111.5 38.5z"/>
    <glyph glyph-name="ygrave.sc" horiz-adv-x="1339" d="M809 1241l-182 150q-101 64 -101 135q0 35 22.5 57.5t57.5 22.5q43 0 72 -32t49 -106l94 -217zM887 1018v41h391v-41q-73 -12 -118.5 -45t-94.5 -105l-256 -399v-309q0 -61 30 -87.5t113 -33.5v-39h-534v39q87 7 118 33t31 88v317l-377 467q-27 36 -53 51.5t-76 22.5v41 h584v-41q-102 -4 -132.5 -37.5t13.5 -87.5l252 -320l197 308q44 66 23.5 98.5t-111.5 38.5z"/>
    <glyph glyph-name="z.sc" horiz-adv-x="1331" d="M1165 432l43 -8l-108 -473h-49q-6 29 -24.5 39t-65.5 10h-789v45l676 936h-250q-99 0 -158 -20q-140 -44 -262 -314l-43 8l98 451h50q5 -27 21 -37t58 -10h803v-45l-676 -934h224q168 0 262 67q96 69 190 285z"/>
    <glyph glyph-name="zacute.sc" horiz-adv-x="1331" d="M829 1391l-180 -150l-12 10l92 217q23 74 51 106t70 32q37 0 59.5 -22.5t22.5 -57.5q0 -70 -103 -135zM1165 432l43 -8l-108 -473h-49q-6 29 -24.5 39t-65.5 10h-789v45l676 936h-250q-99 0 -158 -20q-140 -44 -262 -314l-43 8l98 451h50q5 -27 21 -37t58 -10h803v-45 l-676 -934h224q168 0 262 67q96 69 190 285z"/>
    <glyph glyph-name="zcaron.sc" horiz-adv-x="1331" d="M537 1378l-127 191l12 12l258 -182l254 182l12 -12l-127 -191q-42 -73 -72.5 -102t-68.5 -29t-70 30.5t-71 100.5zM1165 432l43 -8l-108 -473h-49q-6 29 -24.5 39t-65.5 10h-789v45l676 936h-250q-99 0 -158 -20q-140 -44 -262 -314l-43 8l98 451h50q5 -27 21 -37t58 -10 h803v-45l-676 -934h224q168 0 262 67q96 69 190 285z"/>
    <glyph glyph-name="zdotaccent.sc" horiz-adv-x="1331" d="M674 1272q-60 0 -99.5 39.5t-39.5 99.5q0 59 40.5 100t98.5 41q60 0 100.5 -40.5t40.5 -100.5q0 -57 -42 -98t-99 -41zM1165 432l43 -8l-108 -473h-49q-6 29 -24.5 39t-65.5 10h-789v45l676 936h-250q-99 0 -158 -20q-140 -44 -262 -314l-43 8l98 451h50q5 -27 21 -37 t58 -10h803v-45l-676 -934h224q168 0 262 67q96 69 190 285z"/>
    <glyph glyph-name="zero.osf" horiz-adv-x="1466" d="M156 526q0 261 151.5 411t425.5 150t426 -150t152 -411q0 -259 -151.5 -408t-426.5 -149t-426 149t-151 408zM473 174q89 -123 260 -123q173 0 258 123q88 122 88 352t-88 355q-85 125 -258 125q-172 0 -260 -125t-88 -355t88 -352z"/>
    <glyph glyph-name="one.osf" horiz-adv-x="849" d="M535 1079v-880q0 -76 37.5 -111.5t138.5 -48.5v-39h-590v37q110 13 151 49t41 113v739q-83 -45 -137 -45q-49 0 -64.5 43.5t11.5 105.5q37 -43 151 -34q116 9 228 71h33z"/>
    <glyph glyph-name="two.osf" horiz-adv-x="1267" d="M1116 393l37 -2l-70 -461h-36q-12 41 -34 55.5t-73 14.5h-827v88q367 146 540.5 313t173.5 367q0 238 -256 238q-122 0 -191 -63t-69 -165q0 -140 84 -227q-134 -23 -212.5 36.5t-78.5 176.5q0 148 134 235q131 88 335 88q486 0 486 -335q0 -210 -195 -361 q-180 -140 -479 -258l424 29q130 9 197 57q62 45 110 174z"/>
    <glyph glyph-name="three.osf" horiz-adv-x="1257" d="M668 354q225 -11 333.5 -88.5t108.5 -238.5q0 -172 -140 -265.5t-403 -93.5q-235 0 -366 76.5t-131 218.5q0 117 82 178q85 63 204 29q-82 -67 -82 -199q0 -103 73.5 -164t211.5 -61q145 0 232.5 72.5t87.5 199.5q0 291 -416 291h-162v84h162q111 0 190.5 31.5 t118.5 87.5q70 102 70 231q0 265 -262 265q-125 0 -189.5 -57t-64.5 -158q0 -121 80 -189q-131 -31 -206 24t-75 165q0 137 119 215.5t336 78.5q493 0 493 -348q0 -329 -405 -385z"/>
    <glyph glyph-name="four.osf" horiz-adv-x="1378" d="M1255 334l35 -8l-92 -396h-33q-5 38 -21.5 54t-53.5 16h-125v-303h-220v303h-661v117l666 940h215v-932h22q107 0 158 39t110 170zM745 922l-563 -799l563 2v797z"/>
    <glyph glyph-name="five.osf" horiz-adv-x="1228" d="M602 467q234 0 359.5 -95t125.5 -286q0 -222 -147 -324q-144 -100 -389 -100q-226 0 -344.5 74.5t-118.5 216.5q0 107 78.5 161t200.5 25q-60 -57 -60 -186q0 -100 62.5 -154.5t177.5 -54.5q291 0 291 334q0 144 -81.5 221.5t-226.5 77.5q-209 0 -362 -84v764h702 q66 0 94.5 13t51.5 56l35 -4l-52 -270h-747v-446q168 61 350 61z"/>
    <glyph glyph-name="six.osf" horiz-adv-x="1343" d="M829 864q377 0 377 -411q0 -226 -139.5 -355t-386.5 -129q-539 0 -539 750q0 229 64 397q65 175 213.5 277t359.5 102q185 0 299 -63q117 -65 117 -197q0 -122 -94 -168q-92 -44 -170 -16q71 62 71 180q0 89 -61 135.5t-162 46.5q-204 0 -304.5 -166.5t-100.5 -523.5 q0 -107 6 -195q58 157 171.5 246.5t278.5 89.5zM682 51q142 0 217.5 100.5t75.5 284.5q0 326 -213 326q-133 0 -234 -107q-99 -102 -137 -254q26 -183 96.5 -266.5t194.5 -83.5z"/>
    <glyph glyph-name="seven.osf" horiz-adv-x="1110" d="M291 1057h809v-53q-500 -518 -500 -1004q0 -166 64 -227q-81 -41 -154.5 -44.5t-122.5 39.5t-49 130q0 194 147 452q142 250 363 506h-442q-130 0 -189 -53q-54 -51 -98 -187l-47 2l73 508h45q6 -39 27 -54t74 -15z"/>
    <glyph glyph-name="eight.osf" horiz-adv-x="1255" d="M760 838q208 -107 297 -205q98 -104 98 -275q0 -181 -137 -285t-395 -104q-525 0 -525 353q0 162 109 268q107 101 274 155q-160 96 -228.5 192.5t-68.5 215.5q0 161 123 251.5t338 90.5q225 0 339 -80t114 -221q0 -261 -338 -356zM371 1214q0 -184 313 -340 q221 111 221 316q0 109 -69 166t-195 57q-127 0 -198.5 -53t-71.5 -146zM627 51q342 0 342 250q0 114 -86 197q-85 85 -293 188l-25 12q-274 -126 -274 -374q0 -120 88.5 -196.5t247.5 -76.5z"/>
    <glyph glyph-name="nine.osf" horiz-adv-x="1286" d="M606 1087q551 0 551 -716q0 -336 -152.5 -519.5t-449.5 -183.5q-218 0 -337.5 77t-119.5 210q0 106 70.5 156t200.5 24q-66 -72 -66 -186q0 -93 65.5 -147t186.5 -54q195 0 283 147t88 467q0 30 -4 162q-58 -111 -167.5 -175t-254.5 -64q-188 0 -298 97t-110 288 q0 196 137.5 306.5t376.5 110.5zM569 375q121 0 215 76q96 78 125 188q-26 197 -99.5 283t-203.5 86q-135 0 -212 -90t-77 -240q0 -140 70 -221.5t182 -81.5z"/>
    <glyph glyph-name="zero.tf" horiz-adv-x="1433" d="M94 727q0 348 158 559q156 209 465 209t465 -209q157 -210 157 -559q0 -346 -157 -553q-156 -205 -465 -205t-465 205q-158 208 -158 553zM1090 727q0 682 -373 682t-373 -682q0 -670 373 -670t373 670z"/>
    <glyph glyph-name="one.tf" horiz-adv-x="1433" d="M877 1477v-1280q0 -79 63 -113t254 -43v-41h-909v41q209 9 278 43q74 35 74 113v1149q-215 -101 -315 -101q-59 0 -74 53q-15 54 12 101q74 -36 256 -15q178 24 326 93h35z"/>
    <glyph glyph-name="two.tf" horiz-adv-x="1433" d="M1270 528l41 -10l-97 -588h-47q-7 41 -28.5 55.5t-69.5 14.5h-913v68q340 193 561 462q225 273 225 539q0 161 -72.5 248.5t-216.5 87.5q-143 0 -220 -77.5t-77 -205.5q0 -198 138 -268q-154 -43 -253.5 28.5t-99.5 221.5q0 169 142 278q143 107 387 107 q255 0 389.5 -109.5t134.5 -326.5q0 -127 -67.5 -259t-188.5 -251q-225 -222 -530 -398l456 31q77 6 116 13.5t81 25.5q65 30 108 96.5t101 216.5z"/>
    <glyph glyph-name="three.tf" horiz-adv-x="1433" d="M778 758q492 -40 492 -389q0 -194 -153.5 -297t-457.5 -103q-236 0 -365.5 84.5t-129.5 243.5q0 126 92 188q91 61 223 31q-106 -63 -106 -207q0 -118 75.5 -186t210.5 -68q166 0 263.5 80.5t97.5 224.5q0 61 -11.5 110.5t-43.5 97.5t-83 80t-134.5 51.5t-194.5 19.5 h-158v80h158q416 0 416 342q0 130 -72.5 200t-206.5 70q-126 0 -197 -61t-71 -166q0 -141 100 -187q-146 -37 -231.5 14.5t-85.5 166.5q0 144 134.5 230.5t367.5 86.5q512 0 512 -362q0 -175 -125 -263q-130 -92 -316 -112z"/>
    <glyph glyph-name="four.tf" horiz-adv-x="1433" d="M1180 362h-129v-165q0 -81 41.5 -115.5t160.5 -44.5v-37h-663v37q130 10 175.5 44t45.5 116v165h-739v136l721 966h258v-964h59q82 0 127 39q51 44 100 157l31 -10l-82 -405h-35q-7 49 -21.5 65t-49.5 16zM811 1352l-637 -854l637 2v852z"/>
    <glyph glyph-name="five.tf" horiz-adv-x="1433" d="M778 852q205 0 336 -86q73 -45 113.5 -133t40.5 -209q0 -228 -154.5 -341.5t-439.5 -113.5q-231 0 -346 84.5t-115 235.5q0 124 104 182q105 59 213 6q-108 -49 -108 -203q0 -98 66.5 -161.5t189.5 -63.5q147 0 242 92q98 94 98 256q0 169 -85 262t-253 93 q-84 0 -174 -19q-78 -17 -111 -28l-86 -37v796h744q61 0 85.5 13.5t53.5 66.5l41 -12l-53 -272h-774v-484q174 76 372 76z"/>
    <glyph glyph-name="six.tf" horiz-adv-x="1433" d="M893 846q173 0 295 -96q119 -94 119 -314q0 -225 -160 -346q-157 -121 -408 -121q-581 0 -581 758q0 339 168 549q171 213 491 213q201 0 322 -80.5t121 -226.5q0 -118 -101 -170q-97 -52 -221 -8q113 58 113 194q0 100 -65.5 155.5t-172.5 55.5q-195 0 -300 -171.5 t-105 -510.5q0 -101 6 -184q65 135 192.5 219t286.5 84zM739 55q145 0 234.5 99t89.5 270q0 311 -254 311q-126 0 -230 -83t-155 -214q26 -198 102 -290.5t213 -92.5z"/>
    <glyph glyph-name="seven.tf" horiz-adv-x="1433" d="M365 1464h931v-49q-240 -295 -370 -635q-129 -338 -117 -780h-291q79 709 578 1260h-633q-104 0 -154 -41q-46 -40 -102 -185l-39 8l70 492h43q4 -38 23.5 -54t60.5 -16z"/>
    <glyph glyph-name="eight.tf" horiz-adv-x="1433" d="M872 819q107 -54 167.5 -92t117.5 -90q117 -108 117 -281q0 -188 -147 -287.5t-433 -99.5q-536 0 -536 377q0 150 114 252q116 104 271 139q-303 169 -303 408q0 166 128 258t361 92q243 0 366.5 -85.5t123.5 -242.5q0 -240 -347 -348zM444 1194q0 -102 78 -174 q82 -73 264 -160h2q2 -2 5 -2q223 101 223 303q0 248 -291 248q-136 0 -208.5 -59t-72.5 -156zM694 55q169 0 271 63t102 187q0 125 -96 203q-98 79 -316 174l-32 14q-263 -130 -263 -354q0 -129 84.5 -208t249.5 -79z"/>
    <glyph glyph-name="nine.tf" horiz-adv-x="1433" d="M682 1495q592 0 592 -768q0 -371 -164.5 -563.5t-486.5 -192.5q-233 0 -356.5 82t-123.5 240q0 113 101 174q101 64 219 18q-105 -67 -105 -206q0 -104 75.5 -165t193.5 -61q197 0 296 160t99 514q0 101 -6 186q-68 -119 -199.5 -191.5t-284.5 -72.5q-183 0 -291 101.5 t-108 296.5q0 208 146 328t403 120zM618 760q124 0 228 70t160 182q-29 203 -108.5 300t-215.5 97q-150 0 -228.5 -92.5t-78.5 -255.5q0 -145 66 -223t177 -78z"/>
    <glyph glyph-name="zero.dnom" horiz-adv-x="976" d="M489 -29q-204 0 -311.5 123t-107.5 336t107.5 338t311.5 125q203 0 310.5 -124.5t107.5 -338.5q0 -212 -107.5 -335.5t-310.5 -123.5zM489 41q195 0 195 389q0 395 -195 395q-196 0 -196 -395q0 -389 196 -389z"/>
    <glyph glyph-name="one.dnom" horiz-adv-x="532" d="M379 889v-754q0 -52 24.5 -75.5t92.5 -30.5v-29h-461v29q81 7 111 30.5t30 75.5v635q-74 -51 -127 -51q-37 0 -47.5 38t10.5 79q54 -28 154 -13q107 16 180 66h33z"/>
    <glyph glyph-name="two.dnom" horiz-adv-x="835" d="M766 354l31 -8l-64 -387h-37q-8 25 -20 33t-43 8h-592v55q201 106 336 273q131 162 131 319q0 86 -39 135t-111 49q-74 0 -114.5 -42.5t-40.5 -112.5q0 -119 80 -166q-122 -36 -194.5 4t-72.5 141q0 109 97 175.5t258 66.5q173 0 266.5 -67t93.5 -195q0 -257 -469 -500 l227 21q108 12 168 47q60 39 109 151z"/>
    <glyph glyph-name="three.dnom" horiz-adv-x="839" d="M449 449q327 -21 327 -234q0 -242 -414 -242q-331 0 -331 205q0 84 68.5 123t166.5 14q-53 -47 -53 -131q0 -67 39 -106t110 -39q87 0 140 48.5t53 129.5q0 203 -262 203h-100v63h100q237 0 237 193q0 149 -145 149q-63 0 -101 -34t-38 -91q0 -71 55 -108 q-113 -34 -176.5 0t-63.5 108q0 89 88.5 140t251.5 51q353 0 353 -217q0 -195 -305 -225z"/>
    <glyph glyph-name="four.dnom" horiz-adv-x="909" d="M850 438l24 -8l-49 -268h-28q-9 45 -47 45h-66v-205h-215v205h-446v115l432 563h229v-561h14q52 0 84 23t68 91zM469 799l-365 -475h365v475z"/>
    <glyph glyph-name="five.dnom" horiz-adv-x="786" d="M410 506q333 0 333 -248q0 -283 -393 -283q-156 0 -235.5 51.5t-79.5 145.5q0 89 76 123q79 38 161 -14q-55 -27 -55 -119q0 -56 35.5 -90.5t101.5 -34.5q75 0 120.5 50t45.5 136q0 207 -211 207q-113 0 -209 -47v496h482q43 0 61.5 8.5t38.5 38.5l31 -11l-39 -219h-498 v-227q112 37 234 37z"/>
    <glyph glyph-name="six.dnom" horiz-adv-x="907" d="M588 516q121 0 195.5 -61.5t74.5 -188.5q0 -135 -103 -209.5t-282 -74.5q-393 0 -393 458q0 209 115 334t329 125q138 0 219.5 -48t81.5 -132q0 -86 -80 -121q-79 -34 -167 12q65 35 65 117q0 50 -34.5 78.5t-90.5 28.5q-102 0 -158.5 -100t-56.5 -294q0 -68 2 -86 q91 162 283 162zM471 51q77 0 121.5 52.5t44.5 148.5q0 174 -131 174q-60 0 -114 -42.5t-81 -107.5q21 -225 160 -225z"/>
    <glyph glyph-name="seven.dnom" horiz-adv-x="776" d="M186 883h580v-33q-106 -127 -164 -227q-64 -111 -100.5 -272.5t-30.5 -350.5h-254q68 406 371 700h-328q-72 0 -106 -24q-31 -19 -74 -107l-33 9l51 346h37q3 -41 51 -41z"/>
    <glyph glyph-name="eight.dnom" horiz-adv-x="798" d="M510 506q138 -65 199 -127t61 -154q0 -250 -381 -250q-360 0 -360 220q0 87 72 147.5t175 73.5q-198 104 -198 256q0 109 86 167t246 58q323 0 323 -188q0 -151 -223 -203zM403 831q-72 0 -111.5 -30t-39.5 -80q0 -55 44.5 -95.5t149.5 -90.5q119 55 119 163 q0 133 -162 133zM393 41q91 0 147 33t56 96q0 64 -55 108.5t-195 104.5l-27 12q-114 -77 -114 -194q0 -71 47.5 -115.5t140.5 -44.5z"/>
    <glyph glyph-name="nine.dnom" horiz-adv-x="931" d="M467 891q405 0 405 -463q0 -222 -111 -340.5t-329 -118.5q-159 0 -245.5 51.5t-86.5 145.5q0 80 72.5 116t169.5 1q-51 -39 -51 -123q0 -57 41 -92t104 -35q213 0 213 395q0 76 -2 94q-42 -69 -121 -109t-180 -40q-115 0 -184.5 62t-69.5 181q0 131 98.5 203t276.5 72z M438 465q65 0 119 35.5t84 93.5q-13 121 -56 175t-120 54t-117.5 -50.5t-40.5 -139.5q0 -81 34.5 -124.5t96.5 -43.5z"/>
    <glyph glyph-name="zero.numr" horiz-adv-x="976" d="M489 573q-204 0 -311.5 123t-107.5 336t107.5 338t311.5 125q203 0 310.5 -124.5t107.5 -338.5q0 -212 -107.5 -335.5t-310.5 -123.5zM489 643q195 0 195 389q0 395 -195 395q-196 0 -196 -395q0 -389 196 -389z"/>
    <glyph glyph-name="one.numr" horiz-adv-x="532" d="M379 1483v-754q0 -52 24.5 -75.5t92.5 -30.5v-29h-461v29q81 7 111 30.5t30 75.5v635q-74 -51 -127 -51q-37 0 -47.5 38t10.5 79q54 -28 154 -13q107 16 180 66h33z"/>
    <glyph glyph-name="two.numr" horiz-adv-x="835" d="M766 948l31 -8l-64 -387h-37q-8 25 -20 33t-43 8h-592v55q201 106 336 273q131 162 131 319q0 86 -39 135t-111 49q-74 0 -114.5 -42.5t-40.5 -112.5q0 -119 80 -166q-122 -36 -194.5 4t-72.5 141q0 109 97 175.5t258 66.5q173 0 266.5 -67t93.5 -195q0 -257 -469 -500 l227 21q108 12 168 47q60 39 109 151z"/>
    <glyph glyph-name="three.numr" horiz-adv-x="839" d="M449 1049q327 -21 327 -234q0 -242 -414 -242q-331 0 -331 205q0 84 68.5 123t166.5 14q-53 -47 -53 -131q0 -67 39 -106t110 -39q87 0 140 48.5t53 129.5q0 203 -262 203h-100v63h100q237 0 237 193q0 149 -145 149q-63 0 -101 -34t-38 -91q0 -71 55 -108 q-113 -34 -176.5 0t-63.5 108q0 89 88.5 140t251.5 51q353 0 353 -217q0 -195 -305 -225z"/>
    <glyph glyph-name="four.numr" horiz-adv-x="909" d="M850 1030l24 -8l-49 -268h-28q-9 45 -47 45h-66v-205h-215v205h-446v114l432 564h229v-562h14q52 0 84 23.5t68 91.5zM469 1391l-365 -476h365v476z"/>
    <glyph glyph-name="five.numr" horiz-adv-x="786" d="M410 1104q333 0 333 -248q0 -283 -393 -283q-156 0 -235.5 51.5t-79.5 145.5q0 89 76 123q79 38 161 -14q-55 -27 -55 -119q0 -56 35.5 -90.5t101.5 -34.5q75 0 120.5 50t45.5 136q0 207 -211 207q-113 0 -209 -47v496h482q43 0 61.5 8.5t38.5 38.5l31 -11l-39 -219h-498 v-227q112 37 234 37z"/>
    <glyph glyph-name="six.numr" horiz-adv-x="907" d="M588 1108q121 0 195.5 -61.5t74.5 -188.5q0 -135 -103 -210t-282 -75q-393 0 -393 459q0 209 115 334t329 125q138 0 219.5 -48t81.5 -132q0 -86 -80 -121q-79 -34 -167 12q65 35 65 117q0 50 -34 78t-91 28q-102 0 -158.5 -99.5t-56.5 -293.5q0 -68 2 -86 q91 162 283 162zM471 643q77 0 121.5 52.5t44.5 148.5q0 174 -131 174q-60 0 -114 -42.5t-81 -107.5q21 -225 160 -225z"/>
    <glyph glyph-name="seven.numr" horiz-adv-x="776" d="M186 1477h580v-33q-106 -127 -164 -227q-64 -111 -100.5 -272.5t-30.5 -350.5h-254q68 406 371 700h-328q-72 0 -106 -24q-31 -19 -74 -107l-33 8l51 347h37q3 -41 51 -41z"/>
    <glyph glyph-name="eight.numr" horiz-adv-x="798" d="M510 1104q138 -65 199 -127t61 -154q0 -250 -381 -250q-360 0 -360 220q0 87 72 147.5t175 73.5q-198 104 -198 256q0 109 86 167t246 58q323 0 323 -188q0 -151 -223 -203zM403 1430q-72 0 -111.5 -30t-39.5 -81q0 -55 44.5 -95.5t149.5 -90.5q119 55 119 163 q0 134 -162 134zM393 639q91 0 147 33t56 96q0 64 -55 108.5t-195 104.5l-27 12q-114 -77 -114 -194q0 -71 47.5 -115.5t140.5 -44.5z"/>
    <glyph glyph-name="nine.numr" horiz-adv-x="931" d="M467 1495q405 0 405 -463q0 -222 -111 -340.5t-329 -118.5q-159 0 -245.5 51.5t-86.5 145.5q0 80 72.5 116t169.5 1q-51 -39 -51 -123q0 -57 41 -92t104 -35q213 0 213 395q0 76 -2 94q-42 -69 -121 -109t-180 -40q-115 0 -184.5 62.5t-69.5 181.5q0 130 98 202t277 72z M438 1069q65 0 119 35.5t84 93.5q-13 121 -56 175t-120 54t-117.5 -50.5t-40.5 -139.5q0 -81 34.5 -124.5t96.5 -43.5z"/>
    <glyph glyph-name="caroncomb.alt" d="M-90 1305l-105 -320l-16 2v371q-9 170 90 170q76 0 76 -78q0 -59 -45 -145z"/>
    <glyph glyph-name="uni0308.case" d="M-582 1372q-38 -37 -94 -37t-94 37q-38 38 -38 94.5t38 94.5t94 38t94 -38t38 -94.5t-38 -94.5zM-98 1466q0 -54 -39 -92.5t-94 -38.5q-56 0 -95 38t-39 93t39 94t95 39q55 0 94 -38.5t39 -94.5z"/>
    <glyph glyph-name="uni0307.case" d="M-102 1354q-43 -41 -102.5 -41t-100.5 41q-43 43 -43 102.5t43 102.5q41 43 100.5 43t102.5 -43q41 -43 41 -102.5t-41 -102.5z"/>
    <glyph glyph-name="gravecomb.case" d="M-53 1292l-183 150q-100 63 -100 135q0 35 22.5 57.5t57.5 22.5q44 0 72.5 -31.5t48.5 -105.5l94 -217z"/>
    <glyph glyph-name="acutecomb.case" d="M-156 1442l-180 -150l-12 11l92 217q37 137 121 137q37 0 59.5 -22.5t22.5 -57.5q0 -70 -103 -135z"/>
    <glyph glyph-name="uni030B.case" d="M-420 1501l-112 -207l-17 4l4 236q-12 81 11 129.5t79 48.5q38 0 60 -23.5t22 -62.5q0 -51 -47 -125zM-137 1450l-182 -158l-13 11l105 241q37 123 116 123q37 0 59.5 -21.5t22.5 -56.5q0 -69 -108 -139z"/>
    <glyph glyph-name="caroncomb.alt.case" d="M-90 1350l-105 -322l-16 2v373q-5 88 15 128t75 40q76 0 76 -78q0 -57 -45 -143z"/>
    <glyph glyph-name="uni0302.case" d="M-188 1501l127 -190l-13 -13l-254 185l-258 -185l-12 13l127 190q40 72 70.5 101.5t70.5 29.5t69.5 -28.5t72.5 -102.5z"/>
    <glyph glyph-name="uni030C.case" d="M-328 1458l254 184l13 -12l-127 -190q-43 -74 -72.5 -102.5t-69.5 -28.5t-70.5 29.5t-70.5 101.5l-127 190l12 12z"/>
    <glyph glyph-name="uni0306.case" d="M-68 1624q-4 -143 -69.5 -220t-173.5 -77t-173 76.5t-71 220.5l18 2q47 -176 226 -176q178 0 225 176z"/>
    <glyph glyph-name="uni030A.case" d="M-276 1630q95 0 155 -49.5t60 -140.5q0 -93 -60 -143t-155 -50q-97 0 -157.5 50t-60.5 143q0 91 61 140.5t157 49.5zM-360 1352q31 -35 83.5 -35t83.5 35q29 35 29 88.5t-29 85.5q-31 35 -83.5 35t-83.5 -35q-31 -32 -31 -85.5t31 -88.5z"/>
    <glyph glyph-name="tildecomb.case" d="M-498 1499q-71 0 -135 -119l-18 6q23 116 72.5 175t117.5 59q59 0 135 -64q76 -61 121 -61q73 0 131 123l17 -6q-44 -234 -193 -234q-52 0 -127 60q-76 61 -121 61z"/>
    <glyph glyph-name="uni0304.case" d="M-63 1509h-609v78h609v-78z"/>
    <glyph glyph-name="uni0326.case" d="M-182 -100q57 0 92 -42t35 -116q0 -94 -61 -165t-171 -97l-14 35q71 24 111 79.5t40 120.5v9q-23 -13 -47 -13q-42 0 -67 25t-25 67q0 41 31 69t76 28z"/>
    <glyph glyph-name="uni0327.case" d="M-188 -100q153 0 153 -142q0 -80 -61 -125t-160 -45q-177 0 -276 129l10 13q92 -62 211 -62q143 0 143 90q0 70 -86 70q-44 0 -115 -21l19 203h67l-8 -125q49 15 103 15z"/>
    <glyph glyph-name="uni0328.case" d="M-63 27l16 -27q-101 -43 -162 -115.5t-61 -142.5q0 -72 65 -72q68 0 137 54l11 -13q-77 -135 -236 -135q-125 0 -125 121q0 102 94 189t261 141z"/>
    </font>
</defs>
</svg>
